G75*
%MOIN*%
%OFA0B0*%
%FSLAX25Y25*%
%IPPOS*%
%LPD*%
%AMOC8*
5,1,8,0,0,1.08239X$1,22.5*
%
%ADD10C,0.00600*%
D10*
X0032595Y0038933D02*
X0032595Y0308933D01*
X0032599Y0309295D01*
X0032613Y0309658D01*
X0032634Y0310020D01*
X0032665Y0310381D01*
X0032704Y0310741D01*
X0032752Y0311100D01*
X0032809Y0311458D01*
X0032874Y0311815D01*
X0032948Y0312170D01*
X0033031Y0312523D01*
X0033122Y0312874D01*
X0033221Y0313222D01*
X0033329Y0313568D01*
X0033445Y0313912D01*
X0033570Y0314252D01*
X0033702Y0314589D01*
X0033843Y0314923D01*
X0033992Y0315254D01*
X0034149Y0315581D01*
X0034313Y0315904D01*
X0034485Y0316223D01*
X0034665Y0316537D01*
X0034853Y0316848D01*
X0035048Y0317153D01*
X0035250Y0317454D01*
X0035460Y0317750D01*
X0035676Y0318040D01*
X0035900Y0318326D01*
X0036130Y0318606D01*
X0036367Y0318880D01*
X0036611Y0319148D01*
X0036861Y0319411D01*
X0037117Y0319667D01*
X0037380Y0319917D01*
X0037648Y0320161D01*
X0037922Y0320398D01*
X0038202Y0320628D01*
X0038488Y0320852D01*
X0038778Y0321068D01*
X0039074Y0321278D01*
X0039375Y0321480D01*
X0039680Y0321675D01*
X0039991Y0321863D01*
X0040305Y0322043D01*
X0040624Y0322215D01*
X0040947Y0322379D01*
X0041274Y0322536D01*
X0041605Y0322685D01*
X0041939Y0322826D01*
X0042276Y0322958D01*
X0042616Y0323083D01*
X0042960Y0323199D01*
X0043306Y0323307D01*
X0043654Y0323406D01*
X0044005Y0323497D01*
X0044358Y0323580D01*
X0044713Y0323654D01*
X0045070Y0323719D01*
X0045428Y0323776D01*
X0045787Y0323824D01*
X0046147Y0323863D01*
X0046508Y0323894D01*
X0046870Y0323915D01*
X0047233Y0323929D01*
X0047595Y0323933D01*
X0392595Y0323933D01*
X0392957Y0323929D01*
X0393320Y0323915D01*
X0393682Y0323894D01*
X0394043Y0323863D01*
X0394403Y0323824D01*
X0394762Y0323776D01*
X0395120Y0323719D01*
X0395477Y0323654D01*
X0395832Y0323580D01*
X0396185Y0323497D01*
X0396536Y0323406D01*
X0396884Y0323307D01*
X0397230Y0323199D01*
X0397574Y0323083D01*
X0397914Y0322958D01*
X0398251Y0322826D01*
X0398585Y0322685D01*
X0398916Y0322536D01*
X0399243Y0322379D01*
X0399566Y0322215D01*
X0399885Y0322043D01*
X0400199Y0321863D01*
X0400510Y0321675D01*
X0400815Y0321480D01*
X0401116Y0321278D01*
X0401412Y0321068D01*
X0401702Y0320852D01*
X0401988Y0320628D01*
X0402268Y0320398D01*
X0402542Y0320161D01*
X0402810Y0319917D01*
X0403073Y0319667D01*
X0403329Y0319411D01*
X0403579Y0319148D01*
X0403823Y0318880D01*
X0404060Y0318606D01*
X0404290Y0318326D01*
X0404514Y0318040D01*
X0404730Y0317750D01*
X0404940Y0317454D01*
X0405142Y0317153D01*
X0405337Y0316848D01*
X0405525Y0316537D01*
X0405705Y0316223D01*
X0405877Y0315904D01*
X0406041Y0315581D01*
X0406198Y0315254D01*
X0406347Y0314923D01*
X0406488Y0314589D01*
X0406620Y0314252D01*
X0406745Y0313912D01*
X0406861Y0313568D01*
X0406969Y0313222D01*
X0407068Y0312874D01*
X0407159Y0312523D01*
X0407242Y0312170D01*
X0407316Y0311815D01*
X0407381Y0311458D01*
X0407438Y0311100D01*
X0407486Y0310741D01*
X0407525Y0310381D01*
X0407556Y0310020D01*
X0407577Y0309658D01*
X0407591Y0309295D01*
X0407595Y0308933D01*
X0407595Y0038933D01*
X0407591Y0038571D01*
X0407577Y0038208D01*
X0407556Y0037846D01*
X0407525Y0037485D01*
X0407486Y0037125D01*
X0407438Y0036766D01*
X0407381Y0036408D01*
X0407316Y0036051D01*
X0407242Y0035696D01*
X0407159Y0035343D01*
X0407068Y0034992D01*
X0406969Y0034644D01*
X0406861Y0034298D01*
X0406745Y0033954D01*
X0406620Y0033614D01*
X0406488Y0033277D01*
X0406347Y0032943D01*
X0406198Y0032612D01*
X0406041Y0032285D01*
X0405877Y0031962D01*
X0405705Y0031643D01*
X0405525Y0031329D01*
X0405337Y0031018D01*
X0405142Y0030713D01*
X0404940Y0030412D01*
X0404730Y0030116D01*
X0404514Y0029826D01*
X0404290Y0029540D01*
X0404060Y0029260D01*
X0403823Y0028986D01*
X0403579Y0028718D01*
X0403329Y0028455D01*
X0403073Y0028199D01*
X0402810Y0027949D01*
X0402542Y0027705D01*
X0402268Y0027468D01*
X0401988Y0027238D01*
X0401702Y0027014D01*
X0401412Y0026798D01*
X0401116Y0026588D01*
X0400815Y0026386D01*
X0400510Y0026191D01*
X0400199Y0026003D01*
X0399885Y0025823D01*
X0399566Y0025651D01*
X0399243Y0025487D01*
X0398916Y0025330D01*
X0398585Y0025181D01*
X0398251Y0025040D01*
X0397914Y0024908D01*
X0397574Y0024783D01*
X0397230Y0024667D01*
X0396884Y0024559D01*
X0396536Y0024460D01*
X0396185Y0024369D01*
X0395832Y0024286D01*
X0395477Y0024212D01*
X0395120Y0024147D01*
X0394762Y0024090D01*
X0394403Y0024042D01*
X0394043Y0024003D01*
X0393682Y0023972D01*
X0393320Y0023951D01*
X0392957Y0023937D01*
X0392595Y0023933D01*
X0047595Y0023933D01*
X0047233Y0023937D01*
X0046870Y0023951D01*
X0046508Y0023972D01*
X0046147Y0024003D01*
X0045787Y0024042D01*
X0045428Y0024090D01*
X0045070Y0024147D01*
X0044713Y0024212D01*
X0044358Y0024286D01*
X0044005Y0024369D01*
X0043654Y0024460D01*
X0043306Y0024559D01*
X0042960Y0024667D01*
X0042616Y0024783D01*
X0042276Y0024908D01*
X0041939Y0025040D01*
X0041605Y0025181D01*
X0041274Y0025330D01*
X0040947Y0025487D01*
X0040624Y0025651D01*
X0040305Y0025823D01*
X0039991Y0026003D01*
X0039680Y0026191D01*
X0039375Y0026386D01*
X0039074Y0026588D01*
X0038778Y0026798D01*
X0038488Y0027014D01*
X0038202Y0027238D01*
X0037922Y0027468D01*
X0037648Y0027705D01*
X0037380Y0027949D01*
X0037117Y0028199D01*
X0036861Y0028455D01*
X0036611Y0028718D01*
X0036367Y0028986D01*
X0036130Y0029260D01*
X0035900Y0029540D01*
X0035676Y0029826D01*
X0035460Y0030116D01*
X0035250Y0030412D01*
X0035048Y0030713D01*
X0034853Y0031018D01*
X0034665Y0031329D01*
X0034485Y0031643D01*
X0034313Y0031962D01*
X0034149Y0032285D01*
X0033992Y0032612D01*
X0033843Y0032943D01*
X0033702Y0033277D01*
X0033570Y0033614D01*
X0033445Y0033954D01*
X0033329Y0034298D01*
X0033221Y0034644D01*
X0033122Y0034992D01*
X0033031Y0035343D01*
X0032948Y0035696D01*
X0032874Y0036051D01*
X0032809Y0036408D01*
X0032752Y0036766D01*
X0032704Y0037125D01*
X0032665Y0037485D01*
X0032634Y0037846D01*
X0032613Y0038208D01*
X0032599Y0038571D01*
X0032595Y0038933D01*
M02*
