%
M48
M72
T01C0.02362
T02C0.04000
T03C0.12598
T04C0.12992
%
T01
X382595Y310183
X397595Y38933
X392595Y38933
X397595Y33933
X392595Y33933
X57595Y98933
X65095Y98933
X72595Y106433
X75095Y113933
X72595Y118933
X67595Y126433
X70095Y136433
X62595Y138933
X57595Y138933
X52595Y138933
X45095Y126433
X62595Y116433
X47595Y111433
X82595Y128933
X92595Y118933
X92595Y113933
X87595Y113933
X87595Y108933
X92595Y108933
X97595Y108933
X97595Y113933
X97595Y118933
X97595Y123933
X162595Y123933
X167595Y123933
X178845Y133933
X191345Y133933
X203845Y133933
X216345Y133933
X210095Y148933
X197595Y148933
X185095Y148933
X172595Y148933
X172595Y163933
X178845Y163933
X185095Y163933
X191345Y163933
X197595Y163933
X203845Y163933
X210095Y163933
X216345Y163933
X222595Y163933
X238845Y157683
X243845Y162683
X248845Y167683
X253845Y172683
X222595Y148933
X257595Y118933
X262595Y118933
X267595Y118933
X237595Y96433
X237595Y91433
X237595Y86433
X232595Y86433
X232595Y81433
X232595Y76433
X237595Y76433
X237595Y81433
X247595Y78933
X252595Y76433
X257595Y76433
X252595Y88933
X247595Y88933
X220095Y78933
X220095Y73933
X210095Y71433
X213845Y58933
X222595Y63933
X227595Y63933
X232595Y63933
X237595Y63933
X237595Y58933
X192595Y48933
X182595Y63933
X177595Y63933
X177595Y68933
X177595Y73933
X182595Y73933
X182595Y68933
X193845Y76433
X182595Y78933
X172595Y78933
X167595Y78933
X167595Y83933
X162595Y83933
X162595Y88933
X162595Y93933
X167595Y88933
X172595Y83933
X192595Y93933
X187595Y113933
X287595Y43933
X302595Y71433
X330095Y86433
X335095Y86433
X337595Y76433
X342595Y76433
X347595Y86433
X335095Y98933
X330095Y96433
X322595Y98933
X340095Y111433
X330095Y128933
X335095Y143933
X362595Y138933
X377595Y143933
X382595Y143933
X387595Y143933
X392595Y143933
X392595Y123933
X387595Y123933
X382595Y123933
X377595Y123933
X375095Y96433
X375095Y91433
X392595Y83933
X392595Y78933
X400095Y78933
X380095Y61433
X367595Y43933
X332595Y58933
X403845Y188933
X350095Y202683
X327595Y221433
X332595Y228933
X322595Y231433
X317595Y231433
X312595Y231433
X307595Y231433
X302595Y231433
X297595Y231433
X292595Y226433
X291345Y212683
X298845Y198933
X277595Y198933
X272595Y198933
X267595Y198933
X267595Y213933
X272595Y213933
X275095Y220183
X267595Y228933
X267595Y233933
X267595Y243933
X282595Y253933
X285095Y261433
X290095Y261433
X290095Y256433
X295095Y256433
X295095Y261433
X300095Y261433
X300095Y256433
X305095Y256433
X305095Y261433
X310095Y261433
X310095Y256433
X315095Y256433
X315095Y261433
X320095Y261433
X320095Y256433
X325095Y256433
X325095Y261433
X330095Y261433
X330095Y256433
X335095Y261433
X335095Y266433
X335095Y271433
X330095Y271433
X325095Y271433
X325095Y266433
X330095Y266433
X330095Y276433
X325095Y276433
X325095Y281433
X330095Y281433
X330095Y286433
X325095Y286433
X325095Y291433
X330095Y291433
X330095Y296433
X325095Y296433
X320095Y296433
X315095Y296433
X310095Y296433
X310095Y301433
X310095Y306433
X315095Y306433
X315095Y301433
X320095Y301433
X320095Y306433
X325095Y306433
X325095Y301433
X330095Y301433
X330095Y306433
X335095Y306433
X335095Y301433
X335095Y296433
X335095Y291433
X335095Y286433
X335095Y281433
X335095Y276433
X355095Y278933
X355095Y253933
X360095Y248933
X365095Y248933
X370095Y248933
X350095Y238933
X403845Y258933
X403845Y298933
X305095Y296433
X300095Y296433
X295095Y296433
X290095Y296433
X285095Y296433
X285095Y301433
X285095Y306433
X290095Y306433
X290095Y301433
X295095Y301433
X295095Y306433
X300095Y306433
X300095Y301433
X305095Y301433
X305095Y306433
X295095Y291433
X290095Y291433
X285095Y291433
X285095Y286433
X290095Y286433
X295095Y286433
X295095Y281433
X290095Y281433
X285095Y281433
X285095Y276433
X290095Y276433
X295095Y276433
X295095Y271433
X290095Y271433
X285095Y271433
X285095Y266433
X290095Y266433
X295095Y266433
X287595Y246433
X260095Y258933
X255095Y258933
X250095Y268933
X245095Y268933
X240095Y268933
X235095Y271433
X230095Y273933
X217595Y271433
X217595Y263933
X222595Y253933
X217595Y243933
X220095Y223933
X216345Y208933
X207595Y203933
X265095Y271433
X250095Y278933
X245095Y283933
X240095Y288933
X235095Y293933
X217595Y293933
X217595Y298933
X217595Y303933
X217595Y308933
X217595Y313933
X242595Y313933
X217595Y288933
T02
X92595Y48933
X92595Y58933
X92595Y68933
X112595Y68933
X112595Y58933
X112595Y48933
X172595Y48933
X172595Y38933
X187595Y38933
X187595Y48933
X217595Y48933
X217595Y38933
X232595Y38933
X232595Y48933
X317595Y113933
X317595Y123933
X317595Y133933
X287595Y133933
X277595Y133933
X377595Y153933
X387595Y153933
X387595Y163933
X377595Y163933
X377595Y173933
X377595Y183933
X387595Y183933
X387595Y173933
X387595Y193933
X377595Y193933
X377595Y203933
X387595Y203933
X387595Y213933
X377595Y213933
X377595Y223933
X387595Y223933
X387595Y233933
X377595Y233933
X377595Y243933
X387595Y243933
X387595Y253933
X377595Y253933
X377595Y263933
X387595Y263933
X387595Y273933
X377595Y273933
X377595Y283933
X387595Y283933
X387595Y293933
X377595Y293933
X377595Y303933
X387595Y303933
T03
X137595Y54622
T04
X137595Y78244
X156493Y66433
M30
