G75*
%MOIN*%
%OFA0B0*%
%FSLAX25Y25*%
%IPPOS*%
%LPD*%
%AMOC8*
5,1,8,0,0,1.08239X$1,22.5*
%
%ADD10C,0.00600*%
%ADD11C,0.01000*%
%ADD12C,0.01100*%
%ADD13R,0.02500X0.02500*%
%ADD14C,0.00276*%
%ADD15C,0.00800*%
%ADD16C,0.00500*%
%ADD17R,0.02000X0.14000*%
%ADD18C,0.00394*%
%ADD19C,0.00197*%
%ADD20R,0.01575X0.03937*%
%ADD21R,0.03937X0.01575*%
%ADD22C,0.01600*%
D10*
X0032595Y0038933D02*
X0032595Y0308933D01*
X0045293Y0296488D02*
X0044893Y0296087D01*
X0044893Y0295287D01*
X0045293Y0294886D01*
X0045293Y0296488D02*
X0045694Y0296488D01*
X0047295Y0294886D01*
X0047295Y0296488D01*
X0047295Y0293725D02*
X0047295Y0292124D01*
X0047295Y0292925D02*
X0044893Y0292925D01*
X0045694Y0292124D01*
X0045293Y0290963D02*
X0044893Y0290563D01*
X0044893Y0289762D01*
X0045293Y0289362D01*
X0046895Y0289362D01*
X0047295Y0289762D01*
X0047295Y0290563D01*
X0046895Y0290963D01*
X0045293Y0290963D01*
X0044893Y0288321D02*
X0044893Y0287520D01*
X0044893Y0287920D02*
X0047295Y0287920D01*
X0047295Y0287520D02*
X0047295Y0288321D01*
X0044893Y0286359D02*
X0047295Y0284758D01*
X0046895Y0283597D02*
X0047295Y0283196D01*
X0047295Y0282396D01*
X0046895Y0281995D01*
X0046094Y0281995D02*
X0045694Y0282796D01*
X0045694Y0283196D01*
X0046094Y0283597D01*
X0046895Y0283597D01*
X0046094Y0281995D02*
X0044893Y0281995D01*
X0044893Y0283597D01*
X0044893Y0280834D02*
X0044893Y0279233D01*
X0044893Y0280034D02*
X0047295Y0280034D01*
X0032595Y0308933D02*
X0032599Y0309295D01*
X0032613Y0309658D01*
X0032634Y0310020D01*
X0032665Y0310381D01*
X0032704Y0310741D01*
X0032752Y0311100D01*
X0032809Y0311458D01*
X0032874Y0311815D01*
X0032948Y0312170D01*
X0033031Y0312523D01*
X0033122Y0312874D01*
X0033221Y0313222D01*
X0033329Y0313568D01*
X0033445Y0313912D01*
X0033570Y0314252D01*
X0033702Y0314589D01*
X0033843Y0314923D01*
X0033992Y0315254D01*
X0034149Y0315581D01*
X0034313Y0315904D01*
X0034485Y0316223D01*
X0034665Y0316537D01*
X0034853Y0316848D01*
X0035048Y0317153D01*
X0035250Y0317454D01*
X0035460Y0317750D01*
X0035676Y0318040D01*
X0035900Y0318326D01*
X0036130Y0318606D01*
X0036367Y0318880D01*
X0036611Y0319148D01*
X0036861Y0319411D01*
X0037117Y0319667D01*
X0037380Y0319917D01*
X0037648Y0320161D01*
X0037922Y0320398D01*
X0038202Y0320628D01*
X0038488Y0320852D01*
X0038778Y0321068D01*
X0039074Y0321278D01*
X0039375Y0321480D01*
X0039680Y0321675D01*
X0039991Y0321863D01*
X0040305Y0322043D01*
X0040624Y0322215D01*
X0040947Y0322379D01*
X0041274Y0322536D01*
X0041605Y0322685D01*
X0041939Y0322826D01*
X0042276Y0322958D01*
X0042616Y0323083D01*
X0042960Y0323199D01*
X0043306Y0323307D01*
X0043654Y0323406D01*
X0044005Y0323497D01*
X0044358Y0323580D01*
X0044713Y0323654D01*
X0045070Y0323719D01*
X0045428Y0323776D01*
X0045787Y0323824D01*
X0046147Y0323863D01*
X0046508Y0323894D01*
X0046870Y0323915D01*
X0047233Y0323929D01*
X0047595Y0323933D01*
X0392595Y0323933D01*
X0392957Y0323929D01*
X0393320Y0323915D01*
X0393682Y0323894D01*
X0394043Y0323863D01*
X0394403Y0323824D01*
X0394762Y0323776D01*
X0395120Y0323719D01*
X0395477Y0323654D01*
X0395832Y0323580D01*
X0396185Y0323497D01*
X0396536Y0323406D01*
X0396884Y0323307D01*
X0397230Y0323199D01*
X0397574Y0323083D01*
X0397914Y0322958D01*
X0398251Y0322826D01*
X0398585Y0322685D01*
X0398916Y0322536D01*
X0399243Y0322379D01*
X0399566Y0322215D01*
X0399885Y0322043D01*
X0400199Y0321863D01*
X0400510Y0321675D01*
X0400815Y0321480D01*
X0401116Y0321278D01*
X0401412Y0321068D01*
X0401702Y0320852D01*
X0401988Y0320628D01*
X0402268Y0320398D01*
X0402542Y0320161D01*
X0402810Y0319917D01*
X0403073Y0319667D01*
X0403329Y0319411D01*
X0403579Y0319148D01*
X0403823Y0318880D01*
X0404060Y0318606D01*
X0404290Y0318326D01*
X0404514Y0318040D01*
X0404730Y0317750D01*
X0404940Y0317454D01*
X0405142Y0317153D01*
X0405337Y0316848D01*
X0405525Y0316537D01*
X0405705Y0316223D01*
X0405877Y0315904D01*
X0406041Y0315581D01*
X0406198Y0315254D01*
X0406347Y0314923D01*
X0406488Y0314589D01*
X0406620Y0314252D01*
X0406745Y0313912D01*
X0406861Y0313568D01*
X0406969Y0313222D01*
X0407068Y0312874D01*
X0407159Y0312523D01*
X0407242Y0312170D01*
X0407316Y0311815D01*
X0407381Y0311458D01*
X0407438Y0311100D01*
X0407486Y0310741D01*
X0407525Y0310381D01*
X0407556Y0310020D01*
X0407577Y0309658D01*
X0407591Y0309295D01*
X0407595Y0308933D01*
X0407595Y0038933D01*
X0407591Y0038571D01*
X0407577Y0038208D01*
X0407556Y0037846D01*
X0407525Y0037485D01*
X0407486Y0037125D01*
X0407438Y0036766D01*
X0407381Y0036408D01*
X0407316Y0036051D01*
X0407242Y0035696D01*
X0407159Y0035343D01*
X0407068Y0034992D01*
X0406969Y0034644D01*
X0406861Y0034298D01*
X0406745Y0033954D01*
X0406620Y0033614D01*
X0406488Y0033277D01*
X0406347Y0032943D01*
X0406198Y0032612D01*
X0406041Y0032285D01*
X0405877Y0031962D01*
X0405705Y0031643D01*
X0405525Y0031329D01*
X0405337Y0031018D01*
X0405142Y0030713D01*
X0404940Y0030412D01*
X0404730Y0030116D01*
X0404514Y0029826D01*
X0404290Y0029540D01*
X0404060Y0029260D01*
X0403823Y0028986D01*
X0403579Y0028718D01*
X0403329Y0028455D01*
X0403073Y0028199D01*
X0402810Y0027949D01*
X0402542Y0027705D01*
X0402268Y0027468D01*
X0401988Y0027238D01*
X0401702Y0027014D01*
X0401412Y0026798D01*
X0401116Y0026588D01*
X0400815Y0026386D01*
X0400510Y0026191D01*
X0400199Y0026003D01*
X0399885Y0025823D01*
X0399566Y0025651D01*
X0399243Y0025487D01*
X0398916Y0025330D01*
X0398585Y0025181D01*
X0398251Y0025040D01*
X0397914Y0024908D01*
X0397574Y0024783D01*
X0397230Y0024667D01*
X0396884Y0024559D01*
X0396536Y0024460D01*
X0396185Y0024369D01*
X0395832Y0024286D01*
X0395477Y0024212D01*
X0395120Y0024147D01*
X0394762Y0024090D01*
X0394403Y0024042D01*
X0394043Y0024003D01*
X0393682Y0023972D01*
X0393320Y0023951D01*
X0392957Y0023937D01*
X0392595Y0023933D01*
X0047595Y0023933D01*
X0047233Y0023937D01*
X0046870Y0023951D01*
X0046508Y0023972D01*
X0046147Y0024003D01*
X0045787Y0024042D01*
X0045428Y0024090D01*
X0045070Y0024147D01*
X0044713Y0024212D01*
X0044358Y0024286D01*
X0044005Y0024369D01*
X0043654Y0024460D01*
X0043306Y0024559D01*
X0042960Y0024667D01*
X0042616Y0024783D01*
X0042276Y0024908D01*
X0041939Y0025040D01*
X0041605Y0025181D01*
X0041274Y0025330D01*
X0040947Y0025487D01*
X0040624Y0025651D01*
X0040305Y0025823D01*
X0039991Y0026003D01*
X0039680Y0026191D01*
X0039375Y0026386D01*
X0039074Y0026588D01*
X0038778Y0026798D01*
X0038488Y0027014D01*
X0038202Y0027238D01*
X0037922Y0027468D01*
X0037648Y0027705D01*
X0037380Y0027949D01*
X0037117Y0028199D01*
X0036861Y0028455D01*
X0036611Y0028718D01*
X0036367Y0028986D01*
X0036130Y0029260D01*
X0035900Y0029540D01*
X0035676Y0029826D01*
X0035460Y0030116D01*
X0035250Y0030412D01*
X0035048Y0030713D01*
X0034853Y0031018D01*
X0034665Y0031329D01*
X0034485Y0031643D01*
X0034313Y0031962D01*
X0034149Y0032285D01*
X0033992Y0032612D01*
X0033843Y0032943D01*
X0033702Y0033277D01*
X0033570Y0033614D01*
X0033445Y0033954D01*
X0033329Y0034298D01*
X0033221Y0034644D01*
X0033122Y0034992D01*
X0033031Y0035343D01*
X0032948Y0035696D01*
X0032874Y0036051D01*
X0032809Y0036408D01*
X0032752Y0036766D01*
X0032704Y0037125D01*
X0032665Y0037485D01*
X0032634Y0037846D01*
X0032613Y0038208D01*
X0032599Y0038571D01*
X0032595Y0038933D01*
X0047796Y0042027D02*
X0047796Y0044629D01*
X0049097Y0044629D01*
X0049531Y0044196D01*
X0049531Y0043328D01*
X0049097Y0042895D01*
X0047796Y0042895D01*
X0048663Y0042895D02*
X0049531Y0042027D01*
X0050742Y0042027D02*
X0052477Y0042027D01*
X0051610Y0042027D02*
X0051610Y0044629D01*
X0050742Y0043762D01*
X0053689Y0044196D02*
X0054122Y0044629D01*
X0054990Y0044629D01*
X0055424Y0044196D01*
X0055424Y0043762D01*
X0054990Y0043328D01*
X0055424Y0042895D01*
X0055424Y0042461D01*
X0054990Y0042027D01*
X0054122Y0042027D01*
X0053689Y0042461D01*
X0054556Y0043328D02*
X0054990Y0043328D01*
X0055424Y0052027D02*
X0053689Y0052027D01*
X0055424Y0053762D01*
X0055424Y0054196D01*
X0054990Y0054629D01*
X0054122Y0054629D01*
X0053689Y0054196D01*
X0051610Y0054629D02*
X0051610Y0052027D01*
X0052477Y0052027D02*
X0050742Y0052027D01*
X0049531Y0052027D02*
X0048663Y0052895D01*
X0049097Y0052895D02*
X0047796Y0052895D01*
X0047796Y0052027D02*
X0047796Y0054629D01*
X0049097Y0054629D01*
X0049531Y0054196D01*
X0049531Y0053328D01*
X0049097Y0052895D01*
X0050742Y0053762D02*
X0051610Y0054629D01*
X0051610Y0063277D02*
X0051610Y0065879D01*
X0050742Y0065012D01*
X0049531Y0065446D02*
X0049531Y0064578D01*
X0049097Y0064145D01*
X0047796Y0064145D01*
X0048663Y0064145D02*
X0049531Y0063277D01*
X0050742Y0063277D02*
X0052477Y0063277D01*
X0053689Y0063711D02*
X0055424Y0065446D01*
X0055424Y0063711D01*
X0054990Y0063277D01*
X0054122Y0063277D01*
X0053689Y0063711D01*
X0053689Y0065446D01*
X0054122Y0065879D01*
X0054990Y0065879D01*
X0055424Y0065446D01*
X0049531Y0065446D02*
X0049097Y0065879D01*
X0047796Y0065879D01*
X0047796Y0063277D01*
X0050841Y0073080D02*
X0051709Y0073080D01*
X0052142Y0073514D01*
X0053354Y0073514D02*
X0053788Y0073080D01*
X0054655Y0073080D01*
X0055089Y0073514D01*
X0055089Y0075249D01*
X0054655Y0075683D01*
X0053788Y0075683D01*
X0053354Y0075249D01*
X0053354Y0074815D01*
X0053788Y0074381D01*
X0055089Y0074381D01*
X0052142Y0075249D02*
X0051709Y0075683D01*
X0050841Y0075683D01*
X0050408Y0075249D01*
X0050408Y0073514D01*
X0050841Y0073080D01*
X0046555Y0080393D02*
X0045687Y0080393D01*
X0045254Y0080827D01*
X0046121Y0081694D02*
X0046555Y0081694D01*
X0046989Y0081261D01*
X0046989Y0080827D01*
X0046555Y0080393D01*
X0046555Y0081694D02*
X0046989Y0082128D01*
X0046989Y0082562D01*
X0046555Y0082996D01*
X0045687Y0082996D01*
X0045254Y0082562D01*
X0044042Y0082996D02*
X0043175Y0082996D01*
X0043608Y0082996D02*
X0043608Y0080827D01*
X0043175Y0080393D01*
X0042741Y0080393D01*
X0042307Y0080827D01*
X0075296Y0065879D02*
X0075296Y0063277D01*
X0075296Y0064145D02*
X0076597Y0064145D01*
X0077031Y0064578D01*
X0077031Y0065446D01*
X0076597Y0065879D01*
X0075296Y0065879D01*
X0076163Y0064145D02*
X0077031Y0063277D01*
X0078242Y0063277D02*
X0079977Y0063277D01*
X0079110Y0063277D02*
X0079110Y0065879D01*
X0078242Y0065012D01*
X0081189Y0065012D02*
X0082056Y0065879D01*
X0082056Y0063277D01*
X0081189Y0063277D02*
X0082924Y0063277D01*
X0087595Y0061433D02*
X0090095Y0063933D01*
X0087595Y0066433D01*
X0087595Y0071433D01*
X0090095Y0073933D01*
X0095095Y0073933D01*
X0097595Y0071433D01*
X0097595Y0066433D01*
X0095095Y0063933D01*
X0097595Y0061433D01*
X0097595Y0056433D01*
X0095095Y0053933D01*
X0097595Y0051433D01*
X0097595Y0046433D01*
X0095095Y0043933D01*
X0090095Y0043933D01*
X0087595Y0046433D01*
X0087595Y0051433D01*
X0090095Y0053933D01*
X0087595Y0056433D01*
X0087595Y0061433D01*
X0090095Y0063933D02*
X0095095Y0063933D01*
X0095095Y0053933D02*
X0090095Y0053933D01*
X0082924Y0054578D02*
X0081189Y0054578D01*
X0082490Y0055879D01*
X0082490Y0053277D01*
X0079977Y0053277D02*
X0078242Y0053277D01*
X0079110Y0053277D02*
X0079110Y0055879D01*
X0078242Y0055012D01*
X0077031Y0055446D02*
X0077031Y0054578D01*
X0076597Y0054145D01*
X0075296Y0054145D01*
X0076163Y0054145D02*
X0077031Y0053277D01*
X0075296Y0053277D02*
X0075296Y0055879D01*
X0076597Y0055879D01*
X0077031Y0055446D01*
X0076597Y0044629D02*
X0075296Y0044629D01*
X0075296Y0042027D01*
X0075296Y0042895D02*
X0076597Y0042895D01*
X0077031Y0043328D01*
X0077031Y0044196D01*
X0076597Y0044629D01*
X0076163Y0042895D02*
X0077031Y0042027D01*
X0078242Y0042027D02*
X0079977Y0042027D01*
X0079110Y0042027D02*
X0079110Y0044629D01*
X0078242Y0043762D01*
X0081189Y0043328D02*
X0081189Y0044629D01*
X0082924Y0044629D01*
X0082490Y0043762D02*
X0082924Y0043328D01*
X0082924Y0042461D01*
X0082490Y0042027D01*
X0081622Y0042027D01*
X0081189Y0042461D01*
X0081189Y0043328D02*
X0082056Y0043762D01*
X0082490Y0043762D01*
X0092091Y0036534D02*
X0092525Y0036968D01*
X0093826Y0036968D01*
X0093826Y0037835D02*
X0093826Y0035233D01*
X0092525Y0035233D01*
X0092091Y0035667D01*
X0092091Y0036534D01*
X0095038Y0036968D02*
X0095471Y0036968D01*
X0095471Y0035233D01*
X0095038Y0035233D02*
X0095905Y0035233D01*
X0097002Y0035233D02*
X0098303Y0035233D01*
X0098737Y0035667D01*
X0098303Y0036100D01*
X0097436Y0036100D01*
X0097002Y0036534D01*
X0097436Y0036968D01*
X0098737Y0036968D01*
X0100382Y0036968D02*
X0101250Y0036968D01*
X0101683Y0036534D01*
X0101683Y0035233D01*
X0100382Y0035233D01*
X0099949Y0035667D01*
X0100382Y0036100D01*
X0101683Y0036100D01*
X0102895Y0035233D02*
X0102895Y0037835D01*
X0102895Y0036968D02*
X0104196Y0036968D01*
X0104630Y0036534D01*
X0104630Y0035667D01*
X0104196Y0035233D01*
X0102895Y0035233D01*
X0105842Y0035233D02*
X0106709Y0035233D01*
X0106275Y0035233D02*
X0106275Y0037835D01*
X0105842Y0037835D01*
X0106333Y0039166D02*
X0106333Y0041768D01*
X0107634Y0041768D01*
X0108068Y0041334D01*
X0108068Y0040467D01*
X0107634Y0040033D01*
X0106333Y0040033D01*
X0105121Y0040033D02*
X0105121Y0041768D01*
X0103386Y0041768D02*
X0103386Y0040467D01*
X0103820Y0040033D01*
X0105121Y0040033D01*
X0102289Y0040033D02*
X0101422Y0040033D01*
X0101856Y0040033D02*
X0101856Y0042635D01*
X0101422Y0042635D01*
X0099891Y0042635D02*
X0099891Y0040033D01*
X0099458Y0040033D02*
X0100325Y0040033D01*
X0098246Y0040033D02*
X0098246Y0041768D01*
X0099458Y0042635D02*
X0099891Y0042635D01*
X0098246Y0040033D02*
X0096945Y0040033D01*
X0096511Y0040467D01*
X0096511Y0041768D01*
X0095299Y0041334D02*
X0095299Y0040467D01*
X0094866Y0040033D01*
X0093564Y0040033D01*
X0093564Y0039166D02*
X0093564Y0041768D01*
X0094866Y0041768D01*
X0095299Y0041334D01*
X0095471Y0038269D02*
X0095471Y0037835D01*
X0107806Y0036534D02*
X0108240Y0036968D01*
X0109107Y0036968D01*
X0109541Y0036534D01*
X0109541Y0036100D01*
X0107806Y0036100D01*
X0107806Y0035667D02*
X0107806Y0036534D01*
X0107806Y0035667D02*
X0108240Y0035233D01*
X0109107Y0035233D01*
X0110753Y0035667D02*
X0110753Y0036534D01*
X0111186Y0036968D01*
X0112487Y0036968D01*
X0112487Y0037835D02*
X0112487Y0035233D01*
X0111186Y0035233D01*
X0110753Y0035667D01*
X0110580Y0040033D02*
X0109279Y0040033D01*
X0109713Y0040900D02*
X0109279Y0041334D01*
X0109713Y0041768D01*
X0111014Y0041768D01*
X0110580Y0040900D02*
X0109713Y0040900D01*
X0110580Y0040900D02*
X0111014Y0040467D01*
X0110580Y0040033D01*
X0110095Y0043933D02*
X0107595Y0046433D01*
X0107595Y0051433D01*
X0110095Y0053933D01*
X0107595Y0056433D01*
X0107595Y0061433D01*
X0110095Y0063933D01*
X0107595Y0066433D01*
X0107595Y0071433D01*
X0110095Y0073933D01*
X0115095Y0073933D01*
X0117595Y0071433D01*
X0117595Y0066433D01*
X0115095Y0063933D01*
X0117595Y0061433D01*
X0117595Y0056433D01*
X0115095Y0053933D01*
X0117595Y0051433D01*
X0117595Y0046433D01*
X0115095Y0043933D01*
X0110095Y0043933D01*
X0110095Y0053933D02*
X0115095Y0053933D01*
X0115095Y0063933D02*
X0110095Y0063933D01*
X0110204Y0075233D02*
X0109770Y0075667D01*
X0109770Y0076534D01*
X0110204Y0076968D01*
X0111505Y0076968D01*
X0111505Y0077835D02*
X0111505Y0075233D01*
X0110204Y0075233D01*
X0108559Y0076100D02*
X0106824Y0076100D01*
X0106824Y0075667D02*
X0106824Y0076534D01*
X0107258Y0076968D01*
X0108125Y0076968D01*
X0108559Y0076534D01*
X0108559Y0076100D01*
X0108125Y0075233D02*
X0107258Y0075233D01*
X0106824Y0075667D01*
X0105727Y0075233D02*
X0104859Y0075233D01*
X0105293Y0075233D02*
X0105293Y0077835D01*
X0104859Y0077835D01*
X0103648Y0076534D02*
X0103214Y0076968D01*
X0101913Y0076968D01*
X0101913Y0077835D02*
X0101913Y0075233D01*
X0103214Y0075233D01*
X0103648Y0075667D01*
X0103648Y0076534D01*
X0100701Y0076534D02*
X0100701Y0075233D01*
X0099400Y0075233D01*
X0098966Y0075667D01*
X0099400Y0076100D01*
X0100701Y0076100D01*
X0100701Y0076534D02*
X0100268Y0076968D01*
X0099400Y0076968D01*
X0097755Y0076534D02*
X0097755Y0075233D01*
X0097755Y0076534D02*
X0097321Y0076968D01*
X0096020Y0076968D01*
X0096020Y0075233D01*
X0094808Y0076100D02*
X0093073Y0076100D01*
X0093073Y0075667D02*
X0093073Y0076534D01*
X0093507Y0076968D01*
X0094375Y0076968D01*
X0094808Y0076534D01*
X0094808Y0076100D01*
X0094375Y0075233D02*
X0093507Y0075233D01*
X0093073Y0075667D01*
X0093564Y0079166D02*
X0093564Y0081768D01*
X0094866Y0081768D01*
X0095299Y0081334D01*
X0095299Y0080467D01*
X0094866Y0080033D01*
X0093564Y0080033D01*
X0096511Y0080467D02*
X0096945Y0080033D01*
X0098246Y0080033D01*
X0098246Y0081768D01*
X0099458Y0082635D02*
X0099891Y0082635D01*
X0099891Y0080033D01*
X0099458Y0080033D02*
X0100325Y0080033D01*
X0101422Y0080033D02*
X0102289Y0080033D01*
X0101856Y0080033D02*
X0101856Y0082635D01*
X0101422Y0082635D01*
X0103386Y0081768D02*
X0103386Y0080467D01*
X0103820Y0080033D01*
X0105121Y0080033D01*
X0105121Y0081768D01*
X0106333Y0081768D02*
X0106333Y0079166D01*
X0106333Y0080033D02*
X0107634Y0080033D01*
X0108068Y0080467D01*
X0108068Y0081334D01*
X0107634Y0081768D01*
X0106333Y0081768D01*
X0109279Y0081334D02*
X0109713Y0081768D01*
X0111014Y0081768D01*
X0110580Y0080900D02*
X0109713Y0080900D01*
X0109279Y0081334D01*
X0109279Y0080033D02*
X0110580Y0080033D01*
X0111014Y0080467D01*
X0110580Y0080900D01*
X0096511Y0080467D02*
X0096511Y0081768D01*
X0119637Y0094243D02*
X0119637Y0095444D01*
X0120038Y0095844D01*
X0120838Y0095844D01*
X0121239Y0095444D01*
X0121239Y0094243D01*
X0122039Y0094243D02*
X0119637Y0094243D01*
X0121239Y0095044D02*
X0122039Y0095844D01*
X0122039Y0097005D02*
X0122039Y0098607D01*
X0122039Y0097806D02*
X0119637Y0097806D01*
X0120438Y0097005D01*
X0120838Y0099768D02*
X0120838Y0100969D01*
X0121239Y0101369D01*
X0121639Y0101369D01*
X0122039Y0100969D01*
X0122039Y0100168D01*
X0121639Y0099768D01*
X0120838Y0099768D01*
X0120038Y0100568D01*
X0119637Y0101369D01*
X0120543Y0107065D02*
X0120944Y0107065D01*
X0121344Y0107465D01*
X0121344Y0108266D01*
X0121744Y0108666D01*
X0122145Y0108666D01*
X0122545Y0108266D01*
X0122545Y0107465D01*
X0122145Y0107065D01*
X0120543Y0107065D02*
X0120143Y0107465D01*
X0120143Y0108266D01*
X0120543Y0108666D01*
X0120143Y0109827D02*
X0120143Y0111028D01*
X0120543Y0111429D01*
X0122145Y0111429D01*
X0122545Y0111028D01*
X0122545Y0109827D01*
X0120143Y0109827D01*
X0122945Y0112590D02*
X0122945Y0114191D01*
X0122145Y0115352D02*
X0122545Y0115752D01*
X0122545Y0116553D01*
X0122145Y0116953D01*
X0122545Y0118114D02*
X0120944Y0118114D01*
X0120143Y0118915D01*
X0120944Y0119716D01*
X0122545Y0119716D01*
X0122545Y0120877D02*
X0120143Y0120877D01*
X0120143Y0122078D01*
X0120543Y0122478D01*
X0121344Y0122478D01*
X0121744Y0122078D01*
X0121744Y0120877D01*
X0121744Y0121677D02*
X0122545Y0122478D01*
X0122545Y0123639D02*
X0122545Y0124840D01*
X0122145Y0125240D01*
X0120543Y0125240D01*
X0120143Y0124840D01*
X0120143Y0123639D01*
X0122545Y0123639D01*
X0121344Y0119716D02*
X0121344Y0118114D01*
X0120543Y0116953D02*
X0120143Y0116553D01*
X0120143Y0115752D01*
X0120543Y0115352D01*
X0122145Y0115352D01*
X0143252Y0114283D02*
X0144553Y0114283D01*
X0144987Y0114717D01*
X0144987Y0116452D01*
X0144553Y0116885D01*
X0143252Y0116885D01*
X0143252Y0114283D01*
X0146199Y0114283D02*
X0147933Y0114283D01*
X0147066Y0114283D02*
X0147066Y0116885D01*
X0146199Y0116018D01*
X0170649Y0127080D02*
X0170649Y0128381D01*
X0171083Y0128815D01*
X0171950Y0128815D01*
X0172384Y0128381D01*
X0172384Y0127080D01*
X0173251Y0127080D02*
X0170649Y0127080D01*
X0172384Y0127948D02*
X0173251Y0128815D01*
X0171950Y0130027D02*
X0171950Y0131762D01*
X0173251Y0131328D02*
X0170649Y0131328D01*
X0171950Y0130027D01*
X0183149Y0130027D02*
X0183149Y0131762D01*
X0183583Y0131762D01*
X0185317Y0130027D01*
X0185751Y0130027D01*
X0185751Y0128815D02*
X0184884Y0127948D01*
X0184884Y0128381D02*
X0184884Y0127080D01*
X0185751Y0127080D02*
X0183149Y0127080D01*
X0183149Y0128381D01*
X0183583Y0128815D01*
X0184450Y0128815D01*
X0184884Y0128381D01*
X0195649Y0128381D02*
X0196083Y0128815D01*
X0196950Y0128815D01*
X0197384Y0128381D01*
X0197384Y0127080D01*
X0198251Y0127080D02*
X0195649Y0127080D01*
X0195649Y0128381D01*
X0197384Y0127948D02*
X0198251Y0128815D01*
X0197817Y0130027D02*
X0198251Y0130460D01*
X0198251Y0131328D01*
X0197817Y0131762D01*
X0197384Y0131762D01*
X0196950Y0131328D01*
X0196950Y0130027D01*
X0197817Y0130027D01*
X0196950Y0130027D02*
X0196083Y0130894D01*
X0195649Y0131762D01*
X0208149Y0131762D02*
X0208149Y0130027D01*
X0209450Y0130027D01*
X0209016Y0130894D01*
X0209016Y0131328D01*
X0209450Y0131762D01*
X0210317Y0131762D01*
X0210751Y0131328D01*
X0210751Y0130460D01*
X0210317Y0130027D01*
X0210751Y0128815D02*
X0209884Y0127948D01*
X0209884Y0128381D02*
X0209884Y0127080D01*
X0210751Y0127080D02*
X0208149Y0127080D01*
X0208149Y0128381D01*
X0208583Y0128815D01*
X0209450Y0128815D01*
X0209884Y0128381D01*
X0220649Y0128381D02*
X0221083Y0128815D01*
X0221950Y0128815D01*
X0222384Y0128381D01*
X0222384Y0127080D01*
X0223251Y0127080D02*
X0220649Y0127080D01*
X0220649Y0128381D01*
X0221083Y0130027D02*
X0221516Y0130027D01*
X0221950Y0130460D01*
X0221950Y0131762D01*
X0222817Y0131762D02*
X0221083Y0131762D01*
X0220649Y0131328D01*
X0220649Y0130460D01*
X0221083Y0130027D01*
X0222817Y0130027D02*
X0223251Y0130460D01*
X0223251Y0131328D01*
X0222817Y0131762D01*
X0223251Y0128815D02*
X0222384Y0127948D01*
X0239193Y0128613D02*
X0239193Y0129481D01*
X0239627Y0129914D01*
X0240060Y0129914D01*
X0240494Y0129481D01*
X0240928Y0129914D01*
X0241361Y0129914D01*
X0241795Y0129481D01*
X0241795Y0128613D01*
X0241361Y0128180D01*
X0241361Y0126968D02*
X0241795Y0126534D01*
X0241795Y0125667D01*
X0241361Y0125233D01*
X0239627Y0125233D01*
X0239193Y0125667D01*
X0239193Y0126534D01*
X0239627Y0126968D01*
X0241361Y0126968D01*
X0241795Y0126968D02*
X0240928Y0126100D01*
X0239627Y0128180D02*
X0239193Y0128613D01*
X0240494Y0129047D02*
X0240494Y0129481D01*
X0255687Y0130123D02*
X0255687Y0130991D01*
X0256121Y0131424D01*
X0256554Y0131424D01*
X0256988Y0130991D01*
X0256988Y0130123D01*
X0256554Y0129689D01*
X0256121Y0129689D01*
X0255687Y0130123D01*
X0256988Y0130123D02*
X0257422Y0129689D01*
X0257856Y0129689D01*
X0258289Y0130123D01*
X0258289Y0130991D01*
X0257856Y0131424D01*
X0257422Y0131424D01*
X0256988Y0130991D01*
X0256988Y0128478D02*
X0257422Y0128044D01*
X0257422Y0126743D01*
X0258289Y0126743D02*
X0255687Y0126743D01*
X0255687Y0128044D01*
X0256121Y0128478D01*
X0256988Y0128478D01*
X0257422Y0127610D02*
X0258289Y0128478D01*
X0269145Y0126835D02*
X0269145Y0124233D01*
X0269145Y0125534D02*
X0270880Y0125534D01*
X0272092Y0125534D02*
X0272959Y0125534D01*
X0272092Y0124233D02*
X0273826Y0124233D01*
X0275038Y0124233D02*
X0275038Y0125968D01*
X0275906Y0126835D01*
X0276773Y0125968D01*
X0276773Y0124233D01*
X0277985Y0124233D02*
X0277985Y0126835D01*
X0279286Y0126835D01*
X0279720Y0126402D01*
X0279720Y0125534D01*
X0279286Y0125100D01*
X0277985Y0125100D01*
X0278852Y0125100D02*
X0279720Y0124233D01*
X0281799Y0124233D02*
X0281799Y0126835D01*
X0282666Y0126835D02*
X0280931Y0126835D01*
X0280095Y0128933D02*
X0275095Y0128933D01*
X0272595Y0131433D01*
X0272595Y0136433D01*
X0275095Y0138933D01*
X0280095Y0138933D01*
X0282595Y0136433D01*
X0285095Y0138933D01*
X0290095Y0138933D01*
X0292595Y0136433D01*
X0292595Y0131433D01*
X0290095Y0128933D01*
X0285095Y0128933D01*
X0282595Y0131433D01*
X0280095Y0128933D01*
X0282595Y0131433D02*
X0282595Y0136433D01*
X0282390Y0141433D02*
X0281957Y0141867D01*
X0281957Y0142734D01*
X0282390Y0143168D01*
X0283692Y0143168D01*
X0283692Y0144035D02*
X0283692Y0141433D01*
X0282390Y0141433D01*
X0280745Y0141433D02*
X0280745Y0142734D01*
X0280311Y0143168D01*
X0279010Y0143168D01*
X0279010Y0141433D01*
X0277798Y0141433D02*
X0276497Y0141433D01*
X0276064Y0141867D01*
X0276497Y0142300D01*
X0277798Y0142300D01*
X0277798Y0142734D02*
X0277798Y0141433D01*
X0277798Y0142734D02*
X0277365Y0143168D01*
X0276497Y0143168D01*
X0276383Y0146233D02*
X0276816Y0146667D01*
X0276816Y0147534D01*
X0276383Y0147968D01*
X0275515Y0147968D01*
X0275081Y0147534D01*
X0275081Y0146667D01*
X0275515Y0146233D01*
X0276383Y0146233D01*
X0278028Y0146233D02*
X0278028Y0147968D01*
X0279329Y0147968D01*
X0279763Y0147534D01*
X0279763Y0146233D01*
X0280975Y0146233D02*
X0280975Y0147968D01*
X0282276Y0147968D01*
X0282709Y0147534D01*
X0282709Y0146233D01*
X0283921Y0146667D02*
X0283921Y0147534D01*
X0284355Y0147968D01*
X0285222Y0147968D01*
X0285656Y0147534D01*
X0285656Y0147100D01*
X0283921Y0147100D01*
X0283921Y0146667D02*
X0284355Y0146233D01*
X0285222Y0146233D01*
X0286868Y0146667D02*
X0287301Y0146233D01*
X0288602Y0146233D01*
X0290248Y0146667D02*
X0290681Y0146233D01*
X0290248Y0146667D02*
X0290248Y0148402D01*
X0289814Y0147968D02*
X0290681Y0147968D01*
X0288602Y0147968D02*
X0287301Y0147968D01*
X0286868Y0147534D01*
X0286868Y0146667D01*
X0287850Y0144035D02*
X0288717Y0144035D01*
X0288283Y0144035D02*
X0288283Y0141433D01*
X0287850Y0141433D02*
X0288717Y0141433D01*
X0289814Y0141867D02*
X0290248Y0141433D01*
X0291115Y0141433D01*
X0291549Y0141867D01*
X0291549Y0143602D01*
X0291115Y0144035D01*
X0290248Y0144035D01*
X0289814Y0143602D01*
X0289814Y0141867D01*
X0292761Y0141433D02*
X0294495Y0141433D01*
X0293628Y0141433D02*
X0293628Y0144035D01*
X0292761Y0143168D01*
X0295707Y0143168D02*
X0296141Y0142734D01*
X0297442Y0142734D01*
X0297442Y0141867D02*
X0297442Y0143602D01*
X0297008Y0144035D01*
X0296141Y0144035D01*
X0295707Y0143602D01*
X0295707Y0143168D01*
X0295707Y0141867D02*
X0296141Y0141433D01*
X0297008Y0141433D01*
X0297442Y0141867D01*
X0297671Y0146233D02*
X0299406Y0146233D01*
X0300618Y0146233D02*
X0300618Y0147968D01*
X0301485Y0148835D01*
X0302353Y0147968D01*
X0302353Y0146233D01*
X0303565Y0146233D02*
X0303565Y0148835D01*
X0304866Y0148835D01*
X0305299Y0148402D01*
X0305299Y0147534D01*
X0304866Y0147100D01*
X0303565Y0147100D01*
X0304432Y0147100D02*
X0305299Y0146233D01*
X0307378Y0146233D02*
X0307378Y0148835D01*
X0306511Y0148835D02*
X0308246Y0148835D01*
X0308303Y0151033D02*
X0308737Y0151467D01*
X0308737Y0152334D01*
X0308303Y0152768D01*
X0307436Y0152768D01*
X0307002Y0152334D01*
X0307002Y0151467D01*
X0307436Y0151033D01*
X0308303Y0151033D01*
X0305905Y0151033D02*
X0305471Y0151467D01*
X0305471Y0153202D01*
X0305038Y0152768D02*
X0305905Y0152768D01*
X0302353Y0147534D02*
X0300618Y0147534D01*
X0299406Y0148835D02*
X0297671Y0148835D01*
X0297671Y0146233D01*
X0296460Y0146233D02*
X0296460Y0148835D01*
X0296460Y0147534D02*
X0294725Y0147534D01*
X0294725Y0146233D02*
X0294725Y0148835D01*
X0294176Y0151033D02*
X0293743Y0151467D01*
X0293743Y0152334D01*
X0294176Y0152768D01*
X0295478Y0152768D01*
X0295478Y0153635D02*
X0295478Y0151033D01*
X0294176Y0151033D01*
X0292531Y0151033D02*
X0291230Y0151033D01*
X0290796Y0151467D01*
X0291230Y0151900D01*
X0292531Y0151900D01*
X0292531Y0152334D02*
X0292531Y0151033D01*
X0292531Y0152334D02*
X0292097Y0152768D01*
X0291230Y0152768D01*
X0289585Y0152334D02*
X0289585Y0151900D01*
X0287850Y0151900D01*
X0287850Y0151467D02*
X0287850Y0152334D01*
X0288283Y0152768D01*
X0289151Y0152768D01*
X0289585Y0152334D01*
X0289151Y0151033D02*
X0288283Y0151033D01*
X0287850Y0151467D01*
X0286638Y0151033D02*
X0286638Y0152334D01*
X0286204Y0152768D01*
X0285337Y0152768D01*
X0284903Y0152334D01*
X0284903Y0153635D02*
X0284903Y0151033D01*
X0280745Y0151900D02*
X0279010Y0151900D01*
X0279010Y0151467D02*
X0279010Y0152334D01*
X0279444Y0152768D01*
X0280311Y0152768D01*
X0280745Y0152334D01*
X0280745Y0151900D01*
X0280311Y0151033D02*
X0279444Y0151033D01*
X0279010Y0151467D01*
X0277798Y0152768D02*
X0276931Y0151033D01*
X0276064Y0152768D01*
X0274852Y0152334D02*
X0274418Y0152768D01*
X0273551Y0152768D01*
X0273117Y0152334D01*
X0273117Y0151467D01*
X0273551Y0151033D01*
X0274418Y0151033D01*
X0274852Y0151467D01*
X0274852Y0152334D01*
X0271905Y0152334D02*
X0271905Y0151033D01*
X0271038Y0151033D02*
X0271038Y0152334D01*
X0271472Y0152768D01*
X0271905Y0152334D01*
X0271038Y0152334D02*
X0270604Y0152768D01*
X0270171Y0152768D01*
X0270171Y0151033D01*
X0268959Y0151900D02*
X0267224Y0151900D01*
X0267224Y0151467D02*
X0267224Y0152334D01*
X0267658Y0152768D01*
X0268525Y0152768D01*
X0268959Y0152334D01*
X0268959Y0151900D01*
X0268525Y0151033D02*
X0267658Y0151033D01*
X0267224Y0151467D01*
X0266012Y0151033D02*
X0265145Y0151900D01*
X0265579Y0151900D02*
X0264278Y0151900D01*
X0264278Y0151033D02*
X0264278Y0153635D01*
X0265579Y0153635D01*
X0266012Y0153202D01*
X0266012Y0152334D01*
X0265579Y0151900D01*
X0266012Y0148835D02*
X0266012Y0146233D01*
X0264711Y0146233D01*
X0264278Y0146667D01*
X0264278Y0147534D01*
X0264711Y0147968D01*
X0266012Y0147968D01*
X0267224Y0147968D02*
X0267658Y0147968D01*
X0267658Y0146233D01*
X0267224Y0146233D02*
X0268092Y0146233D01*
X0269188Y0146233D02*
X0270490Y0146233D01*
X0270923Y0146667D01*
X0270490Y0147100D01*
X0269622Y0147100D01*
X0269188Y0147534D01*
X0269622Y0147968D01*
X0270923Y0147968D01*
X0272135Y0147534D02*
X0272135Y0146667D01*
X0272569Y0146233D01*
X0273870Y0146233D01*
X0273870Y0147968D02*
X0272569Y0147968D01*
X0272135Y0147534D01*
X0271472Y0144035D02*
X0270171Y0144035D01*
X0270171Y0141433D01*
X0271472Y0141433D01*
X0271905Y0141867D01*
X0271905Y0143602D01*
X0271472Y0144035D01*
X0268959Y0144035D02*
X0267224Y0144035D01*
X0267224Y0141433D01*
X0268959Y0141433D01*
X0268092Y0142734D02*
X0267224Y0142734D01*
X0266012Y0141433D02*
X0264278Y0141433D01*
X0264278Y0144035D01*
X0267658Y0148835D02*
X0267658Y0149269D01*
X0270880Y0126835D02*
X0270880Y0124233D01*
X0272092Y0124233D02*
X0272092Y0126835D01*
X0273826Y0126835D01*
X0275038Y0125534D02*
X0276773Y0125534D01*
X0283878Y0124233D02*
X0285613Y0126835D01*
X0286824Y0126835D02*
X0287692Y0126835D01*
X0287258Y0126835D02*
X0287258Y0124233D01*
X0286824Y0124233D02*
X0287692Y0124233D01*
X0288789Y0124667D02*
X0288789Y0126402D01*
X0289222Y0126835D01*
X0290090Y0126835D01*
X0290523Y0126402D01*
X0290523Y0124667D01*
X0290090Y0124233D01*
X0289222Y0124233D01*
X0288789Y0124667D01*
X0291735Y0124233D02*
X0293470Y0124233D01*
X0292603Y0124233D02*
X0292603Y0126835D01*
X0291735Y0125968D01*
X0294682Y0125968D02*
X0294682Y0126402D01*
X0295115Y0126835D01*
X0295983Y0126835D01*
X0296416Y0126402D01*
X0296416Y0124667D01*
X0295983Y0124233D01*
X0295115Y0124233D01*
X0294682Y0124667D01*
X0295115Y0125534D02*
X0296416Y0125534D01*
X0295115Y0125534D02*
X0294682Y0125968D01*
X0312595Y0128933D02*
X0312595Y0138933D01*
X0322595Y0138933D01*
X0322595Y0128933D01*
X0322595Y0118933D01*
X0322595Y0108933D01*
X0312595Y0108933D01*
X0312595Y0118933D01*
X0312595Y0128933D01*
X0308163Y0106235D02*
X0308163Y0103633D01*
X0306952Y0103633D02*
X0305651Y0103633D01*
X0305217Y0104067D01*
X0305217Y0104934D01*
X0305651Y0105368D01*
X0306952Y0105368D01*
X0308163Y0104934D02*
X0308597Y0105368D01*
X0309464Y0105368D01*
X0309898Y0104934D01*
X0309898Y0103633D01*
X0308916Y0101435D02*
X0308916Y0099267D01*
X0308482Y0098833D01*
X0307615Y0098833D01*
X0307181Y0099267D01*
X0307181Y0101435D01*
X0305970Y0100134D02*
X0304235Y0100134D01*
X0303023Y0099700D02*
X0303023Y0099267D01*
X0302589Y0098833D01*
X0301288Y0098833D01*
X0301288Y0101435D01*
X0302589Y0101435D01*
X0303023Y0101002D01*
X0303023Y0100568D01*
X0302589Y0100134D01*
X0301288Y0100134D01*
X0300076Y0099700D02*
X0300076Y0099267D01*
X0299643Y0098833D01*
X0298775Y0098833D01*
X0298342Y0099267D01*
X0298775Y0100134D02*
X0299643Y0100134D01*
X0300076Y0099700D01*
X0300076Y0101002D02*
X0299643Y0101435D01*
X0298775Y0101435D01*
X0298342Y0101002D01*
X0298342Y0100568D01*
X0298775Y0100134D01*
X0297130Y0099267D02*
X0297130Y0101435D01*
X0295395Y0101435D02*
X0295395Y0099267D01*
X0295829Y0098833D01*
X0296696Y0098833D01*
X0297130Y0099267D01*
X0297359Y0096635D02*
X0297793Y0096635D01*
X0297793Y0094033D01*
X0297359Y0094033D02*
X0298227Y0094033D01*
X0299324Y0094467D02*
X0299758Y0094900D01*
X0301059Y0094900D01*
X0301059Y0095334D02*
X0301059Y0094033D01*
X0299758Y0094033D01*
X0299324Y0094467D01*
X0299758Y0095768D02*
X0300625Y0095768D01*
X0301059Y0095334D01*
X0302270Y0095334D02*
X0302704Y0095768D01*
X0304005Y0095768D01*
X0303571Y0094900D02*
X0302704Y0094900D01*
X0302270Y0095334D01*
X0302270Y0094033D02*
X0303571Y0094033D01*
X0304005Y0094467D01*
X0303571Y0094900D01*
X0305217Y0095334D02*
X0305651Y0095768D01*
X0306518Y0095768D01*
X0306952Y0095334D01*
X0306952Y0094033D01*
X0308163Y0094033D02*
X0309031Y0094033D01*
X0308597Y0094033D02*
X0308597Y0095768D01*
X0308163Y0095768D01*
X0308597Y0096635D02*
X0308597Y0097069D01*
X0310128Y0095768D02*
X0310128Y0094033D01*
X0311863Y0094033D02*
X0311863Y0095334D01*
X0311429Y0095768D01*
X0310128Y0095768D01*
X0313074Y0095334D02*
X0313508Y0095768D01*
X0314809Y0095768D01*
X0314809Y0093599D01*
X0314375Y0093166D01*
X0313942Y0093166D01*
X0313508Y0094033D02*
X0314809Y0094033D01*
X0313508Y0094033D02*
X0313074Y0094467D01*
X0313074Y0095334D01*
X0313508Y0092269D02*
X0313508Y0091835D01*
X0313508Y0090968D02*
X0313508Y0089233D01*
X0313074Y0089233D02*
X0313942Y0089233D01*
X0315039Y0089233D02*
X0315039Y0090968D01*
X0316340Y0090968D01*
X0316773Y0090534D01*
X0316773Y0089233D01*
X0317985Y0089667D02*
X0318419Y0089233D01*
X0319720Y0089233D01*
X0319720Y0088799D02*
X0319720Y0090968D01*
X0318419Y0090968D01*
X0317985Y0090534D01*
X0317985Y0089667D01*
X0318853Y0088366D02*
X0319286Y0088366D01*
X0319720Y0088799D01*
X0319401Y0094033D02*
X0318967Y0094467D01*
X0319401Y0094900D01*
X0320702Y0094900D01*
X0320702Y0095334D02*
X0320702Y0094033D01*
X0319401Y0094033D01*
X0319401Y0095768D02*
X0320268Y0095768D01*
X0320702Y0095334D01*
X0321914Y0095768D02*
X0321914Y0094033D01*
X0323649Y0094033D02*
X0323649Y0095334D01*
X0323215Y0095768D01*
X0321914Y0095768D01*
X0324860Y0095334D02*
X0325294Y0095768D01*
X0326595Y0095768D01*
X0326595Y0096635D02*
X0326595Y0094033D01*
X0325294Y0094033D01*
X0324860Y0094467D01*
X0324860Y0095334D01*
X0316888Y0098833D02*
X0316888Y0101435D01*
X0316021Y0101435D02*
X0317756Y0101435D01*
X0317322Y0103633D02*
X0317756Y0104067D01*
X0317756Y0104934D01*
X0317322Y0105368D01*
X0316454Y0105368D01*
X0316021Y0104934D01*
X0316021Y0104067D01*
X0316454Y0103633D01*
X0317322Y0103633D01*
X0314924Y0103633D02*
X0314490Y0104067D01*
X0314490Y0105802D01*
X0314056Y0105368D02*
X0314924Y0105368D01*
X0314375Y0101435D02*
X0313074Y0101435D01*
X0313074Y0098833D01*
X0313074Y0099700D02*
X0314375Y0099700D01*
X0314809Y0100134D01*
X0314809Y0101002D01*
X0314375Y0101435D01*
X0313942Y0099700D02*
X0314809Y0098833D01*
X0311863Y0098833D02*
X0311863Y0100568D01*
X0310995Y0101435D01*
X0310128Y0100568D01*
X0310128Y0098833D01*
X0310128Y0100134D02*
X0311863Y0100134D01*
X0305217Y0096635D02*
X0305217Y0094033D01*
X0305970Y0090968D02*
X0305970Y0089233D01*
X0304668Y0089233D01*
X0304235Y0089667D01*
X0304235Y0090968D01*
X0303023Y0090534D02*
X0302589Y0090968D01*
X0301288Y0090968D01*
X0301288Y0091835D02*
X0301288Y0089233D01*
X0302589Y0089233D01*
X0303023Y0089667D01*
X0303023Y0090534D01*
X0300076Y0090534D02*
X0300076Y0090100D01*
X0298342Y0090100D01*
X0298342Y0089667D02*
X0298342Y0090534D01*
X0298775Y0090968D01*
X0299643Y0090968D01*
X0300076Y0090534D01*
X0299643Y0089233D02*
X0298775Y0089233D01*
X0298342Y0089667D01*
X0297130Y0089233D02*
X0295829Y0089233D01*
X0295395Y0089667D01*
X0295395Y0090534D01*
X0295829Y0090968D01*
X0297130Y0090968D01*
X0297130Y0091835D02*
X0297130Y0089233D01*
X0295829Y0094033D02*
X0295829Y0096202D01*
X0296263Y0096635D01*
X0296263Y0095334D02*
X0295395Y0095334D01*
X0302589Y0100134D02*
X0303023Y0099700D01*
X0302156Y0103633D02*
X0301288Y0103633D01*
X0301722Y0103633D02*
X0301722Y0105368D01*
X0301288Y0105368D01*
X0301722Y0106235D02*
X0301722Y0106669D01*
X0303253Y0105368D02*
X0304120Y0105368D01*
X0303686Y0105802D02*
X0303686Y0104067D01*
X0304120Y0103633D01*
X0300076Y0104067D02*
X0300076Y0105368D01*
X0300076Y0104067D02*
X0299643Y0103633D01*
X0299209Y0104067D01*
X0298775Y0103633D01*
X0298342Y0104067D01*
X0298342Y0105368D01*
X0297130Y0105802D02*
X0296696Y0106235D01*
X0295829Y0106235D01*
X0295395Y0105802D01*
X0295395Y0105368D01*
X0295829Y0104934D01*
X0296696Y0104934D01*
X0297130Y0104500D01*
X0297130Y0104067D01*
X0296696Y0103633D01*
X0295829Y0103633D01*
X0295395Y0104067D01*
X0307615Y0090968D02*
X0307181Y0090534D01*
X0307181Y0089667D01*
X0307615Y0089233D01*
X0308916Y0089233D01*
X0308916Y0088799D02*
X0308916Y0090968D01*
X0307615Y0090968D01*
X0308916Y0088799D02*
X0308482Y0088366D01*
X0308049Y0088366D01*
X0310128Y0089667D02*
X0310561Y0089233D01*
X0311863Y0089233D01*
X0311863Y0088799D02*
X0311863Y0090968D01*
X0310561Y0090968D01*
X0310128Y0090534D01*
X0310128Y0089667D01*
X0310995Y0088366D02*
X0311429Y0088366D01*
X0311863Y0088799D01*
X0313074Y0090968D02*
X0313508Y0090968D01*
X0322348Y0103633D02*
X0321914Y0104067D01*
X0321914Y0104934D01*
X0322348Y0105368D01*
X0323215Y0105368D01*
X0323649Y0104934D01*
X0323649Y0104500D01*
X0321914Y0104500D01*
X0322348Y0103633D02*
X0323215Y0103633D01*
X0324860Y0103633D02*
X0324860Y0105368D01*
X0326161Y0105368D01*
X0326595Y0104934D01*
X0326595Y0103633D01*
X0327807Y0104067D02*
X0328241Y0104500D01*
X0329542Y0104500D01*
X0329542Y0104934D02*
X0329542Y0103633D01*
X0328241Y0103633D01*
X0327807Y0104067D01*
X0328241Y0105368D02*
X0329108Y0105368D01*
X0329542Y0104934D01*
X0330753Y0105368D02*
X0332054Y0105368D01*
X0332488Y0104934D01*
X0332488Y0104067D01*
X0332054Y0103633D01*
X0330753Y0103633D01*
X0330753Y0106235D01*
X0333700Y0106235D02*
X0334134Y0106235D01*
X0334134Y0103633D01*
X0334567Y0103633D02*
X0333700Y0103633D01*
X0335664Y0104067D02*
X0335664Y0104934D01*
X0336098Y0105368D01*
X0336965Y0105368D01*
X0337399Y0104934D01*
X0337399Y0104500D01*
X0335664Y0104500D01*
X0335664Y0104067D02*
X0336098Y0103633D01*
X0336965Y0103633D01*
X0346655Y0120739D02*
X0346655Y0123341D01*
X0347956Y0123341D01*
X0348390Y0122907D01*
X0348390Y0122040D01*
X0347956Y0121606D01*
X0346655Y0121606D01*
X0347522Y0121606D02*
X0348390Y0120739D01*
X0349602Y0121173D02*
X0350035Y0120739D01*
X0350903Y0120739D01*
X0351336Y0121173D01*
X0351336Y0121606D01*
X0350903Y0122040D01*
X0350469Y0122040D01*
X0350903Y0122040D02*
X0351336Y0122474D01*
X0351336Y0122907D01*
X0350903Y0123341D01*
X0350035Y0123341D01*
X0349602Y0122907D01*
X0361990Y0123104D02*
X0361990Y0121370D01*
X0362423Y0120936D01*
X0363291Y0120936D01*
X0363724Y0121370D01*
X0364936Y0121370D02*
X0366671Y0123104D01*
X0366671Y0123538D01*
X0364936Y0123538D01*
X0363724Y0123104D02*
X0363291Y0123538D01*
X0362423Y0123538D01*
X0361990Y0123104D01*
X0364936Y0121370D02*
X0364936Y0120936D01*
X0375095Y0148933D02*
X0372595Y0151433D01*
X0372595Y0156433D01*
X0375095Y0158933D01*
X0372595Y0161433D01*
X0372595Y0166433D01*
X0375095Y0168933D01*
X0372595Y0171433D01*
X0372595Y0176433D01*
X0375095Y0178933D01*
X0372595Y0181433D01*
X0372595Y0186433D01*
X0375095Y0188933D01*
X0372595Y0191433D01*
X0372595Y0196433D01*
X0375095Y0198933D01*
X0372595Y0201433D01*
X0372595Y0206433D01*
X0375095Y0208933D01*
X0372595Y0211433D01*
X0372595Y0216433D01*
X0375095Y0218933D01*
X0372595Y0221433D01*
X0372595Y0226433D01*
X0375095Y0228933D01*
X0372595Y0231433D01*
X0372595Y0236433D01*
X0375095Y0238933D01*
X0372595Y0241433D01*
X0372595Y0246433D01*
X0375095Y0248933D01*
X0380095Y0248933D01*
X0382595Y0246433D01*
X0382595Y0241433D01*
X0385095Y0238933D01*
X0382595Y0236433D01*
X0382595Y0231433D01*
X0385095Y0228933D01*
X0382595Y0226433D01*
X0382595Y0221433D01*
X0385095Y0218933D01*
X0382595Y0216433D01*
X0382595Y0211433D01*
X0385095Y0208933D01*
X0382595Y0206433D01*
X0382595Y0201433D01*
X0385095Y0198933D01*
X0390095Y0198933D01*
X0392595Y0201433D01*
X0392595Y0206433D01*
X0390095Y0208933D01*
X0385095Y0208933D01*
X0382595Y0206433D02*
X0380095Y0208933D01*
X0375095Y0208933D01*
X0380095Y0208933D02*
X0382595Y0211433D01*
X0382595Y0216433D02*
X0380095Y0218933D01*
X0375095Y0218933D01*
X0380095Y0218933D02*
X0382595Y0221433D01*
X0385095Y0218933D02*
X0390095Y0218933D01*
X0392595Y0216433D01*
X0392595Y0211433D01*
X0390095Y0208933D01*
X0395395Y0205152D02*
X0395395Y0203417D01*
X0395829Y0202983D01*
X0396696Y0202983D01*
X0397130Y0203417D01*
X0397130Y0204284D01*
X0396263Y0204284D01*
X0397130Y0205152D02*
X0396696Y0205585D01*
X0395829Y0205585D01*
X0395395Y0205152D01*
X0398342Y0205585D02*
X0400076Y0202983D01*
X0400076Y0205585D01*
X0401288Y0205585D02*
X0402589Y0205585D01*
X0403023Y0205152D01*
X0403023Y0203417D01*
X0402589Y0202983D01*
X0401288Y0202983D01*
X0401288Y0205585D01*
X0398342Y0205585D02*
X0398342Y0202983D01*
X0392595Y0196433D02*
X0390095Y0198933D01*
X0385095Y0198933D01*
X0382595Y0196433D01*
X0382595Y0191433D01*
X0385095Y0188933D01*
X0382595Y0186433D01*
X0382595Y0181433D01*
X0385095Y0178933D01*
X0382595Y0176433D01*
X0382595Y0171433D01*
X0385095Y0168933D01*
X0382595Y0166433D01*
X0382595Y0161433D01*
X0385095Y0158933D01*
X0382595Y0156433D01*
X0382595Y0151433D01*
X0385095Y0148933D01*
X0390095Y0148933D01*
X0392595Y0151433D01*
X0392595Y0156433D01*
X0390095Y0158933D01*
X0385095Y0158933D01*
X0382595Y0156433D02*
X0380095Y0158933D01*
X0375095Y0158933D01*
X0380095Y0158933D02*
X0382595Y0161433D01*
X0382595Y0166433D02*
X0380095Y0168933D01*
X0375095Y0168933D01*
X0380095Y0168933D02*
X0382595Y0171433D01*
X0385095Y0168933D02*
X0390095Y0168933D01*
X0392595Y0166433D01*
X0392595Y0161433D01*
X0390095Y0158933D01*
X0395395Y0155385D02*
X0395395Y0152983D01*
X0396997Y0152983D01*
X0398157Y0152983D02*
X0398157Y0155385D01*
X0399759Y0152983D01*
X0399759Y0155385D01*
X0396997Y0155385D02*
X0395395Y0155385D01*
X0395395Y0154184D02*
X0396196Y0154184D01*
X0396596Y0162983D02*
X0395795Y0162983D01*
X0395395Y0163383D01*
X0395795Y0164184D02*
X0396596Y0164184D01*
X0396997Y0163784D01*
X0396997Y0163383D01*
X0396596Y0162983D01*
X0395795Y0164184D02*
X0395395Y0164584D01*
X0395395Y0164985D01*
X0395795Y0165385D01*
X0396596Y0165385D01*
X0396997Y0164985D01*
X0398157Y0165385D02*
X0398157Y0163784D01*
X0398958Y0162983D01*
X0399759Y0163784D01*
X0399759Y0165385D01*
X0400920Y0165385D02*
X0402521Y0162983D01*
X0402521Y0165385D01*
X0400920Y0165385D02*
X0400920Y0162983D01*
X0392595Y0171433D02*
X0390095Y0168933D01*
X0392595Y0171433D02*
X0392595Y0176433D01*
X0390095Y0178933D01*
X0385095Y0178933D01*
X0382595Y0176433D02*
X0380095Y0178933D01*
X0375095Y0178933D01*
X0380095Y0178933D02*
X0382595Y0181433D01*
X0382595Y0186433D02*
X0380095Y0188933D01*
X0375095Y0188933D01*
X0380095Y0188933D02*
X0382595Y0191433D01*
X0385095Y0188933D02*
X0390095Y0188933D01*
X0392595Y0186433D01*
X0392595Y0181433D01*
X0390095Y0178933D01*
X0395395Y0175385D02*
X0396196Y0175385D01*
X0395795Y0175385D02*
X0395795Y0172983D01*
X0395395Y0172983D02*
X0396196Y0172983D01*
X0397237Y0173383D02*
X0397637Y0172983D01*
X0398438Y0172983D01*
X0398838Y0173383D01*
X0398838Y0174985D01*
X0398438Y0175385D01*
X0397637Y0175385D01*
X0397237Y0174985D01*
X0397237Y0173383D01*
X0399999Y0173383D02*
X0400399Y0172983D01*
X0401200Y0172983D01*
X0401600Y0173383D01*
X0401600Y0173784D01*
X0401200Y0174184D01*
X0400800Y0174184D01*
X0401200Y0174184D02*
X0401600Y0174584D01*
X0401600Y0174985D01*
X0401200Y0175385D01*
X0400399Y0175385D01*
X0399999Y0174985D01*
X0402761Y0175385D02*
X0402761Y0174184D01*
X0403562Y0174584D01*
X0403962Y0174584D01*
X0404363Y0174184D01*
X0404363Y0173383D01*
X0403962Y0172983D01*
X0403162Y0172983D01*
X0402761Y0173383D01*
X0402761Y0175385D02*
X0404363Y0175385D01*
X0403962Y0182983D02*
X0404363Y0183383D01*
X0404363Y0183784D01*
X0403962Y0184184D01*
X0402761Y0184184D01*
X0402761Y0183383D01*
X0403162Y0182983D01*
X0403962Y0182983D01*
X0402761Y0184184D02*
X0403562Y0184985D01*
X0404363Y0185385D01*
X0401600Y0184985D02*
X0401200Y0185385D01*
X0400399Y0185385D01*
X0399999Y0184985D01*
X0398838Y0184985D02*
X0398438Y0185385D01*
X0397637Y0185385D01*
X0397237Y0184985D01*
X0397237Y0183383D01*
X0397637Y0182983D01*
X0398438Y0182983D01*
X0398838Y0183383D01*
X0398838Y0184985D01*
X0399999Y0182983D02*
X0401600Y0184584D01*
X0401600Y0184985D01*
X0401600Y0182983D02*
X0399999Y0182983D01*
X0396196Y0182983D02*
X0395395Y0182983D01*
X0395795Y0182983D02*
X0395795Y0185385D01*
X0395395Y0185385D02*
X0396196Y0185385D01*
X0392595Y0191433D02*
X0390095Y0188933D01*
X0392595Y0191433D02*
X0392595Y0196433D01*
X0395395Y0195585D02*
X0396263Y0195585D01*
X0395829Y0195585D02*
X0395829Y0192983D01*
X0395395Y0192983D02*
X0396263Y0192983D01*
X0397359Y0193417D02*
X0397793Y0192983D01*
X0398661Y0192983D01*
X0399094Y0193417D01*
X0399094Y0195152D01*
X0398661Y0195585D01*
X0397793Y0195585D01*
X0397359Y0195152D01*
X0397359Y0193417D01*
X0400306Y0192983D02*
X0402041Y0192983D01*
X0401173Y0192983D02*
X0401173Y0195585D01*
X0400306Y0194718D01*
X0403253Y0194284D02*
X0404987Y0194284D01*
X0404554Y0192983D02*
X0404554Y0195585D01*
X0403253Y0194284D01*
X0403023Y0212983D02*
X0401288Y0212983D01*
X0403023Y0214718D01*
X0403023Y0215152D01*
X0402589Y0215585D01*
X0401722Y0215585D01*
X0401288Y0215152D01*
X0400076Y0215152D02*
X0399643Y0215585D01*
X0398342Y0215585D01*
X0398342Y0212983D01*
X0399643Y0212983D01*
X0400076Y0213417D01*
X0400076Y0215152D01*
X0397130Y0215152D02*
X0396696Y0215585D01*
X0395829Y0215585D01*
X0395395Y0215152D01*
X0395395Y0214718D01*
X0395829Y0214284D01*
X0396696Y0214284D01*
X0397130Y0213850D01*
X0397130Y0213417D01*
X0396696Y0212983D01*
X0395829Y0212983D01*
X0395395Y0213417D01*
X0390095Y0218933D02*
X0392595Y0221433D01*
X0392595Y0226433D01*
X0390095Y0228933D01*
X0385095Y0228933D01*
X0382595Y0226433D02*
X0380095Y0228933D01*
X0375095Y0228933D01*
X0380095Y0228933D02*
X0382595Y0231433D01*
X0382595Y0236433D02*
X0380095Y0238933D01*
X0375095Y0238933D01*
X0380095Y0238933D02*
X0382595Y0241433D01*
X0385095Y0238933D02*
X0390095Y0238933D01*
X0392595Y0236433D01*
X0392595Y0231433D01*
X0390095Y0228933D01*
X0395395Y0225152D02*
X0395395Y0223417D01*
X0395829Y0222983D01*
X0396696Y0222983D01*
X0397130Y0223417D01*
X0398342Y0222983D02*
X0398342Y0225585D01*
X0399209Y0224718D01*
X0400076Y0225585D01*
X0400076Y0222983D01*
X0401288Y0222983D02*
X0402589Y0222983D01*
X0403023Y0223417D01*
X0403023Y0225152D01*
X0402589Y0225585D01*
X0401288Y0225585D01*
X0401288Y0222983D01*
X0397130Y0225152D02*
X0396696Y0225585D01*
X0395829Y0225585D01*
X0395395Y0225152D01*
X0395829Y0232983D02*
X0395395Y0233417D01*
X0395829Y0232983D02*
X0396696Y0232983D01*
X0397130Y0233417D01*
X0397130Y0233850D01*
X0396696Y0234284D01*
X0395829Y0234284D01*
X0395395Y0234718D01*
X0395395Y0235152D01*
X0395829Y0235585D01*
X0396696Y0235585D01*
X0397130Y0235152D01*
X0398342Y0235585D02*
X0399643Y0235585D01*
X0400076Y0235152D01*
X0400076Y0233417D01*
X0399643Y0232983D01*
X0398342Y0232983D01*
X0398342Y0235585D01*
X0401288Y0235152D02*
X0401288Y0233417D01*
X0403023Y0235152D01*
X0403023Y0233417D01*
X0402589Y0232983D01*
X0401722Y0232983D01*
X0401288Y0233417D01*
X0401288Y0235152D02*
X0401722Y0235585D01*
X0402589Y0235585D01*
X0403023Y0235152D01*
X0403686Y0242983D02*
X0403253Y0243417D01*
X0403686Y0242983D02*
X0404554Y0242983D01*
X0404987Y0243417D01*
X0404987Y0244284D01*
X0404554Y0244718D01*
X0404120Y0244718D01*
X0403253Y0244284D01*
X0403253Y0245585D01*
X0404987Y0245585D01*
X0401173Y0245585D02*
X0401173Y0242983D01*
X0400306Y0242983D02*
X0402041Y0242983D01*
X0400306Y0244718D02*
X0401173Y0245585D01*
X0399094Y0245152D02*
X0398661Y0245585D01*
X0397793Y0245585D01*
X0397359Y0245152D01*
X0397359Y0243417D01*
X0397793Y0242983D01*
X0398661Y0242983D01*
X0399094Y0243417D01*
X0399094Y0245152D01*
X0396263Y0245585D02*
X0395395Y0245585D01*
X0395829Y0245585D02*
X0395829Y0242983D01*
X0395395Y0242983D02*
X0396263Y0242983D01*
X0392595Y0241433D02*
X0390095Y0238933D01*
X0392595Y0241433D02*
X0392595Y0246433D01*
X0390095Y0248933D01*
X0385095Y0248933D01*
X0382595Y0246433D01*
X0380095Y0248933D02*
X0382595Y0251433D01*
X0382595Y0256433D01*
X0380095Y0258933D01*
X0382595Y0261433D01*
X0382595Y0266433D01*
X0380095Y0268933D01*
X0382595Y0271433D01*
X0382595Y0276433D01*
X0380095Y0278933D01*
X0382595Y0281433D01*
X0382595Y0286433D01*
X0380095Y0288933D01*
X0382595Y0291433D01*
X0382595Y0296433D01*
X0380095Y0298933D01*
X0382595Y0301433D01*
X0382595Y0306433D01*
X0380095Y0308933D01*
X0375095Y0308933D01*
X0372595Y0306433D01*
X0372595Y0301433D01*
X0375095Y0298933D01*
X0380095Y0298933D01*
X0382595Y0296433D02*
X0385095Y0298933D01*
X0382595Y0301433D01*
X0385095Y0298933D02*
X0390095Y0298933D01*
X0392595Y0301433D01*
X0392595Y0306433D01*
X0390095Y0308933D01*
X0385095Y0308933D01*
X0382595Y0306433D01*
X0375095Y0298933D02*
X0372595Y0296433D01*
X0372595Y0291433D01*
X0375095Y0288933D01*
X0380095Y0288933D01*
X0382595Y0286433D02*
X0385095Y0288933D01*
X0382595Y0291433D01*
X0385095Y0288933D02*
X0390095Y0288933D01*
X0392595Y0291433D01*
X0392595Y0296433D01*
X0390095Y0298933D01*
X0395395Y0295585D02*
X0396696Y0295585D01*
X0397130Y0295152D01*
X0397130Y0294284D01*
X0396696Y0293850D01*
X0395395Y0293850D01*
X0395395Y0292983D02*
X0395395Y0295585D01*
X0396263Y0293850D02*
X0397130Y0292983D01*
X0398342Y0292983D02*
X0400076Y0295585D01*
X0398342Y0295585D02*
X0400076Y0292983D01*
X0392595Y0286433D02*
X0392595Y0281433D01*
X0390095Y0278933D01*
X0392595Y0276433D01*
X0392595Y0271433D01*
X0390095Y0268933D01*
X0392595Y0266433D01*
X0392595Y0261433D01*
X0390095Y0258933D01*
X0392595Y0256433D01*
X0392595Y0251433D01*
X0390095Y0248933D01*
X0385095Y0248933D01*
X0382595Y0251433D01*
X0380095Y0248933D02*
X0375095Y0248933D01*
X0372595Y0251433D01*
X0372595Y0256433D01*
X0375095Y0258933D01*
X0372595Y0261433D01*
X0372595Y0266433D01*
X0375095Y0268933D01*
X0372595Y0271433D01*
X0372595Y0276433D01*
X0375095Y0278933D01*
X0372595Y0281433D01*
X0372595Y0286433D01*
X0375095Y0288933D01*
X0369812Y0285385D02*
X0369812Y0282983D01*
X0369011Y0282983D02*
X0370613Y0282983D01*
X0369011Y0284584D02*
X0369812Y0285385D01*
X0367850Y0284985D02*
X0367450Y0285385D01*
X0366649Y0285385D01*
X0366249Y0284985D01*
X0365088Y0284985D02*
X0364688Y0285385D01*
X0363887Y0285385D01*
X0363487Y0284985D01*
X0363487Y0283383D01*
X0363887Y0282983D01*
X0364688Y0282983D01*
X0365088Y0283383D01*
X0365088Y0284985D01*
X0366249Y0282983D02*
X0367850Y0284584D01*
X0367850Y0284985D01*
X0367850Y0282983D02*
X0366249Y0282983D01*
X0362446Y0282983D02*
X0361645Y0282983D01*
X0362045Y0282983D02*
X0362045Y0285385D01*
X0361645Y0285385D02*
X0362446Y0285385D01*
X0366196Y0292983D02*
X0366196Y0295385D01*
X0365395Y0295385D02*
X0366997Y0295385D01*
X0368157Y0295385D02*
X0369759Y0292983D01*
X0368157Y0292983D02*
X0369759Y0295385D01*
X0369554Y0302983D02*
X0368686Y0302983D01*
X0368253Y0303417D01*
X0369120Y0304284D02*
X0369554Y0304284D01*
X0369987Y0303850D01*
X0369987Y0303417D01*
X0369554Y0302983D01*
X0369554Y0304284D02*
X0369987Y0304718D01*
X0369987Y0305152D01*
X0369554Y0305585D01*
X0368686Y0305585D01*
X0368253Y0305152D01*
X0367041Y0305152D02*
X0366607Y0305585D01*
X0365740Y0305585D01*
X0365306Y0305152D01*
X0364094Y0305152D02*
X0363661Y0305585D01*
X0362793Y0305585D01*
X0362359Y0305152D01*
X0362359Y0303417D01*
X0362793Y0302983D01*
X0363661Y0302983D01*
X0364094Y0303417D01*
X0364094Y0305152D01*
X0365306Y0302983D02*
X0367041Y0304718D01*
X0367041Y0305152D01*
X0367041Y0302983D02*
X0365306Y0302983D01*
X0361263Y0302983D02*
X0360395Y0302983D01*
X0360829Y0302983D02*
X0360829Y0305585D01*
X0360395Y0305585D02*
X0361263Y0305585D01*
X0382595Y0281433D02*
X0385095Y0278933D01*
X0390095Y0278933D01*
X0395395Y0275585D02*
X0396263Y0275585D01*
X0395829Y0275585D02*
X0395829Y0272983D01*
X0395395Y0272983D02*
X0396263Y0272983D01*
X0397359Y0273417D02*
X0397793Y0272983D01*
X0398661Y0272983D01*
X0399094Y0273417D01*
X0399094Y0275152D01*
X0398661Y0275585D01*
X0397793Y0275585D01*
X0397359Y0275152D01*
X0397359Y0273417D01*
X0400306Y0273417D02*
X0400740Y0272983D01*
X0401607Y0272983D01*
X0402041Y0273417D01*
X0402041Y0274284D01*
X0401607Y0274718D01*
X0401173Y0274718D01*
X0400306Y0274284D01*
X0400306Y0275585D01*
X0402041Y0275585D01*
X0390095Y0268933D02*
X0385095Y0268933D01*
X0382595Y0271433D01*
X0380095Y0268933D02*
X0375095Y0268933D01*
X0370613Y0265385D02*
X0370613Y0264985D01*
X0369011Y0263383D01*
X0369011Y0262983D01*
X0367850Y0262983D02*
X0366249Y0262983D01*
X0367050Y0262983D02*
X0367050Y0265385D01*
X0366249Y0264584D01*
X0365088Y0264985D02*
X0364688Y0265385D01*
X0363887Y0265385D01*
X0363487Y0264985D01*
X0363487Y0263383D01*
X0363887Y0262983D01*
X0364688Y0262983D01*
X0365088Y0263383D01*
X0365088Y0264985D01*
X0362446Y0265385D02*
X0361645Y0265385D01*
X0362045Y0265385D02*
X0362045Y0262983D01*
X0361645Y0262983D02*
X0362446Y0262983D01*
X0369011Y0265385D02*
X0370613Y0265385D01*
X0375095Y0258933D02*
X0380095Y0258933D01*
X0382595Y0256433D02*
X0385095Y0258933D01*
X0382595Y0261433D01*
X0385095Y0258933D02*
X0390095Y0258933D01*
X0395395Y0255585D02*
X0396263Y0255585D01*
X0395829Y0255585D02*
X0395829Y0252983D01*
X0395395Y0252983D02*
X0396263Y0252983D01*
X0397359Y0253417D02*
X0397793Y0252983D01*
X0398661Y0252983D01*
X0399094Y0253417D01*
X0399094Y0255152D01*
X0398661Y0255585D01*
X0397793Y0255585D01*
X0397359Y0255152D01*
X0397359Y0253417D01*
X0400306Y0253417D02*
X0402041Y0255152D01*
X0402041Y0253417D01*
X0401607Y0252983D01*
X0400740Y0252983D01*
X0400306Y0253417D01*
X0400306Y0255152D01*
X0400740Y0255585D01*
X0401607Y0255585D01*
X0402041Y0255152D01*
X0402041Y0262983D02*
X0400306Y0262983D01*
X0401173Y0262983D02*
X0401173Y0265585D01*
X0400306Y0264718D01*
X0399094Y0265152D02*
X0398661Y0265585D01*
X0397793Y0265585D01*
X0397359Y0265152D01*
X0397359Y0263417D01*
X0397793Y0262983D01*
X0398661Y0262983D01*
X0399094Y0263417D01*
X0399094Y0265152D01*
X0396263Y0265585D02*
X0395395Y0265585D01*
X0395829Y0265585D02*
X0395829Y0262983D01*
X0395395Y0262983D02*
X0396263Y0262983D01*
X0403253Y0263417D02*
X0403686Y0262983D01*
X0404554Y0262983D01*
X0404987Y0263417D01*
X0404987Y0263850D01*
X0404554Y0264284D01*
X0403253Y0264284D01*
X0403253Y0263417D01*
X0403253Y0264284D02*
X0404120Y0265152D01*
X0404987Y0265585D01*
X0385095Y0268933D02*
X0382595Y0266433D01*
X0382595Y0276433D02*
X0385095Y0278933D01*
X0380095Y0278933D02*
X0375095Y0278933D01*
X0370613Y0274985D02*
X0370613Y0274584D01*
X0370212Y0274184D01*
X0369412Y0274184D01*
X0369011Y0274584D01*
X0369011Y0274985D01*
X0369412Y0275385D01*
X0370212Y0275385D01*
X0370613Y0274985D01*
X0370212Y0274184D02*
X0370613Y0273784D01*
X0370613Y0273383D01*
X0370212Y0272983D01*
X0369412Y0272983D01*
X0369011Y0273383D01*
X0369011Y0273784D01*
X0369412Y0274184D01*
X0367850Y0272983D02*
X0366249Y0272983D01*
X0367050Y0272983D02*
X0367050Y0275385D01*
X0366249Y0274584D01*
X0365088Y0274985D02*
X0364688Y0275385D01*
X0363887Y0275385D01*
X0363487Y0274985D01*
X0363487Y0273383D01*
X0363887Y0272983D01*
X0364688Y0272983D01*
X0365088Y0273383D01*
X0365088Y0274985D01*
X0362446Y0275385D02*
X0361645Y0275385D01*
X0362045Y0275385D02*
X0362045Y0272983D01*
X0361645Y0272983D02*
X0362446Y0272983D01*
X0364145Y0255385D02*
X0364946Y0255385D01*
X0364545Y0255385D02*
X0364545Y0252983D01*
X0364145Y0252983D02*
X0364946Y0252983D01*
X0365987Y0253383D02*
X0366387Y0252983D01*
X0367188Y0252983D01*
X0367588Y0253383D01*
X0367588Y0254985D01*
X0367188Y0255385D01*
X0366387Y0255385D01*
X0365987Y0254985D01*
X0365987Y0253383D01*
X0368749Y0254184D02*
X0370350Y0254184D01*
X0369950Y0252983D02*
X0369950Y0255385D01*
X0368749Y0254184D01*
X0369149Y0245385D02*
X0368749Y0244985D01*
X0369149Y0245385D02*
X0369950Y0245385D01*
X0370350Y0244985D01*
X0370350Y0244584D01*
X0368749Y0242983D01*
X0370350Y0242983D01*
X0367588Y0243383D02*
X0367588Y0244985D01*
X0367188Y0245385D01*
X0366387Y0245385D01*
X0365987Y0244985D01*
X0365987Y0243383D01*
X0366387Y0242983D01*
X0367188Y0242983D01*
X0367588Y0243383D01*
X0364946Y0242983D02*
X0364145Y0242983D01*
X0364545Y0242983D02*
X0364545Y0245385D01*
X0364145Y0245385D02*
X0364946Y0245385D01*
X0365657Y0235385D02*
X0366859Y0235385D01*
X0367259Y0234985D01*
X0367259Y0233383D01*
X0366859Y0232983D01*
X0365657Y0232983D01*
X0365657Y0235385D01*
X0364497Y0234985D02*
X0364096Y0235385D01*
X0363295Y0235385D01*
X0362895Y0234985D01*
X0362895Y0234584D01*
X0363295Y0234184D01*
X0364096Y0234184D01*
X0364497Y0233784D01*
X0364497Y0233383D01*
X0364096Y0232983D01*
X0363295Y0232983D01*
X0362895Y0233383D01*
X0368420Y0232983D02*
X0370021Y0232983D01*
X0369221Y0232983D02*
X0369221Y0235385D01*
X0368420Y0234584D01*
X0368420Y0225385D02*
X0368420Y0222983D01*
X0368420Y0223784D02*
X0370021Y0225385D01*
X0368820Y0224184D02*
X0370021Y0222983D01*
X0367259Y0222983D02*
X0365657Y0222983D01*
X0365657Y0225385D01*
X0364497Y0224985D02*
X0364096Y0225385D01*
X0363295Y0225385D01*
X0362895Y0224985D01*
X0362895Y0223383D01*
X0363295Y0222983D01*
X0364096Y0222983D01*
X0364497Y0223383D01*
X0364096Y0215385D02*
X0363295Y0215385D01*
X0362895Y0214985D01*
X0362895Y0214584D01*
X0363295Y0214184D01*
X0364096Y0214184D01*
X0364497Y0213784D01*
X0364497Y0213383D01*
X0364096Y0212983D01*
X0363295Y0212983D01*
X0362895Y0213383D01*
X0364497Y0214985D02*
X0364096Y0215385D01*
X0365657Y0215385D02*
X0365657Y0212983D01*
X0366859Y0212983D01*
X0367259Y0213383D01*
X0367259Y0214985D01*
X0366859Y0215385D01*
X0365657Y0215385D01*
X0368420Y0214985D02*
X0368820Y0215385D01*
X0369621Y0215385D01*
X0370021Y0214985D01*
X0370021Y0214584D01*
X0369621Y0214184D01*
X0370021Y0213784D01*
X0370021Y0213383D01*
X0369621Y0212983D01*
X0368820Y0212983D01*
X0368420Y0213383D01*
X0369221Y0214184D02*
X0369621Y0214184D01*
X0369412Y0205385D02*
X0370212Y0205385D01*
X0370613Y0204985D01*
X0370613Y0204584D01*
X0370212Y0204184D01*
X0370613Y0203784D01*
X0370613Y0203383D01*
X0370212Y0202983D01*
X0369412Y0202983D01*
X0369011Y0203383D01*
X0369812Y0204184D02*
X0370212Y0204184D01*
X0369011Y0204985D02*
X0369412Y0205385D01*
X0367050Y0205385D02*
X0367050Y0202983D01*
X0367850Y0202983D02*
X0366249Y0202983D01*
X0365088Y0203383D02*
X0365088Y0204985D01*
X0364688Y0205385D01*
X0363887Y0205385D01*
X0363487Y0204985D01*
X0363487Y0203383D01*
X0363887Y0202983D01*
X0364688Y0202983D01*
X0365088Y0203383D01*
X0366249Y0204584D02*
X0367050Y0205385D01*
X0362446Y0205385D02*
X0361645Y0205385D01*
X0362045Y0205385D02*
X0362045Y0202983D01*
X0361645Y0202983D02*
X0362446Y0202983D01*
X0362446Y0195385D02*
X0361645Y0195385D01*
X0362045Y0195385D02*
X0362045Y0192983D01*
X0361645Y0192983D02*
X0362446Y0192983D01*
X0363487Y0193383D02*
X0363887Y0192983D01*
X0364688Y0192983D01*
X0365088Y0193383D01*
X0365088Y0194985D01*
X0364688Y0195385D01*
X0363887Y0195385D01*
X0363487Y0194985D01*
X0363487Y0193383D01*
X0366249Y0192983D02*
X0367850Y0192983D01*
X0367050Y0192983D02*
X0367050Y0195385D01*
X0366249Y0194584D01*
X0369011Y0194985D02*
X0369412Y0195385D01*
X0370212Y0195385D01*
X0370613Y0194985D01*
X0370613Y0194584D01*
X0369011Y0192983D01*
X0370613Y0192983D01*
X0375095Y0198933D02*
X0380095Y0198933D01*
X0382595Y0201433D01*
X0380095Y0198933D02*
X0382595Y0196433D01*
X0380095Y0198933D02*
X0375095Y0198933D01*
X0370613Y0185385D02*
X0370613Y0184985D01*
X0369011Y0183383D01*
X0369011Y0182983D01*
X0367850Y0182983D02*
X0366249Y0182983D01*
X0367850Y0184584D01*
X0367850Y0184985D01*
X0367450Y0185385D01*
X0366649Y0185385D01*
X0366249Y0184985D01*
X0365088Y0184985D02*
X0364688Y0185385D01*
X0363887Y0185385D01*
X0363487Y0184985D01*
X0363487Y0183383D01*
X0363887Y0182983D01*
X0364688Y0182983D01*
X0365088Y0183383D01*
X0365088Y0184985D01*
X0362446Y0185385D02*
X0361645Y0185385D01*
X0362045Y0185385D02*
X0362045Y0182983D01*
X0361645Y0182983D02*
X0362446Y0182983D01*
X0369011Y0185385D02*
X0370613Y0185385D01*
X0370613Y0175385D02*
X0369011Y0175385D01*
X0369011Y0174184D01*
X0369812Y0174584D01*
X0370212Y0174584D01*
X0370613Y0174184D01*
X0370613Y0173383D01*
X0370212Y0172983D01*
X0369412Y0172983D01*
X0369011Y0173383D01*
X0367850Y0172983D02*
X0366249Y0172983D01*
X0367850Y0174584D01*
X0367850Y0174985D01*
X0367450Y0175385D01*
X0366649Y0175385D01*
X0366249Y0174985D01*
X0365088Y0174985D02*
X0364688Y0175385D01*
X0363887Y0175385D01*
X0363487Y0174985D01*
X0363487Y0173383D01*
X0363887Y0172983D01*
X0364688Y0172983D01*
X0365088Y0173383D01*
X0365088Y0174985D01*
X0362446Y0175385D02*
X0361645Y0175385D01*
X0362045Y0175385D02*
X0362045Y0172983D01*
X0361645Y0172983D02*
X0362446Y0172983D01*
X0362446Y0165385D02*
X0361645Y0165385D01*
X0362045Y0165385D02*
X0362045Y0162983D01*
X0361645Y0162983D02*
X0362446Y0162983D01*
X0363487Y0163383D02*
X0363887Y0162983D01*
X0364688Y0162983D01*
X0365088Y0163383D01*
X0365088Y0164985D01*
X0364688Y0165385D01*
X0363887Y0165385D01*
X0363487Y0164985D01*
X0363487Y0163383D01*
X0366249Y0163383D02*
X0366649Y0162983D01*
X0367450Y0162983D01*
X0367850Y0163383D01*
X0367850Y0163784D01*
X0367450Y0164184D01*
X0367050Y0164184D01*
X0367450Y0164184D02*
X0367850Y0164584D01*
X0367850Y0164985D01*
X0367450Y0165385D01*
X0366649Y0165385D01*
X0366249Y0164985D01*
X0369011Y0164184D02*
X0370613Y0164184D01*
X0370212Y0162983D02*
X0370212Y0165385D01*
X0369011Y0164184D01*
X0368420Y0155385D02*
X0369621Y0155385D01*
X0370021Y0154985D01*
X0370021Y0154184D01*
X0369621Y0153784D01*
X0368420Y0153784D01*
X0368420Y0152983D02*
X0368420Y0155385D01*
X0367259Y0155385D02*
X0367259Y0153784D01*
X0366458Y0152983D01*
X0365657Y0153784D01*
X0365657Y0155385D01*
X0364497Y0154985D02*
X0364096Y0155385D01*
X0363295Y0155385D01*
X0362895Y0154985D01*
X0362895Y0154584D01*
X0363295Y0154184D01*
X0364096Y0154184D01*
X0364497Y0153784D01*
X0364497Y0153383D01*
X0364096Y0152983D01*
X0363295Y0152983D01*
X0362895Y0153383D01*
X0375095Y0148933D02*
X0380095Y0148933D01*
X0382595Y0151433D01*
X0360561Y0087356D02*
X0359693Y0087356D01*
X0359260Y0086922D01*
X0360127Y0086055D02*
X0360561Y0086055D01*
X0360994Y0085621D01*
X0360994Y0085187D01*
X0360561Y0084754D01*
X0359693Y0084754D01*
X0359260Y0085187D01*
X0358048Y0085187D02*
X0358048Y0087356D01*
X0356313Y0087356D02*
X0356313Y0085187D01*
X0356747Y0084754D01*
X0357614Y0084754D01*
X0358048Y0085187D01*
X0360561Y0086055D02*
X0360994Y0086488D01*
X0360994Y0086922D01*
X0360561Y0087356D01*
X0370740Y0081854D02*
X0370740Y0080120D01*
X0371173Y0079686D01*
X0372041Y0079686D01*
X0372474Y0080120D01*
X0373686Y0080120D02*
X0373686Y0080553D01*
X0374120Y0080987D01*
X0374987Y0080987D01*
X0375421Y0080553D01*
X0375421Y0080120D01*
X0374987Y0079686D01*
X0374120Y0079686D01*
X0373686Y0080120D01*
X0374120Y0080987D02*
X0373686Y0081421D01*
X0373686Y0081854D01*
X0374120Y0082288D01*
X0374987Y0082288D01*
X0375421Y0081854D01*
X0375421Y0081421D01*
X0374987Y0080987D01*
X0372474Y0081854D02*
X0372041Y0082288D01*
X0371173Y0082288D01*
X0370740Y0081854D01*
X0358403Y0059591D02*
X0357535Y0059591D01*
X0357102Y0059157D01*
X0355890Y0059157D02*
X0355890Y0058290D01*
X0355456Y0057856D01*
X0354155Y0057856D01*
X0354155Y0056989D02*
X0354155Y0059591D01*
X0355456Y0059591D01*
X0355890Y0059157D01*
X0355022Y0057856D02*
X0355890Y0056989D01*
X0357102Y0056989D02*
X0358836Y0058724D01*
X0358836Y0059157D01*
X0358403Y0059591D01*
X0358836Y0056989D02*
X0357102Y0056989D01*
X0340948Y0035993D02*
X0338346Y0035993D01*
X0339647Y0034692D01*
X0339647Y0036427D01*
X0340514Y0033480D02*
X0340948Y0033047D01*
X0340948Y0032179D01*
X0340514Y0031746D01*
X0338779Y0031746D01*
X0338346Y0032179D01*
X0338346Y0033047D01*
X0338779Y0033480D01*
X0278836Y0056989D02*
X0277102Y0056989D01*
X0277969Y0056989D02*
X0277969Y0059591D01*
X0277102Y0058724D01*
X0275890Y0059157D02*
X0275890Y0058290D01*
X0275456Y0057856D01*
X0274155Y0057856D01*
X0274155Y0056989D02*
X0274155Y0059591D01*
X0275456Y0059591D01*
X0275890Y0059157D01*
X0275022Y0057856D02*
X0275890Y0056989D01*
X0260514Y0036427D02*
X0260948Y0035993D01*
X0260948Y0035126D01*
X0260514Y0034692D01*
X0260514Y0033480D02*
X0260948Y0033047D01*
X0260948Y0032179D01*
X0260514Y0031746D01*
X0258779Y0031746D01*
X0258346Y0032179D01*
X0258346Y0033047D01*
X0258779Y0033480D01*
X0258779Y0034692D02*
X0258346Y0035126D01*
X0258346Y0035993D01*
X0258779Y0036427D01*
X0259213Y0036427D01*
X0259647Y0035993D01*
X0260080Y0036427D01*
X0260514Y0036427D01*
X0259647Y0035993D02*
X0259647Y0035559D01*
X0240095Y0036433D02*
X0237595Y0033933D01*
X0227595Y0033933D01*
X0225095Y0036433D01*
X0225095Y0041433D01*
X0222595Y0043933D01*
X0225095Y0046433D01*
X0225095Y0051433D01*
X0222595Y0053933D01*
X0212595Y0053933D01*
X0210095Y0051433D01*
X0210095Y0046433D01*
X0212595Y0043933D01*
X0222595Y0043933D01*
X0225095Y0041433D02*
X0227595Y0043933D01*
X0225095Y0046433D01*
X0225095Y0051433D01*
X0227595Y0053933D01*
X0237595Y0053933D01*
X0240095Y0051433D01*
X0240095Y0046433D01*
X0237595Y0043933D01*
X0240095Y0041433D01*
X0240095Y0036433D01*
X0237595Y0043933D02*
X0227595Y0043933D01*
X0225095Y0041433D02*
X0225095Y0036433D01*
X0222595Y0033933D01*
X0212595Y0033933D01*
X0210095Y0036433D01*
X0210095Y0041433D01*
X0212595Y0043933D01*
X0195095Y0041433D02*
X0195095Y0036433D01*
X0192595Y0033933D01*
X0182595Y0033933D01*
X0180095Y0036433D01*
X0180095Y0041433D01*
X0177595Y0043933D01*
X0180095Y0046433D01*
X0180095Y0051433D01*
X0177595Y0053933D01*
X0167595Y0053933D01*
X0165095Y0051433D01*
X0165095Y0046433D01*
X0167595Y0043933D01*
X0177595Y0043933D01*
X0180095Y0041433D02*
X0182595Y0043933D01*
X0180095Y0046433D01*
X0180095Y0051433D01*
X0182595Y0053933D01*
X0192595Y0053933D01*
X0195095Y0051433D01*
X0195095Y0046433D01*
X0192595Y0043933D01*
X0195095Y0041433D01*
X0192595Y0043933D02*
X0182595Y0043933D01*
X0180095Y0041433D02*
X0180095Y0036433D01*
X0177595Y0033933D01*
X0167595Y0033933D01*
X0165095Y0036433D01*
X0165095Y0041433D01*
X0167595Y0043933D01*
X0185943Y0065483D02*
X0188111Y0065483D01*
X0188545Y0065917D01*
X0188545Y0066784D01*
X0188111Y0067218D01*
X0185943Y0067218D01*
X0186377Y0068430D02*
X0185943Y0068863D01*
X0185943Y0069731D01*
X0186377Y0070164D01*
X0186810Y0070164D01*
X0188545Y0068430D01*
X0188545Y0070164D01*
X0182500Y0082283D02*
X0181632Y0082283D01*
X0181199Y0082717D01*
X0181199Y0083584D02*
X0182066Y0084018D01*
X0182500Y0084018D01*
X0182933Y0083584D01*
X0182933Y0082717D01*
X0182500Y0082283D01*
X0181199Y0083584D02*
X0181199Y0084885D01*
X0182933Y0084885D01*
X0179987Y0084452D02*
X0179553Y0084885D01*
X0178686Y0084885D01*
X0178252Y0084452D01*
X0178252Y0082717D01*
X0178686Y0082283D01*
X0179553Y0082283D01*
X0179987Y0082717D01*
X0223252Y0082717D02*
X0223686Y0082283D01*
X0224553Y0082283D01*
X0224987Y0082717D01*
X0226199Y0082717D02*
X0226632Y0082283D01*
X0227500Y0082283D01*
X0227933Y0082717D01*
X0227933Y0083150D01*
X0227500Y0083584D01*
X0226199Y0083584D01*
X0226199Y0082717D01*
X0226199Y0083584D02*
X0227066Y0084452D01*
X0227933Y0084885D01*
X0224987Y0084452D02*
X0224553Y0084885D01*
X0223686Y0084885D01*
X0223252Y0084452D01*
X0223252Y0082717D01*
X0297671Y0147534D02*
X0298539Y0147534D01*
X0297990Y0151033D02*
X0297123Y0151033D01*
X0296689Y0151467D01*
X0296689Y0152334D01*
X0297123Y0152768D01*
X0297990Y0152768D01*
X0298424Y0152334D01*
X0298424Y0151900D01*
X0296689Y0151900D01*
X0299636Y0151900D02*
X0300503Y0152768D01*
X0300937Y0152768D01*
X0299636Y0152768D02*
X0299636Y0151033D01*
X0217295Y0171733D02*
X0214693Y0171733D01*
X0215994Y0171733D02*
X0215994Y0173468D01*
X0215994Y0174680D02*
X0215994Y0175547D01*
X0214693Y0176414D02*
X0214693Y0174680D01*
X0217295Y0174680D01*
X0217295Y0176414D01*
X0217295Y0177626D02*
X0215560Y0177626D01*
X0214693Y0178494D01*
X0215560Y0179361D01*
X0217295Y0179361D01*
X0217295Y0180573D02*
X0214693Y0180573D01*
X0214693Y0181874D01*
X0215127Y0182307D01*
X0215994Y0182307D01*
X0216428Y0181874D01*
X0216428Y0180573D01*
X0216428Y0181440D02*
X0217295Y0182307D01*
X0217295Y0184387D02*
X0214693Y0184387D01*
X0214693Y0185254D02*
X0214693Y0183519D01*
X0215994Y0179361D02*
X0215994Y0177626D01*
X0214693Y0173468D02*
X0217295Y0173468D01*
X0204795Y0176733D02*
X0202193Y0176733D01*
X0202193Y0178034D01*
X0202627Y0178468D01*
X0203494Y0178468D01*
X0203928Y0178034D01*
X0203928Y0176733D01*
X0203928Y0177600D02*
X0204795Y0178468D01*
X0204795Y0179680D02*
X0202193Y0181414D01*
X0202193Y0179680D02*
X0204795Y0181414D01*
X0192295Y0181414D02*
X0189693Y0179680D01*
X0189693Y0178468D02*
X0189693Y0176733D01*
X0189693Y0177600D02*
X0192295Y0177600D01*
X0192295Y0179680D02*
X0189693Y0181414D01*
X0179795Y0180624D02*
X0179795Y0179756D01*
X0179361Y0179323D01*
X0177627Y0179323D01*
X0177193Y0179756D01*
X0177193Y0180624D01*
X0177627Y0181057D01*
X0177193Y0182269D02*
X0177193Y0184004D01*
X0177627Y0185216D02*
X0179361Y0185216D01*
X0179795Y0185649D01*
X0179795Y0186517D01*
X0179361Y0186950D01*
X0178494Y0186950D01*
X0178494Y0186083D01*
X0177627Y0185216D02*
X0177193Y0185649D01*
X0177193Y0186517D01*
X0177627Y0186950D01*
X0178494Y0183137D02*
X0178494Y0182269D01*
X0179795Y0182269D02*
X0177193Y0182269D01*
X0179361Y0181057D02*
X0179795Y0180624D01*
X0179361Y0178111D02*
X0179795Y0177677D01*
X0179795Y0176376D01*
X0177193Y0176376D01*
X0177193Y0177677D01*
X0177627Y0178111D01*
X0178060Y0178111D01*
X0178494Y0177677D01*
X0178494Y0176376D01*
X0178928Y0175164D02*
X0179361Y0175164D01*
X0179795Y0174731D01*
X0179795Y0173863D01*
X0179361Y0173430D01*
X0178494Y0173863D02*
X0178060Y0173430D01*
X0177627Y0173430D01*
X0177193Y0173863D01*
X0177193Y0174731D01*
X0177627Y0175164D01*
X0178494Y0174731D02*
X0178928Y0175164D01*
X0178494Y0174731D02*
X0178494Y0173863D01*
X0179361Y0172218D02*
X0177193Y0172218D01*
X0177193Y0170483D02*
X0179361Y0170483D01*
X0179795Y0170917D01*
X0179795Y0171784D01*
X0179361Y0172218D01*
X0178494Y0177677D02*
X0178928Y0178111D01*
X0179361Y0178111D01*
X0167295Y0177613D02*
X0167295Y0177180D01*
X0166861Y0177180D01*
X0166861Y0177613D01*
X0167295Y0177613D01*
X0166861Y0178653D02*
X0167295Y0179087D01*
X0167295Y0179954D01*
X0166861Y0180388D01*
X0166428Y0180388D01*
X0165994Y0179954D01*
X0165994Y0179520D01*
X0165994Y0179954D02*
X0165560Y0180388D01*
X0165127Y0180388D01*
X0164693Y0179954D01*
X0164693Y0179087D01*
X0165127Y0178653D01*
X0165127Y0175968D02*
X0165560Y0175968D01*
X0165994Y0175534D01*
X0166428Y0175968D01*
X0166861Y0175968D01*
X0167295Y0175534D01*
X0167295Y0174667D01*
X0166861Y0174233D01*
X0165994Y0175100D02*
X0165994Y0175534D01*
X0165127Y0175968D02*
X0164693Y0175534D01*
X0164693Y0174667D01*
X0165127Y0174233D01*
X0164693Y0181599D02*
X0166428Y0181599D01*
X0167295Y0182467D01*
X0166428Y0183334D01*
X0164693Y0183334D01*
X0154893Y0224233D02*
X0154893Y0225834D01*
X0154893Y0225034D02*
X0157295Y0225034D01*
X0156094Y0226995D02*
X0156094Y0228597D01*
X0154893Y0228196D02*
X0156094Y0226995D01*
X0157295Y0228196D02*
X0154893Y0228196D01*
X0157295Y0229758D02*
X0154893Y0231359D01*
X0154893Y0232520D02*
X0154893Y0233321D01*
X0154893Y0232920D02*
X0157295Y0232920D01*
X0157295Y0232520D02*
X0157295Y0233321D01*
X0156895Y0234362D02*
X0157295Y0234762D01*
X0157295Y0235563D01*
X0156895Y0235963D01*
X0155293Y0235963D01*
X0154893Y0235563D01*
X0154893Y0234762D01*
X0155293Y0234362D01*
X0156895Y0234362D01*
X0157295Y0237124D02*
X0157295Y0238725D01*
X0157295Y0237925D02*
X0154893Y0237925D01*
X0155694Y0237124D01*
X0155293Y0239886D02*
X0154893Y0240287D01*
X0154893Y0241087D01*
X0155293Y0241488D01*
X0155694Y0241488D01*
X0156094Y0241087D01*
X0156494Y0241488D01*
X0156895Y0241488D01*
X0157295Y0241087D01*
X0157295Y0240287D01*
X0156895Y0239886D01*
X0156094Y0240687D02*
X0156094Y0241087D01*
X0154893Y0279233D02*
X0154893Y0280834D01*
X0154893Y0280034D02*
X0157295Y0280034D01*
X0157295Y0281995D02*
X0156895Y0281995D01*
X0155293Y0283597D01*
X0154893Y0283597D01*
X0154893Y0281995D01*
X0157295Y0284758D02*
X0154893Y0286359D01*
X0154893Y0287520D02*
X0154893Y0288321D01*
X0154893Y0287920D02*
X0157295Y0287920D01*
X0157295Y0287520D02*
X0157295Y0288321D01*
X0156895Y0289362D02*
X0157295Y0289762D01*
X0157295Y0290563D01*
X0156895Y0290963D01*
X0155293Y0290963D01*
X0154893Y0290563D01*
X0154893Y0289762D01*
X0155293Y0289362D01*
X0156895Y0289362D01*
X0157295Y0292124D02*
X0155694Y0293725D01*
X0155293Y0293725D01*
X0154893Y0293325D01*
X0154893Y0292524D01*
X0155293Y0292124D01*
X0157295Y0292124D02*
X0157295Y0293725D01*
X0157295Y0294886D02*
X0156895Y0294886D01*
X0155293Y0296488D01*
X0154893Y0296488D01*
X0154893Y0294886D01*
X0102295Y0293725D02*
X0102295Y0292124D01*
X0102295Y0292925D02*
X0099893Y0292925D01*
X0100694Y0292124D01*
X0100293Y0290963D02*
X0099893Y0290563D01*
X0099893Y0289762D01*
X0100293Y0289362D01*
X0101895Y0289362D01*
X0102295Y0289762D01*
X0102295Y0290563D01*
X0101895Y0290963D01*
X0100293Y0290963D01*
X0099893Y0288321D02*
X0099893Y0287520D01*
X0099893Y0287920D02*
X0102295Y0287920D01*
X0102295Y0287520D02*
X0102295Y0288321D01*
X0099893Y0286359D02*
X0102295Y0284758D01*
X0101895Y0283597D02*
X0101494Y0283597D01*
X0101094Y0283196D01*
X0101094Y0281995D01*
X0101895Y0281995D01*
X0102295Y0282396D01*
X0102295Y0283196D01*
X0101895Y0283597D01*
X0100293Y0282796D02*
X0101094Y0281995D01*
X0100293Y0282796D02*
X0099893Y0283597D01*
X0099893Y0280834D02*
X0099893Y0279233D01*
X0099893Y0280034D02*
X0102295Y0280034D01*
X0101094Y0294886D02*
X0101094Y0296488D01*
X0099893Y0296087D02*
X0101094Y0294886D01*
X0102295Y0296087D02*
X0099893Y0296087D01*
X0099893Y0241488D02*
X0099893Y0239886D01*
X0101094Y0239886D01*
X0100694Y0240687D01*
X0100694Y0241087D01*
X0101094Y0241488D01*
X0101895Y0241488D01*
X0102295Y0241087D01*
X0102295Y0240287D01*
X0101895Y0239886D01*
X0102295Y0238725D02*
X0102295Y0237124D01*
X0102295Y0237925D02*
X0099893Y0237925D01*
X0100694Y0237124D01*
X0100293Y0235963D02*
X0099893Y0235563D01*
X0099893Y0234762D01*
X0100293Y0234362D01*
X0101895Y0234362D01*
X0102295Y0234762D01*
X0102295Y0235563D01*
X0101895Y0235963D01*
X0100293Y0235963D01*
X0099893Y0233321D02*
X0099893Y0232520D01*
X0099893Y0232920D02*
X0102295Y0232920D01*
X0102295Y0232520D02*
X0102295Y0233321D01*
X0099893Y0231359D02*
X0102295Y0229758D01*
X0101895Y0228597D02*
X0102295Y0228196D01*
X0102295Y0227396D01*
X0101895Y0226995D01*
X0101094Y0227796D02*
X0101094Y0228196D01*
X0101494Y0228597D01*
X0101895Y0228597D01*
X0101094Y0228196D02*
X0100694Y0228597D01*
X0100293Y0228597D01*
X0099893Y0228196D01*
X0099893Y0227396D01*
X0100293Y0226995D01*
X0099893Y0225834D02*
X0099893Y0224233D01*
X0099893Y0225034D02*
X0102295Y0225034D01*
X0101895Y0183725D02*
X0100293Y0183725D01*
X0101895Y0182124D01*
X0102295Y0182524D01*
X0102295Y0183325D01*
X0101895Y0183725D01*
X0101895Y0182124D02*
X0100293Y0182124D01*
X0099893Y0182524D01*
X0099893Y0183325D01*
X0100293Y0183725D01*
X0100293Y0180963D02*
X0099893Y0180563D01*
X0099893Y0179762D01*
X0100293Y0179362D01*
X0101895Y0179362D01*
X0102295Y0179762D01*
X0102295Y0180563D01*
X0101895Y0180963D01*
X0100293Y0180963D01*
X0099893Y0178321D02*
X0099893Y0177520D01*
X0099893Y0177920D02*
X0102295Y0177920D01*
X0102295Y0177520D02*
X0102295Y0178321D01*
X0099893Y0176359D02*
X0102295Y0174758D01*
X0102295Y0173597D02*
X0102295Y0171995D01*
X0102295Y0172796D02*
X0099893Y0172796D01*
X0100694Y0171995D01*
X0099893Y0170834D02*
X0099893Y0169233D01*
X0099893Y0170034D02*
X0102295Y0170034D01*
X0047295Y0170034D02*
X0044893Y0170034D01*
X0044893Y0170834D02*
X0044893Y0169233D01*
X0045293Y0171995D02*
X0044893Y0172396D01*
X0044893Y0173196D01*
X0045293Y0173597D01*
X0046895Y0171995D01*
X0047295Y0172396D01*
X0047295Y0173196D01*
X0046895Y0173597D01*
X0045293Y0173597D01*
X0045293Y0171995D02*
X0046895Y0171995D01*
X0047295Y0174758D02*
X0044893Y0176359D01*
X0044893Y0177520D02*
X0044893Y0178321D01*
X0044893Y0177920D02*
X0047295Y0177920D01*
X0047295Y0177520D02*
X0047295Y0178321D01*
X0046895Y0179362D02*
X0047295Y0179762D01*
X0047295Y0180563D01*
X0046895Y0180963D01*
X0045293Y0180963D01*
X0044893Y0180563D01*
X0044893Y0179762D01*
X0045293Y0179362D01*
X0046895Y0179362D01*
X0046094Y0182124D02*
X0046094Y0183725D01*
X0044893Y0183325D02*
X0046094Y0182124D01*
X0047295Y0183325D02*
X0044893Y0183325D01*
X0044893Y0224233D02*
X0044893Y0225834D01*
X0044893Y0225034D02*
X0047295Y0225034D01*
X0047295Y0226995D02*
X0045694Y0228597D01*
X0045293Y0228597D01*
X0044893Y0228196D01*
X0044893Y0227396D01*
X0045293Y0226995D01*
X0047295Y0226995D02*
X0047295Y0228597D01*
X0047295Y0229758D02*
X0044893Y0231359D01*
X0044893Y0232520D02*
X0044893Y0233321D01*
X0044893Y0232920D02*
X0047295Y0232920D01*
X0047295Y0232520D02*
X0047295Y0233321D01*
X0046895Y0234362D02*
X0047295Y0234762D01*
X0047295Y0235563D01*
X0046895Y0235963D01*
X0045293Y0235963D01*
X0044893Y0235563D01*
X0044893Y0234762D01*
X0045293Y0234362D01*
X0046895Y0234362D01*
X0047295Y0237124D02*
X0045694Y0238725D01*
X0045293Y0238725D01*
X0044893Y0238325D01*
X0044893Y0237524D01*
X0045293Y0237124D01*
X0047295Y0237124D02*
X0047295Y0238725D01*
X0254240Y0296261D02*
X0254674Y0295828D01*
X0256409Y0295828D01*
X0256842Y0296261D01*
X0256842Y0297129D01*
X0256409Y0297562D01*
X0256842Y0298774D02*
X0256842Y0300509D01*
X0256842Y0299641D02*
X0254240Y0299641D01*
X0255108Y0298774D01*
X0254674Y0297562D02*
X0254240Y0297129D01*
X0254240Y0296261D01*
X0264240Y0296261D02*
X0264674Y0295828D01*
X0266409Y0295828D01*
X0266842Y0296261D01*
X0266842Y0297129D01*
X0266409Y0297562D01*
X0266842Y0298774D02*
X0265108Y0300509D01*
X0264674Y0300509D01*
X0264240Y0300075D01*
X0264240Y0299208D01*
X0264674Y0298774D01*
X0264674Y0297562D02*
X0264240Y0297129D01*
X0264240Y0296261D01*
X0266842Y0298774D02*
X0266842Y0300509D01*
X0390095Y0288933D02*
X0392595Y0286433D01*
X0395395Y0285585D02*
X0396263Y0285585D01*
X0395829Y0285585D02*
X0395829Y0282983D01*
X0395395Y0282983D02*
X0396263Y0282983D01*
X0397359Y0283417D02*
X0397793Y0282983D01*
X0398661Y0282983D01*
X0399094Y0283417D01*
X0399094Y0285152D01*
X0398661Y0285585D01*
X0397793Y0285585D01*
X0397359Y0285152D01*
X0397359Y0283417D01*
X0400306Y0282983D02*
X0402041Y0282983D01*
X0401173Y0282983D02*
X0401173Y0285585D01*
X0400306Y0284718D01*
X0403253Y0284718D02*
X0403686Y0284284D01*
X0404987Y0284284D01*
X0404987Y0283417D02*
X0404987Y0285152D01*
X0404554Y0285585D01*
X0403686Y0285585D01*
X0403253Y0285152D01*
X0403253Y0284718D01*
X0403253Y0283417D02*
X0403686Y0282983D01*
X0404554Y0282983D01*
X0404987Y0283417D01*
X0404987Y0302983D02*
X0403253Y0302983D01*
X0404987Y0304718D01*
X0404987Y0305152D01*
X0404554Y0305585D01*
X0403686Y0305585D01*
X0403253Y0305152D01*
X0402041Y0305152D02*
X0401607Y0305585D01*
X0400740Y0305585D01*
X0400306Y0305152D01*
X0399094Y0305152D02*
X0398661Y0305585D01*
X0397793Y0305585D01*
X0397359Y0305152D01*
X0397359Y0303417D01*
X0397793Y0302983D01*
X0398661Y0302983D01*
X0399094Y0303417D01*
X0399094Y0305152D01*
X0400306Y0302983D02*
X0402041Y0304718D01*
X0402041Y0305152D01*
X0402041Y0302983D02*
X0400306Y0302983D01*
X0396263Y0302983D02*
X0395395Y0302983D01*
X0395829Y0302983D02*
X0395829Y0305585D01*
X0395395Y0305585D02*
X0396263Y0305585D01*
D11*
X0225595Y0189933D02*
X0219595Y0189933D01*
X0213095Y0189933D02*
X0207095Y0189933D01*
X0200595Y0189933D02*
X0194595Y0189933D01*
X0188095Y0189933D02*
X0182095Y0189933D01*
X0175595Y0189933D02*
X0169595Y0189933D01*
X0110368Y0199433D02*
X0107699Y0199433D01*
X0109034Y0199433D02*
X0109034Y0203436D01*
X0107699Y0202102D01*
X0105764Y0203436D02*
X0103095Y0203436D01*
X0104430Y0203436D02*
X0104430Y0199433D01*
X0055368Y0200100D02*
X0054701Y0199433D01*
X0053366Y0199433D01*
X0052699Y0200100D01*
X0055368Y0202769D01*
X0055368Y0200100D01*
X0052699Y0200100D02*
X0052699Y0202769D01*
X0053366Y0203436D01*
X0054701Y0203436D01*
X0055368Y0202769D01*
X0050764Y0203436D02*
X0048095Y0203436D01*
X0049430Y0203436D02*
X0049430Y0199433D01*
X0049430Y0254433D02*
X0049430Y0258436D01*
X0050764Y0258436D02*
X0048095Y0258436D01*
X0052699Y0257769D02*
X0053366Y0258436D01*
X0054701Y0258436D01*
X0055368Y0257769D01*
X0055368Y0257102D01*
X0052699Y0254433D01*
X0055368Y0254433D01*
X0103095Y0258436D02*
X0105764Y0258436D01*
X0104430Y0258436D02*
X0104430Y0254433D01*
X0107699Y0255100D02*
X0108366Y0254433D01*
X0109701Y0254433D01*
X0110368Y0255100D01*
X0110368Y0255768D01*
X0109701Y0256435D01*
X0109034Y0256435D01*
X0109701Y0256435D02*
X0110368Y0257102D01*
X0110368Y0257769D01*
X0109701Y0258436D01*
X0108366Y0258436D01*
X0107699Y0257769D01*
X0158095Y0258436D02*
X0160764Y0258436D01*
X0159430Y0258436D02*
X0159430Y0254433D01*
X0162699Y0256435D02*
X0165368Y0256435D01*
X0164701Y0258436D02*
X0164701Y0254433D01*
X0162699Y0256435D02*
X0164701Y0258436D01*
X0162699Y0309433D02*
X0162699Y0310100D01*
X0165368Y0312769D01*
X0165368Y0313436D01*
X0162699Y0313436D01*
X0160764Y0313436D02*
X0158095Y0313436D01*
X0159430Y0313436D02*
X0159430Y0309433D01*
X0110368Y0310100D02*
X0110368Y0310768D01*
X0109701Y0311435D01*
X0107699Y0311435D01*
X0107699Y0310100D01*
X0108366Y0309433D01*
X0109701Y0309433D01*
X0110368Y0310100D01*
X0109034Y0312769D02*
X0107699Y0311435D01*
X0109034Y0312769D02*
X0110368Y0313436D01*
X0105764Y0313436D02*
X0103095Y0313436D01*
X0104430Y0313436D02*
X0104430Y0309433D01*
X0055368Y0310100D02*
X0054701Y0309433D01*
X0053366Y0309433D01*
X0052699Y0310100D01*
X0052699Y0311435D02*
X0054034Y0312102D01*
X0054701Y0312102D01*
X0055368Y0311435D01*
X0055368Y0310100D01*
X0052699Y0311435D02*
X0052699Y0313436D01*
X0055368Y0313436D01*
X0050764Y0313436D02*
X0048095Y0313436D01*
X0049430Y0313436D02*
X0049430Y0309433D01*
X0112095Y0127433D02*
X0118095Y0127433D01*
X0176845Y0060936D02*
X0176845Y0058935D01*
X0178180Y0059602D01*
X0178847Y0059602D01*
X0179514Y0058935D01*
X0179514Y0057600D01*
X0178847Y0056933D01*
X0177512Y0056933D01*
X0176845Y0057600D01*
X0176845Y0060936D02*
X0179514Y0060936D01*
X0181449Y0060936D02*
X0181449Y0058268D01*
X0182784Y0056933D01*
X0184118Y0058268D01*
X0184118Y0060936D01*
X0183553Y0032186D02*
X0185555Y0032186D01*
X0186222Y0031519D01*
X0186222Y0028850D01*
X0185555Y0028183D01*
X0183553Y0028183D01*
X0183553Y0032186D01*
X0181618Y0032186D02*
X0181618Y0028183D01*
X0178949Y0032186D01*
X0178949Y0028183D01*
X0177014Y0028850D02*
X0177014Y0030185D01*
X0175680Y0030185D01*
X0177014Y0031519D02*
X0176347Y0032186D01*
X0175012Y0032186D01*
X0174345Y0031519D01*
X0174345Y0028850D01*
X0175012Y0028183D01*
X0176347Y0028183D01*
X0177014Y0028850D01*
X0219345Y0028850D02*
X0220012Y0028183D01*
X0221347Y0028183D01*
X0222014Y0028850D01*
X0222014Y0030185D01*
X0220680Y0030185D01*
X0222014Y0031519D02*
X0221347Y0032186D01*
X0220012Y0032186D01*
X0219345Y0031519D01*
X0219345Y0028850D01*
X0223949Y0028183D02*
X0223949Y0032186D01*
X0226618Y0028183D01*
X0226618Y0032186D01*
X0228553Y0032186D02*
X0230555Y0032186D01*
X0231222Y0031519D01*
X0231222Y0028850D01*
X0230555Y0028183D01*
X0228553Y0028183D01*
X0228553Y0032186D01*
X0227003Y0056933D02*
X0225668Y0056933D01*
X0225001Y0057600D01*
X0223366Y0057600D02*
X0223366Y0056933D01*
X0222699Y0056933D01*
X0222699Y0057600D01*
X0223366Y0057600D01*
X0220764Y0057600D02*
X0220097Y0056933D01*
X0218762Y0056933D01*
X0218095Y0057600D01*
X0219430Y0058935D02*
X0220097Y0058935D01*
X0220764Y0058268D01*
X0220764Y0057600D01*
X0220097Y0058935D02*
X0220764Y0059602D01*
X0220764Y0060269D01*
X0220097Y0060936D01*
X0218762Y0060936D01*
X0218095Y0060269D01*
X0225001Y0060269D02*
X0225668Y0060936D01*
X0227003Y0060936D01*
X0227670Y0060269D01*
X0227670Y0059602D01*
X0227003Y0058935D01*
X0227670Y0058268D01*
X0227670Y0057600D01*
X0227003Y0056933D01*
X0227003Y0058935D02*
X0226335Y0058935D01*
X0229605Y0058268D02*
X0230939Y0056933D01*
X0232274Y0058268D01*
X0232274Y0060936D01*
X0229605Y0060936D02*
X0229605Y0058268D01*
D12*
X0276113Y0063883D02*
X0276113Y0068387D01*
X0278365Y0068387D01*
X0279116Y0067636D01*
X0279116Y0066135D01*
X0278365Y0065384D01*
X0276113Y0065384D01*
X0277614Y0065384D02*
X0279116Y0063883D01*
X0281270Y0063883D02*
X0284272Y0063883D01*
X0286426Y0064634D02*
X0287177Y0063883D01*
X0288678Y0063883D01*
X0289428Y0064634D01*
X0289428Y0065384D01*
X0288678Y0066135D01*
X0287177Y0066135D01*
X0286426Y0066886D01*
X0286426Y0067636D01*
X0287177Y0068387D01*
X0288678Y0068387D01*
X0289428Y0067636D01*
X0291582Y0068387D02*
X0291582Y0063883D01*
X0294585Y0063883D01*
X0293084Y0066135D02*
X0291582Y0066135D01*
X0291582Y0068387D02*
X0294585Y0068387D01*
X0296739Y0068387D02*
X0299741Y0068387D01*
X0298240Y0068387D02*
X0298240Y0063883D01*
X0284272Y0068387D02*
X0281270Y0068387D01*
X0281270Y0063883D01*
X0281270Y0066135D02*
X0282771Y0066135D01*
X0358770Y0066135D02*
X0361021Y0066135D01*
X0361772Y0065384D01*
X0361772Y0064634D01*
X0361021Y0063883D01*
X0358770Y0063883D01*
X0358770Y0068387D01*
X0361021Y0068387D01*
X0361772Y0067636D01*
X0361772Y0066886D01*
X0361021Y0066135D01*
X0363926Y0067636D02*
X0363926Y0064634D01*
X0364677Y0063883D01*
X0366178Y0063883D01*
X0366928Y0064634D01*
X0366928Y0067636D01*
X0366178Y0068387D01*
X0364677Y0068387D01*
X0363926Y0067636D01*
X0369082Y0067636D02*
X0369082Y0064634D01*
X0369833Y0063883D01*
X0371334Y0063883D01*
X0372085Y0064634D01*
X0372085Y0067636D01*
X0371334Y0068387D01*
X0369833Y0068387D01*
X0369082Y0067636D01*
X0374239Y0068387D02*
X0377241Y0068387D01*
X0375740Y0068387D02*
X0375740Y0063883D01*
X0295997Y0179732D02*
X0295997Y0184236D01*
X0298248Y0184236D01*
X0298999Y0183485D01*
X0298999Y0181984D01*
X0298248Y0181233D01*
X0295997Y0181233D01*
X0293843Y0181984D02*
X0293843Y0183485D01*
X0293092Y0184236D01*
X0291591Y0184236D01*
X0290840Y0183485D01*
X0290840Y0181984D01*
X0291591Y0181233D01*
X0293092Y0181233D01*
X0293843Y0181984D01*
X0288904Y0181233D02*
X0287403Y0181233D01*
X0288153Y0181233D02*
X0288153Y0185737D01*
X0287403Y0185737D01*
X0285249Y0183485D02*
X0284498Y0184236D01*
X0282997Y0184236D01*
X0282246Y0183485D01*
X0282246Y0181984D01*
X0282997Y0181233D01*
X0284498Y0181233D01*
X0285249Y0182734D02*
X0282246Y0182734D01*
X0280092Y0184236D02*
X0278591Y0181233D01*
X0277090Y0184236D01*
X0274936Y0183485D02*
X0274936Y0182734D01*
X0271933Y0182734D01*
X0271933Y0181984D02*
X0271933Y0183485D01*
X0272684Y0184236D01*
X0274185Y0184236D01*
X0274936Y0183485D01*
X0274185Y0181233D02*
X0272684Y0181233D01*
X0271933Y0181984D01*
X0269780Y0181984D02*
X0269780Y0184986D01*
X0269029Y0185737D01*
X0266777Y0185737D01*
X0266777Y0181233D01*
X0269029Y0181233D01*
X0269780Y0181984D01*
X0268599Y0189633D02*
X0267098Y0189633D01*
X0266347Y0190384D01*
X0267098Y0191885D02*
X0266347Y0192636D01*
X0266347Y0193386D01*
X0267098Y0194137D01*
X0268599Y0194137D01*
X0269350Y0193386D01*
X0268599Y0191885D02*
X0269350Y0191134D01*
X0269350Y0190384D01*
X0268599Y0189633D01*
X0268599Y0191885D02*
X0267098Y0191885D01*
X0264193Y0194137D02*
X0261191Y0194137D01*
X0261191Y0189633D01*
X0264193Y0189633D01*
X0262692Y0191885D02*
X0261191Y0191885D01*
X0259467Y0185737D02*
X0259467Y0181233D01*
X0257215Y0181233D01*
X0256464Y0181984D01*
X0256464Y0183485D01*
X0257215Y0184236D01*
X0259467Y0184236D01*
X0254310Y0183485D02*
X0254310Y0181233D01*
X0254310Y0183485D02*
X0253560Y0184236D01*
X0251308Y0184236D01*
X0251308Y0181233D01*
X0249154Y0181233D02*
X0246902Y0181233D01*
X0246151Y0181984D01*
X0246902Y0182734D01*
X0249154Y0182734D01*
X0249154Y0183485D02*
X0249154Y0181233D01*
X0249154Y0183485D02*
X0248403Y0184236D01*
X0246902Y0184236D01*
X0271504Y0189633D02*
X0271504Y0194137D01*
X0273756Y0194137D01*
X0274506Y0193386D01*
X0274506Y0191885D01*
X0273756Y0191134D01*
X0271504Y0191134D01*
X0276660Y0190384D02*
X0277411Y0189633D01*
X0278912Y0189633D01*
X0279663Y0190384D01*
X0279663Y0191134D01*
X0278912Y0191885D01*
X0278161Y0191885D01*
X0278912Y0191885D02*
X0279663Y0192636D01*
X0279663Y0193386D01*
X0278912Y0194137D01*
X0277411Y0194137D01*
X0276660Y0193386D01*
X0281816Y0193386D02*
X0282567Y0194137D01*
X0284068Y0194137D01*
X0284819Y0193386D01*
X0284819Y0192636D01*
X0281816Y0189633D01*
X0284819Y0189633D01*
X0292129Y0189633D02*
X0292129Y0194137D01*
X0294381Y0194137D01*
X0295132Y0193386D01*
X0295132Y0192636D01*
X0294381Y0191885D01*
X0292129Y0191885D01*
X0292129Y0189633D02*
X0294381Y0189633D01*
X0295132Y0190384D01*
X0295132Y0191134D01*
X0294381Y0191885D01*
X0297286Y0192636D02*
X0297286Y0189633D01*
X0297286Y0191134D02*
X0298787Y0192636D01*
X0299538Y0192636D01*
X0301583Y0191885D02*
X0301583Y0190384D01*
X0302333Y0189633D01*
X0303835Y0189633D01*
X0304585Y0191134D02*
X0301583Y0191134D01*
X0301583Y0191885D02*
X0302333Y0192636D01*
X0303835Y0192636D01*
X0304585Y0191885D01*
X0304585Y0191134D01*
X0306739Y0190384D02*
X0307490Y0191134D01*
X0309742Y0191134D01*
X0309742Y0191885D02*
X0309742Y0189633D01*
X0307490Y0189633D01*
X0306739Y0190384D01*
X0307490Y0192636D02*
X0308991Y0192636D01*
X0309742Y0191885D01*
X0311895Y0191134D02*
X0314147Y0192636D01*
X0316192Y0191885D02*
X0316192Y0190384D01*
X0316943Y0189633D01*
X0318444Y0189633D01*
X0319195Y0190384D01*
X0319195Y0191885D01*
X0318444Y0192636D01*
X0316943Y0192636D01*
X0316192Y0191885D01*
X0314147Y0189633D02*
X0311895Y0191134D01*
X0311895Y0189633D02*
X0311895Y0194137D01*
X0321349Y0192636D02*
X0321349Y0190384D01*
X0322100Y0189633D01*
X0324351Y0189633D01*
X0324351Y0192636D01*
X0326505Y0192636D02*
X0328007Y0192636D01*
X0327256Y0193386D02*
X0327256Y0190384D01*
X0328007Y0189633D01*
X0327468Y0185737D02*
X0325216Y0185737D01*
X0325216Y0181233D01*
X0327468Y0181233D01*
X0328219Y0181984D01*
X0328219Y0182734D01*
X0327468Y0183485D01*
X0325216Y0183485D01*
X0327468Y0183485D02*
X0328219Y0184236D01*
X0328219Y0184986D01*
X0327468Y0185737D01*
X0330373Y0183485D02*
X0330373Y0181984D01*
X0331123Y0181233D01*
X0332624Y0181233D01*
X0333375Y0181984D01*
X0333375Y0183485D01*
X0332624Y0184236D01*
X0331123Y0184236D01*
X0330373Y0183485D01*
X0335529Y0181984D02*
X0336280Y0182734D01*
X0338531Y0182734D01*
X0338531Y0183485D02*
X0338531Y0181233D01*
X0336280Y0181233D01*
X0335529Y0181984D01*
X0336280Y0184236D02*
X0337781Y0184236D01*
X0338531Y0183485D01*
X0340685Y0184236D02*
X0340685Y0181233D01*
X0340685Y0182734D02*
X0342187Y0184236D01*
X0342937Y0184236D01*
X0344982Y0183485D02*
X0345733Y0184236D01*
X0347985Y0184236D01*
X0347985Y0185737D02*
X0347985Y0181233D01*
X0345733Y0181233D01*
X0344982Y0181984D01*
X0344982Y0183485D01*
X0318123Y0184236D02*
X0316622Y0184236D01*
X0317373Y0184986D02*
X0317373Y0181984D01*
X0318123Y0181233D01*
X0314468Y0181233D02*
X0314468Y0183485D01*
X0313718Y0184236D01*
X0311466Y0184236D01*
X0311466Y0181233D01*
X0309312Y0182734D02*
X0306309Y0182734D01*
X0306309Y0181984D02*
X0306309Y0183485D01*
X0307060Y0184236D01*
X0308561Y0184236D01*
X0309312Y0183485D01*
X0309312Y0182734D01*
X0308561Y0181233D02*
X0307060Y0181233D01*
X0306309Y0181984D01*
X0304156Y0181233D02*
X0304156Y0183485D01*
X0303405Y0184236D01*
X0302654Y0183485D01*
X0302654Y0181233D01*
X0301153Y0181233D02*
X0301153Y0184236D01*
X0301904Y0184236D01*
X0302654Y0183485D01*
X0285249Y0183485D02*
X0285249Y0182734D01*
D13*
X0365095Y0116433D03*
X0382595Y0081433D03*
X0340095Y0043933D03*
X0260095Y0043933D03*
X0062595Y0073933D03*
X0255095Y0308933D03*
X0265095Y0308933D03*
D14*
X0267654Y0302831D02*
X0262536Y0302831D01*
X0262536Y0315035D01*
X0267654Y0315035D01*
X0267654Y0302831D01*
X0257654Y0302831D02*
X0252536Y0302831D01*
X0252536Y0315035D01*
X0257654Y0315035D01*
X0257654Y0302831D01*
X0358993Y0118992D02*
X0358993Y0113874D01*
X0371198Y0113874D01*
X0371198Y0118992D01*
X0358993Y0118992D01*
X0376493Y0083992D02*
X0376493Y0078874D01*
X0388698Y0078874D01*
X0388698Y0083992D01*
X0376493Y0083992D01*
X0342654Y0050035D02*
X0337536Y0050035D01*
X0337536Y0037831D01*
X0342654Y0037831D01*
X0342654Y0050035D01*
X0262654Y0050035D02*
X0262654Y0037831D01*
X0257536Y0037831D01*
X0257536Y0050035D01*
X0262654Y0050035D01*
X0068698Y0071374D02*
X0068698Y0076492D01*
X0056493Y0076492D01*
X0056493Y0071374D01*
X0068698Y0071374D01*
D15*
X0111696Y0029786D02*
X0112764Y0029786D01*
X0112230Y0029786D02*
X0112230Y0027117D01*
X0111696Y0026583D01*
X0111163Y0026583D01*
X0110629Y0027117D01*
X0114312Y0026583D02*
X0116447Y0026583D01*
X0115380Y0026583D02*
X0115380Y0029786D01*
X0114312Y0028718D01*
X0174721Y0086933D02*
X0185469Y0086933D01*
X0219721Y0086933D02*
X0230469Y0086933D01*
X0274162Y0237882D02*
X0274162Y0241925D01*
X0274162Y0237882D02*
X0285095Y0237882D01*
X0306812Y0247316D02*
X0307346Y0246782D01*
X0308413Y0246782D01*
X0308947Y0247316D01*
X0308947Y0249985D01*
X0310495Y0248917D02*
X0311563Y0249985D01*
X0311563Y0246782D01*
X0312630Y0246782D02*
X0310495Y0246782D01*
X0306812Y0247316D02*
X0306812Y0249985D01*
X0335095Y0237882D02*
X0346028Y0237882D01*
X0346028Y0241925D01*
X0346028Y0311654D02*
X0346028Y0339276D01*
X0274162Y0339276D01*
X0274162Y0311654D01*
D16*
X0243095Y0146433D02*
X0237095Y0146433D01*
X0237095Y0141933D01*
X0237095Y0135933D02*
X0237095Y0131433D01*
X0243095Y0131433D01*
X0243095Y0132433D01*
X0243095Y0137933D02*
X0243095Y0139933D01*
X0243095Y0145433D02*
X0243095Y0146433D01*
X0312595Y0128933D02*
X0315095Y0128933D01*
X0320095Y0128933D02*
X0322595Y0128933D01*
X0322595Y0118933D02*
X0320095Y0118933D01*
X0315095Y0118933D02*
X0312595Y0118933D01*
X0346361Y0110744D02*
X0346363Y0110818D01*
X0346369Y0110892D01*
X0346379Y0110965D01*
X0346392Y0111038D01*
X0346410Y0111110D01*
X0346431Y0111181D01*
X0346457Y0111251D01*
X0346485Y0111319D01*
X0346518Y0111386D01*
X0346554Y0111451D01*
X0346593Y0111513D01*
X0346636Y0111574D01*
X0346681Y0111632D01*
X0346730Y0111688D01*
X0346782Y0111741D01*
X0346836Y0111792D01*
X0346893Y0111839D01*
X0346953Y0111883D01*
X0347015Y0111924D01*
X0347079Y0111962D01*
X0347144Y0111996D01*
X0347212Y0112026D01*
X0347281Y0112053D01*
X0347351Y0112077D01*
X0347423Y0112096D01*
X0347495Y0112112D01*
X0347568Y0112124D01*
X0347642Y0112132D01*
X0347716Y0112136D01*
X0347790Y0112136D01*
X0347864Y0112132D01*
X0347938Y0112124D01*
X0348011Y0112112D01*
X0348083Y0112096D01*
X0348155Y0112077D01*
X0348225Y0112053D01*
X0348294Y0112026D01*
X0348362Y0111996D01*
X0348427Y0111962D01*
X0348491Y0111924D01*
X0348553Y0111883D01*
X0348613Y0111839D01*
X0348670Y0111792D01*
X0348724Y0111741D01*
X0348776Y0111688D01*
X0348825Y0111632D01*
X0348870Y0111574D01*
X0348913Y0111513D01*
X0348952Y0111451D01*
X0348988Y0111386D01*
X0349021Y0111319D01*
X0349049Y0111251D01*
X0349075Y0111181D01*
X0349096Y0111110D01*
X0349114Y0111038D01*
X0349127Y0110965D01*
X0349137Y0110892D01*
X0349143Y0110818D01*
X0349145Y0110744D01*
X0349143Y0110670D01*
X0349137Y0110596D01*
X0349127Y0110523D01*
X0349114Y0110450D01*
X0349096Y0110378D01*
X0349075Y0110307D01*
X0349049Y0110237D01*
X0349021Y0110169D01*
X0348988Y0110102D01*
X0348952Y0110037D01*
X0348913Y0109975D01*
X0348870Y0109914D01*
X0348825Y0109856D01*
X0348776Y0109800D01*
X0348724Y0109747D01*
X0348670Y0109696D01*
X0348613Y0109649D01*
X0348553Y0109605D01*
X0348491Y0109564D01*
X0348427Y0109526D01*
X0348362Y0109492D01*
X0348294Y0109462D01*
X0348225Y0109435D01*
X0348155Y0109411D01*
X0348083Y0109392D01*
X0348011Y0109376D01*
X0347938Y0109364D01*
X0347864Y0109356D01*
X0347790Y0109352D01*
X0347716Y0109352D01*
X0347642Y0109356D01*
X0347568Y0109364D01*
X0347495Y0109376D01*
X0347423Y0109392D01*
X0347351Y0109411D01*
X0347281Y0109435D01*
X0347212Y0109462D01*
X0347144Y0109492D01*
X0347079Y0109526D01*
X0347015Y0109564D01*
X0346953Y0109605D01*
X0346893Y0109649D01*
X0346836Y0109696D01*
X0346782Y0109747D01*
X0346730Y0109800D01*
X0346681Y0109856D01*
X0346636Y0109914D01*
X0346593Y0109975D01*
X0346554Y0110037D01*
X0346518Y0110102D01*
X0346485Y0110169D01*
X0346457Y0110237D01*
X0346431Y0110307D01*
X0346410Y0110378D01*
X0346392Y0110450D01*
X0346379Y0110523D01*
X0346369Y0110596D01*
X0346363Y0110670D01*
X0346361Y0110744D01*
X0351690Y0108776D02*
X0363501Y0108776D01*
X0363501Y0089091D01*
X0351690Y0089091D01*
X0351690Y0108776D01*
X0153095Y0108933D02*
X0153095Y0110933D01*
X0137095Y0110933D01*
X0137095Y0108933D01*
X0137095Y0098933D02*
X0137095Y0096933D01*
X0153095Y0096933D01*
X0153095Y0098933D01*
X0107595Y0084406D02*
X0107595Y0143461D01*
X0042635Y0143461D01*
X0042635Y0084406D01*
X0107595Y0084406D01*
X0033579Y0102122D02*
X0033579Y0139524D01*
X0020587Y0139524D02*
X0020587Y0102122D01*
D17*
X0147095Y0103933D03*
D18*
X0146847Y0079228D02*
X0155312Y0079228D01*
X0155312Y0079433D01*
X0155312Y0079228D02*
X0155312Y0077260D01*
X0155312Y0076433D01*
X0155312Y0077260D02*
X0146847Y0077260D01*
X0128343Y0077260D02*
X0121847Y0077260D01*
X0121847Y0047433D01*
X0155312Y0046433D02*
X0155312Y0056433D01*
X0128343Y0079228D02*
X0121847Y0079228D01*
X0121847Y0077260D01*
X0190390Y0080232D02*
X0190390Y0067634D01*
X0214800Y0067634D01*
X0214800Y0080232D01*
X0190390Y0080232D01*
X0277595Y0053933D02*
X0297595Y0053933D01*
X0302595Y0048933D02*
X0302595Y0038933D01*
X0297595Y0033933D02*
X0277595Y0033933D01*
X0357595Y0033933D02*
X0377595Y0033933D01*
X0382595Y0038933D02*
X0382595Y0048933D01*
X0377595Y0053933D02*
X0357595Y0053933D01*
D19*
X0362083Y0056571D02*
X0362083Y0061295D01*
X0373107Y0061295D01*
X0373107Y0056571D01*
X0362083Y0056571D01*
X0293107Y0056571D02*
X0282083Y0056571D01*
X0282083Y0061295D01*
X0293107Y0061295D01*
X0293107Y0056571D01*
X0344583Y0114071D02*
X0344583Y0118795D01*
X0355607Y0118795D01*
X0355607Y0114071D01*
X0344583Y0114071D01*
X0259957Y0133421D02*
X0255233Y0133421D01*
X0255233Y0144445D01*
X0259957Y0144445D01*
X0259957Y0133421D01*
X0224957Y0133421D02*
X0220233Y0133421D01*
X0220233Y0144445D01*
X0224957Y0144445D01*
X0224957Y0133421D01*
X0212457Y0133421D02*
X0212457Y0144445D01*
X0207733Y0144445D01*
X0207733Y0133421D01*
X0212457Y0133421D01*
X0199957Y0133421D02*
X0199957Y0144445D01*
X0195233Y0144445D01*
X0195233Y0133421D01*
X0199957Y0133421D01*
X0187457Y0133421D02*
X0187457Y0144445D01*
X0182733Y0144445D01*
X0182733Y0133421D01*
X0187457Y0133421D01*
X0174957Y0133421D02*
X0174957Y0144445D01*
X0170233Y0144445D01*
X0170233Y0133421D01*
X0174957Y0133421D01*
X0117457Y0103195D02*
X0117457Y0092171D01*
X0112733Y0092171D01*
X0112733Y0103195D01*
X0117457Y0103195D01*
X0083107Y0071295D02*
X0072083Y0071295D01*
X0072083Y0066571D01*
X0083107Y0066571D01*
X0083107Y0071295D01*
X0083107Y0061295D02*
X0072083Y0061295D01*
X0072083Y0056571D01*
X0083107Y0056571D01*
X0083107Y0061295D01*
X0083107Y0051295D02*
X0072083Y0051295D01*
X0072083Y0046571D01*
X0083107Y0046571D01*
X0083107Y0051295D01*
X0068107Y0051571D02*
X0068107Y0056295D01*
X0057083Y0056295D01*
X0057083Y0051571D01*
X0068107Y0051571D01*
X0068107Y0046295D02*
X0068107Y0041571D01*
X0057083Y0041571D01*
X0057083Y0046295D01*
X0068107Y0046295D01*
X0068107Y0061571D02*
X0057083Y0061571D01*
X0057083Y0066295D01*
X0068107Y0066295D01*
X0068107Y0061571D01*
D20*
X0062595Y0063933D03*
X0062595Y0053933D03*
X0062595Y0043933D03*
X0077595Y0048933D03*
X0077595Y0058933D03*
X0077595Y0068933D03*
X0287595Y0058933D03*
X0350095Y0116433D03*
X0367595Y0058933D03*
D21*
X0257595Y0138933D03*
X0222595Y0138933D03*
X0210095Y0138933D03*
X0197595Y0138933D03*
X0185095Y0138933D03*
X0172595Y0138933D03*
X0115095Y0097683D03*
D22*
X0283004Y0043933D02*
X0283006Y0044068D01*
X0283012Y0044204D01*
X0283022Y0044339D01*
X0283036Y0044473D01*
X0283054Y0044608D01*
X0283076Y0044741D01*
X0283102Y0044874D01*
X0283131Y0045006D01*
X0283165Y0045138D01*
X0283202Y0045268D01*
X0283244Y0045397D01*
X0283289Y0045524D01*
X0283337Y0045651D01*
X0283390Y0045776D01*
X0283446Y0045899D01*
X0283506Y0046020D01*
X0283569Y0046140D01*
X0283636Y0046258D01*
X0283706Y0046374D01*
X0283780Y0046487D01*
X0283857Y0046599D01*
X0283937Y0046708D01*
X0284021Y0046814D01*
X0284107Y0046918D01*
X0284197Y0047020D01*
X0284289Y0047119D01*
X0284385Y0047215D01*
X0284483Y0047308D01*
X0284584Y0047399D01*
X0284687Y0047486D01*
X0284793Y0047570D01*
X0284902Y0047651D01*
X0285013Y0047729D01*
X0285126Y0047803D01*
X0285241Y0047875D01*
X0285358Y0047942D01*
X0285478Y0048007D01*
X0285599Y0048067D01*
X0285721Y0048124D01*
X0285846Y0048178D01*
X0285972Y0048228D01*
X0286099Y0048274D01*
X0286228Y0048316D01*
X0286358Y0048354D01*
X0286489Y0048389D01*
X0286621Y0048419D01*
X0286753Y0048446D01*
X0286887Y0048469D01*
X0287021Y0048488D01*
X0287156Y0048503D01*
X0287291Y0048514D01*
X0287426Y0048521D01*
X0287561Y0048524D01*
X0287697Y0048523D01*
X0287832Y0048518D01*
X0287967Y0048509D01*
X0288102Y0048496D01*
X0288236Y0048479D01*
X0288370Y0048458D01*
X0288503Y0048433D01*
X0288635Y0048405D01*
X0288767Y0048372D01*
X0288897Y0048335D01*
X0289027Y0048295D01*
X0289155Y0048251D01*
X0289281Y0048203D01*
X0289406Y0048152D01*
X0289530Y0048096D01*
X0289652Y0048037D01*
X0289772Y0047975D01*
X0289890Y0047909D01*
X0290007Y0047839D01*
X0290121Y0047767D01*
X0290233Y0047690D01*
X0290343Y0047611D01*
X0290450Y0047528D01*
X0290555Y0047443D01*
X0290657Y0047354D01*
X0290756Y0047262D01*
X0290853Y0047167D01*
X0290947Y0047070D01*
X0291038Y0046970D01*
X0291126Y0046867D01*
X0291211Y0046761D01*
X0291293Y0046653D01*
X0291372Y0046543D01*
X0291447Y0046431D01*
X0291519Y0046316D01*
X0291588Y0046199D01*
X0291653Y0046080D01*
X0291714Y0045960D01*
X0291772Y0045837D01*
X0291827Y0045713D01*
X0291877Y0045588D01*
X0291924Y0045461D01*
X0291968Y0045332D01*
X0292007Y0045203D01*
X0292042Y0045072D01*
X0292074Y0044940D01*
X0292102Y0044808D01*
X0292126Y0044675D01*
X0292146Y0044541D01*
X0292162Y0044406D01*
X0292174Y0044271D01*
X0292182Y0044136D01*
X0292186Y0044001D01*
X0292186Y0043865D01*
X0292182Y0043730D01*
X0292174Y0043595D01*
X0292162Y0043460D01*
X0292146Y0043325D01*
X0292126Y0043191D01*
X0292102Y0043058D01*
X0292074Y0042926D01*
X0292042Y0042794D01*
X0292007Y0042663D01*
X0291968Y0042534D01*
X0291924Y0042405D01*
X0291877Y0042278D01*
X0291827Y0042153D01*
X0291772Y0042029D01*
X0291714Y0041906D01*
X0291653Y0041786D01*
X0291588Y0041667D01*
X0291519Y0041550D01*
X0291447Y0041435D01*
X0291372Y0041323D01*
X0291293Y0041213D01*
X0291211Y0041105D01*
X0291126Y0040999D01*
X0291038Y0040896D01*
X0290947Y0040796D01*
X0290853Y0040699D01*
X0290756Y0040604D01*
X0290657Y0040512D01*
X0290555Y0040423D01*
X0290450Y0040338D01*
X0290343Y0040255D01*
X0290233Y0040176D01*
X0290121Y0040099D01*
X0290007Y0040027D01*
X0289891Y0039957D01*
X0289772Y0039891D01*
X0289652Y0039829D01*
X0289530Y0039770D01*
X0289406Y0039714D01*
X0289281Y0039663D01*
X0289155Y0039615D01*
X0289027Y0039571D01*
X0288897Y0039531D01*
X0288767Y0039494D01*
X0288635Y0039461D01*
X0288503Y0039433D01*
X0288370Y0039408D01*
X0288236Y0039387D01*
X0288102Y0039370D01*
X0287967Y0039357D01*
X0287832Y0039348D01*
X0287697Y0039343D01*
X0287561Y0039342D01*
X0287426Y0039345D01*
X0287291Y0039352D01*
X0287156Y0039363D01*
X0287021Y0039378D01*
X0286887Y0039397D01*
X0286753Y0039420D01*
X0286621Y0039447D01*
X0286489Y0039477D01*
X0286358Y0039512D01*
X0286228Y0039550D01*
X0286099Y0039592D01*
X0285972Y0039638D01*
X0285846Y0039688D01*
X0285721Y0039742D01*
X0285599Y0039799D01*
X0285478Y0039859D01*
X0285358Y0039924D01*
X0285241Y0039991D01*
X0285126Y0040063D01*
X0285013Y0040137D01*
X0284902Y0040215D01*
X0284793Y0040296D01*
X0284687Y0040380D01*
X0284584Y0040467D01*
X0284483Y0040558D01*
X0284385Y0040651D01*
X0284289Y0040747D01*
X0284197Y0040846D01*
X0284107Y0040948D01*
X0284021Y0041052D01*
X0283937Y0041158D01*
X0283857Y0041267D01*
X0283780Y0041379D01*
X0283706Y0041492D01*
X0283636Y0041608D01*
X0283569Y0041726D01*
X0283506Y0041846D01*
X0283446Y0041967D01*
X0283390Y0042090D01*
X0283337Y0042215D01*
X0283289Y0042342D01*
X0283244Y0042469D01*
X0283202Y0042598D01*
X0283165Y0042728D01*
X0283131Y0042860D01*
X0283102Y0042992D01*
X0283076Y0043125D01*
X0283054Y0043258D01*
X0283036Y0043393D01*
X0283022Y0043527D01*
X0283012Y0043662D01*
X0283006Y0043798D01*
X0283004Y0043933D01*
X0363004Y0043933D02*
X0363006Y0044068D01*
X0363012Y0044204D01*
X0363022Y0044339D01*
X0363036Y0044473D01*
X0363054Y0044608D01*
X0363076Y0044741D01*
X0363102Y0044874D01*
X0363131Y0045006D01*
X0363165Y0045138D01*
X0363202Y0045268D01*
X0363244Y0045397D01*
X0363289Y0045524D01*
X0363337Y0045651D01*
X0363390Y0045776D01*
X0363446Y0045899D01*
X0363506Y0046020D01*
X0363569Y0046140D01*
X0363636Y0046258D01*
X0363706Y0046374D01*
X0363780Y0046487D01*
X0363857Y0046599D01*
X0363937Y0046708D01*
X0364021Y0046814D01*
X0364107Y0046918D01*
X0364197Y0047020D01*
X0364289Y0047119D01*
X0364385Y0047215D01*
X0364483Y0047308D01*
X0364584Y0047399D01*
X0364687Y0047486D01*
X0364793Y0047570D01*
X0364902Y0047651D01*
X0365013Y0047729D01*
X0365126Y0047803D01*
X0365241Y0047875D01*
X0365358Y0047942D01*
X0365478Y0048007D01*
X0365599Y0048067D01*
X0365721Y0048124D01*
X0365846Y0048178D01*
X0365972Y0048228D01*
X0366099Y0048274D01*
X0366228Y0048316D01*
X0366358Y0048354D01*
X0366489Y0048389D01*
X0366621Y0048419D01*
X0366753Y0048446D01*
X0366887Y0048469D01*
X0367021Y0048488D01*
X0367156Y0048503D01*
X0367291Y0048514D01*
X0367426Y0048521D01*
X0367561Y0048524D01*
X0367697Y0048523D01*
X0367832Y0048518D01*
X0367967Y0048509D01*
X0368102Y0048496D01*
X0368236Y0048479D01*
X0368370Y0048458D01*
X0368503Y0048433D01*
X0368635Y0048405D01*
X0368767Y0048372D01*
X0368897Y0048335D01*
X0369027Y0048295D01*
X0369155Y0048251D01*
X0369281Y0048203D01*
X0369406Y0048152D01*
X0369530Y0048096D01*
X0369652Y0048037D01*
X0369772Y0047975D01*
X0369890Y0047909D01*
X0370007Y0047839D01*
X0370121Y0047767D01*
X0370233Y0047690D01*
X0370343Y0047611D01*
X0370450Y0047528D01*
X0370555Y0047443D01*
X0370657Y0047354D01*
X0370756Y0047262D01*
X0370853Y0047167D01*
X0370947Y0047070D01*
X0371038Y0046970D01*
X0371126Y0046867D01*
X0371211Y0046761D01*
X0371293Y0046653D01*
X0371372Y0046543D01*
X0371447Y0046431D01*
X0371519Y0046316D01*
X0371588Y0046199D01*
X0371653Y0046080D01*
X0371714Y0045960D01*
X0371772Y0045837D01*
X0371827Y0045713D01*
X0371877Y0045588D01*
X0371924Y0045461D01*
X0371968Y0045332D01*
X0372007Y0045203D01*
X0372042Y0045072D01*
X0372074Y0044940D01*
X0372102Y0044808D01*
X0372126Y0044675D01*
X0372146Y0044541D01*
X0372162Y0044406D01*
X0372174Y0044271D01*
X0372182Y0044136D01*
X0372186Y0044001D01*
X0372186Y0043865D01*
X0372182Y0043730D01*
X0372174Y0043595D01*
X0372162Y0043460D01*
X0372146Y0043325D01*
X0372126Y0043191D01*
X0372102Y0043058D01*
X0372074Y0042926D01*
X0372042Y0042794D01*
X0372007Y0042663D01*
X0371968Y0042534D01*
X0371924Y0042405D01*
X0371877Y0042278D01*
X0371827Y0042153D01*
X0371772Y0042029D01*
X0371714Y0041906D01*
X0371653Y0041786D01*
X0371588Y0041667D01*
X0371519Y0041550D01*
X0371447Y0041435D01*
X0371372Y0041323D01*
X0371293Y0041213D01*
X0371211Y0041105D01*
X0371126Y0040999D01*
X0371038Y0040896D01*
X0370947Y0040796D01*
X0370853Y0040699D01*
X0370756Y0040604D01*
X0370657Y0040512D01*
X0370555Y0040423D01*
X0370450Y0040338D01*
X0370343Y0040255D01*
X0370233Y0040176D01*
X0370121Y0040099D01*
X0370007Y0040027D01*
X0369891Y0039957D01*
X0369772Y0039891D01*
X0369652Y0039829D01*
X0369530Y0039770D01*
X0369406Y0039714D01*
X0369281Y0039663D01*
X0369155Y0039615D01*
X0369027Y0039571D01*
X0368897Y0039531D01*
X0368767Y0039494D01*
X0368635Y0039461D01*
X0368503Y0039433D01*
X0368370Y0039408D01*
X0368236Y0039387D01*
X0368102Y0039370D01*
X0367967Y0039357D01*
X0367832Y0039348D01*
X0367697Y0039343D01*
X0367561Y0039342D01*
X0367426Y0039345D01*
X0367291Y0039352D01*
X0367156Y0039363D01*
X0367021Y0039378D01*
X0366887Y0039397D01*
X0366753Y0039420D01*
X0366621Y0039447D01*
X0366489Y0039477D01*
X0366358Y0039512D01*
X0366228Y0039550D01*
X0366099Y0039592D01*
X0365972Y0039638D01*
X0365846Y0039688D01*
X0365721Y0039742D01*
X0365599Y0039799D01*
X0365478Y0039859D01*
X0365358Y0039924D01*
X0365241Y0039991D01*
X0365126Y0040063D01*
X0365013Y0040137D01*
X0364902Y0040215D01*
X0364793Y0040296D01*
X0364687Y0040380D01*
X0364584Y0040467D01*
X0364483Y0040558D01*
X0364385Y0040651D01*
X0364289Y0040747D01*
X0364197Y0040846D01*
X0364107Y0040948D01*
X0364021Y0041052D01*
X0363937Y0041158D01*
X0363857Y0041267D01*
X0363780Y0041379D01*
X0363706Y0041492D01*
X0363636Y0041608D01*
X0363569Y0041726D01*
X0363506Y0041846D01*
X0363446Y0041967D01*
X0363390Y0042090D01*
X0363337Y0042215D01*
X0363289Y0042342D01*
X0363244Y0042469D01*
X0363202Y0042598D01*
X0363165Y0042728D01*
X0363131Y0042860D01*
X0363102Y0042992D01*
X0363076Y0043125D01*
X0363054Y0043258D01*
X0363036Y0043393D01*
X0363022Y0043527D01*
X0363012Y0043662D01*
X0363006Y0043798D01*
X0363004Y0043933D01*
X0389327Y0088579D02*
X0389327Y0088904D01*
X0389327Y0088579D02*
X0391227Y0088579D01*
X0403570Y0088579D02*
X0405469Y0088579D01*
X0405469Y0092122D01*
X0405469Y0115744D02*
X0405469Y0119287D01*
X0403570Y0119287D01*
X0391227Y0119287D02*
X0389327Y0119287D01*
X0389327Y0118963D01*
M02*
