G75*
%MOIN*%
%OFA0B0*%
%FSLAX25Y25*%
%IPPOS*%
%LPD*%
%AMOC8*
5,1,8,0,0,1.08239X$1,22.5*
%
%ADD10C,0.00600*%
%ADD11C,0.01400*%
D10*
X0032595Y0038933D02*
X0032595Y0308933D01*
X0032599Y0309295D01*
X0032613Y0309658D01*
X0032634Y0310020D01*
X0032665Y0310381D01*
X0032704Y0310741D01*
X0032752Y0311100D01*
X0032809Y0311458D01*
X0032874Y0311815D01*
X0032948Y0312170D01*
X0033031Y0312523D01*
X0033122Y0312874D01*
X0033221Y0313222D01*
X0033329Y0313568D01*
X0033445Y0313912D01*
X0033570Y0314252D01*
X0033702Y0314589D01*
X0033843Y0314923D01*
X0033992Y0315254D01*
X0034149Y0315581D01*
X0034313Y0315904D01*
X0034485Y0316223D01*
X0034665Y0316537D01*
X0034853Y0316848D01*
X0035048Y0317153D01*
X0035250Y0317454D01*
X0035460Y0317750D01*
X0035676Y0318040D01*
X0035900Y0318326D01*
X0036130Y0318606D01*
X0036367Y0318880D01*
X0036611Y0319148D01*
X0036861Y0319411D01*
X0037117Y0319667D01*
X0037380Y0319917D01*
X0037648Y0320161D01*
X0037922Y0320398D01*
X0038202Y0320628D01*
X0038488Y0320852D01*
X0038778Y0321068D01*
X0039074Y0321278D01*
X0039375Y0321480D01*
X0039680Y0321675D01*
X0039991Y0321863D01*
X0040305Y0322043D01*
X0040624Y0322215D01*
X0040947Y0322379D01*
X0041274Y0322536D01*
X0041605Y0322685D01*
X0041939Y0322826D01*
X0042276Y0322958D01*
X0042616Y0323083D01*
X0042960Y0323199D01*
X0043306Y0323307D01*
X0043654Y0323406D01*
X0044005Y0323497D01*
X0044358Y0323580D01*
X0044713Y0323654D01*
X0045070Y0323719D01*
X0045428Y0323776D01*
X0045787Y0323824D01*
X0046147Y0323863D01*
X0046508Y0323894D01*
X0046870Y0323915D01*
X0047233Y0323929D01*
X0047595Y0323933D01*
X0392595Y0323933D01*
X0392957Y0323929D01*
X0393320Y0323915D01*
X0393682Y0323894D01*
X0394043Y0323863D01*
X0394403Y0323824D01*
X0394762Y0323776D01*
X0395120Y0323719D01*
X0395477Y0323654D01*
X0395832Y0323580D01*
X0396185Y0323497D01*
X0396536Y0323406D01*
X0396884Y0323307D01*
X0397230Y0323199D01*
X0397574Y0323083D01*
X0397914Y0322958D01*
X0398251Y0322826D01*
X0398585Y0322685D01*
X0398916Y0322536D01*
X0399243Y0322379D01*
X0399566Y0322215D01*
X0399885Y0322043D01*
X0400199Y0321863D01*
X0400510Y0321675D01*
X0400815Y0321480D01*
X0401116Y0321278D01*
X0401412Y0321068D01*
X0401702Y0320852D01*
X0401988Y0320628D01*
X0402268Y0320398D01*
X0402542Y0320161D01*
X0402810Y0319917D01*
X0403073Y0319667D01*
X0403329Y0319411D01*
X0403579Y0319148D01*
X0403823Y0318880D01*
X0404060Y0318606D01*
X0404290Y0318326D01*
X0404514Y0318040D01*
X0404730Y0317750D01*
X0404940Y0317454D01*
X0405142Y0317153D01*
X0405337Y0316848D01*
X0405525Y0316537D01*
X0405705Y0316223D01*
X0405877Y0315904D01*
X0406041Y0315581D01*
X0406198Y0315254D01*
X0406347Y0314923D01*
X0406488Y0314589D01*
X0406620Y0314252D01*
X0406745Y0313912D01*
X0406861Y0313568D01*
X0406969Y0313222D01*
X0407068Y0312874D01*
X0407159Y0312523D01*
X0407242Y0312170D01*
X0407316Y0311815D01*
X0407381Y0311458D01*
X0407438Y0311100D01*
X0407486Y0310741D01*
X0407525Y0310381D01*
X0407556Y0310020D01*
X0407577Y0309658D01*
X0407591Y0309295D01*
X0407595Y0308933D01*
X0407595Y0038933D01*
X0407591Y0038571D01*
X0407577Y0038208D01*
X0407556Y0037846D01*
X0407525Y0037485D01*
X0407486Y0037125D01*
X0407438Y0036766D01*
X0407381Y0036408D01*
X0407316Y0036051D01*
X0407242Y0035696D01*
X0407159Y0035343D01*
X0407068Y0034992D01*
X0406969Y0034644D01*
X0406861Y0034298D01*
X0406745Y0033954D01*
X0406620Y0033614D01*
X0406488Y0033277D01*
X0406347Y0032943D01*
X0406198Y0032612D01*
X0406041Y0032285D01*
X0405877Y0031962D01*
X0405705Y0031643D01*
X0405525Y0031329D01*
X0405337Y0031018D01*
X0405142Y0030713D01*
X0404940Y0030412D01*
X0404730Y0030116D01*
X0404514Y0029826D01*
X0404290Y0029540D01*
X0404060Y0029260D01*
X0403823Y0028986D01*
X0403579Y0028718D01*
X0403329Y0028455D01*
X0403073Y0028199D01*
X0402810Y0027949D01*
X0402542Y0027705D01*
X0402268Y0027468D01*
X0401988Y0027238D01*
X0401702Y0027014D01*
X0401412Y0026798D01*
X0401116Y0026588D01*
X0400815Y0026386D01*
X0400510Y0026191D01*
X0400199Y0026003D01*
X0399885Y0025823D01*
X0399566Y0025651D01*
X0399243Y0025487D01*
X0398916Y0025330D01*
X0398585Y0025181D01*
X0398251Y0025040D01*
X0397914Y0024908D01*
X0397574Y0024783D01*
X0397230Y0024667D01*
X0396884Y0024559D01*
X0396536Y0024460D01*
X0396185Y0024369D01*
X0395832Y0024286D01*
X0395477Y0024212D01*
X0395120Y0024147D01*
X0394762Y0024090D01*
X0394403Y0024042D01*
X0394043Y0024003D01*
X0393682Y0023972D01*
X0393320Y0023951D01*
X0392957Y0023937D01*
X0392595Y0023933D01*
X0047595Y0023933D01*
X0047233Y0023937D01*
X0046870Y0023951D01*
X0046508Y0023972D01*
X0046147Y0024003D01*
X0045787Y0024042D01*
X0045428Y0024090D01*
X0045070Y0024147D01*
X0044713Y0024212D01*
X0044358Y0024286D01*
X0044005Y0024369D01*
X0043654Y0024460D01*
X0043306Y0024559D01*
X0042960Y0024667D01*
X0042616Y0024783D01*
X0042276Y0024908D01*
X0041939Y0025040D01*
X0041605Y0025181D01*
X0041274Y0025330D01*
X0040947Y0025487D01*
X0040624Y0025651D01*
X0040305Y0025823D01*
X0039991Y0026003D01*
X0039680Y0026191D01*
X0039375Y0026386D01*
X0039074Y0026588D01*
X0038778Y0026798D01*
X0038488Y0027014D01*
X0038202Y0027238D01*
X0037922Y0027468D01*
X0037648Y0027705D01*
X0037380Y0027949D01*
X0037117Y0028199D01*
X0036861Y0028455D01*
X0036611Y0028718D01*
X0036367Y0028986D01*
X0036130Y0029260D01*
X0035900Y0029540D01*
X0035676Y0029826D01*
X0035460Y0030116D01*
X0035250Y0030412D01*
X0035048Y0030713D01*
X0034853Y0031018D01*
X0034665Y0031329D01*
X0034485Y0031643D01*
X0034313Y0031962D01*
X0034149Y0032285D01*
X0033992Y0032612D01*
X0033843Y0032943D01*
X0033702Y0033277D01*
X0033570Y0033614D01*
X0033445Y0033954D01*
X0033329Y0034298D01*
X0033221Y0034644D01*
X0033122Y0034992D01*
X0033031Y0035343D01*
X0032948Y0035696D01*
X0032874Y0036051D01*
X0032809Y0036408D01*
X0032752Y0036766D01*
X0032704Y0037125D01*
X0032665Y0037485D01*
X0032634Y0037846D01*
X0032613Y0038208D01*
X0032599Y0038571D01*
X0032595Y0038933D01*
X0069095Y0052332D02*
X0069529Y0051899D01*
X0071264Y0051899D01*
X0070830Y0051465D02*
X0070830Y0052332D01*
X0070396Y0053429D02*
X0070830Y0053863D01*
X0070830Y0054730D01*
X0070396Y0055164D01*
X0069095Y0055164D01*
X0069529Y0056376D02*
X0070396Y0056376D01*
X0070830Y0056809D01*
X0070830Y0057677D01*
X0070396Y0058110D01*
X0069963Y0058110D01*
X0069963Y0056376D01*
X0069529Y0056376D02*
X0069095Y0056809D01*
X0069095Y0057677D01*
X0069095Y0053429D02*
X0071697Y0053429D01*
X0073895Y0053748D02*
X0074329Y0054182D01*
X0074763Y0053748D01*
X0074763Y0052881D01*
X0075196Y0052447D01*
X0075630Y0052881D01*
X0075630Y0054182D01*
X0075630Y0055827D02*
X0075630Y0056695D01*
X0075196Y0057128D01*
X0073895Y0057128D01*
X0073895Y0055827D01*
X0074329Y0055394D01*
X0074763Y0055827D01*
X0074763Y0057128D01*
X0075630Y0058340D02*
X0075630Y0059641D01*
X0075196Y0060075D01*
X0074329Y0060075D01*
X0073895Y0059641D01*
X0073895Y0058340D01*
X0076497Y0058340D01*
X0078695Y0058831D02*
X0080430Y0060566D01*
X0080864Y0060566D01*
X0081297Y0060132D01*
X0081297Y0059265D01*
X0080864Y0058831D01*
X0081297Y0057619D02*
X0081297Y0055885D01*
X0081297Y0056752D02*
X0078695Y0056752D01*
X0078695Y0058831D02*
X0078695Y0060566D01*
X0076497Y0061287D02*
X0076497Y0061720D01*
X0073895Y0061720D01*
X0073895Y0061287D02*
X0073895Y0062154D01*
X0074329Y0063251D02*
X0075196Y0063251D01*
X0075630Y0063685D01*
X0075630Y0064552D01*
X0075196Y0064986D01*
X0074763Y0064986D01*
X0074763Y0063251D01*
X0074329Y0063251D02*
X0073895Y0063685D01*
X0073895Y0064552D01*
X0074329Y0066197D02*
X0075196Y0066197D01*
X0075630Y0066631D01*
X0075630Y0067932D01*
X0076497Y0067932D02*
X0073895Y0067932D01*
X0073895Y0066631D01*
X0074329Y0066197D01*
X0071697Y0066516D02*
X0071697Y0065649D01*
X0071264Y0065215D01*
X0070830Y0065215D01*
X0070396Y0065649D01*
X0070396Y0066516D01*
X0069963Y0066950D01*
X0069529Y0066950D01*
X0069095Y0066516D01*
X0069095Y0065649D01*
X0069529Y0065215D01*
X0069095Y0064004D02*
X0069095Y0062269D01*
X0071697Y0062269D01*
X0071697Y0064004D01*
X0070396Y0063136D02*
X0070396Y0062269D01*
X0071697Y0066516D02*
X0071264Y0066950D01*
X0071697Y0068162D02*
X0071697Y0069463D01*
X0071264Y0069897D01*
X0070396Y0069897D01*
X0069963Y0069463D01*
X0069963Y0068162D01*
X0069095Y0068162D02*
X0071697Y0068162D01*
X0071264Y0071108D02*
X0071697Y0071542D01*
X0071697Y0072409D01*
X0071264Y0072843D01*
X0070830Y0072843D01*
X0070396Y0072409D01*
X0069963Y0072843D01*
X0069529Y0072843D01*
X0069095Y0072409D01*
X0069095Y0071542D01*
X0069529Y0071108D01*
X0070396Y0071976D02*
X0070396Y0072409D01*
X0071264Y0074055D02*
X0071697Y0074488D01*
X0071697Y0075356D01*
X0071264Y0075790D01*
X0070830Y0075790D01*
X0069095Y0074055D01*
X0069095Y0075790D01*
X0073895Y0075356D02*
X0073895Y0074488D01*
X0074329Y0074055D01*
X0075196Y0074055D01*
X0075630Y0074488D01*
X0075630Y0075356D01*
X0075196Y0075790D01*
X0074329Y0075790D01*
X0073895Y0075356D01*
X0073895Y0072958D02*
X0074329Y0072524D01*
X0076064Y0072524D01*
X0075630Y0072090D02*
X0075630Y0072958D01*
X0078695Y0072582D02*
X0080430Y0072582D01*
X0080430Y0073015D01*
X0079996Y0073449D01*
X0080430Y0073883D01*
X0079996Y0074316D01*
X0078695Y0074316D01*
X0078695Y0073449D02*
X0079996Y0073449D01*
X0080430Y0075528D02*
X0080430Y0075962D01*
X0078695Y0075962D01*
X0078695Y0076395D02*
X0078695Y0075528D01*
X0079129Y0077492D02*
X0078695Y0077926D01*
X0078695Y0079227D01*
X0078695Y0080439D02*
X0080430Y0080439D01*
X0080430Y0081306D02*
X0080430Y0081740D01*
X0080430Y0081306D02*
X0079563Y0080439D01*
X0080430Y0079227D02*
X0080430Y0077926D01*
X0079996Y0077492D01*
X0079129Y0077492D01*
X0081297Y0075962D02*
X0081731Y0075962D01*
X0083495Y0075601D02*
X0083929Y0076035D01*
X0085664Y0076035D01*
X0086097Y0075601D01*
X0086097Y0074300D01*
X0083495Y0074300D01*
X0083495Y0075601D01*
X0083495Y0077247D02*
X0085230Y0077247D01*
X0086097Y0078114D01*
X0085230Y0078982D01*
X0083495Y0078982D01*
X0084796Y0078982D02*
X0084796Y0077247D01*
X0086097Y0080193D02*
X0086097Y0081928D01*
X0086097Y0081061D02*
X0083495Y0081061D01*
X0083929Y0083140D02*
X0085664Y0084875D01*
X0083929Y0084875D01*
X0083495Y0084441D01*
X0083495Y0083574D01*
X0083929Y0083140D01*
X0085664Y0083140D01*
X0086097Y0083574D01*
X0086097Y0084441D01*
X0085664Y0084875D01*
X0081297Y0086275D02*
X0080864Y0085841D01*
X0080430Y0085841D01*
X0079996Y0086275D01*
X0079996Y0087142D01*
X0079563Y0087576D01*
X0079129Y0087576D01*
X0078695Y0087142D01*
X0078695Y0086275D01*
X0079129Y0085841D01*
X0079129Y0084629D02*
X0079996Y0084629D01*
X0080430Y0084195D01*
X0080430Y0083328D01*
X0079996Y0082894D01*
X0079129Y0082894D01*
X0078695Y0083328D01*
X0078695Y0084195D01*
X0079129Y0084629D01*
X0081297Y0086275D02*
X0081297Y0087142D01*
X0080864Y0087576D01*
X0081297Y0088787D02*
X0078695Y0088787D01*
X0078695Y0090088D01*
X0079129Y0090522D01*
X0080864Y0090522D01*
X0081297Y0090088D01*
X0081297Y0088787D01*
X0079129Y0091734D02*
X0079129Y0092168D01*
X0078695Y0092168D01*
X0078695Y0091734D01*
X0079129Y0091734D01*
X0076497Y0089770D02*
X0073895Y0089770D01*
X0074329Y0088558D02*
X0074763Y0088124D01*
X0074763Y0087257D01*
X0075196Y0086823D01*
X0075630Y0087257D01*
X0075630Y0088558D01*
X0075196Y0089770D02*
X0075630Y0090203D01*
X0075630Y0091071D01*
X0075196Y0091504D01*
X0073895Y0091504D01*
X0074329Y0088558D02*
X0073895Y0088124D01*
X0073895Y0086823D01*
X0073895Y0085611D02*
X0073895Y0084310D01*
X0074329Y0083877D01*
X0074763Y0084310D01*
X0074763Y0085611D01*
X0075196Y0085611D02*
X0073895Y0085611D01*
X0075196Y0085611D02*
X0075630Y0085178D01*
X0075630Y0084310D01*
X0076497Y0082346D02*
X0073895Y0082346D01*
X0073895Y0081912D02*
X0073895Y0082780D01*
X0075196Y0080815D02*
X0075196Y0079948D01*
X0076064Y0080382D02*
X0076497Y0080815D01*
X0076064Y0080382D02*
X0073895Y0080382D01*
X0076497Y0081912D02*
X0076497Y0082346D01*
X0079996Y0068538D02*
X0079996Y0067671D01*
X0080864Y0068104D02*
X0078695Y0068104D01*
X0079129Y0066459D02*
X0079996Y0066459D01*
X0080430Y0066025D01*
X0080430Y0065158D01*
X0079996Y0064724D01*
X0079129Y0064724D01*
X0078695Y0065158D01*
X0078695Y0066025D01*
X0079129Y0066459D01*
X0080864Y0068104D02*
X0081297Y0068538D01*
X0083495Y0068898D02*
X0085230Y0068898D01*
X0084363Y0068898D02*
X0085230Y0069766D01*
X0085230Y0070199D01*
X0084796Y0067687D02*
X0083929Y0067687D01*
X0083495Y0067253D01*
X0083495Y0066386D01*
X0083929Y0065952D01*
X0084796Y0065952D01*
X0085230Y0066386D01*
X0085230Y0067253D01*
X0084796Y0067687D01*
X0084796Y0064855D02*
X0084796Y0063988D01*
X0085664Y0064421D02*
X0086097Y0064855D01*
X0085664Y0064421D02*
X0083495Y0064421D01*
X0083929Y0059829D02*
X0084363Y0059396D01*
X0084363Y0058528D01*
X0084796Y0058094D01*
X0085230Y0058528D01*
X0085230Y0059829D01*
X0083929Y0059829D02*
X0083495Y0059396D01*
X0083495Y0058094D01*
X0083929Y0056883D02*
X0083495Y0056449D01*
X0083495Y0055148D01*
X0082628Y0055148D02*
X0085230Y0055148D01*
X0085230Y0056449D01*
X0084796Y0056883D01*
X0083929Y0056883D01*
X0083495Y0053936D02*
X0085230Y0053936D01*
X0085230Y0052201D02*
X0083929Y0052201D01*
X0083495Y0052635D01*
X0083495Y0053936D01*
X0081297Y0053805D02*
X0080430Y0054673D01*
X0078695Y0054673D01*
X0079996Y0054673D02*
X0079996Y0052938D01*
X0080430Y0052938D02*
X0081297Y0053805D01*
X0080430Y0052938D02*
X0078695Y0052938D01*
X0079129Y0051726D02*
X0080864Y0051726D01*
X0081297Y0051293D01*
X0081297Y0049992D01*
X0078695Y0049992D01*
X0078695Y0051293D01*
X0079129Y0051726D01*
X0076931Y0050916D02*
X0076497Y0050916D01*
X0075630Y0050916D02*
X0073895Y0050916D01*
X0073895Y0050483D02*
X0073895Y0051350D01*
X0073895Y0052447D02*
X0073895Y0053748D01*
X0075630Y0050916D02*
X0075630Y0050483D01*
X0075630Y0049271D02*
X0075630Y0047970D01*
X0075196Y0047536D01*
X0074329Y0047536D01*
X0073895Y0047970D01*
X0073895Y0049271D01*
X0076497Y0049271D01*
X0078695Y0045833D02*
X0078695Y0044532D01*
X0079129Y0044099D01*
X0079996Y0044099D01*
X0080430Y0044532D01*
X0080430Y0045833D01*
X0081297Y0045833D02*
X0078695Y0045833D01*
X0078695Y0042887D02*
X0079996Y0042887D01*
X0080430Y0042453D01*
X0080430Y0041152D01*
X0078695Y0041152D01*
X0078695Y0039940D02*
X0078695Y0038639D01*
X0079129Y0038205D01*
X0079563Y0038639D01*
X0079563Y0039940D01*
X0079996Y0039940D02*
X0078695Y0039940D01*
X0079996Y0039940D02*
X0080430Y0039507D01*
X0080430Y0038639D01*
X0075630Y0039130D02*
X0075630Y0039998D01*
X0075196Y0040431D01*
X0074763Y0040431D01*
X0074763Y0038697D01*
X0075196Y0038697D02*
X0075630Y0039130D01*
X0075196Y0038697D02*
X0074329Y0038697D01*
X0073895Y0039130D01*
X0073895Y0039998D01*
X0073895Y0041643D02*
X0073895Y0042944D01*
X0074329Y0043378D01*
X0075196Y0043378D01*
X0075630Y0042944D01*
X0075630Y0041643D01*
X0073028Y0041643D01*
X0074763Y0037485D02*
X0074763Y0035750D01*
X0075196Y0035750D02*
X0075630Y0036184D01*
X0075630Y0037051D01*
X0075196Y0037485D01*
X0074763Y0037485D01*
X0073895Y0037051D02*
X0073895Y0036184D01*
X0074329Y0035750D01*
X0075196Y0035750D01*
X0073895Y0034538D02*
X0075196Y0033237D01*
X0074763Y0032804D02*
X0076497Y0034538D01*
X0076497Y0032804D02*
X0073895Y0032804D01*
X0083495Y0042380D02*
X0086097Y0042380D01*
X0086097Y0043681D01*
X0085664Y0044115D01*
X0084796Y0044115D01*
X0084363Y0043681D01*
X0084363Y0042380D01*
X0083929Y0045326D02*
X0083495Y0045760D01*
X0083495Y0047061D01*
X0085230Y0047061D01*
X0086097Y0048273D02*
X0086097Y0048706D01*
X0083495Y0048706D01*
X0083495Y0048273D02*
X0083495Y0049140D01*
X0083495Y0050237D02*
X0083495Y0051105D01*
X0083495Y0050671D02*
X0086097Y0050671D01*
X0086097Y0050237D01*
X0085230Y0045326D02*
X0083929Y0045326D01*
D11*
X0139786Y0268765D02*
X0139786Y0274370D01*
X0136984Y0274370D01*
X0136050Y0273435D01*
X0136050Y0271567D01*
X0136984Y0270633D01*
X0139786Y0270633D01*
X0142495Y0272501D02*
X0142495Y0273435D01*
X0143429Y0274370D01*
X0145298Y0274370D01*
X0146232Y0273435D01*
X0146232Y0271567D01*
X0145298Y0270633D01*
X0143429Y0270633D01*
X0142495Y0272501D02*
X0146232Y0272501D01*
X0148941Y0272501D02*
X0149875Y0273435D01*
X0151743Y0273435D01*
X0152677Y0274370D01*
X0152677Y0275304D01*
X0151743Y0276238D01*
X0149875Y0276238D01*
X0148941Y0275304D01*
X0148941Y0272501D02*
X0148941Y0271567D01*
X0149875Y0270633D01*
X0151743Y0270633D01*
X0152677Y0271567D01*
X0161832Y0271567D02*
X0162766Y0270633D01*
X0164634Y0270633D01*
X0165568Y0271567D01*
X0161832Y0275304D01*
X0161832Y0271567D01*
X0165568Y0271567D02*
X0165568Y0275304D01*
X0164634Y0276238D01*
X0162766Y0276238D01*
X0161832Y0275304D01*
X0168277Y0270633D02*
X0172014Y0270633D01*
X0170145Y0270633D02*
X0170145Y0276238D01*
X0172014Y0274370D01*
X0154289Y0281133D02*
X0154289Y0286738D01*
X0151486Y0286738D01*
X0150552Y0285804D01*
X0150552Y0282067D01*
X0151486Y0281133D01*
X0154289Y0281133D01*
X0147843Y0281133D02*
X0146909Y0281133D01*
X0146909Y0282067D01*
X0147843Y0282067D01*
X0147843Y0281133D01*
X0138175Y0281133D02*
X0138175Y0286738D01*
X0135372Y0286738D01*
X0134438Y0285804D01*
X0134438Y0283935D01*
X0135372Y0283001D01*
X0138175Y0283001D01*
X0136307Y0283001D02*
X0134438Y0281133D01*
X0131729Y0282067D02*
X0130795Y0283001D01*
X0127993Y0283001D01*
X0127993Y0283935D02*
X0127993Y0281133D01*
X0130795Y0281133D01*
X0131729Y0282067D01*
X0130795Y0284870D02*
X0128927Y0284870D01*
X0127993Y0283935D01*
X0125284Y0284870D02*
X0125284Y0281133D01*
X0125284Y0284870D02*
X0122481Y0284870D01*
X0121547Y0283935D01*
X0121547Y0281133D01*
X0118838Y0282067D02*
X0117904Y0281133D01*
X0115102Y0281133D01*
X0112393Y0282067D02*
X0112393Y0283935D01*
X0111459Y0284870D01*
X0109590Y0284870D01*
X0108656Y0283935D01*
X0108656Y0283001D01*
X0112393Y0283001D01*
X0112393Y0282067D02*
X0111459Y0281133D01*
X0109590Y0281133D01*
X0105947Y0281133D02*
X0103145Y0281133D01*
X0102211Y0282067D01*
X0103145Y0283001D01*
X0105013Y0283001D01*
X0105947Y0283935D01*
X0105013Y0284870D01*
X0102211Y0284870D01*
X0103682Y0291633D02*
X0106484Y0293501D01*
X0103682Y0295370D01*
X0101113Y0294435D02*
X0101113Y0292567D01*
X0100179Y0291633D01*
X0098311Y0291633D01*
X0097377Y0292567D01*
X0097377Y0294435D01*
X0098311Y0295370D01*
X0100179Y0295370D01*
X0101113Y0294435D01*
X0094668Y0295370D02*
X0094668Y0292567D01*
X0093734Y0291633D01*
X0090931Y0291633D01*
X0090931Y0295370D01*
X0088222Y0295370D02*
X0086354Y0295370D01*
X0087288Y0296304D02*
X0087288Y0292567D01*
X0086354Y0291633D01*
X0085420Y0276238D02*
X0084486Y0275304D01*
X0084486Y0274370D01*
X0085420Y0273435D01*
X0084486Y0272501D01*
X0084486Y0271567D01*
X0085420Y0270633D01*
X0087288Y0270633D01*
X0088222Y0271567D01*
X0086354Y0273435D02*
X0085420Y0273435D01*
X0085420Y0276238D02*
X0087288Y0276238D01*
X0088222Y0275304D01*
X0090931Y0274370D02*
X0092799Y0270633D01*
X0094668Y0274370D01*
X0103822Y0275304D02*
X0107559Y0271567D01*
X0107559Y0270633D01*
X0110268Y0270633D02*
X0114004Y0270633D01*
X0112136Y0270633D02*
X0112136Y0276238D01*
X0114004Y0274370D01*
X0116713Y0275304D02*
X0116713Y0271567D01*
X0117647Y0270633D01*
X0119516Y0270633D01*
X0120450Y0271567D01*
X0116713Y0275304D01*
X0117647Y0276238D01*
X0119516Y0276238D01*
X0120450Y0275304D01*
X0120450Y0271567D01*
X0123159Y0270633D02*
X0126895Y0270633D01*
X0123159Y0274370D01*
X0123159Y0275304D01*
X0124093Y0276238D01*
X0125961Y0276238D01*
X0126895Y0275304D01*
X0118838Y0282067D02*
X0118838Y0283935D01*
X0117904Y0284870D01*
X0115102Y0284870D01*
X0116573Y0291633D02*
X0118441Y0291633D01*
X0119375Y0292567D01*
X0119375Y0294435D01*
X0118441Y0295370D01*
X0116573Y0295370D01*
X0115639Y0294435D01*
X0115639Y0293501D01*
X0119375Y0293501D01*
X0121944Y0295370D02*
X0122878Y0295370D01*
X0124747Y0293501D01*
X0124747Y0291633D02*
X0124747Y0295370D01*
X0127456Y0295370D02*
X0128390Y0294435D01*
X0131192Y0294435D01*
X0131192Y0291633D02*
X0128390Y0291633D01*
X0127456Y0292567D01*
X0127456Y0293501D01*
X0128390Y0294435D01*
X0127456Y0295370D02*
X0127456Y0296304D01*
X0128390Y0297238D01*
X0131192Y0297238D01*
X0131192Y0291633D01*
X0140347Y0291633D02*
X0144083Y0291633D01*
X0140347Y0295370D01*
X0140347Y0296304D01*
X0141281Y0297238D01*
X0143149Y0297238D01*
X0144083Y0296304D01*
X0146792Y0296304D02*
X0147726Y0297238D01*
X0149595Y0297238D01*
X0150529Y0296304D01*
X0148660Y0294435D02*
X0147726Y0294435D01*
X0146792Y0293501D01*
X0146792Y0292567D01*
X0147726Y0291633D01*
X0149595Y0291633D01*
X0150529Y0292567D01*
X0153238Y0294435D02*
X0154172Y0293501D01*
X0156974Y0293501D01*
X0156974Y0291633D02*
X0156974Y0297238D01*
X0154172Y0297238D01*
X0153238Y0296304D01*
X0153238Y0294435D01*
X0159683Y0293501D02*
X0159683Y0292567D01*
X0160617Y0291633D01*
X0162486Y0291633D01*
X0163420Y0292567D01*
X0162486Y0294435D02*
X0160617Y0294435D01*
X0159683Y0293501D01*
X0159683Y0296304D02*
X0160617Y0297238D01*
X0162486Y0297238D01*
X0163420Y0296304D01*
X0163420Y0295370D01*
X0162486Y0294435D01*
X0166129Y0291633D02*
X0169865Y0291633D01*
X0169865Y0297238D01*
X0166129Y0297238D01*
X0167997Y0294435D02*
X0169865Y0294435D01*
X0147726Y0294435D02*
X0146792Y0295370D01*
X0146792Y0296304D01*
X0112930Y0292567D02*
X0111996Y0293501D01*
X0109193Y0293501D01*
X0109193Y0294435D02*
X0109193Y0291633D01*
X0111996Y0291633D01*
X0112930Y0292567D01*
X0111996Y0295370D02*
X0110128Y0295370D01*
X0109193Y0294435D01*
X0106484Y0291633D02*
X0106484Y0297238D01*
X0107559Y0276238D02*
X0103822Y0276238D01*
X0103822Y0275304D01*
M02*
