G75*
%MOIN*%
%OFA0B0*%
%FSLAX25Y25*%
%IPPOS*%
%LPD*%
%AMOC8*
5,1,8,0,0,1.08239X$1,22.5*
%
%ADD10C,0.00600*%
%ADD11R,0.03937X0.03937*%
%ADD12C,0.07874*%
%ADD13C,0.00500*%
%ADD14R,0.11811X0.07087*%
%ADD15R,0.05984X0.08583*%
%ADD16R,0.06299X0.05906*%
%ADD17R,0.02953X0.02756*%
%ADD18R,0.02559X0.02756*%
%ADD19R,0.04528X0.03366*%
%ADD20R,0.03346X0.04724*%
%ADD21R,0.02953X0.02559*%
%ADD22R,0.03346X0.05118*%
%ADD23R,0.05512X0.03937*%
%ADD24R,0.03799X0.03799*%
%ADD25R,0.06299X0.05512*%
%ADD26R,0.05433X0.01772*%
%ADD27R,0.08268X0.05807*%
%ADD28R,0.07480X0.04626*%
%ADD29R,0.07480X0.09350*%
%ADD30R,0.05906X0.03543*%
%ADD31R,0.03543X0.05906*%
%ADD32R,0.23622X0.23622*%
%ADD33R,0.14961X0.07874*%
%ADD34R,0.05906X0.07874*%
%ADD35R,0.05709X0.01772*%
D10*
X0032595Y0038933D02*
X0032595Y0308933D01*
X0032599Y0309295D01*
X0032613Y0309658D01*
X0032634Y0310020D01*
X0032665Y0310381D01*
X0032704Y0310741D01*
X0032752Y0311100D01*
X0032809Y0311458D01*
X0032874Y0311815D01*
X0032948Y0312170D01*
X0033031Y0312523D01*
X0033122Y0312874D01*
X0033221Y0313222D01*
X0033329Y0313568D01*
X0033445Y0313912D01*
X0033570Y0314252D01*
X0033702Y0314589D01*
X0033843Y0314923D01*
X0033992Y0315254D01*
X0034149Y0315581D01*
X0034313Y0315904D01*
X0034485Y0316223D01*
X0034665Y0316537D01*
X0034853Y0316848D01*
X0035048Y0317153D01*
X0035250Y0317454D01*
X0035460Y0317750D01*
X0035676Y0318040D01*
X0035900Y0318326D01*
X0036130Y0318606D01*
X0036367Y0318880D01*
X0036611Y0319148D01*
X0036861Y0319411D01*
X0037117Y0319667D01*
X0037380Y0319917D01*
X0037648Y0320161D01*
X0037922Y0320398D01*
X0038202Y0320628D01*
X0038488Y0320852D01*
X0038778Y0321068D01*
X0039074Y0321278D01*
X0039375Y0321480D01*
X0039680Y0321675D01*
X0039991Y0321863D01*
X0040305Y0322043D01*
X0040624Y0322215D01*
X0040947Y0322379D01*
X0041274Y0322536D01*
X0041605Y0322685D01*
X0041939Y0322826D01*
X0042276Y0322958D01*
X0042616Y0323083D01*
X0042960Y0323199D01*
X0043306Y0323307D01*
X0043654Y0323406D01*
X0044005Y0323497D01*
X0044358Y0323580D01*
X0044713Y0323654D01*
X0045070Y0323719D01*
X0045428Y0323776D01*
X0045787Y0323824D01*
X0046147Y0323863D01*
X0046508Y0323894D01*
X0046870Y0323915D01*
X0047233Y0323929D01*
X0047595Y0323933D01*
X0392595Y0323933D01*
X0392957Y0323929D01*
X0393320Y0323915D01*
X0393682Y0323894D01*
X0394043Y0323863D01*
X0394403Y0323824D01*
X0394762Y0323776D01*
X0395120Y0323719D01*
X0395477Y0323654D01*
X0395832Y0323580D01*
X0396185Y0323497D01*
X0396536Y0323406D01*
X0396884Y0323307D01*
X0397230Y0323199D01*
X0397574Y0323083D01*
X0397914Y0322958D01*
X0398251Y0322826D01*
X0398585Y0322685D01*
X0398916Y0322536D01*
X0399243Y0322379D01*
X0399566Y0322215D01*
X0399885Y0322043D01*
X0400199Y0321863D01*
X0400510Y0321675D01*
X0400815Y0321480D01*
X0401116Y0321278D01*
X0401412Y0321068D01*
X0401702Y0320852D01*
X0401988Y0320628D01*
X0402268Y0320398D01*
X0402542Y0320161D01*
X0402810Y0319917D01*
X0403073Y0319667D01*
X0403329Y0319411D01*
X0403579Y0319148D01*
X0403823Y0318880D01*
X0404060Y0318606D01*
X0404290Y0318326D01*
X0404514Y0318040D01*
X0404730Y0317750D01*
X0404940Y0317454D01*
X0405142Y0317153D01*
X0405337Y0316848D01*
X0405525Y0316537D01*
X0405705Y0316223D01*
X0405877Y0315904D01*
X0406041Y0315581D01*
X0406198Y0315254D01*
X0406347Y0314923D01*
X0406488Y0314589D01*
X0406620Y0314252D01*
X0406745Y0313912D01*
X0406861Y0313568D01*
X0406969Y0313222D01*
X0407068Y0312874D01*
X0407159Y0312523D01*
X0407242Y0312170D01*
X0407316Y0311815D01*
X0407381Y0311458D01*
X0407438Y0311100D01*
X0407486Y0310741D01*
X0407525Y0310381D01*
X0407556Y0310020D01*
X0407577Y0309658D01*
X0407591Y0309295D01*
X0407595Y0308933D01*
X0407595Y0038933D01*
X0407591Y0038571D01*
X0407577Y0038208D01*
X0407556Y0037846D01*
X0407525Y0037485D01*
X0407486Y0037125D01*
X0407438Y0036766D01*
X0407381Y0036408D01*
X0407316Y0036051D01*
X0407242Y0035696D01*
X0407159Y0035343D01*
X0407068Y0034992D01*
X0406969Y0034644D01*
X0406861Y0034298D01*
X0406745Y0033954D01*
X0406620Y0033614D01*
X0406488Y0033277D01*
X0406347Y0032943D01*
X0406198Y0032612D01*
X0406041Y0032285D01*
X0405877Y0031962D01*
X0405705Y0031643D01*
X0405525Y0031329D01*
X0405337Y0031018D01*
X0405142Y0030713D01*
X0404940Y0030412D01*
X0404730Y0030116D01*
X0404514Y0029826D01*
X0404290Y0029540D01*
X0404060Y0029260D01*
X0403823Y0028986D01*
X0403579Y0028718D01*
X0403329Y0028455D01*
X0403073Y0028199D01*
X0402810Y0027949D01*
X0402542Y0027705D01*
X0402268Y0027468D01*
X0401988Y0027238D01*
X0401702Y0027014D01*
X0401412Y0026798D01*
X0401116Y0026588D01*
X0400815Y0026386D01*
X0400510Y0026191D01*
X0400199Y0026003D01*
X0399885Y0025823D01*
X0399566Y0025651D01*
X0399243Y0025487D01*
X0398916Y0025330D01*
X0398585Y0025181D01*
X0398251Y0025040D01*
X0397914Y0024908D01*
X0397574Y0024783D01*
X0397230Y0024667D01*
X0396884Y0024559D01*
X0396536Y0024460D01*
X0396185Y0024369D01*
X0395832Y0024286D01*
X0395477Y0024212D01*
X0395120Y0024147D01*
X0394762Y0024090D01*
X0394403Y0024042D01*
X0394043Y0024003D01*
X0393682Y0023972D01*
X0393320Y0023951D01*
X0392957Y0023937D01*
X0392595Y0023933D01*
X0047595Y0023933D01*
X0047233Y0023937D01*
X0046870Y0023951D01*
X0046508Y0023972D01*
X0046147Y0024003D01*
X0045787Y0024042D01*
X0045428Y0024090D01*
X0045070Y0024147D01*
X0044713Y0024212D01*
X0044358Y0024286D01*
X0044005Y0024369D01*
X0043654Y0024460D01*
X0043306Y0024559D01*
X0042960Y0024667D01*
X0042616Y0024783D01*
X0042276Y0024908D01*
X0041939Y0025040D01*
X0041605Y0025181D01*
X0041274Y0025330D01*
X0040947Y0025487D01*
X0040624Y0025651D01*
X0040305Y0025823D01*
X0039991Y0026003D01*
X0039680Y0026191D01*
X0039375Y0026386D01*
X0039074Y0026588D01*
X0038778Y0026798D01*
X0038488Y0027014D01*
X0038202Y0027238D01*
X0037922Y0027468D01*
X0037648Y0027705D01*
X0037380Y0027949D01*
X0037117Y0028199D01*
X0036861Y0028455D01*
X0036611Y0028718D01*
X0036367Y0028986D01*
X0036130Y0029260D01*
X0035900Y0029540D01*
X0035676Y0029826D01*
X0035460Y0030116D01*
X0035250Y0030412D01*
X0035048Y0030713D01*
X0034853Y0031018D01*
X0034665Y0031329D01*
X0034485Y0031643D01*
X0034313Y0031962D01*
X0034149Y0032285D01*
X0033992Y0032612D01*
X0033843Y0032943D01*
X0033702Y0033277D01*
X0033570Y0033614D01*
X0033445Y0033954D01*
X0033329Y0034298D01*
X0033221Y0034644D01*
X0033122Y0034992D01*
X0033031Y0035343D01*
X0032948Y0035696D01*
X0032874Y0036051D01*
X0032809Y0036408D01*
X0032752Y0036766D01*
X0032704Y0037125D01*
X0032665Y0037485D01*
X0032634Y0037846D01*
X0032613Y0038208D01*
X0032599Y0038571D01*
X0032595Y0038933D01*
D11*
X0059095Y0073933D03*
X0066095Y0073933D03*
X0260095Y0047433D03*
X0260095Y0040433D03*
X0340095Y0040433D03*
X0340095Y0047433D03*
X0379095Y0081433D03*
X0386095Y0081433D03*
X0368595Y0116433D03*
X0361595Y0116433D03*
X0265095Y0305433D03*
X0265095Y0312433D03*
X0255095Y0312433D03*
X0255095Y0305433D03*
D12*
X0189406Y0277122D02*
X0165784Y0277122D01*
X0165784Y0300744D01*
X0189406Y0300744D01*
X0189406Y0277122D01*
X0189406Y0284995D02*
X0165784Y0284995D01*
X0165784Y0292868D02*
X0189406Y0292868D01*
X0189406Y0300741D02*
X0165784Y0300741D01*
X0134406Y0277122D02*
X0110784Y0277122D01*
X0110784Y0300744D01*
X0134406Y0300744D01*
X0134406Y0277122D01*
X0134406Y0284995D02*
X0110784Y0284995D01*
X0110784Y0292868D02*
X0134406Y0292868D01*
X0134406Y0300741D02*
X0110784Y0300741D01*
X0079406Y0277122D02*
X0055784Y0277122D01*
X0055784Y0300744D01*
X0079406Y0300744D01*
X0079406Y0277122D01*
X0079406Y0284995D02*
X0055784Y0284995D01*
X0055784Y0292868D02*
X0079406Y0292868D01*
X0079406Y0300741D02*
X0055784Y0300741D01*
X0055784Y0222122D02*
X0079406Y0222122D01*
X0055784Y0222122D02*
X0055784Y0245744D01*
X0079406Y0245744D01*
X0079406Y0222122D01*
X0079406Y0229995D02*
X0055784Y0229995D01*
X0055784Y0237868D02*
X0079406Y0237868D01*
X0079406Y0245741D02*
X0055784Y0245741D01*
X0110784Y0222122D02*
X0134406Y0222122D01*
X0110784Y0222122D02*
X0110784Y0245744D01*
X0134406Y0245744D01*
X0134406Y0222122D01*
X0134406Y0229995D02*
X0110784Y0229995D01*
X0110784Y0237868D02*
X0134406Y0237868D01*
X0134406Y0245741D02*
X0110784Y0245741D01*
X0165784Y0222122D02*
X0189406Y0222122D01*
X0165784Y0222122D02*
X0165784Y0245744D01*
X0189406Y0245744D01*
X0189406Y0222122D01*
X0189406Y0229995D02*
X0165784Y0229995D01*
X0165784Y0237868D02*
X0189406Y0237868D01*
X0189406Y0245741D02*
X0165784Y0245741D01*
X0134406Y0167122D02*
X0110784Y0167122D01*
X0110784Y0190744D01*
X0134406Y0190744D01*
X0134406Y0167122D01*
X0134406Y0174995D02*
X0110784Y0174995D01*
X0110784Y0182868D02*
X0134406Y0182868D01*
X0134406Y0190741D02*
X0110784Y0190741D01*
X0079406Y0167122D02*
X0055784Y0167122D01*
X0055784Y0190744D01*
X0079406Y0190744D01*
X0079406Y0167122D01*
X0079406Y0174995D02*
X0055784Y0174995D01*
X0055784Y0182868D02*
X0079406Y0182868D01*
X0079406Y0190741D02*
X0055784Y0190741D01*
D13*
X0067595Y0181433D02*
X0067595Y0176433D01*
X0122595Y0176433D02*
X0122595Y0181433D01*
X0122595Y0231433D02*
X0122595Y0236433D01*
X0067595Y0236433D02*
X0067595Y0231433D01*
X0067595Y0286433D02*
X0067595Y0291433D01*
X0122595Y0291433D02*
X0122595Y0286433D01*
X0177595Y0286433D02*
X0177595Y0291433D01*
X0177595Y0236433D02*
X0177595Y0231433D01*
D14*
X0180095Y0105724D03*
X0180095Y0092142D03*
X0225095Y0092142D03*
X0225095Y0105724D03*
D15*
X0152300Y0103933D03*
X0137890Y0103933D03*
D16*
X0115095Y0109543D03*
X0115095Y0123323D03*
X0172595Y0172043D03*
X0185095Y0172043D03*
X0197595Y0172043D03*
X0210095Y0172043D03*
X0222595Y0172043D03*
X0222595Y0185823D03*
X0210095Y0185823D03*
X0197595Y0185823D03*
X0185095Y0185823D03*
X0172595Y0185823D03*
D17*
X0057103Y0132732D03*
X0057103Y0128795D03*
X0057103Y0124858D03*
X0057103Y0120921D03*
X0057103Y0116984D03*
X0057103Y0113047D03*
X0057103Y0109110D03*
X0057103Y0105173D03*
D18*
X0052379Y0111079D03*
X0052379Y0126827D03*
X0046276Y0088047D03*
D19*
X0046473Y0139583D03*
D20*
X0104938Y0132486D03*
D21*
X0105135Y0127614D03*
X0105135Y0102614D03*
D22*
X0104938Y0090262D03*
D23*
X0235764Y0138933D03*
X0244426Y0135193D03*
X0244426Y0142673D03*
D24*
X0257595Y0142033D03*
X0257595Y0135833D03*
X0222595Y0135833D03*
X0222595Y0142033D03*
X0210095Y0142033D03*
X0210095Y0135833D03*
X0197595Y0135833D03*
X0197595Y0142033D03*
X0185095Y0142033D03*
X0185095Y0135833D03*
X0172595Y0135833D03*
X0172595Y0142033D03*
X0115095Y0100783D03*
X0115095Y0094583D03*
X0080696Y0068933D03*
X0074495Y0068933D03*
X0065696Y0063933D03*
X0059495Y0063933D03*
X0059495Y0053933D03*
X0065696Y0053933D03*
X0074495Y0048933D03*
X0080696Y0048933D03*
X0080696Y0058933D03*
X0074495Y0058933D03*
X0065696Y0043933D03*
X0059495Y0043933D03*
X0284495Y0058933D03*
X0290696Y0058933D03*
X0364495Y0058933D03*
X0370696Y0058933D03*
X0353196Y0116433D03*
X0346995Y0116433D03*
D25*
X0351060Y0052791D03*
X0351060Y0043933D03*
X0351060Y0035075D03*
X0384131Y0035075D03*
X0384131Y0052791D03*
X0304131Y0052791D03*
X0304131Y0035075D03*
X0271060Y0035075D03*
X0271060Y0043933D03*
X0271060Y0052791D03*
D26*
X0387320Y0098815D03*
X0387320Y0101374D03*
X0387320Y0103933D03*
X0387320Y0106492D03*
X0387320Y0109051D03*
D27*
X0388540Y0113628D03*
X0388540Y0094238D03*
D28*
X0397595Y0100636D03*
X0397595Y0107230D03*
D29*
X0397595Y0115400D03*
X0397595Y0092467D03*
D30*
X0345528Y0244248D03*
X0345528Y0249248D03*
X0345528Y0254248D03*
X0345528Y0259248D03*
X0345528Y0264248D03*
X0345528Y0269248D03*
X0345528Y0274248D03*
X0345528Y0279248D03*
X0345528Y0284248D03*
X0345528Y0289248D03*
X0345528Y0294248D03*
X0345528Y0299248D03*
X0345528Y0304248D03*
X0345528Y0309248D03*
X0274662Y0309248D03*
X0274662Y0304248D03*
X0274662Y0299248D03*
X0274662Y0294248D03*
X0274662Y0289248D03*
X0274662Y0284248D03*
X0274662Y0279248D03*
X0274662Y0274248D03*
X0274662Y0269248D03*
X0274662Y0264248D03*
X0274662Y0259248D03*
X0274662Y0254248D03*
X0274662Y0249248D03*
X0274662Y0244248D03*
D31*
X0287595Y0238382D03*
X0292595Y0238382D03*
X0297595Y0238382D03*
X0302595Y0238382D03*
X0307595Y0238382D03*
X0312595Y0238382D03*
X0317595Y0238382D03*
X0322595Y0238382D03*
X0327595Y0238382D03*
X0332595Y0238382D03*
D32*
X0310095Y0278933D03*
D33*
X0202595Y0061335D03*
D34*
X0202595Y0086531D03*
X0193540Y0086531D03*
X0211650Y0086531D03*
D35*
X0347753Y0091256D03*
X0347753Y0093815D03*
X0347753Y0096374D03*
X0347753Y0098933D03*
X0347753Y0101492D03*
X0347753Y0104051D03*
X0347753Y0106610D03*
X0367438Y0106610D03*
X0367438Y0104051D03*
X0367438Y0101492D03*
X0367438Y0098933D03*
X0367438Y0096374D03*
X0367438Y0093815D03*
X0367438Y0091256D03*
M02*
