%
M48
M72
T01C0.02362
T02C0.04000
T03C0.12992
%
T01
X47274Y212274
X62274Y197274
X82274Y197274
X82274Y202274
X82274Y207274
X82274Y212274
X82274Y217274
X82274Y222274
X87274Y222274
X87274Y217274
X87274Y212274
X87274Y207274
X87274Y202274
X87274Y197274
X87274Y192274
X87274Y187274
X82274Y187274
X82274Y192274
X92274Y192274
X92274Y197274
X92274Y202274
X92274Y207274
X92274Y212274
X92274Y217274
X102274Y227274
X107274Y227274
X112274Y227274
X107274Y222274
X122274Y217274
X122274Y212274
X122274Y207274
X122274Y202274
X122274Y197274
X122274Y192274
X122274Y187274
X117274Y187274
X112274Y187274
X107274Y187274
X102274Y187274
X97274Y187274
X92274Y187274
X107274Y174774
X107274Y169774
X109774Y154774
X114774Y154774
X119774Y154774
X104774Y154774
X99774Y154774
X94774Y154774
X109774Y137274
X137274Y162274
X132274Y176024
X132274Y187274
X132274Y192274
X132274Y197274
X132274Y202274
X132274Y207274
X132274Y212274
X132274Y217274
X132274Y222274
X127274Y222274
X127274Y217274
X127274Y212274
X127274Y207274
X127274Y202274
X127274Y197274
X127274Y192274
X127274Y187274
X147274Y119774
X167274Y119774
X177274Y119774
X182274Y142274
X192274Y157274
X201024Y132274
X194774Y99774
X164774Y79774
X157274Y96024
X134774Y62274
X117274Y52274
X122274Y32274
X132274Y32274
X164774Y44774
X122274Y87274
X72274Y47274
X67274Y42274
X62274Y22274
X22274Y87274
X22274Y92274
X22274Y97274
X27274Y97274
X27274Y92274
X27274Y87274
X32274Y87274
X32274Y92274
X32274Y97274
X37274Y97274
X42274Y97274
X42274Y92274
X42274Y87274
X37274Y87274
X37274Y92274
X47274Y87274
X37274Y142274
X12274Y177274
X191024Y182274
X192274Y197274
T02
X32274Y222274
X42274Y222274
X42274Y202274
X42274Y192274
X42274Y182274
X42274Y172274
X42274Y162274
X42274Y152274
X32274Y152274
X32274Y162274
X32274Y172274
X32274Y182274
X32274Y192274
X32274Y202274
X32274Y132274
X42274Y132274
X52274Y132274
X62274Y132274
X62274Y112274
X72274Y112274
X52274Y112274
X42274Y112274
X32274Y112274
X22274Y112274
X22274Y132274
X142274Y112274
X152274Y112274
X162274Y112274
X172274Y112274
X182274Y112274
X192274Y112274
X192274Y132274
X182274Y132274
X172274Y132274
X162274Y132274
X152274Y132274
X172274Y152274
X172274Y162274
X172274Y172274
X172274Y182274
X172274Y192274
X172274Y202274
X182274Y202274
X182274Y192274
X182274Y182274
X182274Y172274
X182274Y162274
X182274Y152274
X182274Y222274
X172274Y222274
T03
X12274Y12274
X12274Y232274
X202274Y232274
X202274Y12274
M30
