G75*
%MOIN*%
%OFA0B0*%
%FSLAX25Y25*%
%IPPOS*%
%LPD*%
%AMOC8*
5,1,8,0,0,1.08239X$1,22.5*
%
%ADD10C,0.00000*%
%ADD11OC8,0.08000*%
%ADD12C,0.08000*%
%ADD13R,0.02756X0.02953*%
%ADD14R,0.02756X0.02559*%
%ADD15R,0.03366X0.04528*%
%ADD16R,0.04724X0.03346*%
%ADD17R,0.02559X0.02953*%
%ADD18R,0.05118X0.03346*%
%ADD19C,0.06000*%
%ADD20C,0.03562*%
%ADD21C,0.00800*%
%ADD22C,0.00600*%
%ADD23C,0.01000*%
D10*
X0002274Y0002274D02*
X0002274Y0242274D01*
X0212274Y0242274D01*
X0212274Y0002274D01*
X0002274Y0002274D01*
X0005778Y0012274D02*
X0005780Y0012435D01*
X0005786Y0012595D01*
X0005796Y0012756D01*
X0005810Y0012916D01*
X0005828Y0013075D01*
X0005849Y0013235D01*
X0005875Y0013393D01*
X0005905Y0013551D01*
X0005938Y0013708D01*
X0005976Y0013865D01*
X0006017Y0014020D01*
X0006062Y0014174D01*
X0006111Y0014327D01*
X0006164Y0014479D01*
X0006220Y0014629D01*
X0006280Y0014778D01*
X0006344Y0014926D01*
X0006411Y0015072D01*
X0006482Y0015216D01*
X0006557Y0015358D01*
X0006635Y0015499D01*
X0006716Y0015637D01*
X0006801Y0015774D01*
X0006890Y0015908D01*
X0006981Y0016040D01*
X0007076Y0016170D01*
X0007174Y0016297D01*
X0007275Y0016422D01*
X0007379Y0016545D01*
X0007486Y0016664D01*
X0007596Y0016781D01*
X0007709Y0016896D01*
X0007825Y0017007D01*
X0007943Y0017116D01*
X0008064Y0017221D01*
X0008188Y0017324D01*
X0008314Y0017424D01*
X0008443Y0017520D01*
X0008574Y0017613D01*
X0008707Y0017703D01*
X0008842Y0017790D01*
X0008980Y0017873D01*
X0009119Y0017952D01*
X0009261Y0018029D01*
X0009404Y0018102D01*
X0009549Y0018171D01*
X0009696Y0018236D01*
X0009844Y0018298D01*
X0009994Y0018357D01*
X0010145Y0018411D01*
X0010297Y0018462D01*
X0010451Y0018509D01*
X0010606Y0018552D01*
X0010761Y0018591D01*
X0010918Y0018627D01*
X0011076Y0018659D01*
X0011234Y0018686D01*
X0011393Y0018710D01*
X0011552Y0018730D01*
X0011712Y0018746D01*
X0011873Y0018758D01*
X0012033Y0018766D01*
X0012194Y0018770D01*
X0012354Y0018770D01*
X0012515Y0018766D01*
X0012675Y0018758D01*
X0012836Y0018746D01*
X0012996Y0018730D01*
X0013155Y0018710D01*
X0013314Y0018686D01*
X0013472Y0018659D01*
X0013630Y0018627D01*
X0013787Y0018591D01*
X0013942Y0018552D01*
X0014097Y0018509D01*
X0014251Y0018462D01*
X0014403Y0018411D01*
X0014554Y0018357D01*
X0014704Y0018298D01*
X0014852Y0018236D01*
X0014999Y0018171D01*
X0015144Y0018102D01*
X0015287Y0018029D01*
X0015429Y0017952D01*
X0015568Y0017873D01*
X0015706Y0017790D01*
X0015841Y0017703D01*
X0015974Y0017613D01*
X0016105Y0017520D01*
X0016234Y0017424D01*
X0016360Y0017324D01*
X0016484Y0017221D01*
X0016605Y0017116D01*
X0016723Y0017007D01*
X0016839Y0016896D01*
X0016952Y0016781D01*
X0017062Y0016664D01*
X0017169Y0016545D01*
X0017273Y0016422D01*
X0017374Y0016297D01*
X0017472Y0016170D01*
X0017567Y0016040D01*
X0017658Y0015908D01*
X0017747Y0015774D01*
X0017832Y0015637D01*
X0017913Y0015499D01*
X0017991Y0015358D01*
X0018066Y0015216D01*
X0018137Y0015072D01*
X0018204Y0014926D01*
X0018268Y0014778D01*
X0018328Y0014629D01*
X0018384Y0014479D01*
X0018437Y0014327D01*
X0018486Y0014174D01*
X0018531Y0014020D01*
X0018572Y0013865D01*
X0018610Y0013708D01*
X0018643Y0013551D01*
X0018673Y0013393D01*
X0018699Y0013235D01*
X0018720Y0013075D01*
X0018738Y0012916D01*
X0018752Y0012756D01*
X0018762Y0012595D01*
X0018768Y0012435D01*
X0018770Y0012274D01*
X0018768Y0012113D01*
X0018762Y0011953D01*
X0018752Y0011792D01*
X0018738Y0011632D01*
X0018720Y0011473D01*
X0018699Y0011313D01*
X0018673Y0011155D01*
X0018643Y0010997D01*
X0018610Y0010840D01*
X0018572Y0010683D01*
X0018531Y0010528D01*
X0018486Y0010374D01*
X0018437Y0010221D01*
X0018384Y0010069D01*
X0018328Y0009919D01*
X0018268Y0009770D01*
X0018204Y0009622D01*
X0018137Y0009476D01*
X0018066Y0009332D01*
X0017991Y0009190D01*
X0017913Y0009049D01*
X0017832Y0008911D01*
X0017747Y0008774D01*
X0017658Y0008640D01*
X0017567Y0008508D01*
X0017472Y0008378D01*
X0017374Y0008251D01*
X0017273Y0008126D01*
X0017169Y0008003D01*
X0017062Y0007884D01*
X0016952Y0007767D01*
X0016839Y0007652D01*
X0016723Y0007541D01*
X0016605Y0007432D01*
X0016484Y0007327D01*
X0016360Y0007224D01*
X0016234Y0007124D01*
X0016105Y0007028D01*
X0015974Y0006935D01*
X0015841Y0006845D01*
X0015706Y0006758D01*
X0015568Y0006675D01*
X0015429Y0006596D01*
X0015287Y0006519D01*
X0015144Y0006446D01*
X0014999Y0006377D01*
X0014852Y0006312D01*
X0014704Y0006250D01*
X0014554Y0006191D01*
X0014403Y0006137D01*
X0014251Y0006086D01*
X0014097Y0006039D01*
X0013942Y0005996D01*
X0013787Y0005957D01*
X0013630Y0005921D01*
X0013472Y0005889D01*
X0013314Y0005862D01*
X0013155Y0005838D01*
X0012996Y0005818D01*
X0012836Y0005802D01*
X0012675Y0005790D01*
X0012515Y0005782D01*
X0012354Y0005778D01*
X0012194Y0005778D01*
X0012033Y0005782D01*
X0011873Y0005790D01*
X0011712Y0005802D01*
X0011552Y0005818D01*
X0011393Y0005838D01*
X0011234Y0005862D01*
X0011076Y0005889D01*
X0010918Y0005921D01*
X0010761Y0005957D01*
X0010606Y0005996D01*
X0010451Y0006039D01*
X0010297Y0006086D01*
X0010145Y0006137D01*
X0009994Y0006191D01*
X0009844Y0006250D01*
X0009696Y0006312D01*
X0009549Y0006377D01*
X0009404Y0006446D01*
X0009261Y0006519D01*
X0009119Y0006596D01*
X0008980Y0006675D01*
X0008842Y0006758D01*
X0008707Y0006845D01*
X0008574Y0006935D01*
X0008443Y0007028D01*
X0008314Y0007124D01*
X0008188Y0007224D01*
X0008064Y0007327D01*
X0007943Y0007432D01*
X0007825Y0007541D01*
X0007709Y0007652D01*
X0007596Y0007767D01*
X0007486Y0007884D01*
X0007379Y0008003D01*
X0007275Y0008126D01*
X0007174Y0008251D01*
X0007076Y0008378D01*
X0006981Y0008508D01*
X0006890Y0008640D01*
X0006801Y0008774D01*
X0006716Y0008911D01*
X0006635Y0009049D01*
X0006557Y0009190D01*
X0006482Y0009332D01*
X0006411Y0009476D01*
X0006344Y0009622D01*
X0006280Y0009770D01*
X0006220Y0009919D01*
X0006164Y0010069D01*
X0006111Y0010221D01*
X0006062Y0010374D01*
X0006017Y0010528D01*
X0005976Y0010683D01*
X0005938Y0010840D01*
X0005905Y0010997D01*
X0005875Y0011155D01*
X0005849Y0011313D01*
X0005828Y0011473D01*
X0005810Y0011632D01*
X0005796Y0011792D01*
X0005786Y0011953D01*
X0005780Y0012113D01*
X0005778Y0012274D01*
X0005778Y0232274D02*
X0005780Y0232435D01*
X0005786Y0232595D01*
X0005796Y0232756D01*
X0005810Y0232916D01*
X0005828Y0233075D01*
X0005849Y0233235D01*
X0005875Y0233393D01*
X0005905Y0233551D01*
X0005938Y0233708D01*
X0005976Y0233865D01*
X0006017Y0234020D01*
X0006062Y0234174D01*
X0006111Y0234327D01*
X0006164Y0234479D01*
X0006220Y0234629D01*
X0006280Y0234778D01*
X0006344Y0234926D01*
X0006411Y0235072D01*
X0006482Y0235216D01*
X0006557Y0235358D01*
X0006635Y0235499D01*
X0006716Y0235637D01*
X0006801Y0235774D01*
X0006890Y0235908D01*
X0006981Y0236040D01*
X0007076Y0236170D01*
X0007174Y0236297D01*
X0007275Y0236422D01*
X0007379Y0236545D01*
X0007486Y0236664D01*
X0007596Y0236781D01*
X0007709Y0236896D01*
X0007825Y0237007D01*
X0007943Y0237116D01*
X0008064Y0237221D01*
X0008188Y0237324D01*
X0008314Y0237424D01*
X0008443Y0237520D01*
X0008574Y0237613D01*
X0008707Y0237703D01*
X0008842Y0237790D01*
X0008980Y0237873D01*
X0009119Y0237952D01*
X0009261Y0238029D01*
X0009404Y0238102D01*
X0009549Y0238171D01*
X0009696Y0238236D01*
X0009844Y0238298D01*
X0009994Y0238357D01*
X0010145Y0238411D01*
X0010297Y0238462D01*
X0010451Y0238509D01*
X0010606Y0238552D01*
X0010761Y0238591D01*
X0010918Y0238627D01*
X0011076Y0238659D01*
X0011234Y0238686D01*
X0011393Y0238710D01*
X0011552Y0238730D01*
X0011712Y0238746D01*
X0011873Y0238758D01*
X0012033Y0238766D01*
X0012194Y0238770D01*
X0012354Y0238770D01*
X0012515Y0238766D01*
X0012675Y0238758D01*
X0012836Y0238746D01*
X0012996Y0238730D01*
X0013155Y0238710D01*
X0013314Y0238686D01*
X0013472Y0238659D01*
X0013630Y0238627D01*
X0013787Y0238591D01*
X0013942Y0238552D01*
X0014097Y0238509D01*
X0014251Y0238462D01*
X0014403Y0238411D01*
X0014554Y0238357D01*
X0014704Y0238298D01*
X0014852Y0238236D01*
X0014999Y0238171D01*
X0015144Y0238102D01*
X0015287Y0238029D01*
X0015429Y0237952D01*
X0015568Y0237873D01*
X0015706Y0237790D01*
X0015841Y0237703D01*
X0015974Y0237613D01*
X0016105Y0237520D01*
X0016234Y0237424D01*
X0016360Y0237324D01*
X0016484Y0237221D01*
X0016605Y0237116D01*
X0016723Y0237007D01*
X0016839Y0236896D01*
X0016952Y0236781D01*
X0017062Y0236664D01*
X0017169Y0236545D01*
X0017273Y0236422D01*
X0017374Y0236297D01*
X0017472Y0236170D01*
X0017567Y0236040D01*
X0017658Y0235908D01*
X0017747Y0235774D01*
X0017832Y0235637D01*
X0017913Y0235499D01*
X0017991Y0235358D01*
X0018066Y0235216D01*
X0018137Y0235072D01*
X0018204Y0234926D01*
X0018268Y0234778D01*
X0018328Y0234629D01*
X0018384Y0234479D01*
X0018437Y0234327D01*
X0018486Y0234174D01*
X0018531Y0234020D01*
X0018572Y0233865D01*
X0018610Y0233708D01*
X0018643Y0233551D01*
X0018673Y0233393D01*
X0018699Y0233235D01*
X0018720Y0233075D01*
X0018738Y0232916D01*
X0018752Y0232756D01*
X0018762Y0232595D01*
X0018768Y0232435D01*
X0018770Y0232274D01*
X0018768Y0232113D01*
X0018762Y0231953D01*
X0018752Y0231792D01*
X0018738Y0231632D01*
X0018720Y0231473D01*
X0018699Y0231313D01*
X0018673Y0231155D01*
X0018643Y0230997D01*
X0018610Y0230840D01*
X0018572Y0230683D01*
X0018531Y0230528D01*
X0018486Y0230374D01*
X0018437Y0230221D01*
X0018384Y0230069D01*
X0018328Y0229919D01*
X0018268Y0229770D01*
X0018204Y0229622D01*
X0018137Y0229476D01*
X0018066Y0229332D01*
X0017991Y0229190D01*
X0017913Y0229049D01*
X0017832Y0228911D01*
X0017747Y0228774D01*
X0017658Y0228640D01*
X0017567Y0228508D01*
X0017472Y0228378D01*
X0017374Y0228251D01*
X0017273Y0228126D01*
X0017169Y0228003D01*
X0017062Y0227884D01*
X0016952Y0227767D01*
X0016839Y0227652D01*
X0016723Y0227541D01*
X0016605Y0227432D01*
X0016484Y0227327D01*
X0016360Y0227224D01*
X0016234Y0227124D01*
X0016105Y0227028D01*
X0015974Y0226935D01*
X0015841Y0226845D01*
X0015706Y0226758D01*
X0015568Y0226675D01*
X0015429Y0226596D01*
X0015287Y0226519D01*
X0015144Y0226446D01*
X0014999Y0226377D01*
X0014852Y0226312D01*
X0014704Y0226250D01*
X0014554Y0226191D01*
X0014403Y0226137D01*
X0014251Y0226086D01*
X0014097Y0226039D01*
X0013942Y0225996D01*
X0013787Y0225957D01*
X0013630Y0225921D01*
X0013472Y0225889D01*
X0013314Y0225862D01*
X0013155Y0225838D01*
X0012996Y0225818D01*
X0012836Y0225802D01*
X0012675Y0225790D01*
X0012515Y0225782D01*
X0012354Y0225778D01*
X0012194Y0225778D01*
X0012033Y0225782D01*
X0011873Y0225790D01*
X0011712Y0225802D01*
X0011552Y0225818D01*
X0011393Y0225838D01*
X0011234Y0225862D01*
X0011076Y0225889D01*
X0010918Y0225921D01*
X0010761Y0225957D01*
X0010606Y0225996D01*
X0010451Y0226039D01*
X0010297Y0226086D01*
X0010145Y0226137D01*
X0009994Y0226191D01*
X0009844Y0226250D01*
X0009696Y0226312D01*
X0009549Y0226377D01*
X0009404Y0226446D01*
X0009261Y0226519D01*
X0009119Y0226596D01*
X0008980Y0226675D01*
X0008842Y0226758D01*
X0008707Y0226845D01*
X0008574Y0226935D01*
X0008443Y0227028D01*
X0008314Y0227124D01*
X0008188Y0227224D01*
X0008064Y0227327D01*
X0007943Y0227432D01*
X0007825Y0227541D01*
X0007709Y0227652D01*
X0007596Y0227767D01*
X0007486Y0227884D01*
X0007379Y0228003D01*
X0007275Y0228126D01*
X0007174Y0228251D01*
X0007076Y0228378D01*
X0006981Y0228508D01*
X0006890Y0228640D01*
X0006801Y0228774D01*
X0006716Y0228911D01*
X0006635Y0229049D01*
X0006557Y0229190D01*
X0006482Y0229332D01*
X0006411Y0229476D01*
X0006344Y0229622D01*
X0006280Y0229770D01*
X0006220Y0229919D01*
X0006164Y0230069D01*
X0006111Y0230221D01*
X0006062Y0230374D01*
X0006017Y0230528D01*
X0005976Y0230683D01*
X0005938Y0230840D01*
X0005905Y0230997D01*
X0005875Y0231155D01*
X0005849Y0231313D01*
X0005828Y0231473D01*
X0005810Y0231632D01*
X0005796Y0231792D01*
X0005786Y0231953D01*
X0005780Y0232113D01*
X0005778Y0232274D01*
X0195778Y0232274D02*
X0195780Y0232435D01*
X0195786Y0232595D01*
X0195796Y0232756D01*
X0195810Y0232916D01*
X0195828Y0233075D01*
X0195849Y0233235D01*
X0195875Y0233393D01*
X0195905Y0233551D01*
X0195938Y0233708D01*
X0195976Y0233865D01*
X0196017Y0234020D01*
X0196062Y0234174D01*
X0196111Y0234327D01*
X0196164Y0234479D01*
X0196220Y0234629D01*
X0196280Y0234778D01*
X0196344Y0234926D01*
X0196411Y0235072D01*
X0196482Y0235216D01*
X0196557Y0235358D01*
X0196635Y0235499D01*
X0196716Y0235637D01*
X0196801Y0235774D01*
X0196890Y0235908D01*
X0196981Y0236040D01*
X0197076Y0236170D01*
X0197174Y0236297D01*
X0197275Y0236422D01*
X0197379Y0236545D01*
X0197486Y0236664D01*
X0197596Y0236781D01*
X0197709Y0236896D01*
X0197825Y0237007D01*
X0197943Y0237116D01*
X0198064Y0237221D01*
X0198188Y0237324D01*
X0198314Y0237424D01*
X0198443Y0237520D01*
X0198574Y0237613D01*
X0198707Y0237703D01*
X0198842Y0237790D01*
X0198980Y0237873D01*
X0199119Y0237952D01*
X0199261Y0238029D01*
X0199404Y0238102D01*
X0199549Y0238171D01*
X0199696Y0238236D01*
X0199844Y0238298D01*
X0199994Y0238357D01*
X0200145Y0238411D01*
X0200297Y0238462D01*
X0200451Y0238509D01*
X0200606Y0238552D01*
X0200761Y0238591D01*
X0200918Y0238627D01*
X0201076Y0238659D01*
X0201234Y0238686D01*
X0201393Y0238710D01*
X0201552Y0238730D01*
X0201712Y0238746D01*
X0201873Y0238758D01*
X0202033Y0238766D01*
X0202194Y0238770D01*
X0202354Y0238770D01*
X0202515Y0238766D01*
X0202675Y0238758D01*
X0202836Y0238746D01*
X0202996Y0238730D01*
X0203155Y0238710D01*
X0203314Y0238686D01*
X0203472Y0238659D01*
X0203630Y0238627D01*
X0203787Y0238591D01*
X0203942Y0238552D01*
X0204097Y0238509D01*
X0204251Y0238462D01*
X0204403Y0238411D01*
X0204554Y0238357D01*
X0204704Y0238298D01*
X0204852Y0238236D01*
X0204999Y0238171D01*
X0205144Y0238102D01*
X0205287Y0238029D01*
X0205429Y0237952D01*
X0205568Y0237873D01*
X0205706Y0237790D01*
X0205841Y0237703D01*
X0205974Y0237613D01*
X0206105Y0237520D01*
X0206234Y0237424D01*
X0206360Y0237324D01*
X0206484Y0237221D01*
X0206605Y0237116D01*
X0206723Y0237007D01*
X0206839Y0236896D01*
X0206952Y0236781D01*
X0207062Y0236664D01*
X0207169Y0236545D01*
X0207273Y0236422D01*
X0207374Y0236297D01*
X0207472Y0236170D01*
X0207567Y0236040D01*
X0207658Y0235908D01*
X0207747Y0235774D01*
X0207832Y0235637D01*
X0207913Y0235499D01*
X0207991Y0235358D01*
X0208066Y0235216D01*
X0208137Y0235072D01*
X0208204Y0234926D01*
X0208268Y0234778D01*
X0208328Y0234629D01*
X0208384Y0234479D01*
X0208437Y0234327D01*
X0208486Y0234174D01*
X0208531Y0234020D01*
X0208572Y0233865D01*
X0208610Y0233708D01*
X0208643Y0233551D01*
X0208673Y0233393D01*
X0208699Y0233235D01*
X0208720Y0233075D01*
X0208738Y0232916D01*
X0208752Y0232756D01*
X0208762Y0232595D01*
X0208768Y0232435D01*
X0208770Y0232274D01*
X0208768Y0232113D01*
X0208762Y0231953D01*
X0208752Y0231792D01*
X0208738Y0231632D01*
X0208720Y0231473D01*
X0208699Y0231313D01*
X0208673Y0231155D01*
X0208643Y0230997D01*
X0208610Y0230840D01*
X0208572Y0230683D01*
X0208531Y0230528D01*
X0208486Y0230374D01*
X0208437Y0230221D01*
X0208384Y0230069D01*
X0208328Y0229919D01*
X0208268Y0229770D01*
X0208204Y0229622D01*
X0208137Y0229476D01*
X0208066Y0229332D01*
X0207991Y0229190D01*
X0207913Y0229049D01*
X0207832Y0228911D01*
X0207747Y0228774D01*
X0207658Y0228640D01*
X0207567Y0228508D01*
X0207472Y0228378D01*
X0207374Y0228251D01*
X0207273Y0228126D01*
X0207169Y0228003D01*
X0207062Y0227884D01*
X0206952Y0227767D01*
X0206839Y0227652D01*
X0206723Y0227541D01*
X0206605Y0227432D01*
X0206484Y0227327D01*
X0206360Y0227224D01*
X0206234Y0227124D01*
X0206105Y0227028D01*
X0205974Y0226935D01*
X0205841Y0226845D01*
X0205706Y0226758D01*
X0205568Y0226675D01*
X0205429Y0226596D01*
X0205287Y0226519D01*
X0205144Y0226446D01*
X0204999Y0226377D01*
X0204852Y0226312D01*
X0204704Y0226250D01*
X0204554Y0226191D01*
X0204403Y0226137D01*
X0204251Y0226086D01*
X0204097Y0226039D01*
X0203942Y0225996D01*
X0203787Y0225957D01*
X0203630Y0225921D01*
X0203472Y0225889D01*
X0203314Y0225862D01*
X0203155Y0225838D01*
X0202996Y0225818D01*
X0202836Y0225802D01*
X0202675Y0225790D01*
X0202515Y0225782D01*
X0202354Y0225778D01*
X0202194Y0225778D01*
X0202033Y0225782D01*
X0201873Y0225790D01*
X0201712Y0225802D01*
X0201552Y0225818D01*
X0201393Y0225838D01*
X0201234Y0225862D01*
X0201076Y0225889D01*
X0200918Y0225921D01*
X0200761Y0225957D01*
X0200606Y0225996D01*
X0200451Y0226039D01*
X0200297Y0226086D01*
X0200145Y0226137D01*
X0199994Y0226191D01*
X0199844Y0226250D01*
X0199696Y0226312D01*
X0199549Y0226377D01*
X0199404Y0226446D01*
X0199261Y0226519D01*
X0199119Y0226596D01*
X0198980Y0226675D01*
X0198842Y0226758D01*
X0198707Y0226845D01*
X0198574Y0226935D01*
X0198443Y0227028D01*
X0198314Y0227124D01*
X0198188Y0227224D01*
X0198064Y0227327D01*
X0197943Y0227432D01*
X0197825Y0227541D01*
X0197709Y0227652D01*
X0197596Y0227767D01*
X0197486Y0227884D01*
X0197379Y0228003D01*
X0197275Y0228126D01*
X0197174Y0228251D01*
X0197076Y0228378D01*
X0196981Y0228508D01*
X0196890Y0228640D01*
X0196801Y0228774D01*
X0196716Y0228911D01*
X0196635Y0229049D01*
X0196557Y0229190D01*
X0196482Y0229332D01*
X0196411Y0229476D01*
X0196344Y0229622D01*
X0196280Y0229770D01*
X0196220Y0229919D01*
X0196164Y0230069D01*
X0196111Y0230221D01*
X0196062Y0230374D01*
X0196017Y0230528D01*
X0195976Y0230683D01*
X0195938Y0230840D01*
X0195905Y0230997D01*
X0195875Y0231155D01*
X0195849Y0231313D01*
X0195828Y0231473D01*
X0195810Y0231632D01*
X0195796Y0231792D01*
X0195786Y0231953D01*
X0195780Y0232113D01*
X0195778Y0232274D01*
X0195778Y0012274D02*
X0195780Y0012435D01*
X0195786Y0012595D01*
X0195796Y0012756D01*
X0195810Y0012916D01*
X0195828Y0013075D01*
X0195849Y0013235D01*
X0195875Y0013393D01*
X0195905Y0013551D01*
X0195938Y0013708D01*
X0195976Y0013865D01*
X0196017Y0014020D01*
X0196062Y0014174D01*
X0196111Y0014327D01*
X0196164Y0014479D01*
X0196220Y0014629D01*
X0196280Y0014778D01*
X0196344Y0014926D01*
X0196411Y0015072D01*
X0196482Y0015216D01*
X0196557Y0015358D01*
X0196635Y0015499D01*
X0196716Y0015637D01*
X0196801Y0015774D01*
X0196890Y0015908D01*
X0196981Y0016040D01*
X0197076Y0016170D01*
X0197174Y0016297D01*
X0197275Y0016422D01*
X0197379Y0016545D01*
X0197486Y0016664D01*
X0197596Y0016781D01*
X0197709Y0016896D01*
X0197825Y0017007D01*
X0197943Y0017116D01*
X0198064Y0017221D01*
X0198188Y0017324D01*
X0198314Y0017424D01*
X0198443Y0017520D01*
X0198574Y0017613D01*
X0198707Y0017703D01*
X0198842Y0017790D01*
X0198980Y0017873D01*
X0199119Y0017952D01*
X0199261Y0018029D01*
X0199404Y0018102D01*
X0199549Y0018171D01*
X0199696Y0018236D01*
X0199844Y0018298D01*
X0199994Y0018357D01*
X0200145Y0018411D01*
X0200297Y0018462D01*
X0200451Y0018509D01*
X0200606Y0018552D01*
X0200761Y0018591D01*
X0200918Y0018627D01*
X0201076Y0018659D01*
X0201234Y0018686D01*
X0201393Y0018710D01*
X0201552Y0018730D01*
X0201712Y0018746D01*
X0201873Y0018758D01*
X0202033Y0018766D01*
X0202194Y0018770D01*
X0202354Y0018770D01*
X0202515Y0018766D01*
X0202675Y0018758D01*
X0202836Y0018746D01*
X0202996Y0018730D01*
X0203155Y0018710D01*
X0203314Y0018686D01*
X0203472Y0018659D01*
X0203630Y0018627D01*
X0203787Y0018591D01*
X0203942Y0018552D01*
X0204097Y0018509D01*
X0204251Y0018462D01*
X0204403Y0018411D01*
X0204554Y0018357D01*
X0204704Y0018298D01*
X0204852Y0018236D01*
X0204999Y0018171D01*
X0205144Y0018102D01*
X0205287Y0018029D01*
X0205429Y0017952D01*
X0205568Y0017873D01*
X0205706Y0017790D01*
X0205841Y0017703D01*
X0205974Y0017613D01*
X0206105Y0017520D01*
X0206234Y0017424D01*
X0206360Y0017324D01*
X0206484Y0017221D01*
X0206605Y0017116D01*
X0206723Y0017007D01*
X0206839Y0016896D01*
X0206952Y0016781D01*
X0207062Y0016664D01*
X0207169Y0016545D01*
X0207273Y0016422D01*
X0207374Y0016297D01*
X0207472Y0016170D01*
X0207567Y0016040D01*
X0207658Y0015908D01*
X0207747Y0015774D01*
X0207832Y0015637D01*
X0207913Y0015499D01*
X0207991Y0015358D01*
X0208066Y0015216D01*
X0208137Y0015072D01*
X0208204Y0014926D01*
X0208268Y0014778D01*
X0208328Y0014629D01*
X0208384Y0014479D01*
X0208437Y0014327D01*
X0208486Y0014174D01*
X0208531Y0014020D01*
X0208572Y0013865D01*
X0208610Y0013708D01*
X0208643Y0013551D01*
X0208673Y0013393D01*
X0208699Y0013235D01*
X0208720Y0013075D01*
X0208738Y0012916D01*
X0208752Y0012756D01*
X0208762Y0012595D01*
X0208768Y0012435D01*
X0208770Y0012274D01*
X0208768Y0012113D01*
X0208762Y0011953D01*
X0208752Y0011792D01*
X0208738Y0011632D01*
X0208720Y0011473D01*
X0208699Y0011313D01*
X0208673Y0011155D01*
X0208643Y0010997D01*
X0208610Y0010840D01*
X0208572Y0010683D01*
X0208531Y0010528D01*
X0208486Y0010374D01*
X0208437Y0010221D01*
X0208384Y0010069D01*
X0208328Y0009919D01*
X0208268Y0009770D01*
X0208204Y0009622D01*
X0208137Y0009476D01*
X0208066Y0009332D01*
X0207991Y0009190D01*
X0207913Y0009049D01*
X0207832Y0008911D01*
X0207747Y0008774D01*
X0207658Y0008640D01*
X0207567Y0008508D01*
X0207472Y0008378D01*
X0207374Y0008251D01*
X0207273Y0008126D01*
X0207169Y0008003D01*
X0207062Y0007884D01*
X0206952Y0007767D01*
X0206839Y0007652D01*
X0206723Y0007541D01*
X0206605Y0007432D01*
X0206484Y0007327D01*
X0206360Y0007224D01*
X0206234Y0007124D01*
X0206105Y0007028D01*
X0205974Y0006935D01*
X0205841Y0006845D01*
X0205706Y0006758D01*
X0205568Y0006675D01*
X0205429Y0006596D01*
X0205287Y0006519D01*
X0205144Y0006446D01*
X0204999Y0006377D01*
X0204852Y0006312D01*
X0204704Y0006250D01*
X0204554Y0006191D01*
X0204403Y0006137D01*
X0204251Y0006086D01*
X0204097Y0006039D01*
X0203942Y0005996D01*
X0203787Y0005957D01*
X0203630Y0005921D01*
X0203472Y0005889D01*
X0203314Y0005862D01*
X0203155Y0005838D01*
X0202996Y0005818D01*
X0202836Y0005802D01*
X0202675Y0005790D01*
X0202515Y0005782D01*
X0202354Y0005778D01*
X0202194Y0005778D01*
X0202033Y0005782D01*
X0201873Y0005790D01*
X0201712Y0005802D01*
X0201552Y0005818D01*
X0201393Y0005838D01*
X0201234Y0005862D01*
X0201076Y0005889D01*
X0200918Y0005921D01*
X0200761Y0005957D01*
X0200606Y0005996D01*
X0200451Y0006039D01*
X0200297Y0006086D01*
X0200145Y0006137D01*
X0199994Y0006191D01*
X0199844Y0006250D01*
X0199696Y0006312D01*
X0199549Y0006377D01*
X0199404Y0006446D01*
X0199261Y0006519D01*
X0199119Y0006596D01*
X0198980Y0006675D01*
X0198842Y0006758D01*
X0198707Y0006845D01*
X0198574Y0006935D01*
X0198443Y0007028D01*
X0198314Y0007124D01*
X0198188Y0007224D01*
X0198064Y0007327D01*
X0197943Y0007432D01*
X0197825Y0007541D01*
X0197709Y0007652D01*
X0197596Y0007767D01*
X0197486Y0007884D01*
X0197379Y0008003D01*
X0197275Y0008126D01*
X0197174Y0008251D01*
X0197076Y0008378D01*
X0196981Y0008508D01*
X0196890Y0008640D01*
X0196801Y0008774D01*
X0196716Y0008911D01*
X0196635Y0009049D01*
X0196557Y0009190D01*
X0196482Y0009332D01*
X0196411Y0009476D01*
X0196344Y0009622D01*
X0196280Y0009770D01*
X0196220Y0009919D01*
X0196164Y0010069D01*
X0196111Y0010221D01*
X0196062Y0010374D01*
X0196017Y0010528D01*
X0195976Y0010683D01*
X0195938Y0010840D01*
X0195905Y0010997D01*
X0195875Y0011155D01*
X0195849Y0011313D01*
X0195828Y0011473D01*
X0195810Y0011632D01*
X0195796Y0011792D01*
X0195786Y0011953D01*
X0195780Y0012113D01*
X0195778Y0012274D01*
D11*
X0182274Y0152274D03*
X0042274Y0152274D03*
D12*
X0042274Y0162274D03*
X0042274Y0172274D03*
X0042274Y0182274D03*
X0042274Y0192274D03*
X0042274Y0202274D03*
X0032274Y0202274D03*
X0032274Y0192274D03*
X0032274Y0182274D03*
X0032274Y0172274D03*
X0032274Y0162274D03*
X0032274Y0152274D03*
X0032274Y0132274D03*
X0042274Y0132274D03*
X0052274Y0132274D03*
X0062274Y0132274D03*
X0062274Y0112274D03*
X0072274Y0112274D03*
X0052274Y0112274D03*
X0042274Y0112274D03*
X0032274Y0112274D03*
X0022274Y0112274D03*
X0022274Y0132274D03*
X0142274Y0112274D03*
X0152274Y0112274D03*
X0162274Y0112274D03*
X0172274Y0112274D03*
X0182274Y0112274D03*
X0192274Y0112274D03*
X0192274Y0132274D03*
X0182274Y0132274D03*
X0172274Y0132274D03*
X0162274Y0132274D03*
X0152274Y0132274D03*
X0172274Y0152274D03*
X0172274Y0162274D03*
X0172274Y0172274D03*
X0172274Y0182274D03*
X0172274Y0192274D03*
X0172274Y0202274D03*
X0182274Y0202274D03*
X0182274Y0192274D03*
X0182274Y0182274D03*
X0182274Y0172274D03*
X0182274Y0162274D03*
D13*
X0126073Y0131781D03*
X0122136Y0131781D03*
X0118199Y0131781D03*
X0114262Y0131781D03*
X0110325Y0131781D03*
X0106388Y0131781D03*
X0102451Y0131781D03*
X0098514Y0131781D03*
D14*
X0104419Y0127057D03*
X0120167Y0127057D03*
X0081388Y0120955D03*
D15*
X0132923Y0121152D03*
D16*
X0125827Y0179616D03*
D17*
X0120955Y0179813D03*
X0095955Y0179813D03*
D18*
X0083602Y0179616D03*
D19*
X0042274Y0219274D02*
X0042274Y0225274D01*
X0032274Y0225274D02*
X0032274Y0219274D01*
X0172274Y0219274D02*
X0172274Y0225274D01*
X0182274Y0225274D02*
X0182274Y0219274D01*
D20*
X0192274Y0197274D03*
X0191024Y0182274D03*
X0192274Y0157274D03*
X0182274Y0142274D03*
X0177274Y0119774D03*
X0167274Y0119774D03*
X0147274Y0119774D03*
X0157274Y0096024D03*
X0164774Y0079774D03*
X0134774Y0062274D03*
X0117274Y0052274D03*
X0122274Y0032274D03*
X0132274Y0032274D03*
X0164774Y0044774D03*
X0122274Y0087274D03*
X0109774Y0137274D03*
X0109774Y0154774D03*
X0114774Y0154774D03*
X0119774Y0154774D03*
X0107274Y0169774D03*
X0107274Y0174774D03*
X0107274Y0187274D03*
X0112274Y0187274D03*
X0117274Y0187274D03*
X0122274Y0187274D03*
X0122274Y0192274D03*
X0122274Y0197274D03*
X0122274Y0202274D03*
X0122274Y0207274D03*
X0122274Y0212274D03*
X0122274Y0217274D03*
X0127274Y0217274D03*
X0127274Y0222274D03*
X0132274Y0222274D03*
X0132274Y0217274D03*
X0132274Y0212274D03*
X0132274Y0207274D03*
X0132274Y0202274D03*
X0132274Y0197274D03*
X0132274Y0192274D03*
X0132274Y0187274D03*
X0127274Y0187274D03*
X0127274Y0192274D03*
X0127274Y0197274D03*
X0127274Y0202274D03*
X0127274Y0207274D03*
X0127274Y0212274D03*
X0112274Y0227274D03*
X0107274Y0227274D03*
X0107274Y0222274D03*
X0102274Y0227274D03*
X0092274Y0217274D03*
X0092274Y0212274D03*
X0092274Y0207274D03*
X0092274Y0202274D03*
X0092274Y0197274D03*
X0092274Y0192274D03*
X0092274Y0187274D03*
X0097274Y0187274D03*
X0102274Y0187274D03*
X0087274Y0187274D03*
X0087274Y0192274D03*
X0087274Y0197274D03*
X0087274Y0202274D03*
X0087274Y0207274D03*
X0087274Y0212274D03*
X0087274Y0217274D03*
X0087274Y0222274D03*
X0082274Y0222274D03*
X0082274Y0217274D03*
X0082274Y0212274D03*
X0082274Y0207274D03*
X0082274Y0202274D03*
X0082274Y0197274D03*
X0082274Y0192274D03*
X0082274Y0187274D03*
X0062274Y0197274D03*
X0047274Y0212274D03*
X0012274Y0177274D03*
X0037274Y0142274D03*
X0037274Y0097274D03*
X0042274Y0097274D03*
X0042274Y0092274D03*
X0042274Y0087274D03*
X0037274Y0087274D03*
X0037274Y0092274D03*
X0032274Y0092274D03*
X0032274Y0087274D03*
X0027274Y0087274D03*
X0027274Y0092274D03*
X0027274Y0097274D03*
X0022274Y0097274D03*
X0022274Y0092274D03*
X0022274Y0087274D03*
X0032274Y0097274D03*
X0047274Y0087274D03*
X0072274Y0047274D03*
X0067274Y0042274D03*
X0062274Y0022274D03*
X0094774Y0154774D03*
X0099774Y0154774D03*
X0104774Y0154774D03*
X0132274Y0176024D03*
X0137274Y0162274D03*
X0194774Y0099774D03*
X0201024Y0132274D03*
D21*
X0201024Y0106024D01*
X0194774Y0099774D01*
X0194774Y0104774D02*
X0197274Y0107274D01*
X0197274Y0202274D01*
X0192274Y0207274D01*
X0179774Y0207274D01*
X0174774Y0202274D01*
X0172274Y0202274D01*
X0172274Y0192274D02*
X0168524Y0192274D01*
X0172274Y0192274D02*
X0177274Y0187274D01*
X0186024Y0187274D01*
X0191024Y0182274D01*
X0187274Y0177274D02*
X0182274Y0182274D01*
X0177274Y0177274D02*
X0172274Y0182274D01*
X0177274Y0177274D02*
X0177274Y0127274D01*
X0172274Y0122274D01*
X0172274Y0112274D01*
X0167274Y0107274D02*
X0184774Y0107274D01*
X0187274Y0109774D01*
X0187274Y0177274D01*
X0172274Y0172274D02*
X0147274Y0172274D01*
X0142274Y0167274D01*
X0142274Y0112274D01*
X0147274Y0119774D02*
X0147274Y0147274D01*
X0152274Y0152274D01*
X0172274Y0152274D01*
X0162274Y0112274D02*
X0167274Y0107274D01*
X0157274Y0104774D02*
X0194774Y0104774D01*
X0164774Y0079774D02*
X0157274Y0072274D01*
X0157274Y0067274D01*
X0152274Y0062274D01*
X0157274Y0057274D01*
X0157274Y0052274D01*
X0164774Y0044774D01*
X0152274Y0062274D02*
X0134774Y0062274D01*
X0117274Y0052274D02*
X0117274Y0047274D01*
X0132274Y0032274D01*
X0157274Y0104774D02*
X0152274Y0109774D01*
X0152274Y0112274D01*
X0126073Y0131781D02*
X0126024Y0131831D01*
X0126024Y0138524D01*
X0119774Y0144774D01*
X0119774Y0154774D01*
X0114774Y0154774D02*
X0114774Y0144774D01*
X0122274Y0137274D01*
X0122274Y0131919D01*
X0122136Y0131781D01*
X0118199Y0131781D02*
X0118199Y0129026D01*
X0120167Y0127057D01*
X0114262Y0131781D02*
X0113524Y0132520D01*
X0113524Y0138524D01*
X0109774Y0142274D01*
X0109774Y0154774D01*
X0104774Y0154774D02*
X0104774Y0136024D01*
X0106024Y0134774D01*
X0106024Y0132146D01*
X0106388Y0131781D01*
X0102451Y0131781D02*
X0102274Y0131959D01*
X0102274Y0134774D01*
X0099774Y0137274D01*
X0099774Y0154774D01*
X0094774Y0154774D02*
X0094774Y0135522D01*
X0098514Y0131781D01*
X0087274Y0117274D02*
X0082274Y0112274D01*
X0072274Y0112274D01*
X0072274Y0119774D02*
X0064774Y0119774D01*
X0062274Y0117274D01*
X0062274Y0112274D01*
X0062274Y0122274D02*
X0052274Y0112274D01*
X0042274Y0112274D02*
X0034774Y0119774D01*
X0019774Y0119774D01*
X0012274Y0127274D01*
X0012274Y0142274D01*
X0017274Y0147274D01*
X0037274Y0147274D01*
X0042274Y0152274D01*
X0032274Y0152274D02*
X0017274Y0152274D01*
X0009774Y0144774D01*
X0009774Y0124774D01*
X0017274Y0117274D01*
X0027274Y0117274D01*
X0032274Y0112274D01*
X0062274Y0122274D02*
X0071024Y0122274D01*
X0082274Y0133524D01*
X0082274Y0169774D01*
X0089774Y0177274D01*
X0089774Y0179774D01*
X0093524Y0183524D01*
X0128524Y0183524D01*
X0132274Y0179774D01*
X0132274Y0176024D01*
X0107274Y0174774D02*
X0092274Y0174774D01*
X0084774Y0167274D01*
X0084774Y0132274D01*
X0072274Y0119774D01*
X0087274Y0117274D02*
X0087274Y0164774D01*
X0092274Y0169774D01*
X0107274Y0169774D01*
X0032274Y0192274D02*
X0017274Y0192274D01*
X0007274Y0182274D01*
X0007274Y0037274D01*
X0022274Y0022274D01*
X0062274Y0022274D01*
D22*
X0064783Y0023222D02*
X0210974Y0023222D01*
X0210974Y0023820D02*
X0064519Y0023820D01*
X0064547Y0023792D02*
X0063792Y0024547D01*
X0062807Y0024955D01*
X0061740Y0024955D01*
X0060755Y0024547D01*
X0060001Y0023792D01*
X0059910Y0023574D01*
X0022812Y0023574D01*
X0008574Y0037812D01*
X0008574Y0124135D01*
X0015974Y0116735D01*
X0016735Y0115974D01*
X0019044Y0115974D01*
X0018120Y0115049D01*
X0017374Y0113248D01*
X0017374Y0111299D01*
X0018120Y0109498D01*
X0019498Y0108120D01*
X0021299Y0107374D01*
X0023248Y0107374D01*
X0025049Y0108120D01*
X0026428Y0109498D01*
X0027174Y0111299D01*
X0027174Y0113248D01*
X0026428Y0115049D01*
X0025503Y0115974D01*
X0026735Y0115974D01*
X0027985Y0114724D01*
X0027374Y0113248D01*
X0027374Y0111299D01*
X0028120Y0109498D01*
X0029498Y0108120D01*
X0031299Y0107374D01*
X0033248Y0107374D01*
X0035049Y0108120D01*
X0036428Y0109498D01*
X0037174Y0111299D01*
X0037174Y0113248D01*
X0036428Y0115049D01*
X0035049Y0116428D01*
X0033248Y0117174D01*
X0031299Y0117174D01*
X0029823Y0116562D01*
X0027912Y0118474D01*
X0034235Y0118474D01*
X0037985Y0114724D01*
X0037374Y0113248D01*
X0037374Y0111299D01*
X0038120Y0109498D01*
X0039498Y0108120D01*
X0041299Y0107374D01*
X0043248Y0107374D01*
X0045049Y0108120D01*
X0046428Y0109498D01*
X0047174Y0111299D01*
X0047174Y0113248D01*
X0046428Y0115049D01*
X0045049Y0116428D01*
X0043248Y0117174D01*
X0041299Y0117174D01*
X0039823Y0116562D01*
X0035312Y0121074D01*
X0020312Y0121074D01*
X0013574Y0127812D01*
X0013574Y0141735D01*
X0017812Y0145974D01*
X0037812Y0145974D01*
X0038574Y0146735D01*
X0039728Y0147890D01*
X0040244Y0147374D01*
X0044303Y0147374D01*
X0047174Y0150244D01*
X0047174Y0154303D01*
X0044303Y0157174D01*
X0040244Y0157174D01*
X0037374Y0154303D01*
X0037374Y0150244D01*
X0037890Y0149728D01*
X0036735Y0148574D01*
X0035503Y0148574D01*
X0036428Y0149498D01*
X0037174Y0151299D01*
X0037174Y0153248D01*
X0036428Y0155049D01*
X0035049Y0156428D01*
X0033248Y0157174D01*
X0031299Y0157174D01*
X0029498Y0156428D01*
X0028120Y0155049D01*
X0027508Y0153574D01*
X0016735Y0153574D01*
X0009235Y0146074D01*
X0008574Y0145412D01*
X0008574Y0181735D01*
X0017812Y0190974D01*
X0027508Y0190974D01*
X0028120Y0189498D01*
X0029498Y0188120D01*
X0031299Y0187374D01*
X0033248Y0187374D01*
X0035049Y0188120D01*
X0036428Y0189498D01*
X0037174Y0191299D01*
X0037174Y0193248D01*
X0036428Y0195049D01*
X0035049Y0196428D01*
X0033443Y0197093D01*
X0033515Y0197104D01*
X0034308Y0197362D01*
X0035051Y0197741D01*
X0035726Y0198231D01*
X0036316Y0198821D01*
X0036807Y0199496D01*
X0037185Y0200239D01*
X0037443Y0201033D01*
X0037454Y0201104D01*
X0038120Y0199498D01*
X0039498Y0198120D01*
X0041299Y0197374D01*
X0043248Y0197374D01*
X0045049Y0198120D01*
X0046428Y0199498D01*
X0047174Y0201299D01*
X0047174Y0203248D01*
X0046428Y0205049D01*
X0045049Y0206428D01*
X0043674Y0206997D01*
X0043674Y0215632D01*
X0044483Y0215967D01*
X0045580Y0217064D01*
X0046174Y0218498D01*
X0046174Y0226049D01*
X0045580Y0227483D01*
X0044483Y0228580D01*
X0043049Y0229174D01*
X0041498Y0229174D01*
X0040064Y0228580D01*
X0038967Y0227483D01*
X0038374Y0226049D01*
X0038374Y0218498D01*
X0038967Y0217064D01*
X0040064Y0215967D01*
X0040874Y0215632D01*
X0040874Y0206997D01*
X0039498Y0206428D01*
X0038120Y0205049D01*
X0037454Y0203443D01*
X0037443Y0203515D01*
X0037185Y0204308D01*
X0036807Y0205051D01*
X0036316Y0205726D01*
X0035726Y0206316D01*
X0035051Y0206807D01*
X0034308Y0207185D01*
X0033515Y0207443D01*
X0032691Y0207574D01*
X0032574Y0207574D01*
X0032574Y0202574D01*
X0031974Y0202574D01*
X0031974Y0207574D01*
X0031856Y0207574D01*
X0031033Y0207443D01*
X0030239Y0207185D01*
X0029496Y0206807D01*
X0028821Y0206316D01*
X0028231Y0205726D01*
X0027741Y0205051D01*
X0027362Y0204308D01*
X0027104Y0203515D01*
X0026974Y0202691D01*
X0026974Y0202574D01*
X0031974Y0202574D01*
X0031974Y0201974D01*
X0026974Y0201974D01*
X0026974Y0201856D01*
X0027104Y0201033D01*
X0027362Y0200239D01*
X0027741Y0199496D01*
X0028231Y0198821D01*
X0028821Y0198231D01*
X0029496Y0197741D01*
X0030239Y0197362D01*
X0031033Y0197104D01*
X0031104Y0197093D01*
X0029498Y0196428D01*
X0028120Y0195049D01*
X0027508Y0193574D01*
X0016735Y0193574D01*
X0006735Y0183574D01*
X0005974Y0182812D01*
X0005974Y0036735D01*
X0020974Y0021735D01*
X0021735Y0020974D01*
X0059910Y0020974D01*
X0060001Y0020755D01*
X0060755Y0020001D01*
X0061740Y0019593D01*
X0062807Y0019593D01*
X0063792Y0020001D01*
X0064547Y0020755D01*
X0064955Y0021740D01*
X0064955Y0022807D01*
X0064547Y0023792D01*
X0063920Y0024419D02*
X0210974Y0024419D01*
X0210974Y0025017D02*
X0021369Y0025017D01*
X0021967Y0024419D02*
X0060627Y0024419D01*
X0060028Y0023820D02*
X0022566Y0023820D01*
X0020770Y0025616D02*
X0210974Y0025616D01*
X0210974Y0026214D02*
X0020172Y0026214D01*
X0019573Y0026813D02*
X0210974Y0026813D01*
X0210974Y0027411D02*
X0018975Y0027411D01*
X0018376Y0028010D02*
X0210974Y0028010D01*
X0210974Y0028608D02*
X0017778Y0028608D01*
X0017179Y0029207D02*
X0210974Y0029207D01*
X0210974Y0029805D02*
X0133320Y0029805D01*
X0133792Y0030001D02*
X0134547Y0030755D01*
X0134955Y0031740D01*
X0134955Y0032807D01*
X0134547Y0033792D01*
X0133792Y0034547D01*
X0132807Y0034955D01*
X0131740Y0034955D01*
X0131522Y0034864D01*
X0118574Y0047812D01*
X0118574Y0049910D01*
X0118792Y0050001D01*
X0119547Y0050755D01*
X0119955Y0051740D01*
X0119955Y0052807D01*
X0119547Y0053792D01*
X0118792Y0054547D01*
X0117807Y0054955D01*
X0116740Y0054955D01*
X0115755Y0054547D01*
X0115001Y0053792D01*
X0114593Y0052807D01*
X0114593Y0051740D01*
X0115001Y0050755D01*
X0115755Y0050001D01*
X0115974Y0049910D01*
X0115974Y0046735D01*
X0129683Y0033026D01*
X0129593Y0032807D01*
X0129593Y0031740D01*
X0130001Y0030755D01*
X0130755Y0030001D01*
X0131740Y0029593D01*
X0132807Y0029593D01*
X0133792Y0030001D01*
X0134195Y0030404D02*
X0210974Y0030404D01*
X0210974Y0031002D02*
X0134649Y0031002D01*
X0134897Y0031601D02*
X0210974Y0031601D01*
X0210974Y0032199D02*
X0134955Y0032199D01*
X0134955Y0032798D02*
X0210974Y0032798D01*
X0210974Y0033396D02*
X0134711Y0033396D01*
X0134344Y0033995D02*
X0210974Y0033995D01*
X0210974Y0034593D02*
X0133680Y0034593D01*
X0131194Y0035192D02*
X0210974Y0035192D01*
X0210974Y0035790D02*
X0130595Y0035790D01*
X0129997Y0036389D02*
X0210974Y0036389D01*
X0210974Y0036987D02*
X0129398Y0036987D01*
X0128800Y0037586D02*
X0210974Y0037586D01*
X0210974Y0038184D02*
X0128201Y0038184D01*
X0127603Y0038783D02*
X0210974Y0038783D01*
X0210974Y0039381D02*
X0127004Y0039381D01*
X0126406Y0039980D02*
X0210974Y0039980D01*
X0210974Y0040578D02*
X0125807Y0040578D01*
X0125209Y0041177D02*
X0210974Y0041177D01*
X0210974Y0041775D02*
X0124610Y0041775D01*
X0124012Y0042374D02*
X0210974Y0042374D01*
X0210974Y0042972D02*
X0123413Y0042972D01*
X0122815Y0043571D02*
X0210974Y0043571D01*
X0210974Y0044169D02*
X0122216Y0044169D01*
X0121618Y0044768D02*
X0210974Y0044768D01*
X0210974Y0045366D02*
X0121019Y0045366D01*
X0120421Y0045965D02*
X0210974Y0045965D01*
X0210974Y0046563D02*
X0119822Y0046563D01*
X0119224Y0047162D02*
X0210974Y0047162D01*
X0210974Y0047760D02*
X0118625Y0047760D01*
X0118574Y0048359D02*
X0210974Y0048359D01*
X0210974Y0048958D02*
X0118574Y0048958D01*
X0118574Y0049556D02*
X0210974Y0049556D01*
X0210974Y0050155D02*
X0118946Y0050155D01*
X0119545Y0050753D02*
X0210974Y0050753D01*
X0210974Y0051352D02*
X0119794Y0051352D01*
X0119955Y0051950D02*
X0210974Y0051950D01*
X0210974Y0052549D02*
X0119955Y0052549D01*
X0119814Y0053147D02*
X0210974Y0053147D01*
X0210974Y0053746D02*
X0119566Y0053746D01*
X0118995Y0054344D02*
X0210974Y0054344D01*
X0210974Y0054943D02*
X0117836Y0054943D01*
X0116711Y0054943D02*
X0106923Y0054943D01*
X0107521Y0055541D02*
X0210974Y0055541D01*
X0210974Y0056140D02*
X0108120Y0056140D01*
X0108718Y0056738D02*
X0210974Y0056738D01*
X0210974Y0057337D02*
X0109317Y0057337D01*
X0109915Y0057935D02*
X0210974Y0057935D01*
X0210974Y0058534D02*
X0110514Y0058534D01*
X0111112Y0059132D02*
X0210974Y0059132D01*
X0210974Y0059731D02*
X0111711Y0059731D01*
X0112309Y0060329D02*
X0210974Y0060329D01*
X0210974Y0060928D02*
X0112908Y0060928D01*
X0113506Y0061526D02*
X0210974Y0061526D01*
X0210974Y0062125D02*
X0114105Y0062125D01*
X0114703Y0062723D02*
X0210974Y0062723D01*
X0210974Y0063322D02*
X0115302Y0063322D01*
X0115900Y0063920D02*
X0210974Y0063920D01*
X0210974Y0064519D02*
X0116499Y0064519D01*
X0117097Y0065117D02*
X0210974Y0065117D01*
X0210974Y0065716D02*
X0117696Y0065716D01*
X0118294Y0066314D02*
X0210974Y0066314D01*
X0210974Y0066913D02*
X0118893Y0066913D01*
X0119491Y0067511D02*
X0210974Y0067511D01*
X0210974Y0068110D02*
X0120090Y0068110D01*
X0120688Y0068708D02*
X0210974Y0068708D01*
X0210974Y0069307D02*
X0121287Y0069307D01*
X0121885Y0069905D02*
X0210974Y0069905D01*
X0210974Y0070504D02*
X0122484Y0070504D01*
X0123082Y0071102D02*
X0210974Y0071102D01*
X0210974Y0071701D02*
X0123681Y0071701D01*
X0124279Y0072299D02*
X0210974Y0072299D01*
X0210974Y0072898D02*
X0124878Y0072898D01*
X0125476Y0073496D02*
X0210974Y0073496D01*
X0210974Y0074095D02*
X0126075Y0074095D01*
X0126673Y0074693D02*
X0210974Y0074693D01*
X0210974Y0075292D02*
X0127272Y0075292D01*
X0127870Y0075891D02*
X0210974Y0075891D01*
X0210974Y0076489D02*
X0128469Y0076489D01*
X0129067Y0077088D02*
X0210974Y0077088D01*
X0210974Y0077686D02*
X0129666Y0077686D01*
X0130264Y0078285D02*
X0210974Y0078285D01*
X0210974Y0078883D02*
X0130863Y0078883D01*
X0131461Y0079482D02*
X0210974Y0079482D01*
X0210974Y0080080D02*
X0132060Y0080080D01*
X0132659Y0080679D02*
X0210974Y0080679D01*
X0210974Y0081277D02*
X0133257Y0081277D01*
X0133856Y0081876D02*
X0210974Y0081876D01*
X0210974Y0082474D02*
X0134454Y0082474D01*
X0135053Y0083073D02*
X0210974Y0083073D01*
X0210974Y0083671D02*
X0135651Y0083671D01*
X0136250Y0084270D02*
X0210974Y0084270D01*
X0210974Y0084868D02*
X0136848Y0084868D01*
X0137447Y0085467D02*
X0210974Y0085467D01*
X0210974Y0086065D02*
X0138045Y0086065D01*
X0138644Y0086664D02*
X0210974Y0086664D01*
X0210974Y0087262D02*
X0139242Y0087262D01*
X0139841Y0087861D02*
X0210974Y0087861D01*
X0210974Y0088459D02*
X0140439Y0088459D01*
X0141038Y0089058D02*
X0210974Y0089058D01*
X0210974Y0089656D02*
X0141636Y0089656D01*
X0142235Y0090255D02*
X0210974Y0090255D01*
X0210974Y0090853D02*
X0142833Y0090853D01*
X0142854Y0090874D02*
X0197854Y0090874D01*
X0198674Y0091694D01*
X0208674Y0101694D01*
X0208674Y0202854D01*
X0207854Y0203674D01*
X0197854Y0213674D01*
X0177854Y0213674D01*
X0175021Y0216506D01*
X0175580Y0217064D01*
X0176174Y0218498D01*
X0176174Y0226049D01*
X0175580Y0227483D01*
X0174483Y0228580D01*
X0173049Y0229174D01*
X0171498Y0229174D01*
X0170064Y0228580D01*
X0168967Y0227483D01*
X0168374Y0226049D01*
X0168374Y0218498D01*
X0168967Y0217064D01*
X0170064Y0215967D01*
X0171498Y0215374D01*
X0172194Y0215374D01*
X0175874Y0211694D01*
X0176694Y0210874D01*
X0196694Y0210874D01*
X0205874Y0201694D01*
X0205874Y0102854D01*
X0196694Y0093674D01*
X0158606Y0093674D01*
X0158792Y0093751D01*
X0159547Y0094505D01*
X0159955Y0095490D01*
X0159955Y0096557D01*
X0159547Y0097542D01*
X0158792Y0098297D01*
X0157807Y0098705D01*
X0156740Y0098705D01*
X0155755Y0098297D01*
X0155001Y0097542D01*
X0154869Y0097224D01*
X0130527Y0097224D01*
X0123126Y0089823D01*
X0122807Y0089955D01*
X0121740Y0089955D01*
X0120755Y0089547D01*
X0120001Y0088792D01*
X0119952Y0088674D01*
X0058474Y0088674D01*
X0058474Y0096494D01*
X0062854Y0100874D01*
X0092854Y0100874D01*
X0093674Y0101694D01*
X0111725Y0119745D01*
X0111725Y0129405D01*
X0112076Y0129405D01*
X0112293Y0129623D01*
X0112511Y0129405D01*
X0115882Y0129405D01*
X0116023Y0129265D01*
X0116319Y0129094D01*
X0116650Y0129005D01*
X0117674Y0129005D01*
X0117578Y0128838D01*
X0117489Y0128508D01*
X0117489Y0127357D01*
X0119867Y0127357D01*
X0119867Y0126757D01*
X0117489Y0126757D01*
X0117489Y0125606D01*
X0117578Y0125276D01*
X0117749Y0124979D01*
X0117991Y0124737D01*
X0118288Y0124566D01*
X0118618Y0124478D01*
X0119867Y0124478D01*
X0119867Y0126757D01*
X0120467Y0126757D01*
X0120467Y0124478D01*
X0121716Y0124478D01*
X0122047Y0124566D01*
X0122343Y0124737D01*
X0122586Y0124979D01*
X0122757Y0125276D01*
X0122845Y0125606D01*
X0122845Y0126757D01*
X0120467Y0126757D01*
X0120467Y0127357D01*
X0122845Y0127357D01*
X0122845Y0128508D01*
X0122757Y0128838D01*
X0122586Y0129135D01*
X0122343Y0129377D01*
X0122295Y0129405D01*
X0123887Y0129405D01*
X0124104Y0129623D01*
X0124322Y0129405D01*
X0127824Y0129405D01*
X0128351Y0129932D01*
X0128351Y0133631D01*
X0127824Y0134158D01*
X0127324Y0134158D01*
X0127324Y0139062D01*
X0126562Y0139824D01*
X0121074Y0145312D01*
X0121074Y0152410D01*
X0121292Y0152501D01*
X0122047Y0153255D01*
X0122455Y0154240D01*
X0122455Y0155307D01*
X0122047Y0156292D01*
X0121292Y0157047D01*
X0120307Y0157455D01*
X0119240Y0157455D01*
X0118255Y0157047D01*
X0117501Y0156292D01*
X0117274Y0155744D01*
X0117047Y0156292D01*
X0116292Y0157047D01*
X0115307Y0157455D01*
X0114240Y0157455D01*
X0113255Y0157047D01*
X0112501Y0156292D01*
X0112274Y0155744D01*
X0112047Y0156292D01*
X0111292Y0157047D01*
X0110307Y0157455D01*
X0109240Y0157455D01*
X0108255Y0157047D01*
X0107501Y0156292D01*
X0107274Y0155744D01*
X0107047Y0156292D01*
X0106292Y0157047D01*
X0105307Y0157455D01*
X0104240Y0157455D01*
X0103255Y0157047D01*
X0102501Y0156292D01*
X0102274Y0155744D01*
X0102047Y0156292D01*
X0101292Y0157047D01*
X0100307Y0157455D01*
X0099240Y0157455D01*
X0098255Y0157047D01*
X0097501Y0156292D01*
X0097274Y0155744D01*
X0097047Y0156292D01*
X0096292Y0157047D01*
X0095307Y0157455D01*
X0094240Y0157455D01*
X0093255Y0157047D01*
X0092501Y0156292D01*
X0092093Y0155307D01*
X0092093Y0154240D01*
X0092501Y0153255D01*
X0093255Y0152501D01*
X0093474Y0152410D01*
X0093474Y0134983D01*
X0096236Y0132221D01*
X0096236Y0129932D01*
X0096763Y0129405D01*
X0100265Y0129405D01*
X0100482Y0129623D01*
X0100700Y0129405D01*
X0102292Y0129405D01*
X0102243Y0129377D01*
X0102001Y0129135D01*
X0101830Y0128838D01*
X0101741Y0128508D01*
X0101741Y0127357D01*
X0104119Y0127357D01*
X0104119Y0126757D01*
X0101741Y0126757D01*
X0101741Y0125606D01*
X0101830Y0125276D01*
X0102001Y0124979D01*
X0102243Y0124737D01*
X0102540Y0124566D01*
X0102870Y0124478D01*
X0104119Y0124478D01*
X0104119Y0126757D01*
X0104719Y0126757D01*
X0104719Y0124478D01*
X0105968Y0124478D01*
X0106299Y0124566D01*
X0106595Y0124737D01*
X0106837Y0124979D01*
X0107009Y0125276D01*
X0107097Y0125606D01*
X0107097Y0126757D01*
X0104719Y0126757D01*
X0104719Y0127357D01*
X0107097Y0127357D01*
X0107097Y0128508D01*
X0107009Y0128838D01*
X0106837Y0129135D01*
X0106595Y0129377D01*
X0106546Y0129405D01*
X0108139Y0129405D01*
X0108356Y0129623D01*
X0108574Y0129405D01*
X0108925Y0129405D01*
X0108925Y0120905D01*
X0091694Y0103674D01*
X0061694Y0103674D01*
X0058474Y0100453D01*
X0058474Y0102771D01*
X0057771Y0103474D01*
X0016777Y0103474D01*
X0016074Y0102771D01*
X0016074Y0081777D01*
X0031074Y0066777D01*
X0031777Y0066074D01*
X0042771Y0066074D01*
X0057771Y0081074D01*
X0058474Y0081777D01*
X0058474Y0085874D01*
X0119952Y0085874D01*
X0120001Y0085755D01*
X0120755Y0085001D01*
X0121740Y0084593D01*
X0122807Y0084593D01*
X0123792Y0085001D01*
X0124547Y0085755D01*
X0124955Y0086740D01*
X0124955Y0087807D01*
X0124823Y0088126D01*
X0131521Y0094824D01*
X0154869Y0094824D01*
X0155001Y0094505D01*
X0155755Y0093751D01*
X0155941Y0093674D01*
X0141694Y0093674D01*
X0091694Y0043674D01*
X0078474Y0043674D01*
X0078474Y0062771D01*
X0077771Y0063474D01*
X0041777Y0063474D01*
X0041074Y0062771D01*
X0041074Y0041777D01*
X0046074Y0036777D01*
X0046777Y0036074D01*
X0071494Y0036074D01*
X0076694Y0030874D01*
X0119952Y0030874D01*
X0120001Y0030755D01*
X0120755Y0030001D01*
X0121740Y0029593D01*
X0122807Y0029593D01*
X0123792Y0030001D01*
X0124547Y0030755D01*
X0124955Y0031740D01*
X0124955Y0032807D01*
X0124547Y0033792D01*
X0123792Y0034547D01*
X0122807Y0034955D01*
X0121740Y0034955D01*
X0120755Y0034547D01*
X0120001Y0033792D01*
X0119952Y0033674D01*
X0077854Y0033674D01*
X0075453Y0036074D01*
X0077771Y0036074D01*
X0078474Y0036777D01*
X0078474Y0040874D01*
X0092854Y0040874D01*
X0093674Y0041694D01*
X0142854Y0090874D01*
X0140669Y0092649D02*
X0129346Y0092649D01*
X0129944Y0093247D02*
X0141267Y0093247D01*
X0140070Y0092050D02*
X0128747Y0092050D01*
X0128149Y0091452D02*
X0139472Y0091452D01*
X0138873Y0090853D02*
X0127550Y0090853D01*
X0126952Y0090255D02*
X0138275Y0090255D01*
X0137676Y0089656D02*
X0126353Y0089656D01*
X0125755Y0089058D02*
X0137078Y0089058D01*
X0136479Y0088459D02*
X0125156Y0088459D01*
X0124932Y0087861D02*
X0135881Y0087861D01*
X0135282Y0087262D02*
X0124955Y0087262D01*
X0124923Y0086664D02*
X0134684Y0086664D01*
X0134085Y0086065D02*
X0124675Y0086065D01*
X0124258Y0085467D02*
X0133487Y0085467D01*
X0132888Y0084868D02*
X0123472Y0084868D01*
X0121075Y0084868D02*
X0058474Y0084868D01*
X0058474Y0084270D02*
X0132290Y0084270D01*
X0131691Y0083671D02*
X0058474Y0083671D01*
X0058474Y0083073D02*
X0131093Y0083073D01*
X0130494Y0082474D02*
X0058474Y0082474D01*
X0058474Y0081876D02*
X0129896Y0081876D01*
X0129297Y0081277D02*
X0057974Y0081277D01*
X0057376Y0080679D02*
X0128699Y0080679D01*
X0128100Y0080080D02*
X0056777Y0080080D01*
X0056179Y0079482D02*
X0127502Y0079482D01*
X0126903Y0078883D02*
X0055580Y0078883D01*
X0054982Y0078285D02*
X0126305Y0078285D01*
X0125706Y0077686D02*
X0054383Y0077686D01*
X0053785Y0077088D02*
X0125108Y0077088D01*
X0124509Y0076489D02*
X0053186Y0076489D01*
X0052588Y0075891D02*
X0123911Y0075891D01*
X0123312Y0075292D02*
X0051989Y0075292D01*
X0051391Y0074693D02*
X0122714Y0074693D01*
X0122115Y0074095D02*
X0050792Y0074095D01*
X0050194Y0073496D02*
X0121517Y0073496D01*
X0120918Y0072898D02*
X0049595Y0072898D01*
X0048996Y0072299D02*
X0120320Y0072299D01*
X0119721Y0071701D02*
X0048398Y0071701D01*
X0047799Y0071102D02*
X0119123Y0071102D01*
X0118524Y0070504D02*
X0047201Y0070504D01*
X0046602Y0069905D02*
X0117926Y0069905D01*
X0117327Y0069307D02*
X0046004Y0069307D01*
X0045405Y0068708D02*
X0116728Y0068708D01*
X0116130Y0068110D02*
X0044807Y0068110D01*
X0044208Y0067511D02*
X0115531Y0067511D01*
X0114933Y0066913D02*
X0043610Y0066913D01*
X0043011Y0066314D02*
X0114334Y0066314D01*
X0113736Y0065716D02*
X0008574Y0065716D01*
X0008574Y0066314D02*
X0031536Y0066314D01*
X0030937Y0066913D02*
X0008574Y0066913D01*
X0008574Y0067511D02*
X0030339Y0067511D01*
X0029740Y0068110D02*
X0008574Y0068110D01*
X0008574Y0068708D02*
X0029142Y0068708D01*
X0028543Y0069307D02*
X0008574Y0069307D01*
X0008574Y0069905D02*
X0027945Y0069905D01*
X0027346Y0070504D02*
X0008574Y0070504D01*
X0008574Y0071102D02*
X0026748Y0071102D01*
X0026149Y0071701D02*
X0008574Y0071701D01*
X0008574Y0072299D02*
X0025551Y0072299D01*
X0024952Y0072898D02*
X0008574Y0072898D01*
X0008574Y0073496D02*
X0024354Y0073496D01*
X0023755Y0074095D02*
X0008574Y0074095D01*
X0008574Y0074693D02*
X0023157Y0074693D01*
X0022558Y0075292D02*
X0008574Y0075292D01*
X0008574Y0075891D02*
X0021960Y0075891D01*
X0021361Y0076489D02*
X0008574Y0076489D01*
X0008574Y0077088D02*
X0020763Y0077088D01*
X0020164Y0077686D02*
X0008574Y0077686D01*
X0008574Y0078285D02*
X0019566Y0078285D01*
X0018967Y0078883D02*
X0008574Y0078883D01*
X0008574Y0079482D02*
X0018369Y0079482D01*
X0017770Y0080080D02*
X0008574Y0080080D01*
X0008574Y0080679D02*
X0017172Y0080679D01*
X0016573Y0081277D02*
X0008574Y0081277D01*
X0008574Y0081876D02*
X0016074Y0081876D01*
X0016074Y0082474D02*
X0008574Y0082474D01*
X0008574Y0083073D02*
X0016074Y0083073D01*
X0016074Y0083671D02*
X0008574Y0083671D01*
X0008574Y0084270D02*
X0016074Y0084270D01*
X0016074Y0084868D02*
X0008574Y0084868D01*
X0008574Y0085467D02*
X0016074Y0085467D01*
X0016074Y0086065D02*
X0008574Y0086065D01*
X0008574Y0086664D02*
X0016074Y0086664D01*
X0016074Y0087262D02*
X0008574Y0087262D01*
X0008574Y0087861D02*
X0016074Y0087861D01*
X0016074Y0088459D02*
X0008574Y0088459D01*
X0008574Y0089058D02*
X0016074Y0089058D01*
X0016074Y0089656D02*
X0008574Y0089656D01*
X0008574Y0090255D02*
X0016074Y0090255D01*
X0016074Y0090853D02*
X0008574Y0090853D01*
X0008574Y0091452D02*
X0016074Y0091452D01*
X0016074Y0092050D02*
X0008574Y0092050D01*
X0008574Y0092649D02*
X0016074Y0092649D01*
X0016074Y0093247D02*
X0008574Y0093247D01*
X0008574Y0093846D02*
X0016074Y0093846D01*
X0016074Y0094444D02*
X0008574Y0094444D01*
X0008574Y0095043D02*
X0016074Y0095043D01*
X0016074Y0095641D02*
X0008574Y0095641D01*
X0008574Y0096240D02*
X0016074Y0096240D01*
X0016074Y0096838D02*
X0008574Y0096838D01*
X0008574Y0097437D02*
X0016074Y0097437D01*
X0016074Y0098035D02*
X0008574Y0098035D01*
X0008574Y0098634D02*
X0016074Y0098634D01*
X0016074Y0099232D02*
X0008574Y0099232D01*
X0008574Y0099831D02*
X0016074Y0099831D01*
X0016074Y0100429D02*
X0008574Y0100429D01*
X0008574Y0101028D02*
X0016074Y0101028D01*
X0016074Y0101627D02*
X0008574Y0101627D01*
X0008574Y0102225D02*
X0016074Y0102225D01*
X0016126Y0102824D02*
X0008574Y0102824D01*
X0008574Y0103422D02*
X0016725Y0103422D01*
X0017274Y0102274D02*
X0057274Y0102274D01*
X0057274Y0082274D01*
X0042274Y0067274D01*
X0032274Y0067274D01*
X0017274Y0082274D01*
X0017274Y0102274D01*
X0017274Y0102225D02*
X0057274Y0102225D01*
X0057274Y0101627D02*
X0017274Y0101627D01*
X0017274Y0101028D02*
X0057274Y0101028D01*
X0057274Y0100429D02*
X0017274Y0100429D01*
X0017274Y0099831D02*
X0057274Y0099831D01*
X0057274Y0099232D02*
X0017274Y0099232D01*
X0017274Y0098634D02*
X0057274Y0098634D01*
X0057274Y0098035D02*
X0017274Y0098035D01*
X0017274Y0097437D02*
X0057274Y0097437D01*
X0057274Y0096838D02*
X0017274Y0096838D01*
X0017274Y0096240D02*
X0057274Y0096240D01*
X0057274Y0095641D02*
X0017274Y0095641D01*
X0017274Y0095043D02*
X0057274Y0095043D01*
X0057274Y0094444D02*
X0017274Y0094444D01*
X0017274Y0093846D02*
X0057274Y0093846D01*
X0057274Y0093247D02*
X0017274Y0093247D01*
X0017274Y0092649D02*
X0057274Y0092649D01*
X0057274Y0092050D02*
X0017274Y0092050D01*
X0017274Y0091452D02*
X0057274Y0091452D01*
X0057274Y0090853D02*
X0017274Y0090853D01*
X0017274Y0090255D02*
X0057274Y0090255D01*
X0057274Y0089656D02*
X0017274Y0089656D01*
X0017274Y0089058D02*
X0057274Y0089058D01*
X0057274Y0088459D02*
X0017274Y0088459D01*
X0017274Y0087861D02*
X0057274Y0087861D01*
X0057274Y0087262D02*
X0017274Y0087262D01*
X0017274Y0086664D02*
X0057274Y0086664D01*
X0057274Y0086065D02*
X0017274Y0086065D01*
X0017274Y0085467D02*
X0057274Y0085467D01*
X0057274Y0084868D02*
X0017274Y0084868D01*
X0017274Y0084270D02*
X0057274Y0084270D01*
X0057274Y0083671D02*
X0017274Y0083671D01*
X0017274Y0083073D02*
X0057274Y0083073D01*
X0057274Y0082474D02*
X0017274Y0082474D01*
X0017672Y0081876D02*
X0056876Y0081876D01*
X0056277Y0081277D02*
X0018270Y0081277D01*
X0018869Y0080679D02*
X0055679Y0080679D01*
X0055080Y0080080D02*
X0019467Y0080080D01*
X0020066Y0079482D02*
X0054482Y0079482D01*
X0053883Y0078883D02*
X0020664Y0078883D01*
X0021263Y0078285D02*
X0053285Y0078285D01*
X0052686Y0077686D02*
X0021861Y0077686D01*
X0022460Y0077088D02*
X0052088Y0077088D01*
X0051489Y0076489D02*
X0023058Y0076489D01*
X0023657Y0075891D02*
X0050891Y0075891D01*
X0050292Y0075292D02*
X0024255Y0075292D01*
X0024854Y0074693D02*
X0049693Y0074693D01*
X0049095Y0074095D02*
X0025452Y0074095D01*
X0026051Y0073496D02*
X0048496Y0073496D01*
X0047898Y0072898D02*
X0026649Y0072898D01*
X0027248Y0072299D02*
X0047299Y0072299D01*
X0046701Y0071701D02*
X0027846Y0071701D01*
X0028445Y0071102D02*
X0046102Y0071102D01*
X0045504Y0070504D02*
X0029043Y0070504D01*
X0029642Y0069905D02*
X0044905Y0069905D01*
X0044307Y0069307D02*
X0030240Y0069307D01*
X0030839Y0068708D02*
X0043708Y0068708D01*
X0043110Y0068110D02*
X0031437Y0068110D01*
X0032036Y0067511D02*
X0042511Y0067511D01*
X0041625Y0063322D02*
X0008574Y0063322D01*
X0008574Y0063920D02*
X0111940Y0063920D01*
X0111342Y0063322D02*
X0077923Y0063322D01*
X0078474Y0062723D02*
X0110743Y0062723D01*
X0110145Y0062125D02*
X0078474Y0062125D01*
X0078474Y0061526D02*
X0109546Y0061526D01*
X0108948Y0060928D02*
X0078474Y0060928D01*
X0078474Y0060329D02*
X0108349Y0060329D01*
X0107751Y0059731D02*
X0078474Y0059731D01*
X0078474Y0059132D02*
X0107152Y0059132D01*
X0106554Y0058534D02*
X0078474Y0058534D01*
X0078474Y0057935D02*
X0105955Y0057935D01*
X0105357Y0057337D02*
X0078474Y0057337D01*
X0078474Y0056738D02*
X0104758Y0056738D01*
X0104160Y0056140D02*
X0078474Y0056140D01*
X0078474Y0055541D02*
X0103561Y0055541D01*
X0102963Y0054943D02*
X0078474Y0054943D01*
X0078474Y0054344D02*
X0102364Y0054344D01*
X0101766Y0053746D02*
X0078474Y0053746D01*
X0078474Y0053147D02*
X0101167Y0053147D01*
X0100569Y0052549D02*
X0078474Y0052549D01*
X0078474Y0051950D02*
X0099970Y0051950D01*
X0099372Y0051352D02*
X0078474Y0051352D01*
X0078474Y0050753D02*
X0098773Y0050753D01*
X0098175Y0050155D02*
X0078474Y0050155D01*
X0078474Y0049556D02*
X0097576Y0049556D01*
X0096978Y0048958D02*
X0078474Y0048958D01*
X0078474Y0048359D02*
X0096379Y0048359D01*
X0095781Y0047760D02*
X0078474Y0047760D01*
X0078474Y0047162D02*
X0095182Y0047162D01*
X0094584Y0046563D02*
X0078474Y0046563D01*
X0078474Y0045965D02*
X0093985Y0045965D01*
X0093387Y0045366D02*
X0078474Y0045366D01*
X0078474Y0044768D02*
X0092788Y0044768D01*
X0092190Y0044169D02*
X0078474Y0044169D01*
X0077274Y0044169D02*
X0042274Y0044169D01*
X0042274Y0043571D02*
X0077274Y0043571D01*
X0077274Y0042972D02*
X0042274Y0042972D01*
X0042274Y0042374D02*
X0077274Y0042374D01*
X0077274Y0041775D02*
X0042772Y0041775D01*
X0042274Y0042274D02*
X0047274Y0037274D01*
X0077274Y0037274D01*
X0077274Y0062274D01*
X0042274Y0062274D01*
X0042274Y0042274D01*
X0041074Y0042374D02*
X0008574Y0042374D01*
X0008574Y0042972D02*
X0041074Y0042972D01*
X0041074Y0043571D02*
X0008574Y0043571D01*
X0008574Y0044169D02*
X0041074Y0044169D01*
X0041074Y0044768D02*
X0008574Y0044768D01*
X0008574Y0045366D02*
X0041074Y0045366D01*
X0041074Y0045965D02*
X0008574Y0045965D01*
X0008574Y0046563D02*
X0041074Y0046563D01*
X0041074Y0047162D02*
X0008574Y0047162D01*
X0008574Y0047760D02*
X0041074Y0047760D01*
X0041074Y0048359D02*
X0008574Y0048359D01*
X0008574Y0048958D02*
X0041074Y0048958D01*
X0041074Y0049556D02*
X0008574Y0049556D01*
X0008574Y0050155D02*
X0041074Y0050155D01*
X0041074Y0050753D02*
X0008574Y0050753D01*
X0008574Y0051352D02*
X0041074Y0051352D01*
X0041074Y0051950D02*
X0008574Y0051950D01*
X0008574Y0052549D02*
X0041074Y0052549D01*
X0041074Y0053147D02*
X0008574Y0053147D01*
X0008574Y0053746D02*
X0041074Y0053746D01*
X0041074Y0054344D02*
X0008574Y0054344D01*
X0008574Y0054943D02*
X0041074Y0054943D01*
X0041074Y0055541D02*
X0008574Y0055541D01*
X0008574Y0056140D02*
X0041074Y0056140D01*
X0041074Y0056738D02*
X0008574Y0056738D01*
X0008574Y0057337D02*
X0041074Y0057337D01*
X0041074Y0057935D02*
X0008574Y0057935D01*
X0008574Y0058534D02*
X0041074Y0058534D01*
X0041074Y0059132D02*
X0008574Y0059132D01*
X0008574Y0059731D02*
X0041074Y0059731D01*
X0041074Y0060329D02*
X0008574Y0060329D01*
X0008574Y0060928D02*
X0041074Y0060928D01*
X0041074Y0061526D02*
X0008574Y0061526D01*
X0008574Y0062125D02*
X0041074Y0062125D01*
X0041074Y0062723D02*
X0008574Y0062723D01*
X0008574Y0064519D02*
X0112539Y0064519D01*
X0113137Y0065117D02*
X0008574Y0065117D01*
X0005974Y0065117D02*
X0003574Y0065117D01*
X0003574Y0064519D02*
X0005974Y0064519D01*
X0005974Y0063920D02*
X0003574Y0063920D01*
X0003574Y0063322D02*
X0005974Y0063322D01*
X0005974Y0062723D02*
X0003574Y0062723D01*
X0003574Y0062125D02*
X0005974Y0062125D01*
X0005974Y0061526D02*
X0003574Y0061526D01*
X0003574Y0060928D02*
X0005974Y0060928D01*
X0005974Y0060329D02*
X0003574Y0060329D01*
X0003574Y0059731D02*
X0005974Y0059731D01*
X0005974Y0059132D02*
X0003574Y0059132D01*
X0003574Y0058534D02*
X0005974Y0058534D01*
X0005974Y0057935D02*
X0003574Y0057935D01*
X0003574Y0057337D02*
X0005974Y0057337D01*
X0005974Y0056738D02*
X0003574Y0056738D01*
X0003574Y0056140D02*
X0005974Y0056140D01*
X0005974Y0055541D02*
X0003574Y0055541D01*
X0003574Y0054943D02*
X0005974Y0054943D01*
X0005974Y0054344D02*
X0003574Y0054344D01*
X0003574Y0053746D02*
X0005974Y0053746D01*
X0005974Y0053147D02*
X0003574Y0053147D01*
X0003574Y0052549D02*
X0005974Y0052549D01*
X0005974Y0051950D02*
X0003574Y0051950D01*
X0003574Y0051352D02*
X0005974Y0051352D01*
X0005974Y0050753D02*
X0003574Y0050753D01*
X0003574Y0050155D02*
X0005974Y0050155D01*
X0005974Y0049556D02*
X0003574Y0049556D01*
X0003574Y0048958D02*
X0005974Y0048958D01*
X0005974Y0048359D02*
X0003574Y0048359D01*
X0003574Y0047760D02*
X0005974Y0047760D01*
X0005974Y0047162D02*
X0003574Y0047162D01*
X0003574Y0046563D02*
X0005974Y0046563D01*
X0005974Y0045965D02*
X0003574Y0045965D01*
X0003574Y0045366D02*
X0005974Y0045366D01*
X0005974Y0044768D02*
X0003574Y0044768D01*
X0003574Y0044169D02*
X0005974Y0044169D01*
X0005974Y0043571D02*
X0003574Y0043571D01*
X0003574Y0042972D02*
X0005974Y0042972D01*
X0005974Y0042374D02*
X0003574Y0042374D01*
X0003574Y0041775D02*
X0005974Y0041775D01*
X0005974Y0041177D02*
X0003574Y0041177D01*
X0003574Y0040578D02*
X0005974Y0040578D01*
X0005974Y0039980D02*
X0003574Y0039980D01*
X0003574Y0039381D02*
X0005974Y0039381D01*
X0005974Y0038783D02*
X0003574Y0038783D01*
X0003574Y0038184D02*
X0005974Y0038184D01*
X0005974Y0037586D02*
X0003574Y0037586D01*
X0003574Y0036987D02*
X0005974Y0036987D01*
X0006320Y0036389D02*
X0003574Y0036389D01*
X0003574Y0035790D02*
X0006919Y0035790D01*
X0007517Y0035192D02*
X0003574Y0035192D01*
X0003574Y0034593D02*
X0008116Y0034593D01*
X0008714Y0033995D02*
X0003574Y0033995D01*
X0003574Y0033396D02*
X0009313Y0033396D01*
X0009911Y0032798D02*
X0003574Y0032798D01*
X0003574Y0032199D02*
X0010510Y0032199D01*
X0011108Y0031601D02*
X0003574Y0031601D01*
X0003574Y0031002D02*
X0011707Y0031002D01*
X0012305Y0030404D02*
X0003574Y0030404D01*
X0003574Y0029805D02*
X0012904Y0029805D01*
X0013502Y0029207D02*
X0003574Y0029207D01*
X0003574Y0028608D02*
X0014101Y0028608D01*
X0014699Y0028010D02*
X0003574Y0028010D01*
X0003574Y0027411D02*
X0015298Y0027411D01*
X0015896Y0026813D02*
X0003574Y0026813D01*
X0003574Y0026214D02*
X0016495Y0026214D01*
X0017093Y0025616D02*
X0003574Y0025616D01*
X0003574Y0025017D02*
X0017692Y0025017D01*
X0018290Y0024419D02*
X0003574Y0024419D01*
X0003574Y0023820D02*
X0018889Y0023820D01*
X0019487Y0023222D02*
X0003574Y0023222D01*
X0003574Y0022623D02*
X0020086Y0022623D01*
X0020684Y0022024D02*
X0003574Y0022024D01*
X0003574Y0021426D02*
X0021283Y0021426D01*
X0017738Y0017835D02*
X0196810Y0017835D01*
X0197408Y0018433D02*
X0017139Y0018433D01*
X0016690Y0018883D02*
X0013824Y0020070D01*
X0010723Y0020070D01*
X0007858Y0018883D01*
X0005664Y0016690D01*
X0004478Y0013824D01*
X0004478Y0010723D01*
X0005664Y0007858D01*
X0007858Y0005664D01*
X0010723Y0004478D01*
X0013824Y0004478D01*
X0016690Y0005664D01*
X0018883Y0007858D01*
X0020070Y0010723D01*
X0020070Y0013824D01*
X0018883Y0016690D01*
X0016690Y0018883D01*
X0016330Y0019032D02*
X0198218Y0019032D01*
X0197858Y0018883D02*
X0195664Y0016690D01*
X0194478Y0013824D01*
X0194478Y0010723D01*
X0195664Y0007858D01*
X0197858Y0005664D01*
X0200723Y0004478D01*
X0203824Y0004478D01*
X0206690Y0005664D01*
X0208883Y0007858D01*
X0210070Y0010723D01*
X0210070Y0013824D01*
X0208883Y0016690D01*
X0206690Y0018883D01*
X0203824Y0020070D01*
X0200723Y0020070D01*
X0197858Y0018883D01*
X0199663Y0019630D02*
X0062898Y0019630D01*
X0061649Y0019630D02*
X0014885Y0019630D01*
X0018336Y0017236D02*
X0196211Y0017236D01*
X0195643Y0016638D02*
X0018904Y0016638D01*
X0019152Y0016039D02*
X0195395Y0016039D01*
X0195147Y0015441D02*
X0019400Y0015441D01*
X0019648Y0014842D02*
X0194899Y0014842D01*
X0194651Y0014244D02*
X0019896Y0014244D01*
X0020070Y0013645D02*
X0194478Y0013645D01*
X0194478Y0013047D02*
X0020070Y0013047D01*
X0020070Y0012448D02*
X0194478Y0012448D01*
X0194478Y0011850D02*
X0020070Y0011850D01*
X0020070Y0011251D02*
X0194478Y0011251D01*
X0194507Y0010653D02*
X0020041Y0010653D01*
X0019793Y0010054D02*
X0194755Y0010054D01*
X0195002Y0009456D02*
X0019545Y0009456D01*
X0019297Y0008857D02*
X0195250Y0008857D01*
X0195498Y0008259D02*
X0019049Y0008259D01*
X0018686Y0007660D02*
X0195862Y0007660D01*
X0196460Y0007062D02*
X0018087Y0007062D01*
X0017488Y0006463D02*
X0197059Y0006463D01*
X0197657Y0005865D02*
X0016890Y0005865D01*
X0015728Y0005266D02*
X0198819Y0005266D01*
X0200264Y0004668D02*
X0014283Y0004668D01*
X0010264Y0004668D02*
X0003574Y0004668D01*
X0003574Y0005266D02*
X0008819Y0005266D01*
X0007657Y0005865D02*
X0003574Y0005865D01*
X0003574Y0006463D02*
X0007059Y0006463D01*
X0006460Y0007062D02*
X0003574Y0007062D01*
X0003574Y0007660D02*
X0005862Y0007660D01*
X0005498Y0008259D02*
X0003574Y0008259D01*
X0003574Y0008857D02*
X0005250Y0008857D01*
X0005002Y0009456D02*
X0003574Y0009456D01*
X0003574Y0010054D02*
X0004755Y0010054D01*
X0004507Y0010653D02*
X0003574Y0010653D01*
X0003574Y0011251D02*
X0004478Y0011251D01*
X0004478Y0011850D02*
X0003574Y0011850D01*
X0003574Y0012448D02*
X0004478Y0012448D01*
X0004478Y0013047D02*
X0003574Y0013047D01*
X0003574Y0013645D02*
X0004478Y0013645D01*
X0004651Y0014244D02*
X0003574Y0014244D01*
X0003574Y0014842D02*
X0004899Y0014842D01*
X0005147Y0015441D02*
X0003574Y0015441D01*
X0003574Y0016039D02*
X0005395Y0016039D01*
X0005643Y0016638D02*
X0003574Y0016638D01*
X0003574Y0017236D02*
X0006211Y0017236D01*
X0006810Y0017835D02*
X0003574Y0017835D01*
X0003574Y0018433D02*
X0007408Y0018433D01*
X0008218Y0019032D02*
X0003574Y0019032D01*
X0003574Y0019630D02*
X0009663Y0019630D01*
X0003574Y0020229D02*
X0060527Y0020229D01*
X0059971Y0020827D02*
X0003574Y0020827D01*
X0014785Y0031601D02*
X0075967Y0031601D01*
X0076565Y0031002D02*
X0015384Y0031002D01*
X0015982Y0030404D02*
X0120352Y0030404D01*
X0121227Y0029805D02*
X0016581Y0029805D01*
X0014187Y0032199D02*
X0075368Y0032199D01*
X0074770Y0032798D02*
X0013588Y0032798D01*
X0012989Y0033396D02*
X0074171Y0033396D01*
X0073573Y0033995D02*
X0012391Y0033995D01*
X0011792Y0034593D02*
X0072974Y0034593D01*
X0072376Y0035192D02*
X0011194Y0035192D01*
X0010595Y0035790D02*
X0071777Y0035790D01*
X0075737Y0035790D02*
X0126919Y0035790D01*
X0127517Y0035192D02*
X0076335Y0035192D01*
X0076934Y0034593D02*
X0120868Y0034593D01*
X0120203Y0033995D02*
X0077532Y0033995D01*
X0078086Y0036389D02*
X0126320Y0036389D01*
X0125721Y0036987D02*
X0078474Y0036987D01*
X0078474Y0037586D02*
X0125123Y0037586D01*
X0124524Y0038184D02*
X0078474Y0038184D01*
X0078474Y0038783D02*
X0123926Y0038783D01*
X0123327Y0039381D02*
X0078474Y0039381D01*
X0078474Y0039980D02*
X0122729Y0039980D01*
X0122130Y0040578D02*
X0078474Y0040578D01*
X0077274Y0040578D02*
X0043969Y0040578D01*
X0044567Y0039980D02*
X0077274Y0039980D01*
X0077274Y0039381D02*
X0045166Y0039381D01*
X0045764Y0038783D02*
X0077274Y0038783D01*
X0077274Y0038184D02*
X0046363Y0038184D01*
X0046961Y0037586D02*
X0077274Y0037586D01*
X0077274Y0041177D02*
X0043370Y0041177D01*
X0042272Y0040578D02*
X0008574Y0040578D01*
X0008574Y0039980D02*
X0042870Y0039980D01*
X0043469Y0039381D02*
X0008574Y0039381D01*
X0008574Y0038783D02*
X0044067Y0038783D01*
X0044666Y0038184D02*
X0008574Y0038184D01*
X0008800Y0037586D02*
X0045264Y0037586D01*
X0045863Y0036987D02*
X0009398Y0036987D01*
X0009997Y0036389D02*
X0046461Y0036389D01*
X0041673Y0041177D02*
X0008574Y0041177D01*
X0008574Y0041775D02*
X0041075Y0041775D01*
X0042274Y0044768D02*
X0077274Y0044768D01*
X0077274Y0045366D02*
X0042274Y0045366D01*
X0042274Y0045965D02*
X0077274Y0045965D01*
X0077274Y0046563D02*
X0042274Y0046563D01*
X0042274Y0047162D02*
X0077274Y0047162D01*
X0077274Y0047760D02*
X0042274Y0047760D01*
X0042274Y0048359D02*
X0077274Y0048359D01*
X0077274Y0048958D02*
X0042274Y0048958D01*
X0042274Y0049556D02*
X0077274Y0049556D01*
X0077274Y0050155D02*
X0042274Y0050155D01*
X0042274Y0050753D02*
X0077274Y0050753D01*
X0077274Y0051352D02*
X0042274Y0051352D01*
X0042274Y0051950D02*
X0077274Y0051950D01*
X0077274Y0052549D02*
X0042274Y0052549D01*
X0042274Y0053147D02*
X0077274Y0053147D01*
X0077274Y0053746D02*
X0042274Y0053746D01*
X0042274Y0054344D02*
X0077274Y0054344D01*
X0077274Y0054943D02*
X0042274Y0054943D01*
X0042274Y0055541D02*
X0077274Y0055541D01*
X0077274Y0056140D02*
X0042274Y0056140D01*
X0042274Y0056738D02*
X0077274Y0056738D01*
X0077274Y0057337D02*
X0042274Y0057337D01*
X0042274Y0057935D02*
X0077274Y0057935D01*
X0077274Y0058534D02*
X0042274Y0058534D01*
X0042274Y0059132D02*
X0077274Y0059132D01*
X0077274Y0059731D02*
X0042274Y0059731D01*
X0042274Y0060329D02*
X0077274Y0060329D01*
X0077274Y0060928D02*
X0042274Y0060928D01*
X0042274Y0061526D02*
X0077274Y0061526D01*
X0077274Y0062125D02*
X0042274Y0062125D01*
X0058474Y0085467D02*
X0120289Y0085467D01*
X0122274Y0087274D02*
X0131024Y0096024D01*
X0157274Y0096024D01*
X0159769Y0095043D02*
X0198063Y0095043D01*
X0198661Y0095641D02*
X0159955Y0095641D01*
X0159955Y0096240D02*
X0199260Y0096240D01*
X0199859Y0096838D02*
X0159838Y0096838D01*
X0159590Y0097437D02*
X0193409Y0097437D01*
X0193255Y0097501D02*
X0194240Y0097093D01*
X0195307Y0097093D01*
X0196292Y0097501D01*
X0197047Y0098255D01*
X0197455Y0099240D01*
X0197455Y0100307D01*
X0197364Y0100526D01*
X0202324Y0105485D01*
X0202324Y0129910D01*
X0202542Y0130001D01*
X0203297Y0130755D01*
X0203705Y0131740D01*
X0203705Y0132807D01*
X0203297Y0133792D01*
X0202542Y0134547D01*
X0201557Y0134955D01*
X0200490Y0134955D01*
X0199505Y0134547D01*
X0198751Y0133792D01*
X0198574Y0133365D01*
X0198574Y0202812D01*
X0192812Y0208574D01*
X0179235Y0208574D01*
X0178474Y0207812D01*
X0176069Y0205408D01*
X0175049Y0206428D01*
X0173248Y0207174D01*
X0171299Y0207174D01*
X0169498Y0206428D01*
X0168120Y0205049D01*
X0167374Y0203248D01*
X0167374Y0201299D01*
X0168120Y0199498D01*
X0169498Y0198120D01*
X0171299Y0197374D01*
X0173248Y0197374D01*
X0175049Y0198120D01*
X0176428Y0199498D01*
X0177174Y0201299D01*
X0177174Y0202835D01*
X0177374Y0203035D01*
X0177374Y0201299D01*
X0178120Y0199498D01*
X0179498Y0198120D01*
X0181299Y0197374D01*
X0183248Y0197374D01*
X0185049Y0198120D01*
X0186428Y0199498D01*
X0187174Y0201299D01*
X0187174Y0203248D01*
X0186428Y0205049D01*
X0185503Y0205974D01*
X0191735Y0205974D01*
X0195974Y0201735D01*
X0195974Y0135503D01*
X0195049Y0136428D01*
X0193248Y0137174D01*
X0191299Y0137174D01*
X0189498Y0136428D01*
X0188574Y0135503D01*
X0188574Y0177812D01*
X0186562Y0179823D01*
X0187174Y0181299D01*
X0187174Y0183248D01*
X0186440Y0185018D01*
X0188433Y0183026D01*
X0188343Y0182807D01*
X0188343Y0181740D01*
X0188751Y0180755D01*
X0189505Y0180001D01*
X0190490Y0179593D01*
X0191557Y0179593D01*
X0192542Y0180001D01*
X0193297Y0180755D01*
X0193705Y0181740D01*
X0193705Y0182807D01*
X0193297Y0183792D01*
X0192542Y0184547D01*
X0191557Y0184955D01*
X0190490Y0184955D01*
X0190272Y0184864D01*
X0186562Y0188574D01*
X0185503Y0188574D01*
X0186428Y0189498D01*
X0187174Y0191299D01*
X0187174Y0193248D01*
X0186428Y0195049D01*
X0185049Y0196428D01*
X0183248Y0197174D01*
X0181299Y0197174D01*
X0179498Y0196428D01*
X0178120Y0195049D01*
X0177374Y0193248D01*
X0177374Y0191299D01*
X0178120Y0189498D01*
X0179044Y0188574D01*
X0177812Y0188574D01*
X0176562Y0189823D01*
X0177174Y0191299D01*
X0177174Y0193248D01*
X0176428Y0195049D01*
X0175049Y0196428D01*
X0173248Y0197174D01*
X0171299Y0197174D01*
X0169498Y0196428D01*
X0168120Y0195049D01*
X0167374Y0193248D01*
X0167374Y0192962D01*
X0167224Y0192812D01*
X0167224Y0191735D01*
X0167374Y0191585D01*
X0167374Y0191299D01*
X0168120Y0189498D01*
X0169498Y0188120D01*
X0171299Y0187374D01*
X0173248Y0187374D01*
X0174724Y0187985D01*
X0176735Y0185974D01*
X0179044Y0185974D01*
X0178120Y0185049D01*
X0177374Y0183248D01*
X0177374Y0181299D01*
X0178120Y0179498D01*
X0179498Y0178120D01*
X0181299Y0177374D01*
X0183248Y0177374D01*
X0184724Y0177985D01*
X0185974Y0176735D01*
X0185974Y0175503D01*
X0185049Y0176428D01*
X0183248Y0177174D01*
X0181299Y0177174D01*
X0179498Y0176428D01*
X0178574Y0175503D01*
X0178574Y0177812D01*
X0176562Y0179823D01*
X0177174Y0181299D01*
X0177174Y0183248D01*
X0176428Y0185049D01*
X0175049Y0186428D01*
X0173248Y0187174D01*
X0171299Y0187174D01*
X0169498Y0186428D01*
X0168120Y0185049D01*
X0167374Y0183248D01*
X0167374Y0181299D01*
X0168120Y0179498D01*
X0169498Y0178120D01*
X0171299Y0177374D01*
X0173248Y0177374D01*
X0174724Y0177985D01*
X0175974Y0176735D01*
X0175974Y0175503D01*
X0175049Y0176428D01*
X0173248Y0177174D01*
X0171299Y0177174D01*
X0169498Y0176428D01*
X0168120Y0175049D01*
X0167508Y0173574D01*
X0146735Y0173574D01*
X0141735Y0168574D01*
X0140974Y0167812D01*
X0140974Y0117039D01*
X0139498Y0116428D01*
X0138120Y0115049D01*
X0137374Y0113248D01*
X0137374Y0111299D01*
X0138120Y0109498D01*
X0139498Y0108120D01*
X0141299Y0107374D01*
X0143248Y0107374D01*
X0145049Y0108120D01*
X0146428Y0109498D01*
X0147174Y0111299D01*
X0147174Y0113248D01*
X0146428Y0115049D01*
X0145049Y0116428D01*
X0143574Y0117039D01*
X0143574Y0166735D01*
X0147812Y0170974D01*
X0167508Y0170974D01*
X0168120Y0169498D01*
X0169498Y0168120D01*
X0171299Y0167374D01*
X0173248Y0167374D01*
X0175049Y0168120D01*
X0175974Y0169044D01*
X0175974Y0165503D01*
X0175049Y0166428D01*
X0173248Y0167174D01*
X0171299Y0167174D01*
X0169498Y0166428D01*
X0168120Y0165049D01*
X0167374Y0163248D01*
X0167374Y0161299D01*
X0168120Y0159498D01*
X0169498Y0158120D01*
X0171299Y0157374D01*
X0173248Y0157374D01*
X0175049Y0158120D01*
X0175974Y0159044D01*
X0175974Y0155503D01*
X0175049Y0156428D01*
X0173248Y0157174D01*
X0171299Y0157174D01*
X0169498Y0156428D01*
X0168120Y0155049D01*
X0167508Y0153574D01*
X0151735Y0153574D01*
X0146735Y0148574D01*
X0145974Y0147812D01*
X0145974Y0122137D01*
X0145755Y0122047D01*
X0145001Y0121292D01*
X0144593Y0120307D01*
X0144593Y0119240D01*
X0145001Y0118255D01*
X0145755Y0117501D01*
X0146740Y0117093D01*
X0147807Y0117093D01*
X0148792Y0117501D01*
X0149547Y0118255D01*
X0149955Y0119240D01*
X0149955Y0120307D01*
X0149547Y0121292D01*
X0148792Y0122047D01*
X0148574Y0122137D01*
X0148574Y0129044D01*
X0149498Y0128120D01*
X0151299Y0127374D01*
X0153248Y0127374D01*
X0155049Y0128120D01*
X0156428Y0129498D01*
X0157174Y0131299D01*
X0157174Y0133248D01*
X0156428Y0135049D01*
X0155049Y0136428D01*
X0153248Y0137174D01*
X0151299Y0137174D01*
X0149498Y0136428D01*
X0148574Y0135503D01*
X0148574Y0146735D01*
X0152812Y0150974D01*
X0167508Y0150974D01*
X0168120Y0149498D01*
X0169498Y0148120D01*
X0171299Y0147374D01*
X0173248Y0147374D01*
X0175049Y0148120D01*
X0175974Y0149044D01*
X0175974Y0135503D01*
X0175049Y0136428D01*
X0173248Y0137174D01*
X0171299Y0137174D01*
X0169498Y0136428D01*
X0168120Y0135049D01*
X0167374Y0133248D01*
X0167374Y0131299D01*
X0168120Y0129498D01*
X0169498Y0128120D01*
X0171299Y0127374D01*
X0173248Y0127374D01*
X0175049Y0128120D01*
X0175974Y0129044D01*
X0175974Y0127812D01*
X0171735Y0123574D01*
X0170974Y0122812D01*
X0170974Y0117039D01*
X0169498Y0116428D01*
X0168120Y0115049D01*
X0167374Y0113248D01*
X0167374Y0111299D01*
X0168120Y0109498D01*
X0169044Y0108574D01*
X0167812Y0108574D01*
X0166562Y0109823D01*
X0167174Y0111299D01*
X0167174Y0113248D01*
X0166428Y0115049D01*
X0165049Y0116428D01*
X0163248Y0117174D01*
X0161299Y0117174D01*
X0159498Y0116428D01*
X0158120Y0115049D01*
X0157374Y0113248D01*
X0157374Y0111299D01*
X0158120Y0109498D01*
X0159498Y0108120D01*
X0161299Y0107374D01*
X0163248Y0107374D01*
X0164724Y0107985D01*
X0165974Y0106735D01*
X0166635Y0106074D01*
X0157812Y0106074D01*
X0155408Y0108478D01*
X0156428Y0109498D01*
X0157174Y0111299D01*
X0157174Y0113248D01*
X0156428Y0115049D01*
X0155049Y0116428D01*
X0153248Y0117174D01*
X0151299Y0117174D01*
X0149498Y0116428D01*
X0148120Y0115049D01*
X0147374Y0113248D01*
X0147374Y0111299D01*
X0148120Y0109498D01*
X0149498Y0108120D01*
X0151299Y0107374D01*
X0152835Y0107374D01*
X0155974Y0104235D01*
X0156735Y0103474D01*
X0195312Y0103474D01*
X0197812Y0105974D01*
X0198574Y0106735D01*
X0198574Y0131182D01*
X0198751Y0130755D01*
X0199505Y0130001D01*
X0199724Y0129910D01*
X0199724Y0106562D01*
X0195526Y0102364D01*
X0195307Y0102455D01*
X0194240Y0102455D01*
X0193255Y0102047D01*
X0192501Y0101292D01*
X0192093Y0100307D01*
X0192093Y0099240D01*
X0192501Y0098255D01*
X0193255Y0097501D01*
X0192720Y0098035D02*
X0159053Y0098035D01*
X0157978Y0098634D02*
X0192344Y0098634D01*
X0192096Y0099232D02*
X0061212Y0099232D01*
X0060614Y0098634D02*
X0156569Y0098634D01*
X0155494Y0098035D02*
X0060015Y0098035D01*
X0059417Y0097437D02*
X0154957Y0097437D01*
X0155061Y0094444D02*
X0131141Y0094444D01*
X0130543Y0093846D02*
X0155660Y0093846D01*
X0158888Y0093846D02*
X0196866Y0093846D01*
X0197464Y0094444D02*
X0159486Y0094444D01*
X0156188Y0104021D02*
X0096000Y0104021D01*
X0096599Y0104619D02*
X0155590Y0104619D01*
X0154991Y0105218D02*
X0097197Y0105218D01*
X0097796Y0105816D02*
X0154393Y0105816D01*
X0153794Y0106415D02*
X0098394Y0106415D01*
X0098993Y0107013D02*
X0153196Y0107013D01*
X0150724Y0107612D02*
X0143823Y0107612D01*
X0145140Y0108210D02*
X0149407Y0108210D01*
X0148809Y0108809D02*
X0145738Y0108809D01*
X0146337Y0109407D02*
X0148210Y0109407D01*
X0147909Y0110006D02*
X0146638Y0110006D01*
X0146886Y0110604D02*
X0147661Y0110604D01*
X0147413Y0111203D02*
X0147134Y0111203D01*
X0147174Y0111801D02*
X0147374Y0111801D01*
X0147374Y0112400D02*
X0147174Y0112400D01*
X0147174Y0112998D02*
X0147374Y0112998D01*
X0147518Y0113597D02*
X0147029Y0113597D01*
X0146781Y0114195D02*
X0147766Y0114195D01*
X0148014Y0114794D02*
X0146533Y0114794D01*
X0146085Y0115392D02*
X0148463Y0115392D01*
X0149061Y0115991D02*
X0145486Y0115991D01*
X0144659Y0116589D02*
X0149888Y0116589D01*
X0149078Y0117786D02*
X0170974Y0117786D01*
X0170974Y0117188D02*
X0148037Y0117188D01*
X0146510Y0117188D02*
X0143574Y0117188D01*
X0143574Y0117786D02*
X0145469Y0117786D01*
X0144947Y0118385D02*
X0143574Y0118385D01*
X0143574Y0118983D02*
X0144699Y0118983D01*
X0144593Y0119582D02*
X0143574Y0119582D01*
X0143574Y0120180D02*
X0144593Y0120180D01*
X0144788Y0120779D02*
X0143574Y0120779D01*
X0143574Y0121377D02*
X0145086Y0121377D01*
X0145684Y0121976D02*
X0143574Y0121976D01*
X0143574Y0122574D02*
X0145974Y0122574D01*
X0145974Y0123173D02*
X0143574Y0123173D01*
X0143574Y0123771D02*
X0145974Y0123771D01*
X0145974Y0124370D02*
X0143574Y0124370D01*
X0143574Y0124968D02*
X0145974Y0124968D01*
X0145974Y0125567D02*
X0143574Y0125567D01*
X0143574Y0126165D02*
X0145974Y0126165D01*
X0145974Y0126764D02*
X0143574Y0126764D01*
X0143574Y0127362D02*
X0145974Y0127362D01*
X0145974Y0127961D02*
X0143574Y0127961D01*
X0143574Y0128560D02*
X0145974Y0128560D01*
X0145974Y0129158D02*
X0143574Y0129158D01*
X0143574Y0129757D02*
X0145974Y0129757D01*
X0145974Y0130355D02*
X0143574Y0130355D01*
X0143574Y0130954D02*
X0145974Y0130954D01*
X0145974Y0131552D02*
X0143574Y0131552D01*
X0143574Y0132151D02*
X0145974Y0132151D01*
X0145974Y0132749D02*
X0143574Y0132749D01*
X0143574Y0133348D02*
X0145974Y0133348D01*
X0145974Y0133946D02*
X0143574Y0133946D01*
X0143574Y0134545D02*
X0145974Y0134545D01*
X0145974Y0135143D02*
X0143574Y0135143D01*
X0143574Y0135742D02*
X0145974Y0135742D01*
X0145974Y0136340D02*
X0143574Y0136340D01*
X0143574Y0136939D02*
X0145974Y0136939D01*
X0145974Y0137537D02*
X0143574Y0137537D01*
X0143574Y0138136D02*
X0145974Y0138136D01*
X0145974Y0138734D02*
X0143574Y0138734D01*
X0143574Y0139333D02*
X0145974Y0139333D01*
X0145974Y0139931D02*
X0143574Y0139931D01*
X0143574Y0140530D02*
X0145974Y0140530D01*
X0145974Y0141128D02*
X0143574Y0141128D01*
X0143574Y0141727D02*
X0145974Y0141727D01*
X0145974Y0142325D02*
X0143574Y0142325D01*
X0143574Y0142924D02*
X0145974Y0142924D01*
X0145974Y0143522D02*
X0143574Y0143522D01*
X0143574Y0144121D02*
X0145974Y0144121D01*
X0145974Y0144719D02*
X0143574Y0144719D01*
X0143574Y0145318D02*
X0145974Y0145318D01*
X0145974Y0145916D02*
X0143574Y0145916D01*
X0143574Y0146515D02*
X0145974Y0146515D01*
X0145974Y0147113D02*
X0143574Y0147113D01*
X0143574Y0147712D02*
X0145974Y0147712D01*
X0146472Y0148310D02*
X0143574Y0148310D01*
X0143574Y0148909D02*
X0147070Y0148909D01*
X0147669Y0149507D02*
X0143574Y0149507D01*
X0143574Y0150106D02*
X0148267Y0150106D01*
X0148866Y0150704D02*
X0143574Y0150704D01*
X0143574Y0151303D02*
X0149464Y0151303D01*
X0150063Y0151901D02*
X0143574Y0151901D01*
X0143574Y0152500D02*
X0150661Y0152500D01*
X0151260Y0153098D02*
X0143574Y0153098D01*
X0143574Y0153697D02*
X0167559Y0153697D01*
X0167807Y0154295D02*
X0143574Y0154295D01*
X0143574Y0154894D02*
X0168055Y0154894D01*
X0168563Y0155493D02*
X0143574Y0155493D01*
X0143574Y0156091D02*
X0169161Y0156091D01*
X0170130Y0156690D02*
X0143574Y0156690D01*
X0143574Y0157288D02*
X0175974Y0157288D01*
X0175974Y0156690D02*
X0174417Y0156690D01*
X0175386Y0156091D02*
X0175974Y0156091D01*
X0175974Y0157887D02*
X0174487Y0157887D01*
X0175415Y0158485D02*
X0175974Y0158485D01*
X0175974Y0165667D02*
X0175810Y0165667D01*
X0175974Y0166266D02*
X0175211Y0166266D01*
X0175974Y0166864D02*
X0173995Y0166864D01*
X0173463Y0167463D02*
X0175974Y0167463D01*
X0175974Y0168061D02*
X0174908Y0168061D01*
X0175589Y0168660D02*
X0175974Y0168660D01*
X0171084Y0167463D02*
X0144301Y0167463D01*
X0144900Y0168061D02*
X0169639Y0168061D01*
X0168958Y0168660D02*
X0145498Y0168660D01*
X0146097Y0169258D02*
X0168359Y0169258D01*
X0167971Y0169857D02*
X0146695Y0169857D01*
X0147294Y0170455D02*
X0167723Y0170455D01*
X0167704Y0174046D02*
X0134088Y0174046D01*
X0133792Y0173751D02*
X0134547Y0174505D01*
X0134955Y0175490D01*
X0134955Y0176557D01*
X0134547Y0177542D01*
X0133792Y0178297D01*
X0133574Y0178387D01*
X0133574Y0180312D01*
X0129824Y0184062D01*
X0129062Y0184824D01*
X0092985Y0184824D01*
X0089235Y0181074D01*
X0088474Y0180312D01*
X0088474Y0177812D01*
X0080974Y0170312D01*
X0080974Y0134062D01*
X0070485Y0123574D01*
X0061735Y0123574D01*
X0054724Y0116562D01*
X0053248Y0117174D01*
X0051299Y0117174D01*
X0049498Y0116428D01*
X0048120Y0115049D01*
X0047374Y0113248D01*
X0047374Y0111299D01*
X0048120Y0109498D01*
X0049498Y0108120D01*
X0051299Y0107374D01*
X0053248Y0107374D01*
X0055049Y0108120D01*
X0056428Y0109498D01*
X0057174Y0111299D01*
X0057174Y0113248D01*
X0056562Y0114724D01*
X0062812Y0120974D01*
X0064135Y0120974D01*
X0061735Y0118574D01*
X0060974Y0117812D01*
X0060974Y0117039D01*
X0059498Y0116428D01*
X0058120Y0115049D01*
X0057374Y0113248D01*
X0057374Y0111299D01*
X0058120Y0109498D01*
X0059498Y0108120D01*
X0061299Y0107374D01*
X0063248Y0107374D01*
X0065049Y0108120D01*
X0066428Y0109498D01*
X0067174Y0111299D01*
X0067174Y0113248D01*
X0066428Y0115049D01*
X0065049Y0116428D01*
X0063788Y0116950D01*
X0065312Y0118474D01*
X0072812Y0118474D01*
X0073574Y0119235D01*
X0085974Y0131635D01*
X0085974Y0117812D01*
X0081735Y0113574D01*
X0077039Y0113574D01*
X0076428Y0115049D01*
X0075049Y0116428D01*
X0073248Y0117174D01*
X0071299Y0117174D01*
X0069498Y0116428D01*
X0068120Y0115049D01*
X0067374Y0113248D01*
X0067374Y0111299D01*
X0068120Y0109498D01*
X0069498Y0108120D01*
X0071299Y0107374D01*
X0073248Y0107374D01*
X0075049Y0108120D01*
X0076428Y0109498D01*
X0077039Y0110974D01*
X0082812Y0110974D01*
X0083574Y0111735D01*
X0088574Y0116735D01*
X0088574Y0164235D01*
X0092812Y0168474D01*
X0104910Y0168474D01*
X0105001Y0168255D01*
X0105755Y0167501D01*
X0106740Y0167093D01*
X0107807Y0167093D01*
X0108792Y0167501D01*
X0109547Y0168255D01*
X0109955Y0169240D01*
X0109955Y0170307D01*
X0109547Y0171292D01*
X0108792Y0172047D01*
X0108244Y0172274D01*
X0108792Y0172501D01*
X0109547Y0173255D01*
X0109955Y0174240D01*
X0109955Y0175307D01*
X0109547Y0176292D01*
X0108792Y0177047D01*
X0107807Y0177455D01*
X0106740Y0177455D01*
X0105755Y0177047D01*
X0105001Y0176292D01*
X0104910Y0176074D01*
X0091735Y0176074D01*
X0090974Y0175312D01*
X0083574Y0167912D01*
X0083574Y0169235D01*
X0091074Y0176735D01*
X0091074Y0179235D01*
X0094062Y0182224D01*
X0127985Y0182224D01*
X0128019Y0182189D01*
X0123092Y0182189D01*
X0122849Y0181947D01*
X0122607Y0182189D01*
X0119302Y0182189D01*
X0118775Y0181662D01*
X0118775Y0177964D01*
X0119302Y0177437D01*
X0122607Y0177437D01*
X0122653Y0177482D01*
X0123092Y0177043D01*
X0128562Y0177043D01*
X0129089Y0177570D01*
X0129089Y0181120D01*
X0130974Y0179235D01*
X0130974Y0178387D01*
X0130755Y0178297D01*
X0130001Y0177542D01*
X0129593Y0176557D01*
X0129593Y0175490D01*
X0130001Y0174505D01*
X0130755Y0173751D01*
X0131740Y0173343D01*
X0132807Y0173343D01*
X0133792Y0173751D01*
X0133061Y0173448D02*
X0146609Y0173448D01*
X0146011Y0172849D02*
X0109141Y0172849D01*
X0109626Y0173448D02*
X0131486Y0173448D01*
X0130459Y0174046D02*
X0109874Y0174046D01*
X0109955Y0174645D02*
X0129943Y0174645D01*
X0129695Y0175243D02*
X0109955Y0175243D01*
X0109733Y0175842D02*
X0129593Y0175842D01*
X0129593Y0176440D02*
X0109398Y0176440D01*
X0108800Y0177039D02*
X0129792Y0177039D01*
X0130096Y0177637D02*
X0129089Y0177637D01*
X0129089Y0178236D02*
X0130694Y0178236D01*
X0130974Y0178834D02*
X0129089Y0178834D01*
X0129089Y0179433D02*
X0130776Y0179433D01*
X0130177Y0180031D02*
X0129089Y0180031D01*
X0129089Y0180630D02*
X0129579Y0180630D01*
X0131460Y0182426D02*
X0167374Y0182426D01*
X0167374Y0183024D02*
X0130862Y0183024D01*
X0130263Y0183623D02*
X0167529Y0183623D01*
X0167777Y0184221D02*
X0129665Y0184221D01*
X0129066Y0184820D02*
X0168024Y0184820D01*
X0168488Y0185418D02*
X0046059Y0185418D01*
X0046428Y0185049D02*
X0045049Y0186428D01*
X0043248Y0187174D01*
X0041299Y0187174D01*
X0039498Y0186428D01*
X0038120Y0185049D01*
X0037374Y0183248D01*
X0037374Y0181299D01*
X0038120Y0179498D01*
X0039498Y0178120D01*
X0041299Y0177374D01*
X0043248Y0177374D01*
X0045049Y0178120D01*
X0046428Y0179498D01*
X0047174Y0181299D01*
X0047174Y0183248D01*
X0046428Y0185049D01*
X0046523Y0184820D02*
X0092981Y0184820D01*
X0092383Y0184221D02*
X0046771Y0184221D01*
X0047019Y0183623D02*
X0091784Y0183623D01*
X0091186Y0183024D02*
X0047174Y0183024D01*
X0047174Y0182426D02*
X0090587Y0182426D01*
X0089989Y0181827D02*
X0086897Y0181827D01*
X0087061Y0181662D02*
X0086534Y0182189D01*
X0080671Y0182189D01*
X0080143Y0181662D01*
X0080143Y0177570D01*
X0080671Y0177043D01*
X0086534Y0177043D01*
X0087061Y0177570D01*
X0087061Y0181662D01*
X0087061Y0181229D02*
X0089390Y0181229D01*
X0088792Y0180630D02*
X0087061Y0180630D01*
X0087061Y0180031D02*
X0088474Y0180031D01*
X0088474Y0179433D02*
X0087061Y0179433D01*
X0087061Y0178834D02*
X0088474Y0178834D01*
X0088474Y0178236D02*
X0087061Y0178236D01*
X0087061Y0177637D02*
X0088299Y0177637D01*
X0087700Y0177039D02*
X0043573Y0177039D01*
X0043248Y0177174D02*
X0041299Y0177174D01*
X0039498Y0176428D01*
X0038120Y0175049D01*
X0037374Y0173248D01*
X0037374Y0171299D01*
X0038120Y0169498D01*
X0039498Y0168120D01*
X0041299Y0167374D01*
X0043248Y0167374D01*
X0045049Y0168120D01*
X0046428Y0169498D01*
X0047174Y0171299D01*
X0047174Y0173248D01*
X0046428Y0175049D01*
X0045049Y0176428D01*
X0043248Y0177174D01*
X0043885Y0177637D02*
X0080143Y0177637D01*
X0080143Y0178236D02*
X0045166Y0178236D01*
X0045764Y0178834D02*
X0080143Y0178834D01*
X0080143Y0179433D02*
X0046363Y0179433D01*
X0046649Y0180031D02*
X0080143Y0180031D01*
X0080143Y0180630D02*
X0046897Y0180630D01*
X0047144Y0181229D02*
X0080143Y0181229D01*
X0080308Y0181827D02*
X0047174Y0181827D01*
X0045460Y0186017D02*
X0169087Y0186017D01*
X0169951Y0186615D02*
X0044597Y0186615D01*
X0044307Y0187812D02*
X0170240Y0187812D01*
X0169207Y0188411D02*
X0045340Y0188411D01*
X0045049Y0188120D02*
X0046428Y0189498D01*
X0047174Y0191299D01*
X0047174Y0193248D01*
X0046428Y0195049D01*
X0045049Y0196428D01*
X0043248Y0197174D01*
X0041299Y0197174D01*
X0039498Y0196428D01*
X0038120Y0195049D01*
X0037374Y0193248D01*
X0037374Y0191299D01*
X0038120Y0189498D01*
X0039498Y0188120D01*
X0041299Y0187374D01*
X0043248Y0187374D01*
X0045049Y0188120D01*
X0045939Y0189009D02*
X0168608Y0189009D01*
X0168074Y0189608D02*
X0046473Y0189608D01*
X0046721Y0190206D02*
X0167826Y0190206D01*
X0167578Y0190805D02*
X0046969Y0190805D01*
X0047174Y0191403D02*
X0167374Y0191403D01*
X0167224Y0192002D02*
X0047174Y0192002D01*
X0047174Y0192600D02*
X0167224Y0192600D01*
X0167374Y0193199D02*
X0047174Y0193199D01*
X0046946Y0193797D02*
X0167601Y0193797D01*
X0167849Y0194396D02*
X0046698Y0194396D01*
X0046450Y0194994D02*
X0168097Y0194994D01*
X0168663Y0195593D02*
X0045884Y0195593D01*
X0045286Y0196191D02*
X0169262Y0196191D01*
X0170372Y0196790D02*
X0044175Y0196790D01*
X0043284Y0197388D02*
X0171263Y0197388D01*
X0169819Y0197987D02*
X0044729Y0197987D01*
X0045515Y0198585D02*
X0169032Y0198585D01*
X0168434Y0199184D02*
X0046113Y0199184D01*
X0046545Y0199782D02*
X0168002Y0199782D01*
X0167754Y0200381D02*
X0046793Y0200381D01*
X0047041Y0200979D02*
X0167506Y0200979D01*
X0167374Y0201578D02*
X0047174Y0201578D01*
X0047174Y0202176D02*
X0167374Y0202176D01*
X0167374Y0202775D02*
X0047174Y0202775D01*
X0047122Y0203373D02*
X0167425Y0203373D01*
X0167673Y0203972D02*
X0046874Y0203972D01*
X0046626Y0204570D02*
X0167921Y0204570D01*
X0168239Y0205169D02*
X0046308Y0205169D01*
X0045709Y0205767D02*
X0168838Y0205767D01*
X0169436Y0206366D02*
X0045111Y0206366D01*
X0043753Y0206964D02*
X0170794Y0206964D01*
X0173753Y0206964D02*
X0177626Y0206964D01*
X0177028Y0206366D02*
X0175111Y0206366D01*
X0175709Y0205767D02*
X0176429Y0205767D01*
X0178225Y0207563D02*
X0043674Y0207563D01*
X0043674Y0208162D02*
X0178823Y0208162D01*
X0176413Y0211154D02*
X0043674Y0211154D01*
X0043674Y0210556D02*
X0197012Y0210556D01*
X0197610Y0209957D02*
X0043674Y0209957D01*
X0043674Y0209359D02*
X0198209Y0209359D01*
X0198807Y0208760D02*
X0043674Y0208760D01*
X0040874Y0208760D02*
X0003574Y0208760D01*
X0003574Y0208162D02*
X0040874Y0208162D01*
X0040874Y0207563D02*
X0032758Y0207563D01*
X0032574Y0207563D02*
X0031974Y0207563D01*
X0031790Y0207563D02*
X0003574Y0207563D01*
X0003574Y0206964D02*
X0029806Y0206964D01*
X0028889Y0206366D02*
X0003574Y0206366D01*
X0003574Y0205767D02*
X0028272Y0205767D01*
X0027826Y0205169D02*
X0003574Y0205169D01*
X0003574Y0204570D02*
X0027496Y0204570D01*
X0027253Y0203972D02*
X0003574Y0203972D01*
X0003574Y0203373D02*
X0027082Y0203373D01*
X0026987Y0202775D02*
X0003574Y0202775D01*
X0003574Y0202176D02*
X0031974Y0202176D01*
X0031974Y0202775D02*
X0032574Y0202775D01*
X0032574Y0203373D02*
X0031974Y0203373D01*
X0031974Y0203972D02*
X0032574Y0203972D01*
X0032574Y0204570D02*
X0031974Y0204570D01*
X0031974Y0205169D02*
X0032574Y0205169D01*
X0032574Y0205767D02*
X0031974Y0205767D01*
X0031974Y0206366D02*
X0032574Y0206366D01*
X0032574Y0206964D02*
X0031974Y0206964D01*
X0034742Y0206964D02*
X0040794Y0206964D01*
X0039436Y0206366D02*
X0035658Y0206366D01*
X0036275Y0205767D02*
X0038838Y0205767D01*
X0038239Y0205169D02*
X0036721Y0205169D01*
X0037052Y0204570D02*
X0037921Y0204570D01*
X0037673Y0203972D02*
X0037295Y0203972D01*
X0037426Y0200979D02*
X0037506Y0200979D01*
X0037754Y0200381D02*
X0037231Y0200381D01*
X0036953Y0199782D02*
X0038002Y0199782D01*
X0038434Y0199184D02*
X0036580Y0199184D01*
X0036081Y0198585D02*
X0039032Y0198585D01*
X0039819Y0197987D02*
X0035390Y0197987D01*
X0034360Y0197388D02*
X0041263Y0197388D01*
X0040372Y0196790D02*
X0034175Y0196790D01*
X0035286Y0196191D02*
X0039262Y0196191D01*
X0038663Y0195593D02*
X0035884Y0195593D01*
X0036450Y0194994D02*
X0038097Y0194994D01*
X0037849Y0194396D02*
X0036698Y0194396D01*
X0036946Y0193797D02*
X0037601Y0193797D01*
X0037374Y0193199D02*
X0037174Y0193199D01*
X0037174Y0192600D02*
X0037374Y0192600D01*
X0037374Y0192002D02*
X0037174Y0192002D01*
X0037174Y0191403D02*
X0037374Y0191403D01*
X0037578Y0190805D02*
X0036969Y0190805D01*
X0036721Y0190206D02*
X0037826Y0190206D01*
X0038074Y0189608D02*
X0036473Y0189608D01*
X0035939Y0189009D02*
X0038608Y0189009D01*
X0039207Y0188411D02*
X0035340Y0188411D01*
X0034307Y0187812D02*
X0040240Y0187812D01*
X0039951Y0186615D02*
X0034597Y0186615D01*
X0035049Y0186428D02*
X0033248Y0187174D01*
X0031299Y0187174D01*
X0029498Y0186428D01*
X0028120Y0185049D01*
X0027374Y0183248D01*
X0027374Y0181299D01*
X0028120Y0179498D01*
X0029498Y0178120D01*
X0031299Y0177374D01*
X0033248Y0177374D01*
X0035049Y0178120D01*
X0036428Y0179498D01*
X0037174Y0181299D01*
X0037174Y0183248D01*
X0036428Y0185049D01*
X0035049Y0186428D01*
X0035460Y0186017D02*
X0039087Y0186017D01*
X0038488Y0185418D02*
X0036059Y0185418D01*
X0036523Y0184820D02*
X0038024Y0184820D01*
X0037777Y0184221D02*
X0036771Y0184221D01*
X0037019Y0183623D02*
X0037529Y0183623D01*
X0037374Y0183024D02*
X0037174Y0183024D01*
X0037174Y0182426D02*
X0037374Y0182426D01*
X0037374Y0181827D02*
X0037174Y0181827D01*
X0037144Y0181229D02*
X0037403Y0181229D01*
X0037651Y0180630D02*
X0036897Y0180630D01*
X0036649Y0180031D02*
X0037899Y0180031D01*
X0038185Y0179433D02*
X0036363Y0179433D01*
X0035764Y0178834D02*
X0038783Y0178834D01*
X0039382Y0178236D02*
X0035166Y0178236D01*
X0033885Y0177637D02*
X0040662Y0177637D01*
X0040974Y0177039D02*
X0033573Y0177039D01*
X0033248Y0177174D02*
X0031299Y0177174D01*
X0029498Y0176428D01*
X0028120Y0175049D01*
X0027374Y0173248D01*
X0027374Y0171299D01*
X0028120Y0169498D01*
X0029498Y0168120D01*
X0031299Y0167374D01*
X0033248Y0167374D01*
X0035049Y0168120D01*
X0036428Y0169498D01*
X0037174Y0171299D01*
X0037174Y0173248D01*
X0036428Y0175049D01*
X0035049Y0176428D01*
X0033248Y0177174D01*
X0035018Y0176440D02*
X0039529Y0176440D01*
X0038912Y0175842D02*
X0035635Y0175842D01*
X0036233Y0175243D02*
X0038314Y0175243D01*
X0037952Y0174645D02*
X0036595Y0174645D01*
X0036843Y0174046D02*
X0037704Y0174046D01*
X0037456Y0173448D02*
X0037091Y0173448D01*
X0037174Y0172849D02*
X0037374Y0172849D01*
X0037374Y0172251D02*
X0037174Y0172251D01*
X0037174Y0171652D02*
X0037374Y0171652D01*
X0037475Y0171054D02*
X0037072Y0171054D01*
X0036824Y0170455D02*
X0037723Y0170455D01*
X0037971Y0169857D02*
X0036576Y0169857D01*
X0036188Y0169258D02*
X0038359Y0169258D01*
X0038958Y0168660D02*
X0035589Y0168660D01*
X0034908Y0168061D02*
X0039639Y0168061D01*
X0040552Y0166864D02*
X0033995Y0166864D01*
X0033463Y0167463D02*
X0041084Y0167463D01*
X0041299Y0167174D02*
X0039498Y0166428D01*
X0038120Y0165049D01*
X0037374Y0163248D01*
X0037374Y0161299D01*
X0038120Y0159498D01*
X0039498Y0158120D01*
X0041299Y0157374D01*
X0043248Y0157374D01*
X0045049Y0158120D01*
X0046428Y0159498D01*
X0047174Y0161299D01*
X0047174Y0163248D01*
X0046428Y0165049D01*
X0045049Y0166428D01*
X0043248Y0167174D01*
X0041299Y0167174D01*
X0039336Y0166266D02*
X0035211Y0166266D01*
X0035049Y0166428D02*
X0036428Y0165049D01*
X0037174Y0163248D01*
X0037174Y0161299D01*
X0036428Y0159498D01*
X0035049Y0158120D01*
X0033248Y0157374D01*
X0031299Y0157374D01*
X0029498Y0158120D01*
X0028120Y0159498D01*
X0027374Y0161299D01*
X0027374Y0163248D01*
X0028120Y0165049D01*
X0029498Y0166428D01*
X0031299Y0167174D01*
X0033248Y0167174D01*
X0035049Y0166428D01*
X0035810Y0165667D02*
X0038738Y0165667D01*
X0038139Y0165069D02*
X0036408Y0165069D01*
X0036667Y0164470D02*
X0037880Y0164470D01*
X0037632Y0163872D02*
X0036915Y0163872D01*
X0037163Y0163273D02*
X0037384Y0163273D01*
X0037374Y0162675D02*
X0037174Y0162675D01*
X0037174Y0162076D02*
X0037374Y0162076D01*
X0037374Y0161478D02*
X0037174Y0161478D01*
X0037000Y0160879D02*
X0037548Y0160879D01*
X0037795Y0160281D02*
X0036752Y0160281D01*
X0036504Y0159682D02*
X0038043Y0159682D01*
X0038534Y0159084D02*
X0036013Y0159084D01*
X0035415Y0158485D02*
X0039133Y0158485D01*
X0040061Y0157887D02*
X0034487Y0157887D01*
X0034417Y0156690D02*
X0039760Y0156690D01*
X0039161Y0156091D02*
X0035386Y0156091D01*
X0035984Y0155493D02*
X0038563Y0155493D01*
X0037964Y0154894D02*
X0036492Y0154894D01*
X0036740Y0154295D02*
X0037374Y0154295D01*
X0037374Y0153697D02*
X0036988Y0153697D01*
X0037174Y0153098D02*
X0037374Y0153098D01*
X0037374Y0152500D02*
X0037174Y0152500D01*
X0037174Y0151901D02*
X0037374Y0151901D01*
X0037374Y0151303D02*
X0037174Y0151303D01*
X0037374Y0150704D02*
X0036927Y0150704D01*
X0036679Y0150106D02*
X0037512Y0150106D01*
X0037669Y0149507D02*
X0036432Y0149507D01*
X0035839Y0148909D02*
X0037070Y0148909D01*
X0038952Y0147113D02*
X0080974Y0147113D01*
X0080974Y0146515D02*
X0038353Y0146515D01*
X0039550Y0147712D02*
X0039906Y0147712D01*
X0044642Y0147712D02*
X0080974Y0147712D01*
X0080974Y0148310D02*
X0045240Y0148310D01*
X0045839Y0148909D02*
X0080974Y0148909D01*
X0080974Y0149507D02*
X0046437Y0149507D01*
X0047036Y0150106D02*
X0080974Y0150106D01*
X0080974Y0150704D02*
X0047174Y0150704D01*
X0047174Y0151303D02*
X0080974Y0151303D01*
X0080974Y0151901D02*
X0047174Y0151901D01*
X0047174Y0152500D02*
X0080974Y0152500D01*
X0080974Y0153098D02*
X0047174Y0153098D01*
X0047174Y0153697D02*
X0080974Y0153697D01*
X0080974Y0154295D02*
X0047174Y0154295D01*
X0046583Y0154894D02*
X0080974Y0154894D01*
X0080974Y0155493D02*
X0045984Y0155493D01*
X0045386Y0156091D02*
X0080974Y0156091D01*
X0080974Y0156690D02*
X0044787Y0156690D01*
X0044487Y0157887D02*
X0080974Y0157887D01*
X0080974Y0158485D02*
X0045415Y0158485D01*
X0046013Y0159084D02*
X0080974Y0159084D01*
X0080974Y0159682D02*
X0046504Y0159682D01*
X0046752Y0160281D02*
X0080974Y0160281D01*
X0080974Y0160879D02*
X0047000Y0160879D01*
X0047174Y0161478D02*
X0080974Y0161478D01*
X0080974Y0162076D02*
X0047174Y0162076D01*
X0047174Y0162675D02*
X0080974Y0162675D01*
X0080974Y0163273D02*
X0047163Y0163273D01*
X0046915Y0163872D02*
X0080974Y0163872D01*
X0080974Y0164470D02*
X0046667Y0164470D01*
X0046408Y0165069D02*
X0080974Y0165069D01*
X0080974Y0165667D02*
X0045810Y0165667D01*
X0045211Y0166266D02*
X0080974Y0166266D01*
X0080974Y0166864D02*
X0043995Y0166864D01*
X0043463Y0167463D02*
X0080974Y0167463D01*
X0080974Y0168061D02*
X0044908Y0168061D01*
X0045589Y0168660D02*
X0080974Y0168660D01*
X0080974Y0169258D02*
X0046188Y0169258D01*
X0046576Y0169857D02*
X0080974Y0169857D01*
X0081117Y0170455D02*
X0046824Y0170455D01*
X0047072Y0171054D02*
X0081715Y0171054D01*
X0082314Y0171652D02*
X0047174Y0171652D01*
X0047174Y0172251D02*
X0082912Y0172251D01*
X0083511Y0172849D02*
X0047174Y0172849D01*
X0047091Y0173448D02*
X0084109Y0173448D01*
X0084708Y0174046D02*
X0046843Y0174046D01*
X0046595Y0174645D02*
X0085306Y0174645D01*
X0085905Y0175243D02*
X0046233Y0175243D01*
X0045635Y0175842D02*
X0086503Y0175842D01*
X0087102Y0176440D02*
X0045018Y0176440D01*
X0030974Y0177039D02*
X0008574Y0177039D01*
X0008574Y0177637D02*
X0030662Y0177637D01*
X0029382Y0178236D02*
X0008574Y0178236D01*
X0008574Y0178834D02*
X0028783Y0178834D01*
X0028185Y0179433D02*
X0008574Y0179433D01*
X0008574Y0180031D02*
X0027899Y0180031D01*
X0027651Y0180630D02*
X0008574Y0180630D01*
X0008574Y0181229D02*
X0027403Y0181229D01*
X0027374Y0181827D02*
X0008665Y0181827D01*
X0009264Y0182426D02*
X0027374Y0182426D01*
X0027374Y0183024D02*
X0009863Y0183024D01*
X0010461Y0183623D02*
X0027529Y0183623D01*
X0027777Y0184221D02*
X0011060Y0184221D01*
X0011658Y0184820D02*
X0028024Y0184820D01*
X0028488Y0185418D02*
X0012257Y0185418D01*
X0012855Y0186017D02*
X0029087Y0186017D01*
X0029951Y0186615D02*
X0013454Y0186615D01*
X0014052Y0187214D02*
X0175495Y0187214D01*
X0174897Y0187812D02*
X0174307Y0187812D01*
X0174597Y0186615D02*
X0176094Y0186615D01*
X0176692Y0186017D02*
X0175460Y0186017D01*
X0176059Y0185418D02*
X0178488Y0185418D01*
X0178024Y0184820D02*
X0176523Y0184820D01*
X0176771Y0184221D02*
X0177777Y0184221D01*
X0177529Y0183623D02*
X0177019Y0183623D01*
X0177174Y0183024D02*
X0177374Y0183024D01*
X0177374Y0182426D02*
X0177174Y0182426D01*
X0177174Y0181827D02*
X0177374Y0181827D01*
X0177403Y0181229D02*
X0177144Y0181229D01*
X0176897Y0180630D02*
X0177651Y0180630D01*
X0177899Y0180031D02*
X0176649Y0180031D01*
X0176953Y0179433D02*
X0178185Y0179433D01*
X0178783Y0178834D02*
X0177551Y0178834D01*
X0178150Y0178236D02*
X0179382Y0178236D01*
X0178574Y0177637D02*
X0180662Y0177637D01*
X0180974Y0177039D02*
X0178574Y0177039D01*
X0178574Y0176440D02*
X0179529Y0176440D01*
X0178912Y0175842D02*
X0178574Y0175842D01*
X0175974Y0175842D02*
X0175635Y0175842D01*
X0175974Y0176440D02*
X0175018Y0176440D01*
X0175670Y0177039D02*
X0173573Y0177039D01*
X0173885Y0177637D02*
X0175071Y0177637D01*
X0170974Y0177039D02*
X0134755Y0177039D01*
X0134955Y0176440D02*
X0169529Y0176440D01*
X0168912Y0175842D02*
X0134955Y0175842D01*
X0134852Y0175243D02*
X0168314Y0175243D01*
X0167952Y0174645D02*
X0134605Y0174645D01*
X0134451Y0177637D02*
X0170662Y0177637D01*
X0169382Y0178236D02*
X0133853Y0178236D01*
X0133574Y0178834D02*
X0168783Y0178834D01*
X0168185Y0179433D02*
X0133574Y0179433D01*
X0133574Y0180031D02*
X0167899Y0180031D01*
X0167651Y0180630D02*
X0133256Y0180630D01*
X0132657Y0181229D02*
X0167403Y0181229D01*
X0167374Y0181827D02*
X0132059Y0181827D01*
X0143617Y0170455D02*
X0109893Y0170455D01*
X0109955Y0169857D02*
X0143018Y0169857D01*
X0142420Y0169258D02*
X0109955Y0169258D01*
X0109714Y0168660D02*
X0141821Y0168660D01*
X0141223Y0168061D02*
X0109353Y0168061D01*
X0108701Y0167463D02*
X0140974Y0167463D01*
X0140974Y0166864D02*
X0091203Y0166864D01*
X0091801Y0167463D02*
X0105846Y0167463D01*
X0105194Y0168061D02*
X0092400Y0168061D01*
X0090604Y0166266D02*
X0140974Y0166266D01*
X0140974Y0165667D02*
X0090006Y0165667D01*
X0089407Y0165069D02*
X0140974Y0165069D01*
X0140974Y0164470D02*
X0088809Y0164470D01*
X0088574Y0163872D02*
X0140974Y0163872D01*
X0140974Y0163273D02*
X0088574Y0163273D01*
X0088574Y0162675D02*
X0140974Y0162675D01*
X0140974Y0162076D02*
X0088574Y0162076D01*
X0088574Y0161478D02*
X0140974Y0161478D01*
X0140974Y0160879D02*
X0088574Y0160879D01*
X0088574Y0160281D02*
X0140974Y0160281D01*
X0140974Y0159682D02*
X0088574Y0159682D01*
X0088574Y0159084D02*
X0140974Y0159084D01*
X0140974Y0158485D02*
X0088574Y0158485D01*
X0088574Y0157887D02*
X0140974Y0157887D01*
X0140974Y0157288D02*
X0120709Y0157288D01*
X0121649Y0156690D02*
X0140974Y0156690D01*
X0140974Y0156091D02*
X0122130Y0156091D01*
X0122378Y0155493D02*
X0140974Y0155493D01*
X0140974Y0154894D02*
X0122455Y0154894D01*
X0122455Y0154295D02*
X0140974Y0154295D01*
X0140974Y0153697D02*
X0122230Y0153697D01*
X0121890Y0153098D02*
X0140974Y0153098D01*
X0140974Y0152500D02*
X0121291Y0152500D01*
X0121074Y0151901D02*
X0140974Y0151901D01*
X0140974Y0151303D02*
X0121074Y0151303D01*
X0121074Y0150704D02*
X0140974Y0150704D01*
X0140974Y0150106D02*
X0121074Y0150106D01*
X0121074Y0149507D02*
X0140974Y0149507D01*
X0140974Y0148909D02*
X0121074Y0148909D01*
X0121074Y0148310D02*
X0140974Y0148310D01*
X0140974Y0147712D02*
X0121074Y0147712D01*
X0121074Y0147113D02*
X0140974Y0147113D01*
X0140974Y0146515D02*
X0121074Y0146515D01*
X0121074Y0145916D02*
X0140974Y0145916D01*
X0140974Y0145318D02*
X0121074Y0145318D01*
X0121666Y0144719D02*
X0140974Y0144719D01*
X0140974Y0144121D02*
X0122265Y0144121D01*
X0122863Y0143522D02*
X0140974Y0143522D01*
X0140974Y0142924D02*
X0123462Y0142924D01*
X0124060Y0142325D02*
X0140974Y0142325D01*
X0140974Y0141727D02*
X0124659Y0141727D01*
X0125257Y0141128D02*
X0140974Y0141128D01*
X0140974Y0140530D02*
X0125856Y0140530D01*
X0126454Y0139931D02*
X0140974Y0139931D01*
X0140974Y0139333D02*
X0127053Y0139333D01*
X0127324Y0138734D02*
X0140974Y0138734D01*
X0140974Y0138136D02*
X0127324Y0138136D01*
X0127324Y0137537D02*
X0140974Y0137537D01*
X0140974Y0136939D02*
X0127324Y0136939D01*
X0127324Y0136340D02*
X0140974Y0136340D01*
X0140974Y0135742D02*
X0127324Y0135742D01*
X0127324Y0135143D02*
X0140974Y0135143D01*
X0140974Y0134545D02*
X0127324Y0134545D01*
X0128035Y0133946D02*
X0140974Y0133946D01*
X0140974Y0133348D02*
X0128351Y0133348D01*
X0128351Y0132749D02*
X0140974Y0132749D01*
X0140974Y0132151D02*
X0128351Y0132151D01*
X0128351Y0131552D02*
X0140974Y0131552D01*
X0140974Y0130954D02*
X0128351Y0130954D01*
X0128351Y0130355D02*
X0140974Y0130355D01*
X0140974Y0129757D02*
X0128175Y0129757D01*
X0122831Y0128560D02*
X0140974Y0128560D01*
X0140974Y0129158D02*
X0122562Y0129158D01*
X0122845Y0127961D02*
X0140974Y0127961D01*
X0140974Y0127362D02*
X0122845Y0127362D01*
X0122845Y0126165D02*
X0140974Y0126165D01*
X0140974Y0125567D02*
X0122835Y0125567D01*
X0122575Y0124968D02*
X0140974Y0124968D01*
X0140974Y0124370D02*
X0111725Y0124370D01*
X0111725Y0124968D02*
X0117760Y0124968D01*
X0117500Y0125567D02*
X0111725Y0125567D01*
X0111725Y0126165D02*
X0117489Y0126165D01*
X0117489Y0127362D02*
X0111725Y0127362D01*
X0111725Y0126764D02*
X0119867Y0126764D01*
X0119867Y0126165D02*
X0120467Y0126165D01*
X0120467Y0125567D02*
X0119867Y0125567D01*
X0119867Y0124968D02*
X0120467Y0124968D01*
X0120467Y0126764D02*
X0140974Y0126764D01*
X0140974Y0123771D02*
X0135506Y0123771D01*
X0135506Y0123788D02*
X0134979Y0124315D01*
X0130867Y0124315D01*
X0130340Y0123788D01*
X0130340Y0118515D01*
X0130867Y0117988D01*
X0134979Y0117988D01*
X0135506Y0118515D01*
X0135506Y0123788D01*
X0135506Y0123173D02*
X0140974Y0123173D01*
X0140974Y0122574D02*
X0135506Y0122574D01*
X0135506Y0121976D02*
X0140974Y0121976D01*
X0140974Y0121377D02*
X0135506Y0121377D01*
X0135506Y0120779D02*
X0140974Y0120779D01*
X0140974Y0120180D02*
X0135506Y0120180D01*
X0135506Y0119582D02*
X0140974Y0119582D01*
X0140974Y0118983D02*
X0135506Y0118983D01*
X0135376Y0118385D02*
X0140974Y0118385D01*
X0140974Y0117786D02*
X0109766Y0117786D01*
X0109168Y0117188D02*
X0140974Y0117188D01*
X0139888Y0116589D02*
X0108569Y0116589D01*
X0107971Y0115991D02*
X0139061Y0115991D01*
X0138463Y0115392D02*
X0107372Y0115392D01*
X0106774Y0114794D02*
X0138014Y0114794D01*
X0137766Y0114195D02*
X0106175Y0114195D01*
X0105577Y0113597D02*
X0137518Y0113597D01*
X0137374Y0112998D02*
X0104978Y0112998D01*
X0104380Y0112400D02*
X0137374Y0112400D01*
X0137374Y0111801D02*
X0103781Y0111801D01*
X0103183Y0111203D02*
X0137413Y0111203D01*
X0137661Y0110604D02*
X0102584Y0110604D01*
X0101986Y0110006D02*
X0137909Y0110006D01*
X0138210Y0109407D02*
X0101387Y0109407D01*
X0100789Y0108809D02*
X0138809Y0108809D01*
X0139407Y0108210D02*
X0100190Y0108210D01*
X0099592Y0107612D02*
X0140724Y0107612D01*
X0149600Y0118385D02*
X0170974Y0118385D01*
X0170974Y0118983D02*
X0149848Y0118983D01*
X0149955Y0119582D02*
X0170974Y0119582D01*
X0170974Y0120180D02*
X0149955Y0120180D01*
X0149759Y0120779D02*
X0170974Y0120779D01*
X0170974Y0121377D02*
X0149462Y0121377D01*
X0148863Y0121976D02*
X0170974Y0121976D01*
X0170974Y0122574D02*
X0148574Y0122574D01*
X0148574Y0123173D02*
X0171334Y0123173D01*
X0171933Y0123771D02*
X0148574Y0123771D01*
X0148574Y0124370D02*
X0172531Y0124370D01*
X0173130Y0124968D02*
X0148574Y0124968D01*
X0148574Y0125567D02*
X0173728Y0125567D01*
X0174327Y0126165D02*
X0148574Y0126165D01*
X0148574Y0126764D02*
X0174926Y0126764D01*
X0175524Y0127362D02*
X0148574Y0127362D01*
X0148574Y0127961D02*
X0149881Y0127961D01*
X0149058Y0128560D02*
X0148574Y0128560D01*
X0154666Y0127961D02*
X0159881Y0127961D01*
X0159498Y0128120D02*
X0161299Y0127374D01*
X0163248Y0127374D01*
X0165049Y0128120D01*
X0166428Y0129498D01*
X0167174Y0131299D01*
X0167174Y0133248D01*
X0166428Y0135049D01*
X0165049Y0136428D01*
X0163248Y0137174D01*
X0161299Y0137174D01*
X0159498Y0136428D01*
X0158120Y0135049D01*
X0157374Y0133248D01*
X0157374Y0131299D01*
X0158120Y0129498D01*
X0159498Y0128120D01*
X0159058Y0128560D02*
X0155489Y0128560D01*
X0156088Y0129158D02*
X0158460Y0129158D01*
X0158013Y0129757D02*
X0156535Y0129757D01*
X0156783Y0130355D02*
X0157765Y0130355D01*
X0157517Y0130954D02*
X0157031Y0130954D01*
X0157174Y0131552D02*
X0157374Y0131552D01*
X0157374Y0132151D02*
X0157174Y0132151D01*
X0157174Y0132749D02*
X0157374Y0132749D01*
X0157415Y0133348D02*
X0157132Y0133348D01*
X0156885Y0133946D02*
X0157663Y0133946D01*
X0157911Y0134545D02*
X0156637Y0134545D01*
X0156334Y0135143D02*
X0158213Y0135143D01*
X0158812Y0135742D02*
X0155735Y0135742D01*
X0155137Y0136340D02*
X0159411Y0136340D01*
X0160732Y0136939D02*
X0153815Y0136939D01*
X0150732Y0136939D02*
X0148574Y0136939D01*
X0148574Y0137537D02*
X0175974Y0137537D01*
X0175974Y0136939D02*
X0173815Y0136939D01*
X0175137Y0136340D02*
X0175974Y0136340D01*
X0175974Y0135742D02*
X0175735Y0135742D01*
X0175974Y0138136D02*
X0148574Y0138136D01*
X0148574Y0138734D02*
X0175974Y0138734D01*
X0175974Y0139333D02*
X0148574Y0139333D01*
X0148574Y0139931D02*
X0175974Y0139931D01*
X0175974Y0140530D02*
X0148574Y0140530D01*
X0148574Y0141128D02*
X0175974Y0141128D01*
X0175974Y0141727D02*
X0148574Y0141727D01*
X0148574Y0142325D02*
X0175974Y0142325D01*
X0175974Y0142924D02*
X0148574Y0142924D01*
X0148574Y0143522D02*
X0175974Y0143522D01*
X0175974Y0144121D02*
X0148574Y0144121D01*
X0148574Y0144719D02*
X0175974Y0144719D01*
X0175974Y0145318D02*
X0148574Y0145318D01*
X0148574Y0145916D02*
X0175974Y0145916D01*
X0175974Y0146515D02*
X0148574Y0146515D01*
X0148952Y0147113D02*
X0175974Y0147113D01*
X0175974Y0147712D02*
X0174065Y0147712D01*
X0175240Y0148310D02*
X0175974Y0148310D01*
X0175974Y0148909D02*
X0175839Y0148909D01*
X0178574Y0148909D02*
X0178709Y0148909D01*
X0178574Y0149044D02*
X0180244Y0147374D01*
X0184303Y0147374D01*
X0185974Y0149044D01*
X0185974Y0135503D01*
X0185049Y0136428D01*
X0183248Y0137174D01*
X0181299Y0137174D01*
X0179498Y0136428D01*
X0178574Y0135503D01*
X0178574Y0149044D01*
X0178574Y0148310D02*
X0179307Y0148310D01*
X0179906Y0147712D02*
X0178574Y0147712D01*
X0178574Y0147113D02*
X0185974Y0147113D01*
X0185974Y0146515D02*
X0178574Y0146515D01*
X0178574Y0145916D02*
X0185974Y0145916D01*
X0185974Y0145318D02*
X0178574Y0145318D01*
X0178574Y0144719D02*
X0185974Y0144719D01*
X0185974Y0144121D02*
X0178574Y0144121D01*
X0178574Y0143522D02*
X0185974Y0143522D01*
X0185974Y0142924D02*
X0178574Y0142924D01*
X0178574Y0142325D02*
X0185974Y0142325D01*
X0185974Y0141727D02*
X0178574Y0141727D01*
X0178574Y0141128D02*
X0185974Y0141128D01*
X0185974Y0140530D02*
X0178574Y0140530D01*
X0178574Y0139931D02*
X0185974Y0139931D01*
X0185974Y0139333D02*
X0178574Y0139333D01*
X0178574Y0138734D02*
X0185974Y0138734D01*
X0185974Y0138136D02*
X0178574Y0138136D01*
X0178574Y0137537D02*
X0185974Y0137537D01*
X0185974Y0136939D02*
X0183815Y0136939D01*
X0185137Y0136340D02*
X0185974Y0136340D01*
X0185974Y0135742D02*
X0185735Y0135742D01*
X0188574Y0135742D02*
X0188812Y0135742D01*
X0188574Y0136340D02*
X0189411Y0136340D01*
X0188574Y0136939D02*
X0190732Y0136939D01*
X0188574Y0137537D02*
X0195974Y0137537D01*
X0195974Y0136939D02*
X0193815Y0136939D01*
X0195137Y0136340D02*
X0195974Y0136340D01*
X0195974Y0135742D02*
X0195735Y0135742D01*
X0195974Y0138136D02*
X0188574Y0138136D01*
X0188574Y0138734D02*
X0195974Y0138734D01*
X0195974Y0139333D02*
X0188574Y0139333D01*
X0188574Y0139931D02*
X0195974Y0139931D01*
X0195974Y0140530D02*
X0188574Y0140530D01*
X0188574Y0141128D02*
X0195974Y0141128D01*
X0195974Y0141727D02*
X0188574Y0141727D01*
X0188574Y0142325D02*
X0195974Y0142325D01*
X0195974Y0142924D02*
X0188574Y0142924D01*
X0188574Y0143522D02*
X0195974Y0143522D01*
X0195974Y0144121D02*
X0188574Y0144121D01*
X0188574Y0144719D02*
X0195974Y0144719D01*
X0195974Y0145318D02*
X0188574Y0145318D01*
X0188574Y0145916D02*
X0195974Y0145916D01*
X0195974Y0146515D02*
X0188574Y0146515D01*
X0188574Y0147113D02*
X0195974Y0147113D01*
X0195974Y0147712D02*
X0188574Y0147712D01*
X0188574Y0148310D02*
X0195974Y0148310D01*
X0195974Y0148909D02*
X0188574Y0148909D01*
X0188574Y0149507D02*
X0195974Y0149507D01*
X0195974Y0150106D02*
X0188574Y0150106D01*
X0188574Y0150704D02*
X0195974Y0150704D01*
X0195974Y0151303D02*
X0188574Y0151303D01*
X0188574Y0151901D02*
X0195974Y0151901D01*
X0195974Y0152500D02*
X0188574Y0152500D01*
X0188574Y0153098D02*
X0195974Y0153098D01*
X0195974Y0153697D02*
X0188574Y0153697D01*
X0188574Y0154295D02*
X0195974Y0154295D01*
X0195974Y0154894D02*
X0188574Y0154894D01*
X0188574Y0155493D02*
X0195974Y0155493D01*
X0195974Y0156091D02*
X0188574Y0156091D01*
X0188574Y0156690D02*
X0195974Y0156690D01*
X0195974Y0157288D02*
X0188574Y0157288D01*
X0188574Y0157887D02*
X0195974Y0157887D01*
X0195974Y0158485D02*
X0188574Y0158485D01*
X0188574Y0159084D02*
X0195974Y0159084D01*
X0195974Y0159682D02*
X0188574Y0159682D01*
X0188574Y0160281D02*
X0195974Y0160281D01*
X0195974Y0160879D02*
X0188574Y0160879D01*
X0188574Y0161478D02*
X0195974Y0161478D01*
X0195974Y0162076D02*
X0188574Y0162076D01*
X0188574Y0162675D02*
X0195974Y0162675D01*
X0195974Y0163273D02*
X0188574Y0163273D01*
X0188574Y0163872D02*
X0195974Y0163872D01*
X0195974Y0164470D02*
X0188574Y0164470D01*
X0188574Y0165069D02*
X0195974Y0165069D01*
X0195974Y0165667D02*
X0188574Y0165667D01*
X0188574Y0166266D02*
X0195974Y0166266D01*
X0195974Y0166864D02*
X0188574Y0166864D01*
X0188574Y0167463D02*
X0195974Y0167463D01*
X0195974Y0168061D02*
X0188574Y0168061D01*
X0188574Y0168660D02*
X0195974Y0168660D01*
X0195974Y0169258D02*
X0188574Y0169258D01*
X0188574Y0169857D02*
X0195974Y0169857D01*
X0195974Y0170455D02*
X0188574Y0170455D01*
X0188574Y0171054D02*
X0195974Y0171054D01*
X0195974Y0171652D02*
X0188574Y0171652D01*
X0188574Y0172251D02*
X0195974Y0172251D01*
X0195974Y0172849D02*
X0188574Y0172849D01*
X0188574Y0173448D02*
X0195974Y0173448D01*
X0195974Y0174046D02*
X0188574Y0174046D01*
X0188574Y0174645D02*
X0195974Y0174645D01*
X0195974Y0175243D02*
X0188574Y0175243D01*
X0188574Y0175842D02*
X0195974Y0175842D01*
X0195974Y0176440D02*
X0188574Y0176440D01*
X0188574Y0177039D02*
X0195974Y0177039D01*
X0195974Y0177637D02*
X0188574Y0177637D01*
X0188150Y0178236D02*
X0195974Y0178236D01*
X0195974Y0178834D02*
X0187551Y0178834D01*
X0186953Y0179433D02*
X0195974Y0179433D01*
X0195974Y0180031D02*
X0192573Y0180031D01*
X0193172Y0180630D02*
X0195974Y0180630D01*
X0195974Y0181229D02*
X0193493Y0181229D01*
X0193705Y0181827D02*
X0195974Y0181827D01*
X0195974Y0182426D02*
X0193705Y0182426D01*
X0193615Y0183024D02*
X0195974Y0183024D01*
X0195974Y0183623D02*
X0193367Y0183623D01*
X0192868Y0184221D02*
X0195974Y0184221D01*
X0195974Y0184820D02*
X0191883Y0184820D01*
X0189718Y0185418D02*
X0195974Y0185418D01*
X0195974Y0186017D02*
X0189119Y0186017D01*
X0188521Y0186615D02*
X0195974Y0186615D01*
X0195974Y0187214D02*
X0187922Y0187214D01*
X0187324Y0187812D02*
X0195974Y0187812D01*
X0195974Y0188411D02*
X0186725Y0188411D01*
X0185939Y0189009D02*
X0195974Y0189009D01*
X0195974Y0189608D02*
X0186473Y0189608D01*
X0186721Y0190206D02*
X0195974Y0190206D01*
X0195974Y0190805D02*
X0186969Y0190805D01*
X0187174Y0191403D02*
X0195974Y0191403D01*
X0195974Y0192002D02*
X0187174Y0192002D01*
X0187174Y0192600D02*
X0195974Y0192600D01*
X0195974Y0193199D02*
X0187174Y0193199D01*
X0186946Y0193797D02*
X0195974Y0193797D01*
X0195974Y0194396D02*
X0186698Y0194396D01*
X0186450Y0194994D02*
X0195974Y0194994D01*
X0195974Y0195593D02*
X0185884Y0195593D01*
X0185286Y0196191D02*
X0195974Y0196191D01*
X0195974Y0196790D02*
X0184175Y0196790D01*
X0183284Y0197388D02*
X0195974Y0197388D01*
X0195974Y0197987D02*
X0184729Y0197987D01*
X0185515Y0198585D02*
X0195974Y0198585D01*
X0195974Y0199184D02*
X0186113Y0199184D01*
X0186545Y0199782D02*
X0195974Y0199782D01*
X0195974Y0200381D02*
X0186793Y0200381D01*
X0187041Y0200979D02*
X0195974Y0200979D01*
X0195974Y0201578D02*
X0187174Y0201578D01*
X0187174Y0202176D02*
X0195532Y0202176D01*
X0194934Y0202775D02*
X0187174Y0202775D01*
X0187122Y0203373D02*
X0194335Y0203373D01*
X0193737Y0203972D02*
X0186874Y0203972D01*
X0186626Y0204570D02*
X0193138Y0204570D01*
X0192540Y0205169D02*
X0186308Y0205169D01*
X0185709Y0205767D02*
X0191941Y0205767D01*
X0193823Y0207563D02*
X0200004Y0207563D01*
X0199406Y0208162D02*
X0193224Y0208162D01*
X0194421Y0206964D02*
X0200603Y0206964D01*
X0201201Y0206366D02*
X0195020Y0206366D01*
X0195618Y0205767D02*
X0201800Y0205767D01*
X0202398Y0205169D02*
X0196217Y0205169D01*
X0196815Y0204570D02*
X0202997Y0204570D01*
X0203595Y0203972D02*
X0197414Y0203972D01*
X0198012Y0203373D02*
X0204194Y0203373D01*
X0204792Y0202775D02*
X0198574Y0202775D01*
X0198574Y0202176D02*
X0205391Y0202176D01*
X0205874Y0201578D02*
X0198574Y0201578D01*
X0198574Y0200979D02*
X0205874Y0200979D01*
X0205874Y0200381D02*
X0198574Y0200381D01*
X0198574Y0199782D02*
X0205874Y0199782D01*
X0205874Y0199184D02*
X0198574Y0199184D01*
X0198574Y0198585D02*
X0205874Y0198585D01*
X0205874Y0197987D02*
X0198574Y0197987D01*
X0198574Y0197388D02*
X0205874Y0197388D01*
X0205874Y0196790D02*
X0198574Y0196790D01*
X0198574Y0196191D02*
X0205874Y0196191D01*
X0205874Y0195593D02*
X0198574Y0195593D01*
X0198574Y0194994D02*
X0205874Y0194994D01*
X0205874Y0194396D02*
X0198574Y0194396D01*
X0198574Y0193797D02*
X0205874Y0193797D01*
X0205874Y0193199D02*
X0198574Y0193199D01*
X0198574Y0192600D02*
X0205874Y0192600D01*
X0205874Y0192002D02*
X0198574Y0192002D01*
X0198574Y0191403D02*
X0205874Y0191403D01*
X0205874Y0190805D02*
X0198574Y0190805D01*
X0198574Y0190206D02*
X0205874Y0190206D01*
X0205874Y0189608D02*
X0198574Y0189608D01*
X0198574Y0189009D02*
X0205874Y0189009D01*
X0205874Y0188411D02*
X0198574Y0188411D01*
X0198574Y0187812D02*
X0205874Y0187812D01*
X0205874Y0187214D02*
X0198574Y0187214D01*
X0198574Y0186615D02*
X0205874Y0186615D01*
X0205874Y0186017D02*
X0198574Y0186017D01*
X0198574Y0185418D02*
X0205874Y0185418D01*
X0205874Y0184820D02*
X0198574Y0184820D01*
X0198574Y0184221D02*
X0205874Y0184221D01*
X0205874Y0183623D02*
X0198574Y0183623D01*
X0198574Y0183024D02*
X0205874Y0183024D01*
X0205874Y0182426D02*
X0198574Y0182426D01*
X0198574Y0181827D02*
X0205874Y0181827D01*
X0205874Y0181229D02*
X0198574Y0181229D01*
X0198574Y0180630D02*
X0205874Y0180630D01*
X0205874Y0180031D02*
X0198574Y0180031D01*
X0198574Y0179433D02*
X0205874Y0179433D01*
X0205874Y0178834D02*
X0198574Y0178834D01*
X0198574Y0178236D02*
X0205874Y0178236D01*
X0205874Y0177637D02*
X0198574Y0177637D01*
X0198574Y0177039D02*
X0205874Y0177039D01*
X0205874Y0176440D02*
X0198574Y0176440D01*
X0198574Y0175842D02*
X0205874Y0175842D01*
X0205874Y0175243D02*
X0198574Y0175243D01*
X0198574Y0174645D02*
X0205874Y0174645D01*
X0205874Y0174046D02*
X0198574Y0174046D01*
X0198574Y0173448D02*
X0205874Y0173448D01*
X0205874Y0172849D02*
X0198574Y0172849D01*
X0198574Y0172251D02*
X0205874Y0172251D01*
X0205874Y0171652D02*
X0198574Y0171652D01*
X0198574Y0171054D02*
X0205874Y0171054D01*
X0205874Y0170455D02*
X0198574Y0170455D01*
X0198574Y0169857D02*
X0205874Y0169857D01*
X0205874Y0169258D02*
X0198574Y0169258D01*
X0198574Y0168660D02*
X0205874Y0168660D01*
X0205874Y0168061D02*
X0198574Y0168061D01*
X0198574Y0167463D02*
X0205874Y0167463D01*
X0205874Y0166864D02*
X0198574Y0166864D01*
X0198574Y0166266D02*
X0205874Y0166266D01*
X0205874Y0165667D02*
X0198574Y0165667D01*
X0198574Y0165069D02*
X0205874Y0165069D01*
X0205874Y0164470D02*
X0198574Y0164470D01*
X0198574Y0163872D02*
X0205874Y0163872D01*
X0205874Y0163273D02*
X0198574Y0163273D01*
X0198574Y0162675D02*
X0205874Y0162675D01*
X0205874Y0162076D02*
X0198574Y0162076D01*
X0198574Y0161478D02*
X0205874Y0161478D01*
X0205874Y0160879D02*
X0198574Y0160879D01*
X0198574Y0160281D02*
X0205874Y0160281D01*
X0205874Y0159682D02*
X0198574Y0159682D01*
X0198574Y0159084D02*
X0205874Y0159084D01*
X0205874Y0158485D02*
X0198574Y0158485D01*
X0198574Y0157887D02*
X0205874Y0157887D01*
X0205874Y0157288D02*
X0198574Y0157288D01*
X0198574Y0156690D02*
X0205874Y0156690D01*
X0205874Y0156091D02*
X0198574Y0156091D01*
X0198574Y0155493D02*
X0205874Y0155493D01*
X0205874Y0154894D02*
X0198574Y0154894D01*
X0198574Y0154295D02*
X0205874Y0154295D01*
X0205874Y0153697D02*
X0198574Y0153697D01*
X0198574Y0153098D02*
X0205874Y0153098D01*
X0205874Y0152500D02*
X0198574Y0152500D01*
X0198574Y0151901D02*
X0205874Y0151901D01*
X0205874Y0151303D02*
X0198574Y0151303D01*
X0198574Y0150704D02*
X0205874Y0150704D01*
X0205874Y0150106D02*
X0198574Y0150106D01*
X0198574Y0149507D02*
X0205874Y0149507D01*
X0205874Y0148909D02*
X0198574Y0148909D01*
X0198574Y0148310D02*
X0205874Y0148310D01*
X0205874Y0147712D02*
X0198574Y0147712D01*
X0198574Y0147113D02*
X0205874Y0147113D01*
X0205874Y0146515D02*
X0198574Y0146515D01*
X0198574Y0145916D02*
X0205874Y0145916D01*
X0205874Y0145318D02*
X0198574Y0145318D01*
X0198574Y0144719D02*
X0205874Y0144719D01*
X0205874Y0144121D02*
X0198574Y0144121D01*
X0198574Y0143522D02*
X0205874Y0143522D01*
X0205874Y0142924D02*
X0198574Y0142924D01*
X0198574Y0142325D02*
X0205874Y0142325D01*
X0205874Y0141727D02*
X0198574Y0141727D01*
X0198574Y0141128D02*
X0205874Y0141128D01*
X0205874Y0140530D02*
X0198574Y0140530D01*
X0198574Y0139931D02*
X0205874Y0139931D01*
X0205874Y0139333D02*
X0198574Y0139333D01*
X0198574Y0138734D02*
X0205874Y0138734D01*
X0205874Y0138136D02*
X0198574Y0138136D01*
X0198574Y0137537D02*
X0205874Y0137537D01*
X0205874Y0136939D02*
X0198574Y0136939D01*
X0198574Y0136340D02*
X0205874Y0136340D01*
X0205874Y0135742D02*
X0198574Y0135742D01*
X0198574Y0135143D02*
X0205874Y0135143D01*
X0205874Y0134545D02*
X0202544Y0134545D01*
X0203143Y0133946D02*
X0205874Y0133946D01*
X0205874Y0133348D02*
X0203481Y0133348D01*
X0203705Y0132749D02*
X0205874Y0132749D01*
X0205874Y0132151D02*
X0203705Y0132151D01*
X0203627Y0131552D02*
X0205874Y0131552D01*
X0205874Y0130954D02*
X0203379Y0130954D01*
X0202897Y0130355D02*
X0205874Y0130355D01*
X0205874Y0129757D02*
X0202324Y0129757D01*
X0202324Y0129158D02*
X0205874Y0129158D01*
X0205874Y0128560D02*
X0202324Y0128560D01*
X0202324Y0127961D02*
X0205874Y0127961D01*
X0205874Y0127362D02*
X0202324Y0127362D01*
X0202324Y0126764D02*
X0205874Y0126764D01*
X0205874Y0126165D02*
X0202324Y0126165D01*
X0202324Y0125567D02*
X0205874Y0125567D01*
X0205874Y0124968D02*
X0202324Y0124968D01*
X0202324Y0124370D02*
X0205874Y0124370D01*
X0205874Y0123771D02*
X0202324Y0123771D01*
X0202324Y0123173D02*
X0205874Y0123173D01*
X0205874Y0122574D02*
X0202324Y0122574D01*
X0202324Y0121976D02*
X0205874Y0121976D01*
X0205874Y0121377D02*
X0202324Y0121377D01*
X0202324Y0120779D02*
X0205874Y0120779D01*
X0205874Y0120180D02*
X0202324Y0120180D01*
X0202324Y0119582D02*
X0205874Y0119582D01*
X0205874Y0118983D02*
X0202324Y0118983D01*
X0202324Y0118385D02*
X0205874Y0118385D01*
X0205874Y0117786D02*
X0202324Y0117786D01*
X0202324Y0117188D02*
X0205874Y0117188D01*
X0205874Y0116589D02*
X0202324Y0116589D01*
X0202324Y0115991D02*
X0205874Y0115991D01*
X0205874Y0115392D02*
X0202324Y0115392D01*
X0202324Y0114794D02*
X0205874Y0114794D01*
X0205874Y0114195D02*
X0202324Y0114195D01*
X0202324Y0113597D02*
X0205874Y0113597D01*
X0205874Y0112998D02*
X0202324Y0112998D01*
X0202324Y0112400D02*
X0205874Y0112400D01*
X0205874Y0111801D02*
X0202324Y0111801D01*
X0202324Y0111203D02*
X0205874Y0111203D01*
X0205874Y0110604D02*
X0202324Y0110604D01*
X0202324Y0110006D02*
X0205874Y0110006D01*
X0205874Y0109407D02*
X0202324Y0109407D01*
X0202324Y0108809D02*
X0205874Y0108809D01*
X0205874Y0108210D02*
X0202324Y0108210D01*
X0202324Y0107612D02*
X0205874Y0107612D01*
X0205874Y0107013D02*
X0202324Y0107013D01*
X0202324Y0106415D02*
X0205874Y0106415D01*
X0205874Y0105816D02*
X0202324Y0105816D01*
X0202056Y0105218D02*
X0205874Y0105218D01*
X0205874Y0104619D02*
X0201458Y0104619D01*
X0200859Y0104021D02*
X0205874Y0104021D01*
X0205874Y0103422D02*
X0200260Y0103422D01*
X0199662Y0102824D02*
X0205844Y0102824D01*
X0205245Y0102225D02*
X0199063Y0102225D01*
X0198465Y0101627D02*
X0204647Y0101627D01*
X0204048Y0101028D02*
X0197866Y0101028D01*
X0197404Y0100429D02*
X0203450Y0100429D01*
X0202851Y0099831D02*
X0197455Y0099831D01*
X0197451Y0099232D02*
X0202253Y0099232D01*
X0201654Y0098634D02*
X0197204Y0098634D01*
X0196827Y0098035D02*
X0201056Y0098035D01*
X0200457Y0097437D02*
X0196138Y0097437D01*
X0192093Y0099831D02*
X0061811Y0099831D01*
X0062409Y0100429D02*
X0192143Y0100429D01*
X0192391Y0101028D02*
X0093008Y0101028D01*
X0093606Y0101627D02*
X0192835Y0101627D01*
X0193686Y0102225D02*
X0094205Y0102225D01*
X0094803Y0102824D02*
X0195985Y0102824D01*
X0196584Y0103422D02*
X0095402Y0103422D01*
X0093238Y0105218D02*
X0008574Y0105218D01*
X0008574Y0105816D02*
X0093836Y0105816D01*
X0094435Y0106415D02*
X0008574Y0106415D01*
X0008574Y0107013D02*
X0095033Y0107013D01*
X0095632Y0107612D02*
X0073823Y0107612D01*
X0075140Y0108210D02*
X0096230Y0108210D01*
X0096829Y0108809D02*
X0075738Y0108809D01*
X0076337Y0109407D02*
X0097427Y0109407D01*
X0098026Y0110006D02*
X0076638Y0110006D01*
X0076886Y0110604D02*
X0098624Y0110604D01*
X0099223Y0111203D02*
X0083041Y0111203D01*
X0083640Y0111801D02*
X0099821Y0111801D01*
X0100420Y0112400D02*
X0084238Y0112400D01*
X0084837Y0112998D02*
X0101018Y0112998D01*
X0101617Y0113597D02*
X0085435Y0113597D01*
X0086034Y0114195D02*
X0102215Y0114195D01*
X0102814Y0114794D02*
X0086632Y0114794D01*
X0087231Y0115392D02*
X0103412Y0115392D01*
X0104011Y0115991D02*
X0087829Y0115991D01*
X0088428Y0116589D02*
X0104609Y0116589D01*
X0105208Y0117188D02*
X0088574Y0117188D01*
X0088574Y0117786D02*
X0105806Y0117786D01*
X0106405Y0118385D02*
X0088574Y0118385D01*
X0088574Y0118983D02*
X0107003Y0118983D01*
X0107602Y0119582D02*
X0088574Y0119582D01*
X0088574Y0120180D02*
X0108200Y0120180D01*
X0108799Y0120779D02*
X0088574Y0120779D01*
X0088574Y0121377D02*
X0108925Y0121377D01*
X0108925Y0121976D02*
X0088574Y0121976D01*
X0088574Y0122574D02*
X0108925Y0122574D01*
X0108925Y0123173D02*
X0088574Y0123173D01*
X0088574Y0123771D02*
X0108925Y0123771D01*
X0108925Y0124370D02*
X0088574Y0124370D01*
X0088574Y0124968D02*
X0102012Y0124968D01*
X0101752Y0125567D02*
X0088574Y0125567D01*
X0088574Y0126165D02*
X0101741Y0126165D01*
X0101741Y0127362D02*
X0088574Y0127362D01*
X0088574Y0126764D02*
X0104119Y0126764D01*
X0104119Y0126165D02*
X0104719Y0126165D01*
X0104719Y0125567D02*
X0104119Y0125567D01*
X0104119Y0124968D02*
X0104719Y0124968D01*
X0104719Y0126764D02*
X0108925Y0126764D01*
X0108925Y0127362D02*
X0107097Y0127362D01*
X0107097Y0127961D02*
X0108925Y0127961D01*
X0108925Y0128560D02*
X0107083Y0128560D01*
X0106814Y0129158D02*
X0108925Y0129158D01*
X0108925Y0126165D02*
X0107097Y0126165D01*
X0107087Y0125567D02*
X0108925Y0125567D01*
X0108925Y0124968D02*
X0106827Y0124968D01*
X0101741Y0127961D02*
X0088574Y0127961D01*
X0088574Y0128560D02*
X0101755Y0128560D01*
X0102024Y0129158D02*
X0088574Y0129158D01*
X0088574Y0129757D02*
X0096412Y0129757D01*
X0096236Y0130355D02*
X0088574Y0130355D01*
X0088574Y0130954D02*
X0096236Y0130954D01*
X0096236Y0131552D02*
X0088574Y0131552D01*
X0088574Y0132151D02*
X0096236Y0132151D01*
X0095708Y0132749D02*
X0088574Y0132749D01*
X0088574Y0133348D02*
X0095109Y0133348D01*
X0094511Y0133946D02*
X0088574Y0133946D01*
X0088574Y0134545D02*
X0093912Y0134545D01*
X0093474Y0135143D02*
X0088574Y0135143D01*
X0088574Y0135742D02*
X0093474Y0135742D01*
X0093474Y0136340D02*
X0088574Y0136340D01*
X0088574Y0136939D02*
X0093474Y0136939D01*
X0093474Y0137537D02*
X0088574Y0137537D01*
X0088574Y0138136D02*
X0093474Y0138136D01*
X0093474Y0138734D02*
X0088574Y0138734D01*
X0088574Y0139333D02*
X0093474Y0139333D01*
X0093474Y0139931D02*
X0088574Y0139931D01*
X0088574Y0140530D02*
X0093474Y0140530D01*
X0093474Y0141128D02*
X0088574Y0141128D01*
X0088574Y0141727D02*
X0093474Y0141727D01*
X0093474Y0142325D02*
X0088574Y0142325D01*
X0088574Y0142924D02*
X0093474Y0142924D01*
X0093474Y0143522D02*
X0088574Y0143522D01*
X0088574Y0144121D02*
X0093474Y0144121D01*
X0093474Y0144719D02*
X0088574Y0144719D01*
X0088574Y0145318D02*
X0093474Y0145318D01*
X0093474Y0145916D02*
X0088574Y0145916D01*
X0088574Y0146515D02*
X0093474Y0146515D01*
X0093474Y0147113D02*
X0088574Y0147113D01*
X0088574Y0147712D02*
X0093474Y0147712D01*
X0093474Y0148310D02*
X0088574Y0148310D01*
X0088574Y0148909D02*
X0093474Y0148909D01*
X0093474Y0149507D02*
X0088574Y0149507D01*
X0088574Y0150106D02*
X0093474Y0150106D01*
X0093474Y0150704D02*
X0088574Y0150704D01*
X0088574Y0151303D02*
X0093474Y0151303D01*
X0093474Y0151901D02*
X0088574Y0151901D01*
X0088574Y0152500D02*
X0093257Y0152500D01*
X0092657Y0153098D02*
X0088574Y0153098D01*
X0088574Y0153697D02*
X0092318Y0153697D01*
X0092093Y0154295D02*
X0088574Y0154295D01*
X0088574Y0154894D02*
X0092093Y0154894D01*
X0092169Y0155493D02*
X0088574Y0155493D01*
X0088574Y0156091D02*
X0092417Y0156091D01*
X0092898Y0156690D02*
X0088574Y0156690D01*
X0088574Y0157288D02*
X0093838Y0157288D01*
X0095709Y0157288D02*
X0098838Y0157288D01*
X0097898Y0156690D02*
X0096649Y0156690D01*
X0097130Y0156091D02*
X0097417Y0156091D01*
X0100709Y0157288D02*
X0103838Y0157288D01*
X0102898Y0156690D02*
X0101649Y0156690D01*
X0102130Y0156091D02*
X0102417Y0156091D01*
X0105709Y0157288D02*
X0108838Y0157288D01*
X0107898Y0156690D02*
X0106649Y0156690D01*
X0107130Y0156091D02*
X0107417Y0156091D01*
X0107274Y0153803D02*
X0107047Y0153255D01*
X0106292Y0152501D01*
X0106074Y0152410D01*
X0106074Y0136562D01*
X0106562Y0136074D01*
X0107324Y0135312D01*
X0107324Y0134158D01*
X0108139Y0134158D01*
X0108356Y0133940D01*
X0108574Y0134158D01*
X0112076Y0134158D01*
X0112224Y0134010D01*
X0112224Y0137985D01*
X0108474Y0141735D01*
X0108474Y0152410D01*
X0108255Y0152501D01*
X0107501Y0153255D01*
X0107274Y0153803D01*
X0107230Y0153697D02*
X0107318Y0153697D01*
X0107657Y0153098D02*
X0106890Y0153098D01*
X0106291Y0152500D02*
X0108257Y0152500D01*
X0108474Y0151901D02*
X0106074Y0151901D01*
X0106074Y0151303D02*
X0108474Y0151303D01*
X0108474Y0150704D02*
X0106074Y0150704D01*
X0106074Y0150106D02*
X0108474Y0150106D01*
X0108474Y0149507D02*
X0106074Y0149507D01*
X0106074Y0148909D02*
X0108474Y0148909D01*
X0108474Y0148310D02*
X0106074Y0148310D01*
X0106074Y0147712D02*
X0108474Y0147712D01*
X0108474Y0147113D02*
X0106074Y0147113D01*
X0106074Y0146515D02*
X0108474Y0146515D01*
X0108474Y0145916D02*
X0106074Y0145916D01*
X0106074Y0145318D02*
X0108474Y0145318D01*
X0108474Y0144719D02*
X0106074Y0144719D01*
X0106074Y0144121D02*
X0108474Y0144121D01*
X0108474Y0143522D02*
X0106074Y0143522D01*
X0106074Y0142924D02*
X0108474Y0142924D01*
X0108474Y0142325D02*
X0106074Y0142325D01*
X0106074Y0141727D02*
X0108482Y0141727D01*
X0109081Y0141128D02*
X0106074Y0141128D01*
X0106074Y0140530D02*
X0109679Y0140530D01*
X0110278Y0139931D02*
X0106074Y0139931D01*
X0106074Y0139333D02*
X0110876Y0139333D01*
X0111475Y0138734D02*
X0106074Y0138734D01*
X0106074Y0138136D02*
X0112073Y0138136D01*
X0112224Y0137537D02*
X0106074Y0137537D01*
X0106074Y0136939D02*
X0112224Y0136939D01*
X0112224Y0136340D02*
X0106296Y0136340D01*
X0106894Y0135742D02*
X0112224Y0135742D01*
X0112224Y0135143D02*
X0107324Y0135143D01*
X0107324Y0134545D02*
X0112224Y0134545D01*
X0114824Y0134545D02*
X0116600Y0134545D01*
X0116650Y0134558D02*
X0116319Y0134469D01*
X0116023Y0134298D01*
X0115882Y0134158D01*
X0114824Y0134158D01*
X0114824Y0139062D01*
X0114062Y0139824D01*
X0111074Y0142812D01*
X0111074Y0152410D01*
X0111292Y0152501D01*
X0112047Y0153255D01*
X0112274Y0153803D01*
X0112501Y0153255D01*
X0113255Y0152501D01*
X0113474Y0152410D01*
X0113474Y0144235D01*
X0120974Y0136735D01*
X0120974Y0134158D01*
X0120515Y0134158D01*
X0120375Y0134298D01*
X0120079Y0134469D01*
X0119748Y0134558D01*
X0118499Y0134558D01*
X0118499Y0132082D01*
X0117899Y0132082D01*
X0117899Y0134558D01*
X0116650Y0134558D01*
X0117899Y0134545D02*
X0118499Y0134545D01*
X0118499Y0133946D02*
X0117899Y0133946D01*
X0117899Y0133348D02*
X0118499Y0133348D01*
X0118499Y0132749D02*
X0117899Y0132749D01*
X0117899Y0132151D02*
X0118499Y0132151D01*
X0119797Y0134545D02*
X0120974Y0134545D01*
X0120974Y0135143D02*
X0114824Y0135143D01*
X0114824Y0135742D02*
X0120974Y0135742D01*
X0120974Y0136340D02*
X0114824Y0136340D01*
X0114824Y0136939D02*
X0120770Y0136939D01*
X0120172Y0137537D02*
X0114824Y0137537D01*
X0114824Y0138136D02*
X0119573Y0138136D01*
X0118975Y0138734D02*
X0114824Y0138734D01*
X0114553Y0139333D02*
X0118376Y0139333D01*
X0117778Y0139931D02*
X0113954Y0139931D01*
X0113356Y0140530D02*
X0117179Y0140530D01*
X0116581Y0141128D02*
X0112757Y0141128D01*
X0112159Y0141727D02*
X0115982Y0141727D01*
X0115383Y0142325D02*
X0111560Y0142325D01*
X0111074Y0142924D02*
X0114785Y0142924D01*
X0114186Y0143522D02*
X0111074Y0143522D01*
X0111074Y0144121D02*
X0113588Y0144121D01*
X0113474Y0144719D02*
X0111074Y0144719D01*
X0111074Y0145318D02*
X0113474Y0145318D01*
X0113474Y0145916D02*
X0111074Y0145916D01*
X0111074Y0146515D02*
X0113474Y0146515D01*
X0113474Y0147113D02*
X0111074Y0147113D01*
X0111074Y0147712D02*
X0113474Y0147712D01*
X0113474Y0148310D02*
X0111074Y0148310D01*
X0111074Y0148909D02*
X0113474Y0148909D01*
X0113474Y0149507D02*
X0111074Y0149507D01*
X0111074Y0150106D02*
X0113474Y0150106D01*
X0113474Y0150704D02*
X0111074Y0150704D01*
X0111074Y0151303D02*
X0113474Y0151303D01*
X0113474Y0151901D02*
X0111074Y0151901D01*
X0111291Y0152500D02*
X0113257Y0152500D01*
X0112657Y0153098D02*
X0111890Y0153098D01*
X0112230Y0153697D02*
X0112318Y0153697D01*
X0112417Y0156091D02*
X0112130Y0156091D01*
X0111649Y0156690D02*
X0112898Y0156690D01*
X0113838Y0157288D02*
X0110709Y0157288D01*
X0115709Y0157288D02*
X0118838Y0157288D01*
X0117898Y0156690D02*
X0116649Y0156690D01*
X0117130Y0156091D02*
X0117417Y0156091D01*
X0109645Y0171054D02*
X0144215Y0171054D01*
X0144814Y0171652D02*
X0109187Y0171652D01*
X0108299Y0172251D02*
X0145412Y0172251D01*
X0143703Y0166864D02*
X0170552Y0166864D01*
X0169336Y0166266D02*
X0143574Y0166266D01*
X0143574Y0165667D02*
X0168738Y0165667D01*
X0168139Y0165069D02*
X0143574Y0165069D01*
X0143574Y0164470D02*
X0167880Y0164470D01*
X0167632Y0163872D02*
X0143574Y0163872D01*
X0143574Y0163273D02*
X0167384Y0163273D01*
X0167374Y0162675D02*
X0143574Y0162675D01*
X0143574Y0162076D02*
X0167374Y0162076D01*
X0167374Y0161478D02*
X0143574Y0161478D01*
X0143574Y0160879D02*
X0167548Y0160879D01*
X0167795Y0160281D02*
X0143574Y0160281D01*
X0143574Y0159682D02*
X0168043Y0159682D01*
X0168534Y0159084D02*
X0143574Y0159084D01*
X0143574Y0158485D02*
X0169133Y0158485D01*
X0170061Y0157887D02*
X0143574Y0157887D01*
X0150149Y0148310D02*
X0169307Y0148310D01*
X0168709Y0148909D02*
X0150747Y0148909D01*
X0151346Y0149507D02*
X0168116Y0149507D01*
X0167868Y0150106D02*
X0151944Y0150106D01*
X0152543Y0150704D02*
X0167620Y0150704D01*
X0170482Y0147712D02*
X0149550Y0147712D01*
X0149411Y0136340D02*
X0148574Y0136340D01*
X0148574Y0135742D02*
X0148812Y0135742D01*
X0163815Y0136939D02*
X0170732Y0136939D01*
X0169411Y0136340D02*
X0165137Y0136340D01*
X0165735Y0135742D02*
X0168812Y0135742D01*
X0168213Y0135143D02*
X0166334Y0135143D01*
X0166637Y0134545D02*
X0167911Y0134545D01*
X0167663Y0133946D02*
X0166885Y0133946D01*
X0167132Y0133348D02*
X0167415Y0133348D01*
X0167374Y0132749D02*
X0167174Y0132749D01*
X0167174Y0132151D02*
X0167374Y0132151D01*
X0167374Y0131552D02*
X0167174Y0131552D01*
X0167031Y0130954D02*
X0167517Y0130954D01*
X0167765Y0130355D02*
X0166783Y0130355D01*
X0166535Y0129757D02*
X0168013Y0129757D01*
X0168460Y0129158D02*
X0166088Y0129158D01*
X0165489Y0128560D02*
X0169058Y0128560D01*
X0169881Y0127961D02*
X0164666Y0127961D01*
X0173574Y0121735D02*
X0173574Y0117039D01*
X0175049Y0116428D01*
X0176428Y0115049D01*
X0177174Y0113248D01*
X0177174Y0111299D01*
X0176428Y0109498D01*
X0175503Y0108574D01*
X0179044Y0108574D01*
X0178120Y0109498D01*
X0177374Y0111299D01*
X0177374Y0113248D01*
X0178120Y0115049D01*
X0179498Y0116428D01*
X0181299Y0117174D01*
X0183248Y0117174D01*
X0185049Y0116428D01*
X0185974Y0115503D01*
X0185974Y0129044D01*
X0185049Y0128120D01*
X0183248Y0127374D01*
X0181299Y0127374D01*
X0179498Y0128120D01*
X0178574Y0129044D01*
X0178574Y0126735D01*
X0173574Y0121735D01*
X0173814Y0121976D02*
X0185974Y0121976D01*
X0185974Y0122574D02*
X0174413Y0122574D01*
X0175011Y0123173D02*
X0185974Y0123173D01*
X0185974Y0123771D02*
X0175610Y0123771D01*
X0176208Y0124370D02*
X0185974Y0124370D01*
X0185974Y0124968D02*
X0176807Y0124968D01*
X0177405Y0125567D02*
X0185974Y0125567D01*
X0185974Y0126165D02*
X0178004Y0126165D01*
X0178574Y0126764D02*
X0185974Y0126764D01*
X0185974Y0127362D02*
X0178574Y0127362D01*
X0178574Y0127961D02*
X0179881Y0127961D01*
X0179058Y0128560D02*
X0178574Y0128560D01*
X0175974Y0128560D02*
X0175489Y0128560D01*
X0175974Y0127961D02*
X0174666Y0127961D01*
X0173574Y0121377D02*
X0185974Y0121377D01*
X0185974Y0120779D02*
X0173574Y0120779D01*
X0173574Y0120180D02*
X0185974Y0120180D01*
X0185974Y0119582D02*
X0173574Y0119582D01*
X0173574Y0118983D02*
X0185974Y0118983D01*
X0185974Y0118385D02*
X0173574Y0118385D01*
X0173574Y0117786D02*
X0185974Y0117786D01*
X0185974Y0117188D02*
X0173574Y0117188D01*
X0174659Y0116589D02*
X0179888Y0116589D01*
X0179061Y0115991D02*
X0175486Y0115991D01*
X0176085Y0115392D02*
X0178463Y0115392D01*
X0178014Y0114794D02*
X0176533Y0114794D01*
X0176781Y0114195D02*
X0177766Y0114195D01*
X0177518Y0113597D02*
X0177029Y0113597D01*
X0177174Y0112998D02*
X0177374Y0112998D01*
X0177374Y0112400D02*
X0177174Y0112400D01*
X0177174Y0111801D02*
X0177374Y0111801D01*
X0177413Y0111203D02*
X0177134Y0111203D01*
X0176886Y0110604D02*
X0177661Y0110604D01*
X0177909Y0110006D02*
X0176638Y0110006D01*
X0176337Y0109407D02*
X0178210Y0109407D01*
X0178809Y0108809D02*
X0175738Y0108809D01*
X0168809Y0108809D02*
X0167577Y0108809D01*
X0166979Y0109407D02*
X0168210Y0109407D01*
X0167909Y0110006D02*
X0166638Y0110006D01*
X0166886Y0110604D02*
X0167661Y0110604D01*
X0167413Y0111203D02*
X0167134Y0111203D01*
X0167174Y0111801D02*
X0167374Y0111801D01*
X0167374Y0112400D02*
X0167174Y0112400D01*
X0167174Y0112998D02*
X0167374Y0112998D01*
X0167518Y0113597D02*
X0167029Y0113597D01*
X0166781Y0114195D02*
X0167766Y0114195D01*
X0168014Y0114794D02*
X0166533Y0114794D01*
X0166085Y0115392D02*
X0168463Y0115392D01*
X0169061Y0115991D02*
X0165486Y0115991D01*
X0164659Y0116589D02*
X0169888Y0116589D01*
X0165097Y0107612D02*
X0163823Y0107612D01*
X0165696Y0107013D02*
X0156873Y0107013D01*
X0157471Y0106415D02*
X0166294Y0106415D01*
X0160724Y0107612D02*
X0156274Y0107612D01*
X0155676Y0108210D02*
X0159407Y0108210D01*
X0158809Y0108809D02*
X0155738Y0108809D01*
X0156337Y0109407D02*
X0158210Y0109407D01*
X0157909Y0110006D02*
X0156638Y0110006D01*
X0156886Y0110604D02*
X0157661Y0110604D01*
X0157413Y0111203D02*
X0157134Y0111203D01*
X0157174Y0111801D02*
X0157374Y0111801D01*
X0157374Y0112400D02*
X0157174Y0112400D01*
X0157174Y0112998D02*
X0157374Y0112998D01*
X0157518Y0113597D02*
X0157029Y0113597D01*
X0156781Y0114195D02*
X0157766Y0114195D01*
X0158014Y0114794D02*
X0156533Y0114794D01*
X0156085Y0115392D02*
X0158463Y0115392D01*
X0159061Y0115991D02*
X0155486Y0115991D01*
X0154659Y0116589D02*
X0159888Y0116589D01*
X0178574Y0135742D02*
X0178812Y0135742D01*
X0178574Y0136340D02*
X0179411Y0136340D01*
X0178574Y0136939D02*
X0180732Y0136939D01*
X0185489Y0128560D02*
X0185974Y0128560D01*
X0185974Y0127961D02*
X0184666Y0127961D01*
X0184659Y0116589D02*
X0185974Y0116589D01*
X0185974Y0115991D02*
X0185486Y0115991D01*
X0196458Y0104619D02*
X0197781Y0104619D01*
X0198379Y0105218D02*
X0197056Y0105218D01*
X0197655Y0105816D02*
X0198978Y0105816D01*
X0199576Y0106415D02*
X0198253Y0106415D01*
X0198574Y0107013D02*
X0199724Y0107013D01*
X0199724Y0107612D02*
X0198574Y0107612D01*
X0198574Y0108210D02*
X0199724Y0108210D01*
X0199724Y0108809D02*
X0198574Y0108809D01*
X0198574Y0109407D02*
X0199724Y0109407D01*
X0199724Y0110006D02*
X0198574Y0110006D01*
X0198574Y0110604D02*
X0199724Y0110604D01*
X0199724Y0111203D02*
X0198574Y0111203D01*
X0198574Y0111801D02*
X0199724Y0111801D01*
X0199724Y0112400D02*
X0198574Y0112400D01*
X0198574Y0112998D02*
X0199724Y0112998D01*
X0199724Y0113597D02*
X0198574Y0113597D01*
X0198574Y0114195D02*
X0199724Y0114195D01*
X0199724Y0114794D02*
X0198574Y0114794D01*
X0198574Y0115392D02*
X0199724Y0115392D01*
X0199724Y0115991D02*
X0198574Y0115991D01*
X0198574Y0116589D02*
X0199724Y0116589D01*
X0199724Y0117188D02*
X0198574Y0117188D01*
X0198574Y0117786D02*
X0199724Y0117786D01*
X0199724Y0118385D02*
X0198574Y0118385D01*
X0198574Y0118983D02*
X0199724Y0118983D01*
X0199724Y0119582D02*
X0198574Y0119582D01*
X0198574Y0120180D02*
X0199724Y0120180D01*
X0199724Y0120779D02*
X0198574Y0120779D01*
X0198574Y0121377D02*
X0199724Y0121377D01*
X0199724Y0121976D02*
X0198574Y0121976D01*
X0198574Y0122574D02*
X0199724Y0122574D01*
X0199724Y0123173D02*
X0198574Y0123173D01*
X0198574Y0123771D02*
X0199724Y0123771D01*
X0199724Y0124370D02*
X0198574Y0124370D01*
X0198574Y0124968D02*
X0199724Y0124968D01*
X0199724Y0125567D02*
X0198574Y0125567D01*
X0198574Y0126165D02*
X0199724Y0126165D01*
X0199724Y0126764D02*
X0198574Y0126764D01*
X0198574Y0127362D02*
X0199724Y0127362D01*
X0199724Y0127961D02*
X0198574Y0127961D01*
X0198574Y0128560D02*
X0199724Y0128560D01*
X0199724Y0129158D02*
X0198574Y0129158D01*
X0198574Y0129757D02*
X0199724Y0129757D01*
X0199151Y0130355D02*
X0198574Y0130355D01*
X0198574Y0130954D02*
X0198668Y0130954D01*
X0198574Y0133946D02*
X0198904Y0133946D01*
X0198574Y0134545D02*
X0199503Y0134545D01*
X0208674Y0134545D02*
X0210974Y0134545D01*
X0210974Y0135143D02*
X0208674Y0135143D01*
X0208674Y0135742D02*
X0210974Y0135742D01*
X0210974Y0136340D02*
X0208674Y0136340D01*
X0208674Y0136939D02*
X0210974Y0136939D01*
X0210974Y0137537D02*
X0208674Y0137537D01*
X0208674Y0138136D02*
X0210974Y0138136D01*
X0210974Y0138734D02*
X0208674Y0138734D01*
X0208674Y0139333D02*
X0210974Y0139333D01*
X0210974Y0139931D02*
X0208674Y0139931D01*
X0208674Y0140530D02*
X0210974Y0140530D01*
X0210974Y0141128D02*
X0208674Y0141128D01*
X0208674Y0141727D02*
X0210974Y0141727D01*
X0210974Y0142325D02*
X0208674Y0142325D01*
X0208674Y0142924D02*
X0210974Y0142924D01*
X0210974Y0143522D02*
X0208674Y0143522D01*
X0208674Y0144121D02*
X0210974Y0144121D01*
X0210974Y0144719D02*
X0208674Y0144719D01*
X0208674Y0145318D02*
X0210974Y0145318D01*
X0210974Y0145916D02*
X0208674Y0145916D01*
X0208674Y0146515D02*
X0210974Y0146515D01*
X0210974Y0147113D02*
X0208674Y0147113D01*
X0208674Y0147712D02*
X0210974Y0147712D01*
X0210974Y0148310D02*
X0208674Y0148310D01*
X0208674Y0148909D02*
X0210974Y0148909D01*
X0210974Y0149507D02*
X0208674Y0149507D01*
X0208674Y0150106D02*
X0210974Y0150106D01*
X0210974Y0150704D02*
X0208674Y0150704D01*
X0208674Y0151303D02*
X0210974Y0151303D01*
X0210974Y0151901D02*
X0208674Y0151901D01*
X0208674Y0152500D02*
X0210974Y0152500D01*
X0210974Y0153098D02*
X0208674Y0153098D01*
X0208674Y0153697D02*
X0210974Y0153697D01*
X0210974Y0154295D02*
X0208674Y0154295D01*
X0208674Y0154894D02*
X0210974Y0154894D01*
X0210974Y0155493D02*
X0208674Y0155493D01*
X0208674Y0156091D02*
X0210974Y0156091D01*
X0210974Y0156690D02*
X0208674Y0156690D01*
X0208674Y0157288D02*
X0210974Y0157288D01*
X0210974Y0157887D02*
X0208674Y0157887D01*
X0208674Y0158485D02*
X0210974Y0158485D01*
X0210974Y0159084D02*
X0208674Y0159084D01*
X0208674Y0159682D02*
X0210974Y0159682D01*
X0210974Y0160281D02*
X0208674Y0160281D01*
X0208674Y0160879D02*
X0210974Y0160879D01*
X0210974Y0161478D02*
X0208674Y0161478D01*
X0208674Y0162076D02*
X0210974Y0162076D01*
X0210974Y0162675D02*
X0208674Y0162675D01*
X0208674Y0163273D02*
X0210974Y0163273D01*
X0210974Y0163872D02*
X0208674Y0163872D01*
X0208674Y0164470D02*
X0210974Y0164470D01*
X0210974Y0165069D02*
X0208674Y0165069D01*
X0208674Y0165667D02*
X0210974Y0165667D01*
X0210974Y0166266D02*
X0208674Y0166266D01*
X0208674Y0166864D02*
X0210974Y0166864D01*
X0210974Y0167463D02*
X0208674Y0167463D01*
X0208674Y0168061D02*
X0210974Y0168061D01*
X0210974Y0168660D02*
X0208674Y0168660D01*
X0208674Y0169258D02*
X0210974Y0169258D01*
X0210974Y0169857D02*
X0208674Y0169857D01*
X0208674Y0170455D02*
X0210974Y0170455D01*
X0210974Y0171054D02*
X0208674Y0171054D01*
X0208674Y0171652D02*
X0210974Y0171652D01*
X0210974Y0172251D02*
X0208674Y0172251D01*
X0208674Y0172849D02*
X0210974Y0172849D01*
X0210974Y0173448D02*
X0208674Y0173448D01*
X0208674Y0174046D02*
X0210974Y0174046D01*
X0210974Y0174645D02*
X0208674Y0174645D01*
X0208674Y0175243D02*
X0210974Y0175243D01*
X0210974Y0175842D02*
X0208674Y0175842D01*
X0208674Y0176440D02*
X0210974Y0176440D01*
X0210974Y0177039D02*
X0208674Y0177039D01*
X0208674Y0177637D02*
X0210974Y0177637D01*
X0210974Y0178236D02*
X0208674Y0178236D01*
X0208674Y0178834D02*
X0210974Y0178834D01*
X0210974Y0179433D02*
X0208674Y0179433D01*
X0208674Y0180031D02*
X0210974Y0180031D01*
X0210974Y0180630D02*
X0208674Y0180630D01*
X0208674Y0181229D02*
X0210974Y0181229D01*
X0210974Y0181827D02*
X0208674Y0181827D01*
X0208674Y0182426D02*
X0210974Y0182426D01*
X0210974Y0183024D02*
X0208674Y0183024D01*
X0208674Y0183623D02*
X0210974Y0183623D01*
X0210974Y0184221D02*
X0208674Y0184221D01*
X0208674Y0184820D02*
X0210974Y0184820D01*
X0210974Y0185418D02*
X0208674Y0185418D01*
X0208674Y0186017D02*
X0210974Y0186017D01*
X0210974Y0186615D02*
X0208674Y0186615D01*
X0208674Y0187214D02*
X0210974Y0187214D01*
X0210974Y0187812D02*
X0208674Y0187812D01*
X0208674Y0188411D02*
X0210974Y0188411D01*
X0210974Y0189009D02*
X0208674Y0189009D01*
X0208674Y0189608D02*
X0210974Y0189608D01*
X0210974Y0190206D02*
X0208674Y0190206D01*
X0208674Y0190805D02*
X0210974Y0190805D01*
X0210974Y0191403D02*
X0208674Y0191403D01*
X0208674Y0192002D02*
X0210974Y0192002D01*
X0210974Y0192600D02*
X0208674Y0192600D01*
X0208674Y0193199D02*
X0210974Y0193199D01*
X0210974Y0193797D02*
X0208674Y0193797D01*
X0208674Y0194396D02*
X0210974Y0194396D01*
X0210974Y0194994D02*
X0208674Y0194994D01*
X0208674Y0195593D02*
X0210974Y0195593D01*
X0210974Y0196191D02*
X0208674Y0196191D01*
X0208674Y0196790D02*
X0210974Y0196790D01*
X0210974Y0197388D02*
X0208674Y0197388D01*
X0208674Y0197987D02*
X0210974Y0197987D01*
X0210974Y0198585D02*
X0208674Y0198585D01*
X0208674Y0199184D02*
X0210974Y0199184D01*
X0210974Y0199782D02*
X0208674Y0199782D01*
X0208674Y0200381D02*
X0210974Y0200381D01*
X0210974Y0200979D02*
X0208674Y0200979D01*
X0208674Y0201578D02*
X0210974Y0201578D01*
X0210974Y0202176D02*
X0208674Y0202176D01*
X0208674Y0202775D02*
X0210974Y0202775D01*
X0210974Y0203373D02*
X0208154Y0203373D01*
X0207555Y0203972D02*
X0210974Y0203972D01*
X0210974Y0204570D02*
X0206957Y0204570D01*
X0206358Y0205169D02*
X0210974Y0205169D01*
X0210974Y0205767D02*
X0205760Y0205767D01*
X0205161Y0206366D02*
X0210974Y0206366D01*
X0210974Y0206964D02*
X0204563Y0206964D01*
X0203964Y0207563D02*
X0210974Y0207563D01*
X0210974Y0208162D02*
X0203366Y0208162D01*
X0202767Y0208760D02*
X0210974Y0208760D01*
X0210974Y0209359D02*
X0202169Y0209359D01*
X0201570Y0209957D02*
X0210974Y0209957D01*
X0210974Y0210556D02*
X0200972Y0210556D01*
X0200373Y0211154D02*
X0210974Y0211154D01*
X0210974Y0211753D02*
X0199775Y0211753D01*
X0199176Y0212351D02*
X0210974Y0212351D01*
X0210974Y0212950D02*
X0198578Y0212950D01*
X0197979Y0213548D02*
X0210974Y0213548D01*
X0210974Y0214147D02*
X0177380Y0214147D01*
X0176782Y0214745D02*
X0210974Y0214745D01*
X0210974Y0215344D02*
X0184032Y0215344D01*
X0183924Y0215289D02*
X0184527Y0215596D01*
X0185075Y0215994D01*
X0185553Y0216472D01*
X0185951Y0217020D01*
X0186259Y0217623D01*
X0186468Y0218267D01*
X0186574Y0218935D01*
X0186574Y0221974D01*
X0182574Y0221974D01*
X0182574Y0222574D01*
X0181974Y0222574D01*
X0181974Y0229574D01*
X0181935Y0229574D01*
X0181267Y0229468D01*
X0180623Y0229259D01*
X0180020Y0228951D01*
X0179472Y0228553D01*
X0178994Y0228075D01*
X0178596Y0227527D01*
X0178289Y0226924D01*
X0178080Y0226281D01*
X0177974Y0225612D01*
X0177974Y0222574D01*
X0181974Y0222574D01*
X0181974Y0221974D01*
X0177974Y0221974D01*
X0177974Y0218935D01*
X0176174Y0218935D01*
X0176174Y0219533D02*
X0177974Y0219533D01*
X0177974Y0218935D02*
X0178080Y0218267D01*
X0178289Y0217623D01*
X0178596Y0217020D01*
X0178994Y0216472D01*
X0179472Y0215994D01*
X0180020Y0215596D01*
X0180623Y0215289D01*
X0181267Y0215080D01*
X0181935Y0214974D01*
X0181974Y0214974D01*
X0181974Y0221974D01*
X0182574Y0221974D01*
X0182574Y0214974D01*
X0182612Y0214974D01*
X0183281Y0215080D01*
X0183924Y0215289D01*
X0185004Y0215942D02*
X0210974Y0215942D01*
X0210974Y0216541D02*
X0185603Y0216541D01*
X0186012Y0217139D02*
X0210974Y0217139D01*
X0210974Y0217738D02*
X0186296Y0217738D01*
X0186479Y0218336D02*
X0210974Y0218336D01*
X0210974Y0218935D02*
X0186574Y0218935D01*
X0186574Y0219533D02*
X0210974Y0219533D01*
X0210974Y0220132D02*
X0186574Y0220132D01*
X0186574Y0220730D02*
X0210974Y0220730D01*
X0210974Y0221329D02*
X0186574Y0221329D01*
X0186574Y0221927D02*
X0210974Y0221927D01*
X0210974Y0222526D02*
X0182574Y0222526D01*
X0182574Y0222574D02*
X0186574Y0222574D01*
X0186574Y0225612D01*
X0186468Y0226281D01*
X0186259Y0226924D01*
X0185951Y0227527D01*
X0185553Y0228075D01*
X0185075Y0228553D01*
X0184527Y0228951D01*
X0183924Y0229259D01*
X0183281Y0229468D01*
X0182612Y0229574D01*
X0182574Y0229574D01*
X0182574Y0222574D01*
X0182574Y0223124D02*
X0181974Y0223124D01*
X0181974Y0222526D02*
X0176174Y0222526D01*
X0176174Y0223124D02*
X0177974Y0223124D01*
X0177974Y0223723D02*
X0176174Y0223723D01*
X0176174Y0224321D02*
X0177974Y0224321D01*
X0177974Y0224920D02*
X0176174Y0224920D01*
X0176174Y0225518D02*
X0177974Y0225518D01*
X0178054Y0226117D02*
X0176146Y0226117D01*
X0175898Y0226715D02*
X0178221Y0226715D01*
X0178487Y0227314D02*
X0175650Y0227314D01*
X0175150Y0227912D02*
X0178876Y0227912D01*
X0179430Y0228511D02*
X0174552Y0228511D01*
X0173204Y0229109D02*
X0180330Y0229109D01*
X0181974Y0229109D02*
X0182574Y0229109D01*
X0182574Y0228511D02*
X0181974Y0228511D01*
X0181974Y0227912D02*
X0182574Y0227912D01*
X0182574Y0227314D02*
X0181974Y0227314D01*
X0181974Y0226715D02*
X0182574Y0226715D01*
X0182574Y0226117D02*
X0181974Y0226117D01*
X0181974Y0225518D02*
X0182574Y0225518D01*
X0182574Y0224920D02*
X0181974Y0224920D01*
X0181974Y0224321D02*
X0182574Y0224321D01*
X0182574Y0223723D02*
X0181974Y0223723D01*
X0181974Y0221927D02*
X0182574Y0221927D01*
X0182574Y0221329D02*
X0181974Y0221329D01*
X0181974Y0220730D02*
X0182574Y0220730D01*
X0182574Y0220132D02*
X0181974Y0220132D01*
X0181974Y0219533D02*
X0182574Y0219533D01*
X0182574Y0218935D02*
X0181974Y0218935D01*
X0181974Y0218336D02*
X0182574Y0218336D01*
X0182574Y0217738D02*
X0181974Y0217738D01*
X0181974Y0217139D02*
X0182574Y0217139D01*
X0182574Y0216541D02*
X0181974Y0216541D01*
X0181974Y0215942D02*
X0182574Y0215942D01*
X0182574Y0215344D02*
X0181974Y0215344D01*
X0180515Y0215344D02*
X0176183Y0215344D01*
X0175585Y0215942D02*
X0179543Y0215942D01*
X0178944Y0216541D02*
X0175056Y0216541D01*
X0175611Y0217139D02*
X0178535Y0217139D01*
X0178251Y0217738D02*
X0175859Y0217738D01*
X0176107Y0218336D02*
X0178068Y0218336D01*
X0177974Y0220132D02*
X0176174Y0220132D01*
X0176174Y0220730D02*
X0177974Y0220730D01*
X0177974Y0221329D02*
X0176174Y0221329D01*
X0176174Y0221927D02*
X0177974Y0221927D01*
X0172224Y0215344D02*
X0043674Y0215344D01*
X0043674Y0214745D02*
X0172822Y0214745D01*
X0173421Y0214147D02*
X0043674Y0214147D01*
X0043674Y0213548D02*
X0174019Y0213548D01*
X0174618Y0212950D02*
X0043674Y0212950D01*
X0043674Y0212351D02*
X0175216Y0212351D01*
X0175815Y0211753D02*
X0043674Y0211753D01*
X0040874Y0211753D02*
X0003574Y0211753D01*
X0003574Y0212351D02*
X0040874Y0212351D01*
X0040874Y0212950D02*
X0003574Y0212950D01*
X0003574Y0213548D02*
X0040874Y0213548D01*
X0040874Y0214147D02*
X0003574Y0214147D01*
X0003574Y0214745D02*
X0040874Y0214745D01*
X0040874Y0215344D02*
X0034032Y0215344D01*
X0033924Y0215289D02*
X0034527Y0215596D01*
X0035075Y0215994D01*
X0035553Y0216472D01*
X0035951Y0217020D01*
X0036259Y0217623D01*
X0036468Y0218267D01*
X0036574Y0218935D01*
X0036574Y0221974D01*
X0032574Y0221974D01*
X0032574Y0222574D01*
X0036574Y0222574D01*
X0036574Y0225612D01*
X0036468Y0226281D01*
X0036259Y0226924D01*
X0035951Y0227527D01*
X0035553Y0228075D01*
X0035075Y0228553D01*
X0034527Y0228951D01*
X0033924Y0229259D01*
X0033281Y0229468D01*
X0032612Y0229574D01*
X0032574Y0229574D01*
X0032574Y0222574D01*
X0031974Y0222574D01*
X0031974Y0229574D01*
X0031935Y0229574D01*
X0031267Y0229468D01*
X0030623Y0229259D01*
X0030020Y0228951D01*
X0029472Y0228553D01*
X0028994Y0228075D01*
X0028596Y0227527D01*
X0028289Y0226924D01*
X0028080Y0226281D01*
X0027974Y0225612D01*
X0027974Y0222574D01*
X0031974Y0222574D01*
X0031974Y0221974D01*
X0032574Y0221974D01*
X0032574Y0214974D01*
X0032612Y0214974D01*
X0033281Y0215080D01*
X0033924Y0215289D01*
X0035004Y0215942D02*
X0040125Y0215942D01*
X0039491Y0216541D02*
X0035603Y0216541D01*
X0036012Y0217139D02*
X0038936Y0217139D01*
X0038688Y0217738D02*
X0036296Y0217738D01*
X0036479Y0218336D02*
X0038441Y0218336D01*
X0038374Y0218935D02*
X0036574Y0218935D01*
X0036574Y0219533D02*
X0038374Y0219533D01*
X0038374Y0220132D02*
X0036574Y0220132D01*
X0036574Y0220730D02*
X0038374Y0220730D01*
X0038374Y0221329D02*
X0036574Y0221329D01*
X0036574Y0221927D02*
X0038374Y0221927D01*
X0038374Y0222526D02*
X0032574Y0222526D01*
X0032574Y0223124D02*
X0031974Y0223124D01*
X0031974Y0222526D02*
X0003574Y0222526D01*
X0003574Y0223124D02*
X0027974Y0223124D01*
X0027974Y0223723D02*
X0003574Y0223723D01*
X0003574Y0224321D02*
X0027974Y0224321D01*
X0027974Y0224920D02*
X0014892Y0224920D01*
X0013824Y0224478D02*
X0016690Y0225664D01*
X0018883Y0227858D01*
X0020070Y0230723D01*
X0020070Y0233824D01*
X0018883Y0236690D01*
X0016690Y0238883D01*
X0013824Y0240070D01*
X0010723Y0240070D01*
X0007858Y0238883D01*
X0005664Y0236690D01*
X0004478Y0233824D01*
X0004478Y0230723D01*
X0005664Y0227858D01*
X0007858Y0225664D01*
X0010723Y0224478D01*
X0013824Y0224478D01*
X0016337Y0225518D02*
X0027974Y0225518D01*
X0028054Y0226117D02*
X0017142Y0226117D01*
X0017741Y0226715D02*
X0028221Y0226715D01*
X0028487Y0227314D02*
X0018339Y0227314D01*
X0018906Y0227912D02*
X0028876Y0227912D01*
X0029430Y0228511D02*
X0019153Y0228511D01*
X0019401Y0229109D02*
X0030330Y0229109D01*
X0031974Y0229109D02*
X0032574Y0229109D01*
X0032574Y0228511D02*
X0031974Y0228511D01*
X0031974Y0227912D02*
X0032574Y0227912D01*
X0032574Y0227314D02*
X0031974Y0227314D01*
X0031974Y0226715D02*
X0032574Y0226715D01*
X0032574Y0226117D02*
X0031974Y0226117D01*
X0031974Y0225518D02*
X0032574Y0225518D01*
X0032574Y0224920D02*
X0031974Y0224920D01*
X0031974Y0224321D02*
X0032574Y0224321D01*
X0032574Y0223723D02*
X0031974Y0223723D01*
X0031974Y0221974D02*
X0027974Y0221974D01*
X0027974Y0218935D01*
X0003574Y0218935D01*
X0003574Y0219533D02*
X0027974Y0219533D01*
X0027974Y0218935D02*
X0028080Y0218267D01*
X0028289Y0217623D01*
X0028596Y0217020D01*
X0028994Y0216472D01*
X0029472Y0215994D01*
X0030020Y0215596D01*
X0030623Y0215289D01*
X0031267Y0215080D01*
X0031935Y0214974D01*
X0031974Y0214974D01*
X0031974Y0221974D01*
X0031974Y0221927D02*
X0032574Y0221927D01*
X0032574Y0221329D02*
X0031974Y0221329D01*
X0031974Y0220730D02*
X0032574Y0220730D01*
X0032574Y0220132D02*
X0031974Y0220132D01*
X0031974Y0219533D02*
X0032574Y0219533D01*
X0032574Y0218935D02*
X0031974Y0218935D01*
X0031974Y0218336D02*
X0032574Y0218336D01*
X0032574Y0217738D02*
X0031974Y0217738D01*
X0031974Y0217139D02*
X0032574Y0217139D01*
X0032574Y0216541D02*
X0031974Y0216541D01*
X0031974Y0215942D02*
X0032574Y0215942D01*
X0032574Y0215344D02*
X0031974Y0215344D01*
X0030515Y0215344D02*
X0003574Y0215344D01*
X0003574Y0215942D02*
X0029543Y0215942D01*
X0028944Y0216541D02*
X0003574Y0216541D01*
X0003574Y0217139D02*
X0028535Y0217139D01*
X0028251Y0217738D02*
X0003574Y0217738D01*
X0003574Y0218336D02*
X0028068Y0218336D01*
X0027974Y0220132D02*
X0003574Y0220132D01*
X0003574Y0220730D02*
X0027974Y0220730D01*
X0027974Y0221329D02*
X0003574Y0221329D01*
X0003574Y0221927D02*
X0027974Y0221927D01*
X0034217Y0229109D02*
X0041343Y0229109D01*
X0039995Y0228511D02*
X0035117Y0228511D01*
X0035672Y0227912D02*
X0039397Y0227912D01*
X0038897Y0227314D02*
X0036060Y0227314D01*
X0036326Y0226715D02*
X0038649Y0226715D01*
X0038402Y0226117D02*
X0036494Y0226117D01*
X0036574Y0225518D02*
X0038374Y0225518D01*
X0038374Y0224920D02*
X0036574Y0224920D01*
X0036574Y0224321D02*
X0038374Y0224321D01*
X0038374Y0223723D02*
X0036574Y0223723D01*
X0036574Y0223124D02*
X0038374Y0223124D01*
X0043204Y0229109D02*
X0171343Y0229109D01*
X0169995Y0228511D02*
X0044552Y0228511D01*
X0045150Y0227912D02*
X0169397Y0227912D01*
X0168897Y0227314D02*
X0045650Y0227314D01*
X0045898Y0226715D02*
X0168649Y0226715D01*
X0168402Y0226117D02*
X0046146Y0226117D01*
X0046174Y0225518D02*
X0168374Y0225518D01*
X0168374Y0224920D02*
X0046174Y0224920D01*
X0046174Y0224321D02*
X0168374Y0224321D01*
X0168374Y0223723D02*
X0046174Y0223723D01*
X0046174Y0223124D02*
X0168374Y0223124D01*
X0168374Y0222526D02*
X0046174Y0222526D01*
X0046174Y0221927D02*
X0168374Y0221927D01*
X0168374Y0221329D02*
X0046174Y0221329D01*
X0046174Y0220730D02*
X0168374Y0220730D01*
X0168374Y0220132D02*
X0046174Y0220132D01*
X0046174Y0219533D02*
X0168374Y0219533D01*
X0168374Y0218935D02*
X0046174Y0218935D01*
X0046107Y0218336D02*
X0168441Y0218336D01*
X0168688Y0217738D02*
X0045859Y0217738D01*
X0045611Y0217139D02*
X0168936Y0217139D01*
X0169491Y0216541D02*
X0045056Y0216541D01*
X0044422Y0215942D02*
X0170125Y0215942D01*
X0177174Y0202775D02*
X0177374Y0202775D01*
X0177374Y0202176D02*
X0177174Y0202176D01*
X0177174Y0201578D02*
X0177374Y0201578D01*
X0177506Y0200979D02*
X0177041Y0200979D01*
X0176793Y0200381D02*
X0177754Y0200381D01*
X0178002Y0199782D02*
X0176545Y0199782D01*
X0176113Y0199184D02*
X0178434Y0199184D01*
X0179032Y0198585D02*
X0175515Y0198585D01*
X0174729Y0197987D02*
X0179819Y0197987D01*
X0180372Y0196790D02*
X0174175Y0196790D01*
X0173284Y0197388D02*
X0181263Y0197388D01*
X0179262Y0196191D02*
X0175286Y0196191D01*
X0175884Y0195593D02*
X0178663Y0195593D01*
X0178097Y0194994D02*
X0176450Y0194994D01*
X0176698Y0194396D02*
X0177849Y0194396D01*
X0177601Y0193797D02*
X0176946Y0193797D01*
X0177174Y0193199D02*
X0177374Y0193199D01*
X0177374Y0192600D02*
X0177174Y0192600D01*
X0177174Y0192002D02*
X0177374Y0192002D01*
X0177374Y0191403D02*
X0177174Y0191403D01*
X0176969Y0190805D02*
X0177578Y0190805D01*
X0177826Y0190206D02*
X0176721Y0190206D01*
X0176778Y0189608D02*
X0178074Y0189608D01*
X0178608Y0189009D02*
X0177377Y0189009D01*
X0186523Y0184820D02*
X0186639Y0184820D01*
X0186771Y0184221D02*
X0187238Y0184221D01*
X0187019Y0183623D02*
X0187836Y0183623D01*
X0188432Y0183024D02*
X0187174Y0183024D01*
X0187174Y0182426D02*
X0188343Y0182426D01*
X0188343Y0181827D02*
X0187174Y0181827D01*
X0187144Y0181229D02*
X0188555Y0181229D01*
X0188876Y0180630D02*
X0186897Y0180630D01*
X0186649Y0180031D02*
X0189474Y0180031D01*
X0185670Y0177039D02*
X0183573Y0177039D01*
X0183885Y0177637D02*
X0185071Y0177637D01*
X0185018Y0176440D02*
X0185974Y0176440D01*
X0185974Y0175842D02*
X0185635Y0175842D01*
X0185839Y0148909D02*
X0185974Y0148909D01*
X0185974Y0148310D02*
X0185240Y0148310D01*
X0184641Y0147712D02*
X0185974Y0147712D01*
X0208674Y0133946D02*
X0210974Y0133946D01*
X0210974Y0133348D02*
X0208674Y0133348D01*
X0208674Y0132749D02*
X0210974Y0132749D01*
X0210974Y0132151D02*
X0208674Y0132151D01*
X0208674Y0131552D02*
X0210974Y0131552D01*
X0210974Y0130954D02*
X0208674Y0130954D01*
X0208674Y0130355D02*
X0210974Y0130355D01*
X0210974Y0129757D02*
X0208674Y0129757D01*
X0208674Y0129158D02*
X0210974Y0129158D01*
X0210974Y0128560D02*
X0208674Y0128560D01*
X0208674Y0127961D02*
X0210974Y0127961D01*
X0210974Y0127362D02*
X0208674Y0127362D01*
X0208674Y0126764D02*
X0210974Y0126764D01*
X0210974Y0126165D02*
X0208674Y0126165D01*
X0208674Y0125567D02*
X0210974Y0125567D01*
X0210974Y0124968D02*
X0208674Y0124968D01*
X0208674Y0124370D02*
X0210974Y0124370D01*
X0210974Y0123771D02*
X0208674Y0123771D01*
X0208674Y0123173D02*
X0210974Y0123173D01*
X0210974Y0122574D02*
X0208674Y0122574D01*
X0208674Y0121976D02*
X0210974Y0121976D01*
X0210974Y0121377D02*
X0208674Y0121377D01*
X0208674Y0120779D02*
X0210974Y0120779D01*
X0210974Y0120180D02*
X0208674Y0120180D01*
X0208674Y0119582D02*
X0210974Y0119582D01*
X0210974Y0118983D02*
X0208674Y0118983D01*
X0208674Y0118385D02*
X0210974Y0118385D01*
X0210974Y0117786D02*
X0208674Y0117786D01*
X0208674Y0117188D02*
X0210974Y0117188D01*
X0210974Y0116589D02*
X0208674Y0116589D01*
X0208674Y0115991D02*
X0210974Y0115991D01*
X0210974Y0115392D02*
X0208674Y0115392D01*
X0208674Y0114794D02*
X0210974Y0114794D01*
X0210974Y0114195D02*
X0208674Y0114195D01*
X0208674Y0113597D02*
X0210974Y0113597D01*
X0210974Y0112998D02*
X0208674Y0112998D01*
X0208674Y0112400D02*
X0210974Y0112400D01*
X0210974Y0111801D02*
X0208674Y0111801D01*
X0208674Y0111203D02*
X0210974Y0111203D01*
X0210974Y0110604D02*
X0208674Y0110604D01*
X0208674Y0110006D02*
X0210974Y0110006D01*
X0210974Y0109407D02*
X0208674Y0109407D01*
X0208674Y0108809D02*
X0210974Y0108809D01*
X0210974Y0108210D02*
X0208674Y0108210D01*
X0208674Y0107612D02*
X0210974Y0107612D01*
X0210974Y0107013D02*
X0208674Y0107013D01*
X0208674Y0106415D02*
X0210974Y0106415D01*
X0210974Y0105816D02*
X0208674Y0105816D01*
X0208674Y0105218D02*
X0210974Y0105218D01*
X0210974Y0104619D02*
X0208674Y0104619D01*
X0208674Y0104021D02*
X0210974Y0104021D01*
X0210974Y0103422D02*
X0208674Y0103422D01*
X0208674Y0102824D02*
X0210974Y0102824D01*
X0210974Y0102225D02*
X0208674Y0102225D01*
X0208606Y0101627D02*
X0210974Y0101627D01*
X0210974Y0101028D02*
X0208008Y0101028D01*
X0207409Y0100429D02*
X0210974Y0100429D01*
X0210974Y0099831D02*
X0206811Y0099831D01*
X0206212Y0099232D02*
X0210974Y0099232D01*
X0210974Y0098634D02*
X0205614Y0098634D01*
X0205015Y0098035D02*
X0210974Y0098035D01*
X0210974Y0097437D02*
X0204417Y0097437D01*
X0203818Y0096838D02*
X0210974Y0096838D01*
X0210974Y0096240D02*
X0203220Y0096240D01*
X0202621Y0095641D02*
X0210974Y0095641D01*
X0210974Y0095043D02*
X0202023Y0095043D01*
X0201424Y0094444D02*
X0210974Y0094444D01*
X0210974Y0093846D02*
X0200826Y0093846D01*
X0200227Y0093247D02*
X0210974Y0093247D01*
X0210974Y0092649D02*
X0199629Y0092649D01*
X0199030Y0092050D02*
X0210974Y0092050D01*
X0210974Y0091452D02*
X0198432Y0091452D01*
X0197182Y0104021D02*
X0195859Y0104021D01*
X0131227Y0029805D02*
X0123320Y0029805D01*
X0124195Y0030404D02*
X0130352Y0030404D01*
X0129898Y0031002D02*
X0124649Y0031002D01*
X0124897Y0031601D02*
X0129650Y0031601D01*
X0129593Y0032199D02*
X0124955Y0032199D01*
X0124955Y0032798D02*
X0129593Y0032798D01*
X0129313Y0033396D02*
X0124711Y0033396D01*
X0124344Y0033995D02*
X0128714Y0033995D01*
X0128116Y0034593D02*
X0123680Y0034593D01*
X0121532Y0041177D02*
X0093157Y0041177D01*
X0093755Y0041775D02*
X0120933Y0041775D01*
X0120335Y0042374D02*
X0094354Y0042374D01*
X0094952Y0042972D02*
X0119736Y0042972D01*
X0119138Y0043571D02*
X0095551Y0043571D01*
X0096149Y0044169D02*
X0118539Y0044169D01*
X0117941Y0044768D02*
X0096748Y0044768D01*
X0097346Y0045366D02*
X0117342Y0045366D01*
X0116744Y0045965D02*
X0097945Y0045965D01*
X0098543Y0046563D02*
X0116145Y0046563D01*
X0115974Y0047162D02*
X0099142Y0047162D01*
X0099740Y0047760D02*
X0115974Y0047760D01*
X0115974Y0048359D02*
X0100339Y0048359D01*
X0100937Y0048958D02*
X0115974Y0048958D01*
X0115974Y0049556D02*
X0101536Y0049556D01*
X0102134Y0050155D02*
X0115601Y0050155D01*
X0115003Y0050753D02*
X0102733Y0050753D01*
X0103331Y0051352D02*
X0114754Y0051352D01*
X0114593Y0051950D02*
X0103930Y0051950D01*
X0104528Y0052549D02*
X0114593Y0052549D01*
X0114733Y0053147D02*
X0105127Y0053147D01*
X0105725Y0053746D02*
X0114981Y0053746D01*
X0115552Y0054344D02*
X0106324Y0054344D01*
X0120266Y0089058D02*
X0058474Y0089058D01*
X0058474Y0089656D02*
X0121020Y0089656D01*
X0123558Y0090255D02*
X0058474Y0090255D01*
X0058474Y0090853D02*
X0124156Y0090853D01*
X0124755Y0091452D02*
X0058474Y0091452D01*
X0058474Y0092050D02*
X0125353Y0092050D01*
X0125952Y0092649D02*
X0058474Y0092649D01*
X0058474Y0093247D02*
X0126550Y0093247D01*
X0127149Y0093846D02*
X0058474Y0093846D01*
X0058474Y0094444D02*
X0127747Y0094444D01*
X0128346Y0095043D02*
X0058474Y0095043D01*
X0058474Y0095641D02*
X0128944Y0095641D01*
X0129543Y0096240D02*
X0058474Y0096240D01*
X0058818Y0096838D02*
X0130141Y0096838D01*
X0130470Y0118385D02*
X0110365Y0118385D01*
X0110963Y0118983D02*
X0130340Y0118983D01*
X0130340Y0119582D02*
X0111562Y0119582D01*
X0111725Y0120180D02*
X0130340Y0120180D01*
X0130340Y0120779D02*
X0111725Y0120779D01*
X0111725Y0121377D02*
X0130340Y0121377D01*
X0130340Y0121976D02*
X0111725Y0121976D01*
X0111725Y0122574D02*
X0130340Y0122574D01*
X0130340Y0123173D02*
X0111725Y0123173D01*
X0111725Y0123771D02*
X0130340Y0123771D01*
X0117489Y0127961D02*
X0111725Y0127961D01*
X0111725Y0128560D02*
X0117503Y0128560D01*
X0116208Y0129158D02*
X0111725Y0129158D01*
X0108362Y0133946D02*
X0108350Y0133946D01*
X0085974Y0131552D02*
X0085891Y0131552D01*
X0085974Y0130954D02*
X0085292Y0130954D01*
X0084694Y0130355D02*
X0085974Y0130355D01*
X0085974Y0129757D02*
X0084095Y0129757D01*
X0083496Y0129158D02*
X0085974Y0129158D01*
X0085974Y0128560D02*
X0082898Y0128560D01*
X0082299Y0127961D02*
X0085974Y0127961D01*
X0085974Y0127362D02*
X0081701Y0127362D01*
X0081102Y0126764D02*
X0085974Y0126764D01*
X0085974Y0126165D02*
X0080504Y0126165D01*
X0079905Y0125567D02*
X0085974Y0125567D01*
X0085974Y0124968D02*
X0079307Y0124968D01*
X0078708Y0124370D02*
X0085974Y0124370D01*
X0085974Y0123771D02*
X0078110Y0123771D01*
X0077511Y0123173D02*
X0085974Y0123173D01*
X0085974Y0122574D02*
X0083666Y0122574D01*
X0083666Y0122607D02*
X0083139Y0123134D01*
X0079637Y0123134D01*
X0079110Y0122607D01*
X0079110Y0119302D01*
X0079637Y0118775D01*
X0083139Y0118775D01*
X0083666Y0119302D01*
X0083666Y0122607D01*
X0083666Y0121976D02*
X0085974Y0121976D01*
X0085974Y0121377D02*
X0083666Y0121377D01*
X0083666Y0120779D02*
X0085974Y0120779D01*
X0085974Y0120180D02*
X0083666Y0120180D01*
X0083666Y0119582D02*
X0085974Y0119582D01*
X0085974Y0118983D02*
X0083347Y0118983D01*
X0085349Y0117188D02*
X0064026Y0117188D01*
X0064625Y0117786D02*
X0085948Y0117786D01*
X0085974Y0118385D02*
X0065223Y0118385D01*
X0064659Y0116589D02*
X0069888Y0116589D01*
X0069061Y0115991D02*
X0065486Y0115991D01*
X0066085Y0115392D02*
X0068463Y0115392D01*
X0068014Y0114794D02*
X0066533Y0114794D01*
X0066781Y0114195D02*
X0067766Y0114195D01*
X0067518Y0113597D02*
X0067029Y0113597D01*
X0067174Y0112998D02*
X0067374Y0112998D01*
X0067374Y0112400D02*
X0067174Y0112400D01*
X0067174Y0111801D02*
X0067374Y0111801D01*
X0067413Y0111203D02*
X0067134Y0111203D01*
X0066886Y0110604D02*
X0067661Y0110604D01*
X0067909Y0110006D02*
X0066638Y0110006D01*
X0066337Y0109407D02*
X0068210Y0109407D01*
X0068809Y0108809D02*
X0065738Y0108809D01*
X0065140Y0108210D02*
X0069407Y0108210D01*
X0070724Y0107612D02*
X0063823Y0107612D01*
X0060724Y0107612D02*
X0053823Y0107612D01*
X0055140Y0108210D02*
X0059407Y0108210D01*
X0058809Y0108809D02*
X0055738Y0108809D01*
X0056337Y0109407D02*
X0058210Y0109407D01*
X0057909Y0110006D02*
X0056638Y0110006D01*
X0056886Y0110604D02*
X0057661Y0110604D01*
X0057413Y0111203D02*
X0057134Y0111203D01*
X0057174Y0111801D02*
X0057374Y0111801D01*
X0057374Y0112400D02*
X0057174Y0112400D01*
X0057174Y0112998D02*
X0057374Y0112998D01*
X0057518Y0113597D02*
X0057029Y0113597D01*
X0056781Y0114195D02*
X0057766Y0114195D01*
X0058014Y0114794D02*
X0056632Y0114794D01*
X0057231Y0115392D02*
X0058463Y0115392D01*
X0059061Y0115991D02*
X0057829Y0115991D01*
X0058428Y0116589D02*
X0059888Y0116589D01*
X0059026Y0117188D02*
X0060974Y0117188D01*
X0060974Y0117786D02*
X0059625Y0117786D01*
X0060223Y0118385D02*
X0061546Y0118385D01*
X0062145Y0118983D02*
X0060822Y0118983D01*
X0061420Y0119582D02*
X0062743Y0119582D01*
X0063342Y0120180D02*
X0062019Y0120180D01*
X0062617Y0120779D02*
X0063940Y0120779D01*
X0061334Y0123173D02*
X0018213Y0123173D01*
X0018811Y0122574D02*
X0060736Y0122574D01*
X0060137Y0121976D02*
X0019410Y0121976D01*
X0020008Y0121377D02*
X0059539Y0121377D01*
X0058940Y0120779D02*
X0035607Y0120779D01*
X0036205Y0120180D02*
X0058342Y0120180D01*
X0057743Y0119582D02*
X0036804Y0119582D01*
X0037402Y0118983D02*
X0057145Y0118983D01*
X0056546Y0118385D02*
X0038001Y0118385D01*
X0038599Y0117786D02*
X0055948Y0117786D01*
X0055349Y0117188D02*
X0039198Y0117188D01*
X0039796Y0116589D02*
X0039888Y0116589D01*
X0037915Y0114794D02*
X0036533Y0114794D01*
X0036781Y0114195D02*
X0037766Y0114195D01*
X0037518Y0113597D02*
X0037029Y0113597D01*
X0037174Y0112998D02*
X0037374Y0112998D01*
X0037374Y0112400D02*
X0037174Y0112400D01*
X0037174Y0111801D02*
X0037374Y0111801D01*
X0037413Y0111203D02*
X0037134Y0111203D01*
X0036886Y0110604D02*
X0037661Y0110604D01*
X0037909Y0110006D02*
X0036638Y0110006D01*
X0036337Y0109407D02*
X0038210Y0109407D01*
X0038809Y0108809D02*
X0035738Y0108809D01*
X0035140Y0108210D02*
X0039407Y0108210D01*
X0040724Y0107612D02*
X0033823Y0107612D01*
X0030724Y0107612D02*
X0023823Y0107612D01*
X0025140Y0108210D02*
X0029407Y0108210D01*
X0028809Y0108809D02*
X0025738Y0108809D01*
X0026337Y0109407D02*
X0028210Y0109407D01*
X0027909Y0110006D02*
X0026638Y0110006D01*
X0026886Y0110604D02*
X0027661Y0110604D01*
X0027413Y0111203D02*
X0027134Y0111203D01*
X0027174Y0111801D02*
X0027374Y0111801D01*
X0027374Y0112400D02*
X0027174Y0112400D01*
X0027174Y0112998D02*
X0027374Y0112998D01*
X0027518Y0113597D02*
X0027029Y0113597D01*
X0026781Y0114195D02*
X0027766Y0114195D01*
X0027915Y0114794D02*
X0026533Y0114794D01*
X0026085Y0115392D02*
X0027316Y0115392D01*
X0029198Y0117188D02*
X0035521Y0117188D01*
X0034922Y0117786D02*
X0028599Y0117786D01*
X0028001Y0118385D02*
X0034324Y0118385D01*
X0034659Y0116589D02*
X0036119Y0116589D01*
X0036718Y0115991D02*
X0035486Y0115991D01*
X0036085Y0115392D02*
X0037316Y0115392D01*
X0044659Y0116589D02*
X0049888Y0116589D01*
X0049061Y0115991D02*
X0045486Y0115991D01*
X0046085Y0115392D02*
X0048463Y0115392D01*
X0048014Y0114794D02*
X0046533Y0114794D01*
X0046781Y0114195D02*
X0047766Y0114195D01*
X0047518Y0113597D02*
X0047029Y0113597D01*
X0047174Y0112998D02*
X0047374Y0112998D01*
X0047374Y0112400D02*
X0047174Y0112400D01*
X0047174Y0111801D02*
X0047374Y0111801D01*
X0047413Y0111203D02*
X0047134Y0111203D01*
X0046886Y0110604D02*
X0047661Y0110604D01*
X0047909Y0110006D02*
X0046638Y0110006D01*
X0046337Y0109407D02*
X0048210Y0109407D01*
X0048809Y0108809D02*
X0045738Y0108809D01*
X0045140Y0108210D02*
X0049407Y0108210D01*
X0050724Y0107612D02*
X0043823Y0107612D01*
X0054659Y0116589D02*
X0054751Y0116589D01*
X0053248Y0127374D02*
X0051299Y0127374D01*
X0049498Y0128120D01*
X0048120Y0129498D01*
X0047374Y0131299D01*
X0047374Y0133248D01*
X0048120Y0135049D01*
X0049498Y0136428D01*
X0051299Y0137174D01*
X0053248Y0137174D01*
X0055049Y0136428D01*
X0056428Y0135049D01*
X0057174Y0133248D01*
X0057174Y0131299D01*
X0056428Y0129498D01*
X0055049Y0128120D01*
X0053248Y0127374D01*
X0054666Y0127961D02*
X0059881Y0127961D01*
X0059498Y0128120D02*
X0061299Y0127374D01*
X0063248Y0127374D01*
X0065049Y0128120D01*
X0066428Y0129498D01*
X0067174Y0131299D01*
X0067174Y0133248D01*
X0066428Y0135049D01*
X0065049Y0136428D01*
X0063248Y0137174D01*
X0061299Y0137174D01*
X0059498Y0136428D01*
X0058120Y0135049D01*
X0057374Y0133248D01*
X0057374Y0131299D01*
X0058120Y0129498D01*
X0059498Y0128120D01*
X0059058Y0128560D02*
X0055489Y0128560D01*
X0056088Y0129158D02*
X0058460Y0129158D01*
X0058012Y0129757D02*
X0056535Y0129757D01*
X0056783Y0130355D02*
X0057765Y0130355D01*
X0057517Y0130954D02*
X0057031Y0130954D01*
X0057174Y0131552D02*
X0057374Y0131552D01*
X0057374Y0132151D02*
X0057174Y0132151D01*
X0057174Y0132749D02*
X0057374Y0132749D01*
X0057415Y0133348D02*
X0057132Y0133348D01*
X0056885Y0133946D02*
X0057663Y0133946D01*
X0057911Y0134545D02*
X0056637Y0134545D01*
X0056334Y0135143D02*
X0058213Y0135143D01*
X0058812Y0135742D02*
X0055735Y0135742D01*
X0055137Y0136340D02*
X0059411Y0136340D01*
X0060732Y0136939D02*
X0053815Y0136939D01*
X0050732Y0136939D02*
X0043815Y0136939D01*
X0043248Y0137174D02*
X0041299Y0137174D01*
X0039498Y0136428D01*
X0038120Y0135049D01*
X0037374Y0133248D01*
X0037374Y0131299D01*
X0038120Y0129498D01*
X0039498Y0128120D01*
X0041299Y0127374D01*
X0043248Y0127374D01*
X0045049Y0128120D01*
X0046428Y0129498D01*
X0047174Y0131299D01*
X0047174Y0133248D01*
X0046428Y0135049D01*
X0045049Y0136428D01*
X0043248Y0137174D01*
X0045137Y0136340D02*
X0049411Y0136340D01*
X0048812Y0135742D02*
X0045735Y0135742D01*
X0046334Y0135143D02*
X0048213Y0135143D01*
X0047911Y0134545D02*
X0046637Y0134545D01*
X0046885Y0133946D02*
X0047663Y0133946D01*
X0047415Y0133348D02*
X0047132Y0133348D01*
X0047174Y0132749D02*
X0047374Y0132749D01*
X0047374Y0132151D02*
X0047174Y0132151D01*
X0047174Y0131552D02*
X0047374Y0131552D01*
X0047517Y0130954D02*
X0047031Y0130954D01*
X0046783Y0130355D02*
X0047765Y0130355D01*
X0048012Y0129757D02*
X0046535Y0129757D01*
X0046088Y0129158D02*
X0048460Y0129158D01*
X0049058Y0128560D02*
X0045489Y0128560D01*
X0044666Y0127961D02*
X0049881Y0127961D01*
X0039881Y0127961D02*
X0034666Y0127961D01*
X0035049Y0128120D02*
X0036428Y0129498D01*
X0037174Y0131299D01*
X0037174Y0133248D01*
X0036428Y0135049D01*
X0035049Y0136428D01*
X0033248Y0137174D01*
X0031299Y0137174D01*
X0029498Y0136428D01*
X0028120Y0135049D01*
X0027454Y0133443D01*
X0027443Y0133515D01*
X0027185Y0134308D01*
X0026807Y0135051D01*
X0026316Y0135726D01*
X0025726Y0136316D01*
X0025051Y0136807D01*
X0024308Y0137185D01*
X0023515Y0137443D01*
X0022691Y0137574D01*
X0022574Y0137574D01*
X0022574Y0132574D01*
X0021974Y0132574D01*
X0021974Y0137574D01*
X0021856Y0137574D01*
X0021033Y0137443D01*
X0020239Y0137185D01*
X0019496Y0136807D01*
X0018821Y0136316D01*
X0018231Y0135726D01*
X0017741Y0135051D01*
X0017362Y0134308D01*
X0017104Y0133515D01*
X0016974Y0132691D01*
X0016974Y0132574D01*
X0021974Y0132574D01*
X0021974Y0131974D01*
X0016974Y0131974D01*
X0016974Y0131856D01*
X0017104Y0131033D01*
X0017362Y0130239D01*
X0017741Y0129496D01*
X0018231Y0128821D01*
X0018821Y0128231D01*
X0019496Y0127741D01*
X0020239Y0127362D01*
X0021033Y0127104D01*
X0021856Y0126974D01*
X0021974Y0126974D01*
X0021974Y0131974D01*
X0022574Y0131974D01*
X0022574Y0126974D01*
X0022691Y0126974D01*
X0023515Y0127104D01*
X0024308Y0127362D01*
X0025051Y0127741D01*
X0025726Y0128231D01*
X0026316Y0128821D01*
X0026807Y0129496D01*
X0027185Y0130239D01*
X0027443Y0131033D01*
X0027454Y0131104D01*
X0028120Y0129498D01*
X0029498Y0128120D01*
X0031299Y0127374D01*
X0033248Y0127374D01*
X0035049Y0128120D01*
X0035489Y0128560D02*
X0039058Y0128560D01*
X0038460Y0129158D02*
X0036088Y0129158D01*
X0036535Y0129757D02*
X0038013Y0129757D01*
X0037765Y0130355D02*
X0036783Y0130355D01*
X0037031Y0130954D02*
X0037517Y0130954D01*
X0037374Y0131552D02*
X0037174Y0131552D01*
X0037174Y0132151D02*
X0037374Y0132151D01*
X0037374Y0132749D02*
X0037174Y0132749D01*
X0037132Y0133348D02*
X0037415Y0133348D01*
X0037663Y0133946D02*
X0036885Y0133946D01*
X0036637Y0134545D02*
X0037911Y0134545D01*
X0038213Y0135143D02*
X0036334Y0135143D01*
X0035735Y0135742D02*
X0038812Y0135742D01*
X0039411Y0136340D02*
X0035137Y0136340D01*
X0033815Y0136939D02*
X0040732Y0136939D01*
X0030732Y0136939D02*
X0024792Y0136939D01*
X0025693Y0136340D02*
X0029411Y0136340D01*
X0028812Y0135742D02*
X0026301Y0135742D01*
X0026740Y0135143D02*
X0028213Y0135143D01*
X0027911Y0134545D02*
X0027065Y0134545D01*
X0027303Y0133946D02*
X0027663Y0133946D01*
X0027517Y0130954D02*
X0027417Y0130954D01*
X0027223Y0130355D02*
X0027765Y0130355D01*
X0028012Y0129757D02*
X0026939Y0129757D01*
X0026561Y0129158D02*
X0028460Y0129158D01*
X0029058Y0128560D02*
X0026055Y0128560D01*
X0025355Y0127961D02*
X0029881Y0127961D01*
X0024309Y0127362D02*
X0074274Y0127362D01*
X0073676Y0126764D02*
X0014622Y0126764D01*
X0015220Y0126165D02*
X0073077Y0126165D01*
X0072478Y0125567D02*
X0015819Y0125567D01*
X0016417Y0124968D02*
X0071880Y0124968D01*
X0071281Y0124370D02*
X0017016Y0124370D01*
X0017614Y0123771D02*
X0070683Y0123771D01*
X0074519Y0120180D02*
X0079110Y0120180D01*
X0079110Y0119582D02*
X0073920Y0119582D01*
X0073322Y0118983D02*
X0079429Y0118983D01*
X0079110Y0120779D02*
X0075117Y0120779D01*
X0075716Y0121377D02*
X0079110Y0121377D01*
X0079110Y0121976D02*
X0076314Y0121976D01*
X0076913Y0122574D02*
X0079110Y0122574D01*
X0074873Y0127961D02*
X0064666Y0127961D01*
X0065489Y0128560D02*
X0075471Y0128560D01*
X0076070Y0129158D02*
X0066088Y0129158D01*
X0066535Y0129757D02*
X0076668Y0129757D01*
X0077267Y0130355D02*
X0066783Y0130355D01*
X0067031Y0130954D02*
X0077865Y0130954D01*
X0078464Y0131552D02*
X0067174Y0131552D01*
X0067174Y0132151D02*
X0079062Y0132151D01*
X0079661Y0132749D02*
X0067174Y0132749D01*
X0067132Y0133348D02*
X0080259Y0133348D01*
X0080858Y0133946D02*
X0066885Y0133946D01*
X0066637Y0134545D02*
X0080974Y0134545D01*
X0080974Y0135143D02*
X0066334Y0135143D01*
X0065735Y0135742D02*
X0080974Y0135742D01*
X0080974Y0136340D02*
X0065137Y0136340D01*
X0063815Y0136939D02*
X0080974Y0136939D01*
X0080974Y0137537D02*
X0022921Y0137537D01*
X0022574Y0137537D02*
X0021974Y0137537D01*
X0021626Y0137537D02*
X0013574Y0137537D01*
X0013574Y0136939D02*
X0019755Y0136939D01*
X0018854Y0136340D02*
X0013574Y0136340D01*
X0013574Y0135742D02*
X0018246Y0135742D01*
X0017807Y0135143D02*
X0013574Y0135143D01*
X0013574Y0134545D02*
X0017482Y0134545D01*
X0017244Y0133946D02*
X0013574Y0133946D01*
X0013574Y0133348D02*
X0017078Y0133348D01*
X0016983Y0132749D02*
X0013574Y0132749D01*
X0013574Y0132151D02*
X0021974Y0132151D01*
X0021974Y0132749D02*
X0022574Y0132749D01*
X0022574Y0133348D02*
X0021974Y0133348D01*
X0021974Y0133946D02*
X0022574Y0133946D01*
X0022574Y0134545D02*
X0021974Y0134545D01*
X0021974Y0135143D02*
X0022574Y0135143D01*
X0022574Y0135742D02*
X0021974Y0135742D01*
X0021974Y0136340D02*
X0022574Y0136340D01*
X0022574Y0136939D02*
X0021974Y0136939D01*
X0021974Y0131552D02*
X0022574Y0131552D01*
X0022574Y0130954D02*
X0021974Y0130954D01*
X0021974Y0130355D02*
X0022574Y0130355D01*
X0022574Y0129757D02*
X0021974Y0129757D01*
X0021974Y0129158D02*
X0022574Y0129158D01*
X0022574Y0128560D02*
X0021974Y0128560D01*
X0021974Y0127961D02*
X0022574Y0127961D01*
X0022574Y0127362D02*
X0021974Y0127362D01*
X0020238Y0127362D02*
X0014023Y0127362D01*
X0013574Y0127961D02*
X0019193Y0127961D01*
X0018492Y0128560D02*
X0013574Y0128560D01*
X0013574Y0129158D02*
X0017986Y0129158D01*
X0017608Y0129757D02*
X0013574Y0129757D01*
X0013574Y0130355D02*
X0017324Y0130355D01*
X0017130Y0130954D02*
X0013574Y0130954D01*
X0013574Y0131552D02*
X0017022Y0131552D01*
X0013574Y0138136D02*
X0080974Y0138136D01*
X0080974Y0138734D02*
X0013574Y0138734D01*
X0013574Y0139333D02*
X0080974Y0139333D01*
X0080974Y0139931D02*
X0013574Y0139931D01*
X0013574Y0140530D02*
X0080974Y0140530D01*
X0080974Y0141128D02*
X0013574Y0141128D01*
X0013574Y0141727D02*
X0080974Y0141727D01*
X0080974Y0142325D02*
X0014164Y0142325D01*
X0014762Y0142924D02*
X0080974Y0142924D01*
X0080974Y0143522D02*
X0015361Y0143522D01*
X0015959Y0144121D02*
X0080974Y0144121D01*
X0080974Y0144719D02*
X0016558Y0144719D01*
X0017156Y0145318D02*
X0080974Y0145318D01*
X0080974Y0145916D02*
X0017755Y0145916D01*
X0013267Y0150106D02*
X0008574Y0150106D01*
X0008574Y0150704D02*
X0013866Y0150704D01*
X0014464Y0151303D02*
X0008574Y0151303D01*
X0008574Y0151901D02*
X0015063Y0151901D01*
X0015661Y0152500D02*
X0008574Y0152500D01*
X0008574Y0153098D02*
X0016260Y0153098D01*
X0012669Y0149507D02*
X0008574Y0149507D01*
X0008574Y0148909D02*
X0012070Y0148909D01*
X0011472Y0148310D02*
X0008574Y0148310D01*
X0008574Y0147712D02*
X0010873Y0147712D01*
X0010275Y0147113D02*
X0008574Y0147113D01*
X0008574Y0146515D02*
X0009676Y0146515D01*
X0009078Y0145916D02*
X0008574Y0145916D01*
X0005974Y0145916D02*
X0003574Y0145916D01*
X0003574Y0145318D02*
X0005974Y0145318D01*
X0005974Y0144719D02*
X0003574Y0144719D01*
X0003574Y0144121D02*
X0005974Y0144121D01*
X0005974Y0143522D02*
X0003574Y0143522D01*
X0003574Y0142924D02*
X0005974Y0142924D01*
X0005974Y0142325D02*
X0003574Y0142325D01*
X0003574Y0141727D02*
X0005974Y0141727D01*
X0005974Y0141128D02*
X0003574Y0141128D01*
X0003574Y0140530D02*
X0005974Y0140530D01*
X0005974Y0139931D02*
X0003574Y0139931D01*
X0003574Y0139333D02*
X0005974Y0139333D01*
X0005974Y0138734D02*
X0003574Y0138734D01*
X0003574Y0138136D02*
X0005974Y0138136D01*
X0005974Y0137537D02*
X0003574Y0137537D01*
X0003574Y0136939D02*
X0005974Y0136939D01*
X0005974Y0136340D02*
X0003574Y0136340D01*
X0003574Y0135742D02*
X0005974Y0135742D01*
X0005974Y0135143D02*
X0003574Y0135143D01*
X0003574Y0134545D02*
X0005974Y0134545D01*
X0005974Y0133946D02*
X0003574Y0133946D01*
X0003574Y0133348D02*
X0005974Y0133348D01*
X0005974Y0132749D02*
X0003574Y0132749D01*
X0003574Y0132151D02*
X0005974Y0132151D01*
X0005974Y0131552D02*
X0003574Y0131552D01*
X0003574Y0130954D02*
X0005974Y0130954D01*
X0005974Y0130355D02*
X0003574Y0130355D01*
X0003574Y0129757D02*
X0005974Y0129757D01*
X0005974Y0129158D02*
X0003574Y0129158D01*
X0003574Y0128560D02*
X0005974Y0128560D01*
X0005974Y0127961D02*
X0003574Y0127961D01*
X0003574Y0127362D02*
X0005974Y0127362D01*
X0005974Y0126764D02*
X0003574Y0126764D01*
X0003574Y0126165D02*
X0005974Y0126165D01*
X0005974Y0125567D02*
X0003574Y0125567D01*
X0003574Y0124968D02*
X0005974Y0124968D01*
X0005974Y0124370D02*
X0003574Y0124370D01*
X0003574Y0123771D02*
X0005974Y0123771D01*
X0005974Y0123173D02*
X0003574Y0123173D01*
X0003574Y0122574D02*
X0005974Y0122574D01*
X0005974Y0121976D02*
X0003574Y0121976D01*
X0003574Y0121377D02*
X0005974Y0121377D01*
X0005974Y0120779D02*
X0003574Y0120779D01*
X0003574Y0120180D02*
X0005974Y0120180D01*
X0005974Y0119582D02*
X0003574Y0119582D01*
X0003574Y0118983D02*
X0005974Y0118983D01*
X0005974Y0118385D02*
X0003574Y0118385D01*
X0003574Y0117786D02*
X0005974Y0117786D01*
X0005974Y0117188D02*
X0003574Y0117188D01*
X0003574Y0116589D02*
X0005974Y0116589D01*
X0005974Y0115991D02*
X0003574Y0115991D01*
X0003574Y0115392D02*
X0005974Y0115392D01*
X0005974Y0114794D02*
X0003574Y0114794D01*
X0003574Y0114195D02*
X0005974Y0114195D01*
X0005974Y0113597D02*
X0003574Y0113597D01*
X0003574Y0112998D02*
X0005974Y0112998D01*
X0005974Y0112400D02*
X0003574Y0112400D01*
X0003574Y0111801D02*
X0005974Y0111801D01*
X0005974Y0111203D02*
X0003574Y0111203D01*
X0003574Y0110604D02*
X0005974Y0110604D01*
X0005974Y0110006D02*
X0003574Y0110006D01*
X0003574Y0109407D02*
X0005974Y0109407D01*
X0005974Y0108809D02*
X0003574Y0108809D01*
X0003574Y0108210D02*
X0005974Y0108210D01*
X0005974Y0107612D02*
X0003574Y0107612D01*
X0003574Y0107013D02*
X0005974Y0107013D01*
X0005974Y0106415D02*
X0003574Y0106415D01*
X0003574Y0105816D02*
X0005974Y0105816D01*
X0005974Y0105218D02*
X0003574Y0105218D01*
X0003574Y0104619D02*
X0005974Y0104619D01*
X0005974Y0104021D02*
X0003574Y0104021D01*
X0003574Y0103422D02*
X0005974Y0103422D01*
X0005974Y0102824D02*
X0003574Y0102824D01*
X0003574Y0102225D02*
X0005974Y0102225D01*
X0005974Y0101627D02*
X0003574Y0101627D01*
X0003574Y0101028D02*
X0005974Y0101028D01*
X0005974Y0100429D02*
X0003574Y0100429D01*
X0003574Y0099831D02*
X0005974Y0099831D01*
X0005974Y0099232D02*
X0003574Y0099232D01*
X0003574Y0098634D02*
X0005974Y0098634D01*
X0005974Y0098035D02*
X0003574Y0098035D01*
X0003574Y0097437D02*
X0005974Y0097437D01*
X0005974Y0096838D02*
X0003574Y0096838D01*
X0003574Y0096240D02*
X0005974Y0096240D01*
X0005974Y0095641D02*
X0003574Y0095641D01*
X0003574Y0095043D02*
X0005974Y0095043D01*
X0005974Y0094444D02*
X0003574Y0094444D01*
X0003574Y0093846D02*
X0005974Y0093846D01*
X0005974Y0093247D02*
X0003574Y0093247D01*
X0003574Y0092649D02*
X0005974Y0092649D01*
X0005974Y0092050D02*
X0003574Y0092050D01*
X0003574Y0091452D02*
X0005974Y0091452D01*
X0005974Y0090853D02*
X0003574Y0090853D01*
X0003574Y0090255D02*
X0005974Y0090255D01*
X0005974Y0089656D02*
X0003574Y0089656D01*
X0003574Y0089058D02*
X0005974Y0089058D01*
X0005974Y0088459D02*
X0003574Y0088459D01*
X0003574Y0087861D02*
X0005974Y0087861D01*
X0005974Y0087262D02*
X0003574Y0087262D01*
X0003574Y0086664D02*
X0005974Y0086664D01*
X0005974Y0086065D02*
X0003574Y0086065D01*
X0003574Y0085467D02*
X0005974Y0085467D01*
X0005974Y0084868D02*
X0003574Y0084868D01*
X0003574Y0084270D02*
X0005974Y0084270D01*
X0005974Y0083671D02*
X0003574Y0083671D01*
X0003574Y0083073D02*
X0005974Y0083073D01*
X0005974Y0082474D02*
X0003574Y0082474D01*
X0003574Y0081876D02*
X0005974Y0081876D01*
X0005974Y0081277D02*
X0003574Y0081277D01*
X0003574Y0080679D02*
X0005974Y0080679D01*
X0005974Y0080080D02*
X0003574Y0080080D01*
X0003574Y0079482D02*
X0005974Y0079482D01*
X0005974Y0078883D02*
X0003574Y0078883D01*
X0003574Y0078285D02*
X0005974Y0078285D01*
X0005974Y0077686D02*
X0003574Y0077686D01*
X0003574Y0077088D02*
X0005974Y0077088D01*
X0005974Y0076489D02*
X0003574Y0076489D01*
X0003574Y0075891D02*
X0005974Y0075891D01*
X0005974Y0075292D02*
X0003574Y0075292D01*
X0003574Y0074693D02*
X0005974Y0074693D01*
X0005974Y0074095D02*
X0003574Y0074095D01*
X0003574Y0073496D02*
X0005974Y0073496D01*
X0005974Y0072898D02*
X0003574Y0072898D01*
X0003574Y0072299D02*
X0005974Y0072299D01*
X0005974Y0071701D02*
X0003574Y0071701D01*
X0003574Y0071102D02*
X0005974Y0071102D01*
X0005974Y0070504D02*
X0003574Y0070504D01*
X0003574Y0069905D02*
X0005974Y0069905D01*
X0005974Y0069307D02*
X0003574Y0069307D01*
X0003574Y0068708D02*
X0005974Y0068708D01*
X0005974Y0068110D02*
X0003574Y0068110D01*
X0003574Y0067511D02*
X0005974Y0067511D01*
X0005974Y0066913D02*
X0003574Y0066913D01*
X0003574Y0066314D02*
X0005974Y0066314D01*
X0005974Y0065716D02*
X0003574Y0065716D01*
X0008574Y0104021D02*
X0092041Y0104021D01*
X0092639Y0104619D02*
X0008574Y0104619D01*
X0008574Y0107612D02*
X0020724Y0107612D01*
X0019407Y0108210D02*
X0008574Y0108210D01*
X0008574Y0108809D02*
X0018809Y0108809D01*
X0018210Y0109407D02*
X0008574Y0109407D01*
X0008574Y0110006D02*
X0017909Y0110006D01*
X0017661Y0110604D02*
X0008574Y0110604D01*
X0008574Y0111203D02*
X0017413Y0111203D01*
X0017374Y0111801D02*
X0008574Y0111801D01*
X0008574Y0112400D02*
X0017374Y0112400D01*
X0017374Y0112998D02*
X0008574Y0112998D01*
X0008574Y0113597D02*
X0017518Y0113597D01*
X0017766Y0114195D02*
X0008574Y0114195D01*
X0008574Y0114794D02*
X0018014Y0114794D01*
X0018463Y0115392D02*
X0008574Y0115392D01*
X0008574Y0115991D02*
X0016718Y0115991D01*
X0016119Y0116589D02*
X0008574Y0116589D01*
X0008574Y0117188D02*
X0015521Y0117188D01*
X0014922Y0117786D02*
X0008574Y0117786D01*
X0008574Y0118385D02*
X0014324Y0118385D01*
X0013725Y0118983D02*
X0008574Y0118983D01*
X0008574Y0119582D02*
X0013127Y0119582D01*
X0012528Y0120180D02*
X0008574Y0120180D01*
X0008574Y0120779D02*
X0011930Y0120779D01*
X0011331Y0121377D02*
X0008574Y0121377D01*
X0008574Y0121976D02*
X0010733Y0121976D01*
X0010134Y0122574D02*
X0008574Y0122574D01*
X0008574Y0123173D02*
X0009536Y0123173D01*
X0008937Y0123771D02*
X0008574Y0123771D01*
X0005974Y0146515D02*
X0003574Y0146515D01*
X0003574Y0147113D02*
X0005974Y0147113D01*
X0005974Y0147712D02*
X0003574Y0147712D01*
X0003574Y0148310D02*
X0005974Y0148310D01*
X0005974Y0148909D02*
X0003574Y0148909D01*
X0003574Y0149507D02*
X0005974Y0149507D01*
X0005974Y0150106D02*
X0003574Y0150106D01*
X0003574Y0150704D02*
X0005974Y0150704D01*
X0005974Y0151303D02*
X0003574Y0151303D01*
X0003574Y0151901D02*
X0005974Y0151901D01*
X0005974Y0152500D02*
X0003574Y0152500D01*
X0003574Y0153098D02*
X0005974Y0153098D01*
X0005974Y0153697D02*
X0003574Y0153697D01*
X0003574Y0154295D02*
X0005974Y0154295D01*
X0005974Y0154894D02*
X0003574Y0154894D01*
X0003574Y0155493D02*
X0005974Y0155493D01*
X0005974Y0156091D02*
X0003574Y0156091D01*
X0003574Y0156690D02*
X0005974Y0156690D01*
X0005974Y0157288D02*
X0003574Y0157288D01*
X0003574Y0157887D02*
X0005974Y0157887D01*
X0005974Y0158485D02*
X0003574Y0158485D01*
X0003574Y0159084D02*
X0005974Y0159084D01*
X0005974Y0159682D02*
X0003574Y0159682D01*
X0003574Y0160281D02*
X0005974Y0160281D01*
X0005974Y0160879D02*
X0003574Y0160879D01*
X0003574Y0161478D02*
X0005974Y0161478D01*
X0005974Y0162076D02*
X0003574Y0162076D01*
X0003574Y0162675D02*
X0005974Y0162675D01*
X0005974Y0163273D02*
X0003574Y0163273D01*
X0003574Y0163872D02*
X0005974Y0163872D01*
X0005974Y0164470D02*
X0003574Y0164470D01*
X0003574Y0165069D02*
X0005974Y0165069D01*
X0005974Y0165667D02*
X0003574Y0165667D01*
X0003574Y0166266D02*
X0005974Y0166266D01*
X0005974Y0166864D02*
X0003574Y0166864D01*
X0003574Y0167463D02*
X0005974Y0167463D01*
X0005974Y0168061D02*
X0003574Y0168061D01*
X0003574Y0168660D02*
X0005974Y0168660D01*
X0005974Y0169258D02*
X0003574Y0169258D01*
X0003574Y0169857D02*
X0005974Y0169857D01*
X0005974Y0170455D02*
X0003574Y0170455D01*
X0003574Y0171054D02*
X0005974Y0171054D01*
X0005974Y0171652D02*
X0003574Y0171652D01*
X0003574Y0172251D02*
X0005974Y0172251D01*
X0005974Y0172849D02*
X0003574Y0172849D01*
X0003574Y0173448D02*
X0005974Y0173448D01*
X0005974Y0174046D02*
X0003574Y0174046D01*
X0003574Y0174645D02*
X0005974Y0174645D01*
X0005974Y0175243D02*
X0003574Y0175243D01*
X0003574Y0175842D02*
X0005974Y0175842D01*
X0005974Y0176440D02*
X0003574Y0176440D01*
X0003574Y0177039D02*
X0005974Y0177039D01*
X0005974Y0177637D02*
X0003574Y0177637D01*
X0003574Y0178236D02*
X0005974Y0178236D01*
X0005974Y0178834D02*
X0003574Y0178834D01*
X0003574Y0179433D02*
X0005974Y0179433D01*
X0005974Y0180031D02*
X0003574Y0180031D01*
X0003574Y0180630D02*
X0005974Y0180630D01*
X0005974Y0181229D02*
X0003574Y0181229D01*
X0003574Y0181827D02*
X0005974Y0181827D01*
X0005974Y0182426D02*
X0003574Y0182426D01*
X0003574Y0183024D02*
X0006186Y0183024D01*
X0006784Y0183623D02*
X0003574Y0183623D01*
X0003574Y0184221D02*
X0007383Y0184221D01*
X0007981Y0184820D02*
X0003574Y0184820D01*
X0003574Y0185418D02*
X0008580Y0185418D01*
X0009178Y0186017D02*
X0003574Y0186017D01*
X0003574Y0186615D02*
X0009777Y0186615D01*
X0010375Y0187214D02*
X0003574Y0187214D01*
X0003574Y0187812D02*
X0010974Y0187812D01*
X0011572Y0188411D02*
X0003574Y0188411D01*
X0003574Y0189009D02*
X0012171Y0189009D01*
X0012769Y0189608D02*
X0003574Y0189608D01*
X0003574Y0190206D02*
X0013368Y0190206D01*
X0013966Y0190805D02*
X0003574Y0190805D01*
X0003574Y0191403D02*
X0014565Y0191403D01*
X0015163Y0192002D02*
X0003574Y0192002D01*
X0003574Y0192600D02*
X0015762Y0192600D01*
X0016360Y0193199D02*
X0003574Y0193199D01*
X0003574Y0193797D02*
X0027601Y0193797D01*
X0027849Y0194396D02*
X0003574Y0194396D01*
X0003574Y0194994D02*
X0028097Y0194994D01*
X0028663Y0195593D02*
X0003574Y0195593D01*
X0003574Y0196191D02*
X0029262Y0196191D01*
X0030372Y0196790D02*
X0003574Y0196790D01*
X0003574Y0197388D02*
X0030187Y0197388D01*
X0029157Y0197987D02*
X0003574Y0197987D01*
X0003574Y0198585D02*
X0028467Y0198585D01*
X0027967Y0199184D02*
X0003574Y0199184D01*
X0003574Y0199782D02*
X0027595Y0199782D01*
X0027316Y0200381D02*
X0003574Y0200381D01*
X0003574Y0200979D02*
X0027121Y0200979D01*
X0027018Y0201578D02*
X0003574Y0201578D01*
X0003574Y0209359D02*
X0040874Y0209359D01*
X0040874Y0209957D02*
X0003574Y0209957D01*
X0003574Y0210556D02*
X0040874Y0210556D01*
X0040874Y0211154D02*
X0003574Y0211154D01*
X0003574Y0224920D02*
X0009655Y0224920D01*
X0008210Y0225518D02*
X0003574Y0225518D01*
X0003574Y0226117D02*
X0007405Y0226117D01*
X0006807Y0226715D02*
X0003574Y0226715D01*
X0003574Y0227314D02*
X0006208Y0227314D01*
X0005642Y0227912D02*
X0003574Y0227912D01*
X0003574Y0228511D02*
X0005394Y0228511D01*
X0005146Y0229109D02*
X0003574Y0229109D01*
X0003574Y0229708D02*
X0004898Y0229708D01*
X0004650Y0230306D02*
X0003574Y0230306D01*
X0003574Y0230905D02*
X0004478Y0230905D01*
X0004478Y0231503D02*
X0003574Y0231503D01*
X0003574Y0232102D02*
X0004478Y0232102D01*
X0004478Y0232700D02*
X0003574Y0232700D01*
X0003574Y0233299D02*
X0004478Y0233299D01*
X0004508Y0233898D02*
X0003574Y0233898D01*
X0003574Y0234496D02*
X0004756Y0234496D01*
X0005004Y0235095D02*
X0003574Y0235095D01*
X0003574Y0235693D02*
X0005252Y0235693D01*
X0005500Y0236292D02*
X0003574Y0236292D01*
X0003574Y0236890D02*
X0005865Y0236890D01*
X0006463Y0237489D02*
X0003574Y0237489D01*
X0003574Y0238087D02*
X0007062Y0238087D01*
X0007660Y0238686D02*
X0003574Y0238686D01*
X0003574Y0239284D02*
X0008826Y0239284D01*
X0010271Y0239883D02*
X0003574Y0239883D01*
X0003574Y0240481D02*
X0067274Y0240481D01*
X0067274Y0240974D02*
X0067274Y0232274D01*
X0147274Y0232274D01*
X0147274Y0240974D01*
X0210974Y0240974D01*
X0210974Y0003574D01*
X0003574Y0003574D01*
X0003574Y0240974D01*
X0067274Y0240974D01*
X0067274Y0239883D02*
X0014276Y0239883D01*
X0015721Y0239284D02*
X0067274Y0239284D01*
X0067274Y0238686D02*
X0016887Y0238686D01*
X0017485Y0238087D02*
X0067274Y0238087D01*
X0067274Y0237489D02*
X0018084Y0237489D01*
X0018682Y0236890D02*
X0067274Y0236890D01*
X0067274Y0236292D02*
X0019048Y0236292D01*
X0019296Y0235693D02*
X0067274Y0235693D01*
X0067274Y0235095D02*
X0019544Y0235095D01*
X0019791Y0234496D02*
X0067274Y0234496D01*
X0067274Y0233898D02*
X0020039Y0233898D01*
X0020070Y0233299D02*
X0067274Y0233299D01*
X0067274Y0232700D02*
X0020070Y0232700D01*
X0020070Y0232102D02*
X0194478Y0232102D01*
X0194478Y0232700D02*
X0147274Y0232700D01*
X0147274Y0233299D02*
X0194478Y0233299D01*
X0194478Y0233824D02*
X0194478Y0230723D01*
X0195664Y0227858D01*
X0197858Y0225664D01*
X0200723Y0224478D01*
X0203824Y0224478D01*
X0206690Y0225664D01*
X0208883Y0227858D01*
X0210070Y0230723D01*
X0210070Y0233824D01*
X0208883Y0236690D01*
X0206690Y0238883D01*
X0203824Y0240070D01*
X0200723Y0240070D01*
X0197858Y0238883D01*
X0195664Y0236690D01*
X0194478Y0233824D01*
X0194508Y0233898D02*
X0147274Y0233898D01*
X0147274Y0234496D02*
X0194756Y0234496D01*
X0195004Y0235095D02*
X0147274Y0235095D01*
X0147274Y0235693D02*
X0195252Y0235693D01*
X0195500Y0236292D02*
X0147274Y0236292D01*
X0147274Y0236890D02*
X0195865Y0236890D01*
X0196463Y0237489D02*
X0147274Y0237489D01*
X0147274Y0238087D02*
X0197062Y0238087D01*
X0197660Y0238686D02*
X0147274Y0238686D01*
X0147274Y0239284D02*
X0198826Y0239284D01*
X0200271Y0239883D02*
X0147274Y0239883D01*
X0147274Y0240481D02*
X0210974Y0240481D01*
X0210974Y0239883D02*
X0204276Y0239883D01*
X0205721Y0239284D02*
X0210974Y0239284D01*
X0210974Y0238686D02*
X0206887Y0238686D01*
X0207485Y0238087D02*
X0210974Y0238087D01*
X0210974Y0237489D02*
X0208084Y0237489D01*
X0208682Y0236890D02*
X0210974Y0236890D01*
X0210974Y0236292D02*
X0209048Y0236292D01*
X0209296Y0235693D02*
X0210974Y0235693D01*
X0210974Y0235095D02*
X0209544Y0235095D01*
X0209791Y0234496D02*
X0210974Y0234496D01*
X0210974Y0233898D02*
X0210039Y0233898D01*
X0210070Y0233299D02*
X0210974Y0233299D01*
X0210974Y0232700D02*
X0210070Y0232700D01*
X0210070Y0232102D02*
X0210974Y0232102D01*
X0210974Y0231503D02*
X0210070Y0231503D01*
X0210070Y0230905D02*
X0210974Y0230905D01*
X0210974Y0230306D02*
X0209897Y0230306D01*
X0209649Y0229708D02*
X0210974Y0229708D01*
X0210974Y0229109D02*
X0209401Y0229109D01*
X0209153Y0228511D02*
X0210974Y0228511D01*
X0210974Y0227912D02*
X0208906Y0227912D01*
X0208339Y0227314D02*
X0210974Y0227314D01*
X0210974Y0226715D02*
X0207741Y0226715D01*
X0207142Y0226117D02*
X0210974Y0226117D01*
X0210974Y0225518D02*
X0206337Y0225518D01*
X0204892Y0224920D02*
X0210974Y0224920D01*
X0210974Y0224321D02*
X0186574Y0224321D01*
X0186574Y0223723D02*
X0210974Y0223723D01*
X0210974Y0223124D02*
X0186574Y0223124D01*
X0186574Y0224920D02*
X0199655Y0224920D01*
X0198210Y0225518D02*
X0186574Y0225518D01*
X0186494Y0226117D02*
X0197405Y0226117D01*
X0196807Y0226715D02*
X0186326Y0226715D01*
X0186060Y0227314D02*
X0196208Y0227314D01*
X0195642Y0227912D02*
X0185672Y0227912D01*
X0185117Y0228511D02*
X0195394Y0228511D01*
X0195146Y0229109D02*
X0184217Y0229109D01*
X0194478Y0230905D02*
X0020070Y0230905D01*
X0020070Y0231503D02*
X0194478Y0231503D01*
X0194650Y0230306D02*
X0019897Y0230306D01*
X0019649Y0229708D02*
X0194898Y0229708D01*
X0118940Y0181827D02*
X0097969Y0181827D01*
X0098134Y0181662D02*
X0097607Y0182189D01*
X0094302Y0182189D01*
X0093775Y0181662D01*
X0093775Y0177964D01*
X0094302Y0177437D01*
X0097607Y0177437D01*
X0098134Y0177964D01*
X0098134Y0181662D01*
X0098134Y0181229D02*
X0118775Y0181229D01*
X0118775Y0180630D02*
X0098134Y0180630D01*
X0098134Y0180031D02*
X0118775Y0180031D01*
X0118775Y0179433D02*
X0098134Y0179433D01*
X0098134Y0178834D02*
X0118775Y0178834D01*
X0118775Y0178236D02*
X0098134Y0178236D01*
X0097808Y0177637D02*
X0119102Y0177637D01*
X0105747Y0177039D02*
X0091074Y0177039D01*
X0091074Y0177637D02*
X0094102Y0177637D01*
X0093775Y0178236D02*
X0091074Y0178236D01*
X0091074Y0178834D02*
X0093775Y0178834D01*
X0093775Y0179433D02*
X0091271Y0179433D01*
X0091870Y0180031D02*
X0093775Y0180031D01*
X0093775Y0180630D02*
X0092468Y0180630D01*
X0093067Y0181229D02*
X0093775Y0181229D01*
X0093665Y0181827D02*
X0093940Y0181827D01*
X0090779Y0176440D02*
X0105149Y0176440D01*
X0091503Y0175842D02*
X0090180Y0175842D01*
X0089582Y0175243D02*
X0090905Y0175243D01*
X0090306Y0174645D02*
X0088983Y0174645D01*
X0088385Y0174046D02*
X0089708Y0174046D01*
X0089109Y0173448D02*
X0087786Y0173448D01*
X0087188Y0172849D02*
X0088511Y0172849D01*
X0087912Y0172251D02*
X0086589Y0172251D01*
X0085991Y0171652D02*
X0087314Y0171652D01*
X0086715Y0171054D02*
X0085392Y0171054D01*
X0084794Y0170455D02*
X0086117Y0170455D01*
X0085518Y0169857D02*
X0084195Y0169857D01*
X0083597Y0169258D02*
X0084920Y0169258D01*
X0084321Y0168660D02*
X0083574Y0168660D01*
X0083574Y0168061D02*
X0083723Y0168061D01*
X0080974Y0157288D02*
X0008574Y0157288D01*
X0008574Y0156690D02*
X0030130Y0156690D01*
X0029161Y0156091D02*
X0008574Y0156091D01*
X0008574Y0155493D02*
X0028563Y0155493D01*
X0028055Y0154894D02*
X0008574Y0154894D01*
X0008574Y0154295D02*
X0027807Y0154295D01*
X0027559Y0153697D02*
X0008574Y0153697D01*
X0008574Y0157887D02*
X0030061Y0157887D01*
X0029133Y0158485D02*
X0008574Y0158485D01*
X0008574Y0159084D02*
X0028534Y0159084D01*
X0028043Y0159682D02*
X0008574Y0159682D01*
X0008574Y0160281D02*
X0027795Y0160281D01*
X0027548Y0160879D02*
X0008574Y0160879D01*
X0008574Y0161478D02*
X0027374Y0161478D01*
X0027374Y0162076D02*
X0008574Y0162076D01*
X0008574Y0162675D02*
X0027374Y0162675D01*
X0027384Y0163273D02*
X0008574Y0163273D01*
X0008574Y0163872D02*
X0027632Y0163872D01*
X0027880Y0164470D02*
X0008574Y0164470D01*
X0008574Y0165069D02*
X0028139Y0165069D01*
X0028738Y0165667D02*
X0008574Y0165667D01*
X0008574Y0166266D02*
X0029336Y0166266D01*
X0030552Y0166864D02*
X0008574Y0166864D01*
X0008574Y0167463D02*
X0031084Y0167463D01*
X0029639Y0168061D02*
X0008574Y0168061D01*
X0008574Y0168660D02*
X0028958Y0168660D01*
X0028359Y0169258D02*
X0008574Y0169258D01*
X0008574Y0169857D02*
X0027971Y0169857D01*
X0027723Y0170455D02*
X0008574Y0170455D01*
X0008574Y0171054D02*
X0027475Y0171054D01*
X0027374Y0171652D02*
X0008574Y0171652D01*
X0008574Y0172251D02*
X0027374Y0172251D01*
X0027374Y0172849D02*
X0008574Y0172849D01*
X0008574Y0173448D02*
X0027456Y0173448D01*
X0027704Y0174046D02*
X0008574Y0174046D01*
X0008574Y0174645D02*
X0027952Y0174645D01*
X0028314Y0175243D02*
X0008574Y0175243D01*
X0008574Y0175842D02*
X0028912Y0175842D01*
X0029529Y0176440D02*
X0008574Y0176440D01*
X0014651Y0187812D02*
X0030240Y0187812D01*
X0029207Y0188411D02*
X0015249Y0188411D01*
X0015848Y0189009D02*
X0028608Y0189009D01*
X0028074Y0189608D02*
X0016446Y0189608D01*
X0017045Y0190206D02*
X0027826Y0190206D01*
X0027578Y0190805D02*
X0017643Y0190805D01*
X0029796Y0116589D02*
X0029888Y0116589D01*
X0057822Y0103422D02*
X0061442Y0103422D01*
X0060844Y0102824D02*
X0058421Y0102824D01*
X0058474Y0102225D02*
X0060245Y0102225D01*
X0059647Y0101627D02*
X0058474Y0101627D01*
X0058474Y0101028D02*
X0059048Y0101028D01*
X0074659Y0116589D02*
X0084751Y0116589D01*
X0084152Y0115991D02*
X0075486Y0115991D01*
X0076085Y0115392D02*
X0083554Y0115392D01*
X0082955Y0114794D02*
X0076533Y0114794D01*
X0076781Y0114195D02*
X0082357Y0114195D01*
X0081758Y0113597D02*
X0077029Y0113597D01*
X0064955Y0022623D02*
X0210974Y0022623D01*
X0210974Y0022024D02*
X0064955Y0022024D01*
X0064825Y0021426D02*
X0210974Y0021426D01*
X0210974Y0020827D02*
X0064577Y0020827D01*
X0064021Y0020229D02*
X0210974Y0020229D01*
X0210974Y0019630D02*
X0204885Y0019630D01*
X0206330Y0019032D02*
X0210974Y0019032D01*
X0210974Y0018433D02*
X0207139Y0018433D01*
X0207738Y0017835D02*
X0210974Y0017835D01*
X0210974Y0017236D02*
X0208336Y0017236D01*
X0208904Y0016638D02*
X0210974Y0016638D01*
X0210974Y0016039D02*
X0209152Y0016039D01*
X0209400Y0015441D02*
X0210974Y0015441D01*
X0210974Y0014842D02*
X0209648Y0014842D01*
X0209896Y0014244D02*
X0210974Y0014244D01*
X0210974Y0013645D02*
X0210070Y0013645D01*
X0210070Y0013047D02*
X0210974Y0013047D01*
X0210974Y0012448D02*
X0210070Y0012448D01*
X0210070Y0011850D02*
X0210974Y0011850D01*
X0210974Y0011251D02*
X0210070Y0011251D01*
X0210041Y0010653D02*
X0210974Y0010653D01*
X0210974Y0010054D02*
X0209793Y0010054D01*
X0209545Y0009456D02*
X0210974Y0009456D01*
X0210974Y0008857D02*
X0209297Y0008857D01*
X0209049Y0008259D02*
X0210974Y0008259D01*
X0210974Y0007660D02*
X0208686Y0007660D01*
X0208087Y0007062D02*
X0210974Y0007062D01*
X0210974Y0006463D02*
X0207488Y0006463D01*
X0206890Y0005865D02*
X0210974Y0005865D01*
X0210974Y0005266D02*
X0205728Y0005266D01*
X0204283Y0004668D02*
X0210974Y0004668D01*
X0210974Y0004069D02*
X0003574Y0004069D01*
D23*
X0067274Y0042274D02*
X0077274Y0032274D01*
X0122274Y0032274D01*
X0092274Y0042274D02*
X0067274Y0042274D01*
X0092274Y0042274D02*
X0142274Y0092274D01*
X0197274Y0092274D01*
X0207274Y0102274D01*
X0207274Y0202274D01*
X0197274Y0212274D01*
X0177274Y0212274D01*
X0172274Y0217274D01*
X0172274Y0222274D01*
X0110325Y0131781D02*
X0110325Y0120325D01*
X0092274Y0102274D01*
X0062274Y0102274D01*
X0047274Y0087274D01*
X0122274Y0087274D01*
X0042274Y0202274D02*
X0042274Y0222274D01*
M02*
