G75*
%MOIN*%
%OFA0B0*%
%FSLAX25Y25*%
%IPPOS*%
%LPD*%
%AMOC8*
5,1,8,0,0,1.08239X$1,22.5*
%
%ADD10C,0.00000*%
%ADD11C,0.00600*%
%ADD12C,0.00300*%
%ADD13C,0.00800*%
%ADD14R,0.02500X0.02500*%
%ADD15C,0.00276*%
%ADD16C,0.00315*%
%ADD17C,0.00197*%
%ADD18R,0.01575X0.03937*%
%ADD19R,0.03937X0.01575*%
%ADD20C,0.01600*%
%ADD21C,0.00394*%
%ADD22C,0.00500*%
%ADD23R,0.07874X0.09449*%
D10*
X0002274Y0002274D02*
X0002274Y0242274D01*
X0212274Y0242274D01*
X0212274Y0002274D01*
X0002274Y0002274D01*
X0005778Y0012274D02*
X0005780Y0012435D01*
X0005786Y0012595D01*
X0005796Y0012756D01*
X0005810Y0012916D01*
X0005828Y0013075D01*
X0005849Y0013235D01*
X0005875Y0013393D01*
X0005905Y0013551D01*
X0005938Y0013708D01*
X0005976Y0013865D01*
X0006017Y0014020D01*
X0006062Y0014174D01*
X0006111Y0014327D01*
X0006164Y0014479D01*
X0006220Y0014629D01*
X0006280Y0014778D01*
X0006344Y0014926D01*
X0006411Y0015072D01*
X0006482Y0015216D01*
X0006557Y0015358D01*
X0006635Y0015499D01*
X0006716Y0015637D01*
X0006801Y0015774D01*
X0006890Y0015908D01*
X0006981Y0016040D01*
X0007076Y0016170D01*
X0007174Y0016297D01*
X0007275Y0016422D01*
X0007379Y0016545D01*
X0007486Y0016664D01*
X0007596Y0016781D01*
X0007709Y0016896D01*
X0007825Y0017007D01*
X0007943Y0017116D01*
X0008064Y0017221D01*
X0008188Y0017324D01*
X0008314Y0017424D01*
X0008443Y0017520D01*
X0008574Y0017613D01*
X0008707Y0017703D01*
X0008842Y0017790D01*
X0008980Y0017873D01*
X0009119Y0017952D01*
X0009261Y0018029D01*
X0009404Y0018102D01*
X0009549Y0018171D01*
X0009696Y0018236D01*
X0009844Y0018298D01*
X0009994Y0018357D01*
X0010145Y0018411D01*
X0010297Y0018462D01*
X0010451Y0018509D01*
X0010606Y0018552D01*
X0010761Y0018591D01*
X0010918Y0018627D01*
X0011076Y0018659D01*
X0011234Y0018686D01*
X0011393Y0018710D01*
X0011552Y0018730D01*
X0011712Y0018746D01*
X0011873Y0018758D01*
X0012033Y0018766D01*
X0012194Y0018770D01*
X0012354Y0018770D01*
X0012515Y0018766D01*
X0012675Y0018758D01*
X0012836Y0018746D01*
X0012996Y0018730D01*
X0013155Y0018710D01*
X0013314Y0018686D01*
X0013472Y0018659D01*
X0013630Y0018627D01*
X0013787Y0018591D01*
X0013942Y0018552D01*
X0014097Y0018509D01*
X0014251Y0018462D01*
X0014403Y0018411D01*
X0014554Y0018357D01*
X0014704Y0018298D01*
X0014852Y0018236D01*
X0014999Y0018171D01*
X0015144Y0018102D01*
X0015287Y0018029D01*
X0015429Y0017952D01*
X0015568Y0017873D01*
X0015706Y0017790D01*
X0015841Y0017703D01*
X0015974Y0017613D01*
X0016105Y0017520D01*
X0016234Y0017424D01*
X0016360Y0017324D01*
X0016484Y0017221D01*
X0016605Y0017116D01*
X0016723Y0017007D01*
X0016839Y0016896D01*
X0016952Y0016781D01*
X0017062Y0016664D01*
X0017169Y0016545D01*
X0017273Y0016422D01*
X0017374Y0016297D01*
X0017472Y0016170D01*
X0017567Y0016040D01*
X0017658Y0015908D01*
X0017747Y0015774D01*
X0017832Y0015637D01*
X0017913Y0015499D01*
X0017991Y0015358D01*
X0018066Y0015216D01*
X0018137Y0015072D01*
X0018204Y0014926D01*
X0018268Y0014778D01*
X0018328Y0014629D01*
X0018384Y0014479D01*
X0018437Y0014327D01*
X0018486Y0014174D01*
X0018531Y0014020D01*
X0018572Y0013865D01*
X0018610Y0013708D01*
X0018643Y0013551D01*
X0018673Y0013393D01*
X0018699Y0013235D01*
X0018720Y0013075D01*
X0018738Y0012916D01*
X0018752Y0012756D01*
X0018762Y0012595D01*
X0018768Y0012435D01*
X0018770Y0012274D01*
X0018768Y0012113D01*
X0018762Y0011953D01*
X0018752Y0011792D01*
X0018738Y0011632D01*
X0018720Y0011473D01*
X0018699Y0011313D01*
X0018673Y0011155D01*
X0018643Y0010997D01*
X0018610Y0010840D01*
X0018572Y0010683D01*
X0018531Y0010528D01*
X0018486Y0010374D01*
X0018437Y0010221D01*
X0018384Y0010069D01*
X0018328Y0009919D01*
X0018268Y0009770D01*
X0018204Y0009622D01*
X0018137Y0009476D01*
X0018066Y0009332D01*
X0017991Y0009190D01*
X0017913Y0009049D01*
X0017832Y0008911D01*
X0017747Y0008774D01*
X0017658Y0008640D01*
X0017567Y0008508D01*
X0017472Y0008378D01*
X0017374Y0008251D01*
X0017273Y0008126D01*
X0017169Y0008003D01*
X0017062Y0007884D01*
X0016952Y0007767D01*
X0016839Y0007652D01*
X0016723Y0007541D01*
X0016605Y0007432D01*
X0016484Y0007327D01*
X0016360Y0007224D01*
X0016234Y0007124D01*
X0016105Y0007028D01*
X0015974Y0006935D01*
X0015841Y0006845D01*
X0015706Y0006758D01*
X0015568Y0006675D01*
X0015429Y0006596D01*
X0015287Y0006519D01*
X0015144Y0006446D01*
X0014999Y0006377D01*
X0014852Y0006312D01*
X0014704Y0006250D01*
X0014554Y0006191D01*
X0014403Y0006137D01*
X0014251Y0006086D01*
X0014097Y0006039D01*
X0013942Y0005996D01*
X0013787Y0005957D01*
X0013630Y0005921D01*
X0013472Y0005889D01*
X0013314Y0005862D01*
X0013155Y0005838D01*
X0012996Y0005818D01*
X0012836Y0005802D01*
X0012675Y0005790D01*
X0012515Y0005782D01*
X0012354Y0005778D01*
X0012194Y0005778D01*
X0012033Y0005782D01*
X0011873Y0005790D01*
X0011712Y0005802D01*
X0011552Y0005818D01*
X0011393Y0005838D01*
X0011234Y0005862D01*
X0011076Y0005889D01*
X0010918Y0005921D01*
X0010761Y0005957D01*
X0010606Y0005996D01*
X0010451Y0006039D01*
X0010297Y0006086D01*
X0010145Y0006137D01*
X0009994Y0006191D01*
X0009844Y0006250D01*
X0009696Y0006312D01*
X0009549Y0006377D01*
X0009404Y0006446D01*
X0009261Y0006519D01*
X0009119Y0006596D01*
X0008980Y0006675D01*
X0008842Y0006758D01*
X0008707Y0006845D01*
X0008574Y0006935D01*
X0008443Y0007028D01*
X0008314Y0007124D01*
X0008188Y0007224D01*
X0008064Y0007327D01*
X0007943Y0007432D01*
X0007825Y0007541D01*
X0007709Y0007652D01*
X0007596Y0007767D01*
X0007486Y0007884D01*
X0007379Y0008003D01*
X0007275Y0008126D01*
X0007174Y0008251D01*
X0007076Y0008378D01*
X0006981Y0008508D01*
X0006890Y0008640D01*
X0006801Y0008774D01*
X0006716Y0008911D01*
X0006635Y0009049D01*
X0006557Y0009190D01*
X0006482Y0009332D01*
X0006411Y0009476D01*
X0006344Y0009622D01*
X0006280Y0009770D01*
X0006220Y0009919D01*
X0006164Y0010069D01*
X0006111Y0010221D01*
X0006062Y0010374D01*
X0006017Y0010528D01*
X0005976Y0010683D01*
X0005938Y0010840D01*
X0005905Y0010997D01*
X0005875Y0011155D01*
X0005849Y0011313D01*
X0005828Y0011473D01*
X0005810Y0011632D01*
X0005796Y0011792D01*
X0005786Y0011953D01*
X0005780Y0012113D01*
X0005778Y0012274D01*
X0005778Y0232274D02*
X0005780Y0232435D01*
X0005786Y0232595D01*
X0005796Y0232756D01*
X0005810Y0232916D01*
X0005828Y0233075D01*
X0005849Y0233235D01*
X0005875Y0233393D01*
X0005905Y0233551D01*
X0005938Y0233708D01*
X0005976Y0233865D01*
X0006017Y0234020D01*
X0006062Y0234174D01*
X0006111Y0234327D01*
X0006164Y0234479D01*
X0006220Y0234629D01*
X0006280Y0234778D01*
X0006344Y0234926D01*
X0006411Y0235072D01*
X0006482Y0235216D01*
X0006557Y0235358D01*
X0006635Y0235499D01*
X0006716Y0235637D01*
X0006801Y0235774D01*
X0006890Y0235908D01*
X0006981Y0236040D01*
X0007076Y0236170D01*
X0007174Y0236297D01*
X0007275Y0236422D01*
X0007379Y0236545D01*
X0007486Y0236664D01*
X0007596Y0236781D01*
X0007709Y0236896D01*
X0007825Y0237007D01*
X0007943Y0237116D01*
X0008064Y0237221D01*
X0008188Y0237324D01*
X0008314Y0237424D01*
X0008443Y0237520D01*
X0008574Y0237613D01*
X0008707Y0237703D01*
X0008842Y0237790D01*
X0008980Y0237873D01*
X0009119Y0237952D01*
X0009261Y0238029D01*
X0009404Y0238102D01*
X0009549Y0238171D01*
X0009696Y0238236D01*
X0009844Y0238298D01*
X0009994Y0238357D01*
X0010145Y0238411D01*
X0010297Y0238462D01*
X0010451Y0238509D01*
X0010606Y0238552D01*
X0010761Y0238591D01*
X0010918Y0238627D01*
X0011076Y0238659D01*
X0011234Y0238686D01*
X0011393Y0238710D01*
X0011552Y0238730D01*
X0011712Y0238746D01*
X0011873Y0238758D01*
X0012033Y0238766D01*
X0012194Y0238770D01*
X0012354Y0238770D01*
X0012515Y0238766D01*
X0012675Y0238758D01*
X0012836Y0238746D01*
X0012996Y0238730D01*
X0013155Y0238710D01*
X0013314Y0238686D01*
X0013472Y0238659D01*
X0013630Y0238627D01*
X0013787Y0238591D01*
X0013942Y0238552D01*
X0014097Y0238509D01*
X0014251Y0238462D01*
X0014403Y0238411D01*
X0014554Y0238357D01*
X0014704Y0238298D01*
X0014852Y0238236D01*
X0014999Y0238171D01*
X0015144Y0238102D01*
X0015287Y0238029D01*
X0015429Y0237952D01*
X0015568Y0237873D01*
X0015706Y0237790D01*
X0015841Y0237703D01*
X0015974Y0237613D01*
X0016105Y0237520D01*
X0016234Y0237424D01*
X0016360Y0237324D01*
X0016484Y0237221D01*
X0016605Y0237116D01*
X0016723Y0237007D01*
X0016839Y0236896D01*
X0016952Y0236781D01*
X0017062Y0236664D01*
X0017169Y0236545D01*
X0017273Y0236422D01*
X0017374Y0236297D01*
X0017472Y0236170D01*
X0017567Y0236040D01*
X0017658Y0235908D01*
X0017747Y0235774D01*
X0017832Y0235637D01*
X0017913Y0235499D01*
X0017991Y0235358D01*
X0018066Y0235216D01*
X0018137Y0235072D01*
X0018204Y0234926D01*
X0018268Y0234778D01*
X0018328Y0234629D01*
X0018384Y0234479D01*
X0018437Y0234327D01*
X0018486Y0234174D01*
X0018531Y0234020D01*
X0018572Y0233865D01*
X0018610Y0233708D01*
X0018643Y0233551D01*
X0018673Y0233393D01*
X0018699Y0233235D01*
X0018720Y0233075D01*
X0018738Y0232916D01*
X0018752Y0232756D01*
X0018762Y0232595D01*
X0018768Y0232435D01*
X0018770Y0232274D01*
X0018768Y0232113D01*
X0018762Y0231953D01*
X0018752Y0231792D01*
X0018738Y0231632D01*
X0018720Y0231473D01*
X0018699Y0231313D01*
X0018673Y0231155D01*
X0018643Y0230997D01*
X0018610Y0230840D01*
X0018572Y0230683D01*
X0018531Y0230528D01*
X0018486Y0230374D01*
X0018437Y0230221D01*
X0018384Y0230069D01*
X0018328Y0229919D01*
X0018268Y0229770D01*
X0018204Y0229622D01*
X0018137Y0229476D01*
X0018066Y0229332D01*
X0017991Y0229190D01*
X0017913Y0229049D01*
X0017832Y0228911D01*
X0017747Y0228774D01*
X0017658Y0228640D01*
X0017567Y0228508D01*
X0017472Y0228378D01*
X0017374Y0228251D01*
X0017273Y0228126D01*
X0017169Y0228003D01*
X0017062Y0227884D01*
X0016952Y0227767D01*
X0016839Y0227652D01*
X0016723Y0227541D01*
X0016605Y0227432D01*
X0016484Y0227327D01*
X0016360Y0227224D01*
X0016234Y0227124D01*
X0016105Y0227028D01*
X0015974Y0226935D01*
X0015841Y0226845D01*
X0015706Y0226758D01*
X0015568Y0226675D01*
X0015429Y0226596D01*
X0015287Y0226519D01*
X0015144Y0226446D01*
X0014999Y0226377D01*
X0014852Y0226312D01*
X0014704Y0226250D01*
X0014554Y0226191D01*
X0014403Y0226137D01*
X0014251Y0226086D01*
X0014097Y0226039D01*
X0013942Y0225996D01*
X0013787Y0225957D01*
X0013630Y0225921D01*
X0013472Y0225889D01*
X0013314Y0225862D01*
X0013155Y0225838D01*
X0012996Y0225818D01*
X0012836Y0225802D01*
X0012675Y0225790D01*
X0012515Y0225782D01*
X0012354Y0225778D01*
X0012194Y0225778D01*
X0012033Y0225782D01*
X0011873Y0225790D01*
X0011712Y0225802D01*
X0011552Y0225818D01*
X0011393Y0225838D01*
X0011234Y0225862D01*
X0011076Y0225889D01*
X0010918Y0225921D01*
X0010761Y0225957D01*
X0010606Y0225996D01*
X0010451Y0226039D01*
X0010297Y0226086D01*
X0010145Y0226137D01*
X0009994Y0226191D01*
X0009844Y0226250D01*
X0009696Y0226312D01*
X0009549Y0226377D01*
X0009404Y0226446D01*
X0009261Y0226519D01*
X0009119Y0226596D01*
X0008980Y0226675D01*
X0008842Y0226758D01*
X0008707Y0226845D01*
X0008574Y0226935D01*
X0008443Y0227028D01*
X0008314Y0227124D01*
X0008188Y0227224D01*
X0008064Y0227327D01*
X0007943Y0227432D01*
X0007825Y0227541D01*
X0007709Y0227652D01*
X0007596Y0227767D01*
X0007486Y0227884D01*
X0007379Y0228003D01*
X0007275Y0228126D01*
X0007174Y0228251D01*
X0007076Y0228378D01*
X0006981Y0228508D01*
X0006890Y0228640D01*
X0006801Y0228774D01*
X0006716Y0228911D01*
X0006635Y0229049D01*
X0006557Y0229190D01*
X0006482Y0229332D01*
X0006411Y0229476D01*
X0006344Y0229622D01*
X0006280Y0229770D01*
X0006220Y0229919D01*
X0006164Y0230069D01*
X0006111Y0230221D01*
X0006062Y0230374D01*
X0006017Y0230528D01*
X0005976Y0230683D01*
X0005938Y0230840D01*
X0005905Y0230997D01*
X0005875Y0231155D01*
X0005849Y0231313D01*
X0005828Y0231473D01*
X0005810Y0231632D01*
X0005796Y0231792D01*
X0005786Y0231953D01*
X0005780Y0232113D01*
X0005778Y0232274D01*
X0195778Y0232274D02*
X0195780Y0232435D01*
X0195786Y0232595D01*
X0195796Y0232756D01*
X0195810Y0232916D01*
X0195828Y0233075D01*
X0195849Y0233235D01*
X0195875Y0233393D01*
X0195905Y0233551D01*
X0195938Y0233708D01*
X0195976Y0233865D01*
X0196017Y0234020D01*
X0196062Y0234174D01*
X0196111Y0234327D01*
X0196164Y0234479D01*
X0196220Y0234629D01*
X0196280Y0234778D01*
X0196344Y0234926D01*
X0196411Y0235072D01*
X0196482Y0235216D01*
X0196557Y0235358D01*
X0196635Y0235499D01*
X0196716Y0235637D01*
X0196801Y0235774D01*
X0196890Y0235908D01*
X0196981Y0236040D01*
X0197076Y0236170D01*
X0197174Y0236297D01*
X0197275Y0236422D01*
X0197379Y0236545D01*
X0197486Y0236664D01*
X0197596Y0236781D01*
X0197709Y0236896D01*
X0197825Y0237007D01*
X0197943Y0237116D01*
X0198064Y0237221D01*
X0198188Y0237324D01*
X0198314Y0237424D01*
X0198443Y0237520D01*
X0198574Y0237613D01*
X0198707Y0237703D01*
X0198842Y0237790D01*
X0198980Y0237873D01*
X0199119Y0237952D01*
X0199261Y0238029D01*
X0199404Y0238102D01*
X0199549Y0238171D01*
X0199696Y0238236D01*
X0199844Y0238298D01*
X0199994Y0238357D01*
X0200145Y0238411D01*
X0200297Y0238462D01*
X0200451Y0238509D01*
X0200606Y0238552D01*
X0200761Y0238591D01*
X0200918Y0238627D01*
X0201076Y0238659D01*
X0201234Y0238686D01*
X0201393Y0238710D01*
X0201552Y0238730D01*
X0201712Y0238746D01*
X0201873Y0238758D01*
X0202033Y0238766D01*
X0202194Y0238770D01*
X0202354Y0238770D01*
X0202515Y0238766D01*
X0202675Y0238758D01*
X0202836Y0238746D01*
X0202996Y0238730D01*
X0203155Y0238710D01*
X0203314Y0238686D01*
X0203472Y0238659D01*
X0203630Y0238627D01*
X0203787Y0238591D01*
X0203942Y0238552D01*
X0204097Y0238509D01*
X0204251Y0238462D01*
X0204403Y0238411D01*
X0204554Y0238357D01*
X0204704Y0238298D01*
X0204852Y0238236D01*
X0204999Y0238171D01*
X0205144Y0238102D01*
X0205287Y0238029D01*
X0205429Y0237952D01*
X0205568Y0237873D01*
X0205706Y0237790D01*
X0205841Y0237703D01*
X0205974Y0237613D01*
X0206105Y0237520D01*
X0206234Y0237424D01*
X0206360Y0237324D01*
X0206484Y0237221D01*
X0206605Y0237116D01*
X0206723Y0237007D01*
X0206839Y0236896D01*
X0206952Y0236781D01*
X0207062Y0236664D01*
X0207169Y0236545D01*
X0207273Y0236422D01*
X0207374Y0236297D01*
X0207472Y0236170D01*
X0207567Y0236040D01*
X0207658Y0235908D01*
X0207747Y0235774D01*
X0207832Y0235637D01*
X0207913Y0235499D01*
X0207991Y0235358D01*
X0208066Y0235216D01*
X0208137Y0235072D01*
X0208204Y0234926D01*
X0208268Y0234778D01*
X0208328Y0234629D01*
X0208384Y0234479D01*
X0208437Y0234327D01*
X0208486Y0234174D01*
X0208531Y0234020D01*
X0208572Y0233865D01*
X0208610Y0233708D01*
X0208643Y0233551D01*
X0208673Y0233393D01*
X0208699Y0233235D01*
X0208720Y0233075D01*
X0208738Y0232916D01*
X0208752Y0232756D01*
X0208762Y0232595D01*
X0208768Y0232435D01*
X0208770Y0232274D01*
X0208768Y0232113D01*
X0208762Y0231953D01*
X0208752Y0231792D01*
X0208738Y0231632D01*
X0208720Y0231473D01*
X0208699Y0231313D01*
X0208673Y0231155D01*
X0208643Y0230997D01*
X0208610Y0230840D01*
X0208572Y0230683D01*
X0208531Y0230528D01*
X0208486Y0230374D01*
X0208437Y0230221D01*
X0208384Y0230069D01*
X0208328Y0229919D01*
X0208268Y0229770D01*
X0208204Y0229622D01*
X0208137Y0229476D01*
X0208066Y0229332D01*
X0207991Y0229190D01*
X0207913Y0229049D01*
X0207832Y0228911D01*
X0207747Y0228774D01*
X0207658Y0228640D01*
X0207567Y0228508D01*
X0207472Y0228378D01*
X0207374Y0228251D01*
X0207273Y0228126D01*
X0207169Y0228003D01*
X0207062Y0227884D01*
X0206952Y0227767D01*
X0206839Y0227652D01*
X0206723Y0227541D01*
X0206605Y0227432D01*
X0206484Y0227327D01*
X0206360Y0227224D01*
X0206234Y0227124D01*
X0206105Y0227028D01*
X0205974Y0226935D01*
X0205841Y0226845D01*
X0205706Y0226758D01*
X0205568Y0226675D01*
X0205429Y0226596D01*
X0205287Y0226519D01*
X0205144Y0226446D01*
X0204999Y0226377D01*
X0204852Y0226312D01*
X0204704Y0226250D01*
X0204554Y0226191D01*
X0204403Y0226137D01*
X0204251Y0226086D01*
X0204097Y0226039D01*
X0203942Y0225996D01*
X0203787Y0225957D01*
X0203630Y0225921D01*
X0203472Y0225889D01*
X0203314Y0225862D01*
X0203155Y0225838D01*
X0202996Y0225818D01*
X0202836Y0225802D01*
X0202675Y0225790D01*
X0202515Y0225782D01*
X0202354Y0225778D01*
X0202194Y0225778D01*
X0202033Y0225782D01*
X0201873Y0225790D01*
X0201712Y0225802D01*
X0201552Y0225818D01*
X0201393Y0225838D01*
X0201234Y0225862D01*
X0201076Y0225889D01*
X0200918Y0225921D01*
X0200761Y0225957D01*
X0200606Y0225996D01*
X0200451Y0226039D01*
X0200297Y0226086D01*
X0200145Y0226137D01*
X0199994Y0226191D01*
X0199844Y0226250D01*
X0199696Y0226312D01*
X0199549Y0226377D01*
X0199404Y0226446D01*
X0199261Y0226519D01*
X0199119Y0226596D01*
X0198980Y0226675D01*
X0198842Y0226758D01*
X0198707Y0226845D01*
X0198574Y0226935D01*
X0198443Y0227028D01*
X0198314Y0227124D01*
X0198188Y0227224D01*
X0198064Y0227327D01*
X0197943Y0227432D01*
X0197825Y0227541D01*
X0197709Y0227652D01*
X0197596Y0227767D01*
X0197486Y0227884D01*
X0197379Y0228003D01*
X0197275Y0228126D01*
X0197174Y0228251D01*
X0197076Y0228378D01*
X0196981Y0228508D01*
X0196890Y0228640D01*
X0196801Y0228774D01*
X0196716Y0228911D01*
X0196635Y0229049D01*
X0196557Y0229190D01*
X0196482Y0229332D01*
X0196411Y0229476D01*
X0196344Y0229622D01*
X0196280Y0229770D01*
X0196220Y0229919D01*
X0196164Y0230069D01*
X0196111Y0230221D01*
X0196062Y0230374D01*
X0196017Y0230528D01*
X0195976Y0230683D01*
X0195938Y0230840D01*
X0195905Y0230997D01*
X0195875Y0231155D01*
X0195849Y0231313D01*
X0195828Y0231473D01*
X0195810Y0231632D01*
X0195796Y0231792D01*
X0195786Y0231953D01*
X0195780Y0232113D01*
X0195778Y0232274D01*
X0195778Y0012274D02*
X0195780Y0012435D01*
X0195786Y0012595D01*
X0195796Y0012756D01*
X0195810Y0012916D01*
X0195828Y0013075D01*
X0195849Y0013235D01*
X0195875Y0013393D01*
X0195905Y0013551D01*
X0195938Y0013708D01*
X0195976Y0013865D01*
X0196017Y0014020D01*
X0196062Y0014174D01*
X0196111Y0014327D01*
X0196164Y0014479D01*
X0196220Y0014629D01*
X0196280Y0014778D01*
X0196344Y0014926D01*
X0196411Y0015072D01*
X0196482Y0015216D01*
X0196557Y0015358D01*
X0196635Y0015499D01*
X0196716Y0015637D01*
X0196801Y0015774D01*
X0196890Y0015908D01*
X0196981Y0016040D01*
X0197076Y0016170D01*
X0197174Y0016297D01*
X0197275Y0016422D01*
X0197379Y0016545D01*
X0197486Y0016664D01*
X0197596Y0016781D01*
X0197709Y0016896D01*
X0197825Y0017007D01*
X0197943Y0017116D01*
X0198064Y0017221D01*
X0198188Y0017324D01*
X0198314Y0017424D01*
X0198443Y0017520D01*
X0198574Y0017613D01*
X0198707Y0017703D01*
X0198842Y0017790D01*
X0198980Y0017873D01*
X0199119Y0017952D01*
X0199261Y0018029D01*
X0199404Y0018102D01*
X0199549Y0018171D01*
X0199696Y0018236D01*
X0199844Y0018298D01*
X0199994Y0018357D01*
X0200145Y0018411D01*
X0200297Y0018462D01*
X0200451Y0018509D01*
X0200606Y0018552D01*
X0200761Y0018591D01*
X0200918Y0018627D01*
X0201076Y0018659D01*
X0201234Y0018686D01*
X0201393Y0018710D01*
X0201552Y0018730D01*
X0201712Y0018746D01*
X0201873Y0018758D01*
X0202033Y0018766D01*
X0202194Y0018770D01*
X0202354Y0018770D01*
X0202515Y0018766D01*
X0202675Y0018758D01*
X0202836Y0018746D01*
X0202996Y0018730D01*
X0203155Y0018710D01*
X0203314Y0018686D01*
X0203472Y0018659D01*
X0203630Y0018627D01*
X0203787Y0018591D01*
X0203942Y0018552D01*
X0204097Y0018509D01*
X0204251Y0018462D01*
X0204403Y0018411D01*
X0204554Y0018357D01*
X0204704Y0018298D01*
X0204852Y0018236D01*
X0204999Y0018171D01*
X0205144Y0018102D01*
X0205287Y0018029D01*
X0205429Y0017952D01*
X0205568Y0017873D01*
X0205706Y0017790D01*
X0205841Y0017703D01*
X0205974Y0017613D01*
X0206105Y0017520D01*
X0206234Y0017424D01*
X0206360Y0017324D01*
X0206484Y0017221D01*
X0206605Y0017116D01*
X0206723Y0017007D01*
X0206839Y0016896D01*
X0206952Y0016781D01*
X0207062Y0016664D01*
X0207169Y0016545D01*
X0207273Y0016422D01*
X0207374Y0016297D01*
X0207472Y0016170D01*
X0207567Y0016040D01*
X0207658Y0015908D01*
X0207747Y0015774D01*
X0207832Y0015637D01*
X0207913Y0015499D01*
X0207991Y0015358D01*
X0208066Y0015216D01*
X0208137Y0015072D01*
X0208204Y0014926D01*
X0208268Y0014778D01*
X0208328Y0014629D01*
X0208384Y0014479D01*
X0208437Y0014327D01*
X0208486Y0014174D01*
X0208531Y0014020D01*
X0208572Y0013865D01*
X0208610Y0013708D01*
X0208643Y0013551D01*
X0208673Y0013393D01*
X0208699Y0013235D01*
X0208720Y0013075D01*
X0208738Y0012916D01*
X0208752Y0012756D01*
X0208762Y0012595D01*
X0208768Y0012435D01*
X0208770Y0012274D01*
X0208768Y0012113D01*
X0208762Y0011953D01*
X0208752Y0011792D01*
X0208738Y0011632D01*
X0208720Y0011473D01*
X0208699Y0011313D01*
X0208673Y0011155D01*
X0208643Y0010997D01*
X0208610Y0010840D01*
X0208572Y0010683D01*
X0208531Y0010528D01*
X0208486Y0010374D01*
X0208437Y0010221D01*
X0208384Y0010069D01*
X0208328Y0009919D01*
X0208268Y0009770D01*
X0208204Y0009622D01*
X0208137Y0009476D01*
X0208066Y0009332D01*
X0207991Y0009190D01*
X0207913Y0009049D01*
X0207832Y0008911D01*
X0207747Y0008774D01*
X0207658Y0008640D01*
X0207567Y0008508D01*
X0207472Y0008378D01*
X0207374Y0008251D01*
X0207273Y0008126D01*
X0207169Y0008003D01*
X0207062Y0007884D01*
X0206952Y0007767D01*
X0206839Y0007652D01*
X0206723Y0007541D01*
X0206605Y0007432D01*
X0206484Y0007327D01*
X0206360Y0007224D01*
X0206234Y0007124D01*
X0206105Y0007028D01*
X0205974Y0006935D01*
X0205841Y0006845D01*
X0205706Y0006758D01*
X0205568Y0006675D01*
X0205429Y0006596D01*
X0205287Y0006519D01*
X0205144Y0006446D01*
X0204999Y0006377D01*
X0204852Y0006312D01*
X0204704Y0006250D01*
X0204554Y0006191D01*
X0204403Y0006137D01*
X0204251Y0006086D01*
X0204097Y0006039D01*
X0203942Y0005996D01*
X0203787Y0005957D01*
X0203630Y0005921D01*
X0203472Y0005889D01*
X0203314Y0005862D01*
X0203155Y0005838D01*
X0202996Y0005818D01*
X0202836Y0005802D01*
X0202675Y0005790D01*
X0202515Y0005782D01*
X0202354Y0005778D01*
X0202194Y0005778D01*
X0202033Y0005782D01*
X0201873Y0005790D01*
X0201712Y0005802D01*
X0201552Y0005818D01*
X0201393Y0005838D01*
X0201234Y0005862D01*
X0201076Y0005889D01*
X0200918Y0005921D01*
X0200761Y0005957D01*
X0200606Y0005996D01*
X0200451Y0006039D01*
X0200297Y0006086D01*
X0200145Y0006137D01*
X0199994Y0006191D01*
X0199844Y0006250D01*
X0199696Y0006312D01*
X0199549Y0006377D01*
X0199404Y0006446D01*
X0199261Y0006519D01*
X0199119Y0006596D01*
X0198980Y0006675D01*
X0198842Y0006758D01*
X0198707Y0006845D01*
X0198574Y0006935D01*
X0198443Y0007028D01*
X0198314Y0007124D01*
X0198188Y0007224D01*
X0198064Y0007327D01*
X0197943Y0007432D01*
X0197825Y0007541D01*
X0197709Y0007652D01*
X0197596Y0007767D01*
X0197486Y0007884D01*
X0197379Y0008003D01*
X0197275Y0008126D01*
X0197174Y0008251D01*
X0197076Y0008378D01*
X0196981Y0008508D01*
X0196890Y0008640D01*
X0196801Y0008774D01*
X0196716Y0008911D01*
X0196635Y0009049D01*
X0196557Y0009190D01*
X0196482Y0009332D01*
X0196411Y0009476D01*
X0196344Y0009622D01*
X0196280Y0009770D01*
X0196220Y0009919D01*
X0196164Y0010069D01*
X0196111Y0010221D01*
X0196062Y0010374D01*
X0196017Y0010528D01*
X0195976Y0010683D01*
X0195938Y0010840D01*
X0195905Y0010997D01*
X0195875Y0011155D01*
X0195849Y0011313D01*
X0195828Y0011473D01*
X0195810Y0011632D01*
X0195796Y0011792D01*
X0195786Y0011953D01*
X0195780Y0012113D01*
X0195778Y0012274D01*
D11*
X0196141Y0102574D02*
X0195340Y0102574D01*
X0194940Y0102974D01*
X0195741Y0103775D02*
X0196141Y0103775D01*
X0196541Y0103374D01*
X0196541Y0102974D01*
X0196141Y0102574D01*
X0196141Y0103775D02*
X0196541Y0104175D01*
X0196541Y0104575D01*
X0196141Y0104976D01*
X0195340Y0104976D01*
X0194940Y0104575D01*
X0193779Y0104575D02*
X0193379Y0104976D01*
X0192578Y0104976D01*
X0192178Y0104575D01*
X0191017Y0104575D02*
X0190616Y0104976D01*
X0189816Y0104976D01*
X0189415Y0104575D01*
X0189415Y0102974D01*
X0189816Y0102574D01*
X0190616Y0102574D01*
X0191017Y0102974D01*
X0191017Y0104575D01*
X0192178Y0102574D02*
X0193779Y0104175D01*
X0193779Y0104575D01*
X0193779Y0102574D02*
X0192178Y0102574D01*
X0188374Y0102574D02*
X0187574Y0102574D01*
X0187974Y0102574D02*
X0187974Y0104976D01*
X0187574Y0104976D02*
X0188374Y0104976D01*
X0186541Y0104575D02*
X0186541Y0104175D01*
X0186141Y0103775D01*
X0185340Y0103775D01*
X0184940Y0104175D01*
X0184940Y0104575D01*
X0185340Y0104976D01*
X0186141Y0104976D01*
X0186541Y0104575D01*
X0186141Y0103775D02*
X0186541Y0103374D01*
X0186541Y0102974D01*
X0186141Y0102574D01*
X0185340Y0102574D01*
X0184940Y0102974D01*
X0184940Y0103374D01*
X0185340Y0103775D01*
X0183779Y0102574D02*
X0182178Y0102574D01*
X0182978Y0102574D02*
X0182978Y0104976D01*
X0182178Y0104175D01*
X0181017Y0104575D02*
X0180616Y0104976D01*
X0179816Y0104976D01*
X0179415Y0104575D01*
X0179415Y0102974D01*
X0179816Y0102574D01*
X0180616Y0102574D01*
X0181017Y0102974D01*
X0181017Y0104575D01*
X0178374Y0104976D02*
X0177574Y0104976D01*
X0177974Y0104976D02*
X0177974Y0102574D01*
X0177574Y0102574D02*
X0178374Y0102574D01*
X0176541Y0102974D02*
X0176541Y0104575D01*
X0176141Y0104976D01*
X0175340Y0104976D01*
X0174940Y0104575D01*
X0174940Y0104175D01*
X0175340Y0103775D01*
X0176541Y0103775D01*
X0176541Y0102974D02*
X0176141Y0102574D01*
X0175340Y0102574D01*
X0174940Y0102974D01*
X0173779Y0102574D02*
X0172178Y0102574D01*
X0172978Y0102574D02*
X0172978Y0104976D01*
X0172178Y0104175D01*
X0171017Y0104575D02*
X0170616Y0104976D01*
X0169816Y0104976D01*
X0169415Y0104575D01*
X0169415Y0102974D01*
X0169816Y0102574D01*
X0170616Y0102574D01*
X0171017Y0102974D01*
X0171017Y0104575D01*
X0168374Y0104976D02*
X0167574Y0104976D01*
X0167974Y0104976D02*
X0167974Y0102574D01*
X0167574Y0102574D02*
X0168374Y0102574D01*
X0166541Y0102574D02*
X0164940Y0102574D01*
X0165741Y0102574D02*
X0165741Y0104976D01*
X0164940Y0104175D01*
X0163779Y0104175D02*
X0163779Y0104575D01*
X0163379Y0104976D01*
X0162578Y0104976D01*
X0162178Y0104575D01*
X0161017Y0104575D02*
X0160616Y0104976D01*
X0159816Y0104976D01*
X0159415Y0104575D01*
X0159415Y0102974D01*
X0159816Y0102574D01*
X0160616Y0102574D01*
X0161017Y0102974D01*
X0161017Y0104575D01*
X0162178Y0102574D02*
X0163779Y0104175D01*
X0163779Y0102574D02*
X0162178Y0102574D01*
X0158374Y0102574D02*
X0157574Y0102574D01*
X0157974Y0102574D02*
X0157974Y0104976D01*
X0157574Y0104976D02*
X0158374Y0104976D01*
X0156541Y0104575D02*
X0156141Y0104976D01*
X0155340Y0104976D01*
X0154940Y0104575D01*
X0153779Y0104575D02*
X0153379Y0104976D01*
X0152578Y0104976D01*
X0152178Y0104575D01*
X0151017Y0104575D02*
X0150616Y0104976D01*
X0149816Y0104976D01*
X0149415Y0104575D01*
X0149415Y0102974D01*
X0149816Y0102574D01*
X0150616Y0102574D01*
X0151017Y0102974D01*
X0151017Y0104575D01*
X0152178Y0102574D02*
X0153779Y0104175D01*
X0153779Y0104575D01*
X0153779Y0102574D02*
X0152178Y0102574D01*
X0148374Y0102574D02*
X0147574Y0102574D01*
X0147974Y0102574D02*
X0147974Y0104976D01*
X0147574Y0104976D02*
X0148374Y0104976D01*
X0149774Y0107274D02*
X0147274Y0109774D01*
X0144774Y0107274D01*
X0139774Y0107274D01*
X0137274Y0109774D01*
X0137274Y0114774D01*
X0139774Y0117274D01*
X0144774Y0117274D01*
X0147274Y0114774D01*
X0149774Y0117274D01*
X0154774Y0117274D01*
X0157274Y0114774D01*
X0159774Y0117274D01*
X0164774Y0117274D01*
X0167274Y0114774D01*
X0169774Y0117274D01*
X0174774Y0117274D01*
X0177274Y0114774D01*
X0179774Y0117274D01*
X0184774Y0117274D01*
X0187274Y0114774D01*
X0189774Y0117274D01*
X0194774Y0117274D01*
X0197274Y0114774D01*
X0197274Y0109774D01*
X0194774Y0107274D01*
X0189774Y0107274D01*
X0187274Y0109774D01*
X0184774Y0107274D01*
X0179774Y0107274D01*
X0177274Y0109774D01*
X0174774Y0107274D01*
X0169774Y0107274D01*
X0167274Y0109774D01*
X0164774Y0107274D01*
X0159774Y0107274D01*
X0157274Y0109774D01*
X0154774Y0107274D01*
X0149774Y0107274D01*
X0147274Y0109774D02*
X0147274Y0114774D01*
X0149224Y0122574D02*
X0150025Y0122574D01*
X0150425Y0122974D01*
X0151586Y0122574D02*
X0153187Y0122574D01*
X0154348Y0122574D02*
X0154348Y0124976D01*
X0154749Y0123775D02*
X0155950Y0122574D01*
X0154348Y0123374D02*
X0155950Y0124976D01*
X0154774Y0127274D02*
X0149774Y0127274D01*
X0147274Y0129774D01*
X0147274Y0134774D01*
X0149774Y0137274D01*
X0154774Y0137274D01*
X0157274Y0134774D01*
X0159774Y0137274D01*
X0164774Y0137274D01*
X0167274Y0134774D01*
X0169774Y0137274D01*
X0174774Y0137274D01*
X0177274Y0134774D01*
X0179774Y0137274D01*
X0184774Y0137274D01*
X0187274Y0134774D01*
X0189774Y0137274D01*
X0194774Y0137274D01*
X0197274Y0134774D01*
X0197274Y0129774D01*
X0194774Y0127274D01*
X0189774Y0127274D01*
X0187274Y0129774D01*
X0184774Y0127274D01*
X0179774Y0127274D01*
X0177274Y0129774D01*
X0174774Y0127274D01*
X0169774Y0127274D01*
X0167274Y0129774D01*
X0164774Y0127274D01*
X0159774Y0127274D01*
X0157274Y0129774D01*
X0154774Y0127274D01*
X0157274Y0129774D02*
X0157274Y0134774D01*
X0159224Y0124976D02*
X0158824Y0124575D01*
X0158824Y0124175D01*
X0159224Y0123775D01*
X0160025Y0123775D01*
X0160425Y0123374D01*
X0160425Y0122974D01*
X0160025Y0122574D01*
X0159224Y0122574D01*
X0158824Y0122974D01*
X0159224Y0124976D02*
X0160025Y0124976D01*
X0160425Y0124575D01*
X0161586Y0124976D02*
X0161586Y0122574D01*
X0162787Y0122574D01*
X0163187Y0122974D01*
X0163187Y0124575D01*
X0162787Y0124976D01*
X0161586Y0124976D01*
X0164348Y0124575D02*
X0164348Y0122974D01*
X0165950Y0124575D01*
X0165950Y0122974D01*
X0165549Y0122574D01*
X0164749Y0122574D01*
X0164348Y0122974D01*
X0164348Y0124575D02*
X0164749Y0124976D01*
X0165549Y0124976D01*
X0165950Y0124575D01*
X0168824Y0124575D02*
X0168824Y0124175D01*
X0169224Y0123775D01*
X0170025Y0123775D01*
X0170425Y0123374D01*
X0170425Y0122974D01*
X0170025Y0122574D01*
X0169224Y0122574D01*
X0168824Y0122974D01*
X0168824Y0124575D02*
X0169224Y0124976D01*
X0170025Y0124976D01*
X0170425Y0124575D01*
X0171586Y0124976D02*
X0172787Y0124976D01*
X0173187Y0124575D01*
X0173187Y0122974D01*
X0172787Y0122574D01*
X0171586Y0122574D01*
X0171586Y0124976D01*
X0174348Y0124175D02*
X0175149Y0124976D01*
X0175149Y0122574D01*
X0174348Y0122574D02*
X0175950Y0122574D01*
X0177574Y0122574D02*
X0178374Y0122574D01*
X0177974Y0122574D02*
X0177974Y0124976D01*
X0177574Y0124976D02*
X0178374Y0124976D01*
X0179415Y0124575D02*
X0179415Y0122974D01*
X0179816Y0122574D01*
X0180616Y0122574D01*
X0181017Y0122974D01*
X0181017Y0124575D01*
X0180616Y0124976D01*
X0179816Y0124976D01*
X0179415Y0124575D01*
X0182178Y0124175D02*
X0182978Y0124976D01*
X0182978Y0122574D01*
X0182178Y0122574D02*
X0183779Y0122574D01*
X0184940Y0122974D02*
X0185340Y0122574D01*
X0186141Y0122574D01*
X0186541Y0122974D01*
X0186541Y0123775D01*
X0186141Y0124175D01*
X0185741Y0124175D01*
X0184940Y0123775D01*
X0184940Y0124976D01*
X0186541Y0124976D01*
X0190074Y0124976D02*
X0190874Y0124976D01*
X0190474Y0124976D02*
X0190474Y0122574D01*
X0190074Y0122574D02*
X0190874Y0122574D01*
X0191915Y0122974D02*
X0191915Y0124575D01*
X0192316Y0124976D01*
X0193116Y0124976D01*
X0193517Y0124575D01*
X0193517Y0122974D01*
X0193116Y0122574D01*
X0192316Y0122574D01*
X0191915Y0122974D01*
X0194678Y0122574D02*
X0196279Y0124175D01*
X0196279Y0124575D01*
X0195879Y0124976D01*
X0195078Y0124976D01*
X0194678Y0124575D01*
X0194678Y0122574D02*
X0196279Y0122574D01*
X0187274Y0129774D02*
X0187274Y0134774D01*
X0184774Y0147274D02*
X0179774Y0147274D01*
X0177274Y0149774D01*
X0177274Y0154774D01*
X0174774Y0157274D01*
X0177274Y0159774D01*
X0177274Y0164774D01*
X0174774Y0167274D01*
X0177274Y0169774D01*
X0177274Y0174774D01*
X0174774Y0177274D01*
X0177274Y0179774D01*
X0177274Y0184774D01*
X0174774Y0187274D01*
X0177274Y0189774D01*
X0177274Y0194774D01*
X0174774Y0197274D01*
X0177274Y0199774D01*
X0177274Y0204774D01*
X0174774Y0207274D01*
X0169774Y0207274D01*
X0167274Y0204774D01*
X0167274Y0199774D01*
X0169774Y0197274D01*
X0174774Y0197274D01*
X0177274Y0199774D02*
X0177274Y0204774D01*
X0179774Y0207274D01*
X0184774Y0207274D01*
X0187274Y0204774D01*
X0187274Y0199774D01*
X0184774Y0197274D01*
X0187274Y0194774D01*
X0187274Y0189774D01*
X0184774Y0187274D01*
X0187274Y0184774D01*
X0187274Y0179774D01*
X0184774Y0177274D01*
X0187274Y0174774D01*
X0187274Y0169774D01*
X0184774Y0167274D01*
X0187274Y0164774D01*
X0187274Y0159774D01*
X0184774Y0157274D01*
X0187274Y0154774D01*
X0187274Y0149774D01*
X0184774Y0147274D01*
X0191324Y0151324D02*
X0192124Y0151324D01*
X0191724Y0151324D02*
X0191724Y0153726D01*
X0191324Y0153726D02*
X0192124Y0153726D01*
X0193165Y0153325D02*
X0193165Y0151724D01*
X0193566Y0151324D01*
X0194366Y0151324D01*
X0194767Y0151724D01*
X0194767Y0153325D01*
X0194366Y0153726D01*
X0193566Y0153726D01*
X0193165Y0153325D01*
X0195928Y0152525D02*
X0197529Y0152525D01*
X0197129Y0153726D02*
X0195928Y0152525D01*
X0197129Y0151324D02*
X0197129Y0153726D01*
X0197529Y0161324D02*
X0195928Y0161324D01*
X0196728Y0161324D02*
X0196728Y0163726D01*
X0195928Y0162925D01*
X0194767Y0163325D02*
X0194366Y0163726D01*
X0193566Y0163726D01*
X0193165Y0163325D01*
X0193165Y0161724D01*
X0193566Y0161324D01*
X0194366Y0161324D01*
X0194767Y0161724D01*
X0194767Y0163325D01*
X0192124Y0163726D02*
X0191324Y0163726D01*
X0191724Y0163726D02*
X0191724Y0161324D01*
X0191324Y0161324D02*
X0192124Y0161324D01*
X0198690Y0161324D02*
X0198690Y0161724D01*
X0200291Y0163325D01*
X0200291Y0163726D01*
X0198690Y0163726D01*
X0199090Y0171324D02*
X0198690Y0171724D01*
X0198690Y0172124D01*
X0199090Y0172525D01*
X0199891Y0172525D01*
X0200291Y0172124D01*
X0200291Y0171724D01*
X0199891Y0171324D01*
X0199090Y0171324D01*
X0199090Y0172525D02*
X0198690Y0172925D01*
X0198690Y0173325D01*
X0199090Y0173726D01*
X0199891Y0173726D01*
X0200291Y0173325D01*
X0200291Y0172925D01*
X0199891Y0172525D01*
X0197529Y0171324D02*
X0195928Y0171324D01*
X0196728Y0171324D02*
X0196728Y0173726D01*
X0195928Y0172925D01*
X0194767Y0173325D02*
X0194366Y0173726D01*
X0193566Y0173726D01*
X0193165Y0173325D01*
X0193165Y0171724D01*
X0193566Y0171324D01*
X0194366Y0171324D01*
X0194767Y0171724D01*
X0194767Y0173325D01*
X0192124Y0173726D02*
X0191324Y0173726D01*
X0191724Y0173726D02*
X0191724Y0171324D01*
X0191324Y0171324D02*
X0192124Y0171324D01*
X0184774Y0167274D02*
X0179774Y0167274D01*
X0177274Y0169774D01*
X0177274Y0174774D01*
X0179774Y0177274D01*
X0177274Y0179774D01*
X0177274Y0184774D01*
X0179774Y0187274D01*
X0177274Y0189774D01*
X0177274Y0194774D01*
X0179774Y0197274D01*
X0177274Y0199774D01*
X0179774Y0197274D02*
X0184774Y0197274D01*
X0191324Y0193726D02*
X0192925Y0193726D01*
X0192124Y0193726D02*
X0192124Y0191324D01*
X0194086Y0191324D02*
X0195687Y0193726D01*
X0194086Y0193726D02*
X0195687Y0191324D01*
X0196066Y0183726D02*
X0195665Y0183325D01*
X0195665Y0181724D01*
X0196066Y0181324D01*
X0196866Y0181324D01*
X0197267Y0181724D01*
X0197267Y0183325D01*
X0196866Y0183726D01*
X0196066Y0183726D01*
X0194624Y0183726D02*
X0193824Y0183726D01*
X0194224Y0183726D02*
X0194224Y0181324D01*
X0193824Y0181324D02*
X0194624Y0181324D01*
X0198428Y0181324D02*
X0200029Y0182925D01*
X0200029Y0183325D01*
X0199629Y0183726D01*
X0198828Y0183726D01*
X0198428Y0183325D01*
X0198428Y0181324D02*
X0200029Y0181324D01*
X0201190Y0181324D02*
X0202791Y0181324D01*
X0201991Y0181324D02*
X0201991Y0183726D01*
X0201190Y0182925D01*
X0184774Y0187274D02*
X0179774Y0187274D01*
X0174774Y0187274D02*
X0169774Y0187274D01*
X0167274Y0189774D01*
X0167274Y0194774D01*
X0169774Y0197274D01*
X0163913Y0200824D02*
X0162311Y0200824D01*
X0163913Y0202425D01*
X0163913Y0202825D01*
X0163512Y0203226D01*
X0162712Y0203226D01*
X0162311Y0202825D01*
X0161150Y0202825D02*
X0160750Y0203226D01*
X0159949Y0203226D01*
X0159549Y0202825D01*
X0158388Y0202825D02*
X0157988Y0203226D01*
X0157187Y0203226D01*
X0156787Y0202825D01*
X0156787Y0201224D01*
X0157187Y0200824D01*
X0157988Y0200824D01*
X0158388Y0201224D01*
X0158388Y0202825D01*
X0159549Y0200824D02*
X0161150Y0202425D01*
X0161150Y0202825D01*
X0161150Y0200824D02*
X0159549Y0200824D01*
X0155746Y0200824D02*
X0154945Y0200824D01*
X0155345Y0200824D02*
X0155345Y0203226D01*
X0154945Y0203226D02*
X0155746Y0203226D01*
X0159549Y0193226D02*
X0160750Y0193226D01*
X0161150Y0192825D01*
X0161150Y0192025D01*
X0160750Y0191624D01*
X0159549Y0191624D01*
X0159549Y0190824D02*
X0159549Y0193226D01*
X0160350Y0191624D02*
X0161150Y0190824D01*
X0162311Y0190824D02*
X0163913Y0193226D01*
X0162311Y0193226D02*
X0163913Y0190824D01*
X0169774Y0187274D02*
X0167274Y0184774D01*
X0167274Y0179774D01*
X0169774Y0177274D01*
X0174774Y0177274D01*
X0179774Y0177274D02*
X0184774Y0177274D01*
X0179774Y0167274D02*
X0177274Y0164774D01*
X0177274Y0159774D01*
X0179774Y0157274D01*
X0184774Y0157274D01*
X0179774Y0157274D02*
X0177274Y0154774D01*
X0177274Y0149774D01*
X0174774Y0147274D01*
X0169774Y0147274D01*
X0167274Y0149774D01*
X0167274Y0154774D01*
X0169774Y0157274D01*
X0167274Y0159774D01*
X0167274Y0164774D01*
X0169774Y0167274D01*
X0167274Y0169774D01*
X0167274Y0174774D01*
X0169774Y0177274D01*
X0163913Y0181224D02*
X0163913Y0182825D01*
X0163512Y0183226D01*
X0162712Y0183226D01*
X0162311Y0182825D01*
X0162311Y0182425D01*
X0162712Y0182025D01*
X0163913Y0182025D01*
X0163913Y0181224D02*
X0163512Y0180824D01*
X0162712Y0180824D01*
X0162311Y0181224D01*
X0161150Y0180824D02*
X0159549Y0180824D01*
X0160350Y0180824D02*
X0160350Y0183226D01*
X0159549Y0182425D01*
X0158388Y0182825D02*
X0158388Y0181224D01*
X0157988Y0180824D01*
X0157187Y0180824D01*
X0156787Y0181224D01*
X0156787Y0182825D01*
X0157187Y0183226D01*
X0157988Y0183226D01*
X0158388Y0182825D01*
X0155746Y0183226D02*
X0154945Y0183226D01*
X0155345Y0183226D02*
X0155345Y0180824D01*
X0154945Y0180824D02*
X0155746Y0180824D01*
X0157707Y0173226D02*
X0158508Y0173226D01*
X0158108Y0173226D02*
X0158108Y0170824D01*
X0158508Y0170824D02*
X0157707Y0170824D01*
X0159549Y0171224D02*
X0159549Y0172825D01*
X0159949Y0173226D01*
X0160750Y0173226D01*
X0161150Y0172825D01*
X0161150Y0171224D01*
X0160750Y0170824D01*
X0159949Y0170824D01*
X0159549Y0171224D01*
X0162311Y0171224D02*
X0162712Y0170824D01*
X0163512Y0170824D01*
X0163913Y0171224D01*
X0163913Y0172025D01*
X0163512Y0172425D01*
X0163112Y0172425D01*
X0162311Y0172025D01*
X0162311Y0173226D01*
X0163913Y0173226D01*
X0169774Y0167274D02*
X0174774Y0167274D01*
X0174774Y0157274D02*
X0169774Y0157274D01*
X0163913Y0161224D02*
X0163512Y0160824D01*
X0162712Y0160824D01*
X0162311Y0161224D01*
X0162311Y0162025D01*
X0163512Y0162025D01*
X0163913Y0161624D01*
X0163913Y0161224D01*
X0163112Y0162825D02*
X0162311Y0162025D01*
X0163112Y0162825D02*
X0163913Y0163226D01*
X0161150Y0160824D02*
X0159549Y0160824D01*
X0160350Y0160824D02*
X0160350Y0163226D01*
X0159549Y0162425D01*
X0158388Y0162825D02*
X0157988Y0163226D01*
X0157187Y0163226D01*
X0156787Y0162825D01*
X0156787Y0161224D01*
X0157187Y0160824D01*
X0157988Y0160824D01*
X0158388Y0161224D01*
X0158388Y0162825D01*
X0155746Y0163226D02*
X0154945Y0163226D01*
X0155345Y0163226D02*
X0155345Y0160824D01*
X0154945Y0160824D02*
X0155746Y0160824D01*
X0157707Y0153226D02*
X0158508Y0153226D01*
X0158108Y0153226D02*
X0158108Y0150824D01*
X0158508Y0150824D02*
X0157707Y0150824D01*
X0159549Y0151224D02*
X0159949Y0150824D01*
X0160750Y0150824D01*
X0161150Y0151224D01*
X0161150Y0152825D01*
X0160750Y0153226D01*
X0159949Y0153226D01*
X0159549Y0152825D01*
X0159549Y0151224D01*
X0162311Y0151224D02*
X0163913Y0152825D01*
X0163913Y0151224D01*
X0163512Y0150824D01*
X0162712Y0150824D01*
X0162311Y0151224D01*
X0162311Y0152825D01*
X0162712Y0153226D01*
X0163512Y0153226D01*
X0163913Y0152825D01*
X0167274Y0134774D02*
X0167274Y0129774D01*
X0177274Y0129774D02*
X0177274Y0134774D01*
X0177274Y0114774D02*
X0177274Y0109774D01*
X0187274Y0109774D02*
X0187274Y0114774D01*
X0167274Y0114774D02*
X0167274Y0109774D01*
X0157274Y0109774D02*
X0157274Y0114774D01*
X0151586Y0122574D02*
X0151586Y0124976D01*
X0150425Y0124575D02*
X0150025Y0124976D01*
X0149224Y0124976D01*
X0148824Y0124575D01*
X0148824Y0122974D01*
X0149224Y0122574D01*
X0145029Y0104976D02*
X0143428Y0104976D01*
X0143428Y0103775D01*
X0144228Y0104175D01*
X0144629Y0104175D01*
X0145029Y0103775D01*
X0145029Y0102974D01*
X0144629Y0102574D01*
X0143828Y0102574D01*
X0143428Y0102974D01*
X0142267Y0102974D02*
X0142267Y0104575D01*
X0141866Y0104976D01*
X0141066Y0104976D01*
X0140665Y0104575D01*
X0140665Y0102974D01*
X0141066Y0102574D01*
X0141866Y0102574D01*
X0142267Y0102974D01*
X0139624Y0102574D02*
X0138824Y0102574D01*
X0139224Y0102574D02*
X0139224Y0104976D01*
X0138824Y0104976D02*
X0139624Y0104976D01*
X0154940Y0102574D02*
X0156541Y0104175D01*
X0156541Y0104575D01*
X0156541Y0102574D02*
X0154940Y0102574D01*
X0077274Y0109774D02*
X0074774Y0107274D01*
X0069774Y0107274D01*
X0067274Y0109774D01*
X0064774Y0107274D01*
X0059774Y0107274D01*
X0057274Y0109774D01*
X0054774Y0107274D01*
X0049774Y0107274D01*
X0047274Y0109774D01*
X0044774Y0107274D01*
X0039774Y0107274D01*
X0037274Y0109774D01*
X0034774Y0107274D01*
X0029774Y0107274D01*
X0027274Y0109774D01*
X0024774Y0107274D01*
X0019774Y0107274D01*
X0017274Y0109774D01*
X0017274Y0114774D01*
X0019774Y0117274D01*
X0024774Y0117274D01*
X0027274Y0114774D01*
X0029774Y0117274D01*
X0034774Y0117274D01*
X0037274Y0114774D01*
X0039774Y0117274D01*
X0044774Y0117274D01*
X0047274Y0114774D01*
X0049774Y0117274D01*
X0054774Y0117274D01*
X0057274Y0114774D01*
X0059774Y0117274D01*
X0064774Y0117274D01*
X0067274Y0114774D01*
X0069774Y0117274D01*
X0074774Y0117274D01*
X0077274Y0114774D01*
X0077274Y0109774D01*
X0076541Y0104976D02*
X0074940Y0104976D01*
X0074940Y0103775D01*
X0075741Y0104175D01*
X0076141Y0104175D01*
X0076541Y0103775D01*
X0076541Y0102974D01*
X0076141Y0102574D01*
X0075340Y0102574D01*
X0074940Y0102974D01*
X0073779Y0102574D02*
X0072178Y0102574D01*
X0072978Y0102574D02*
X0072978Y0104976D01*
X0072178Y0104175D01*
X0071017Y0104575D02*
X0070616Y0104976D01*
X0069816Y0104976D01*
X0069415Y0104575D01*
X0069415Y0102974D01*
X0069816Y0102574D01*
X0070616Y0102574D01*
X0071017Y0102974D01*
X0071017Y0104575D01*
X0068374Y0104976D02*
X0067574Y0104976D01*
X0067974Y0104976D02*
X0067974Y0102574D01*
X0067574Y0102574D02*
X0068374Y0102574D01*
X0065029Y0102574D02*
X0063428Y0102574D01*
X0065029Y0104175D01*
X0065029Y0104575D01*
X0064629Y0104976D01*
X0063828Y0104976D01*
X0063428Y0104575D01*
X0062267Y0104575D02*
X0061866Y0104976D01*
X0061066Y0104976D01*
X0060665Y0104575D01*
X0060665Y0102974D01*
X0061066Y0102574D01*
X0061866Y0102574D01*
X0062267Y0102974D01*
X0062267Y0104575D01*
X0059624Y0104976D02*
X0058824Y0104976D01*
X0059224Y0104976D02*
X0059224Y0102574D01*
X0058824Y0102574D02*
X0059624Y0102574D01*
X0055029Y0103775D02*
X0053428Y0103775D01*
X0054629Y0104976D01*
X0054629Y0102574D01*
X0052267Y0102974D02*
X0052267Y0104575D01*
X0051866Y0104976D01*
X0051066Y0104976D01*
X0050665Y0104575D01*
X0050665Y0102974D01*
X0051066Y0102574D01*
X0051866Y0102574D01*
X0052267Y0102974D01*
X0049624Y0102574D02*
X0048824Y0102574D01*
X0049224Y0102574D02*
X0049224Y0104976D01*
X0048824Y0104976D02*
X0049624Y0104976D01*
X0046541Y0104575D02*
X0046141Y0104976D01*
X0045340Y0104976D01*
X0044940Y0104575D01*
X0046541Y0104575D02*
X0046541Y0104175D01*
X0044940Y0102574D01*
X0046541Y0102574D01*
X0043779Y0102574D02*
X0042178Y0102574D01*
X0042978Y0102574D02*
X0042978Y0104976D01*
X0042178Y0104175D01*
X0041017Y0104575D02*
X0040616Y0104976D01*
X0039816Y0104976D01*
X0039415Y0104575D01*
X0039415Y0102974D01*
X0039816Y0102574D01*
X0040616Y0102574D01*
X0041017Y0102974D01*
X0041017Y0104575D01*
X0038374Y0104976D02*
X0037574Y0104976D01*
X0037974Y0104976D02*
X0037974Y0102574D01*
X0037574Y0102574D02*
X0038374Y0102574D01*
X0036541Y0103775D02*
X0034940Y0103775D01*
X0036141Y0104976D01*
X0036141Y0102574D01*
X0033779Y0102574D02*
X0032178Y0102574D01*
X0032978Y0102574D02*
X0032978Y0104976D01*
X0032178Y0104175D01*
X0031017Y0104575D02*
X0030616Y0104976D01*
X0029816Y0104976D01*
X0029415Y0104575D01*
X0029415Y0102974D01*
X0029816Y0102574D01*
X0030616Y0102574D01*
X0031017Y0102974D01*
X0031017Y0104575D01*
X0028374Y0104976D02*
X0027574Y0104976D01*
X0027974Y0104976D02*
X0027974Y0102574D01*
X0027574Y0102574D02*
X0028374Y0102574D01*
X0026541Y0102974D02*
X0026141Y0102574D01*
X0025340Y0102574D01*
X0024940Y0102974D01*
X0025741Y0103775D02*
X0026141Y0103775D01*
X0026541Y0103374D01*
X0026541Y0102974D01*
X0026141Y0103775D02*
X0026541Y0104175D01*
X0026541Y0104575D01*
X0026141Y0104976D01*
X0025340Y0104976D01*
X0024940Y0104575D01*
X0022978Y0104976D02*
X0022978Y0102574D01*
X0022178Y0102574D02*
X0023779Y0102574D01*
X0022178Y0104175D02*
X0022978Y0104976D01*
X0021017Y0104575D02*
X0020616Y0104976D01*
X0019816Y0104976D01*
X0019415Y0104575D01*
X0019415Y0102974D01*
X0019816Y0102574D01*
X0020616Y0102574D01*
X0021017Y0102974D01*
X0021017Y0104575D01*
X0018374Y0104976D02*
X0017574Y0104976D01*
X0017974Y0104976D02*
X0017974Y0102574D01*
X0017574Y0102574D02*
X0018374Y0102574D01*
X0027274Y0109774D02*
X0027274Y0114774D01*
X0027574Y0122574D02*
X0028374Y0122574D01*
X0027974Y0122574D02*
X0027974Y0124976D01*
X0027574Y0124976D02*
X0028374Y0124976D01*
X0029415Y0124575D02*
X0029415Y0122974D01*
X0029816Y0122574D01*
X0030616Y0122574D01*
X0031017Y0122974D01*
X0031017Y0124575D01*
X0030616Y0124976D01*
X0029816Y0124976D01*
X0029415Y0124575D01*
X0029774Y0127274D02*
X0027274Y0129774D01*
X0024774Y0127274D01*
X0019774Y0127274D01*
X0017274Y0129774D01*
X0017274Y0134774D01*
X0019774Y0137274D01*
X0024774Y0137274D01*
X0027274Y0134774D01*
X0029774Y0137274D01*
X0034774Y0137274D01*
X0037274Y0134774D01*
X0039774Y0137274D01*
X0044774Y0137274D01*
X0047274Y0134774D01*
X0049774Y0137274D01*
X0054774Y0137274D01*
X0057274Y0134774D01*
X0059774Y0137274D01*
X0064774Y0137274D01*
X0067274Y0134774D01*
X0067274Y0129774D01*
X0064774Y0127274D01*
X0059774Y0127274D01*
X0057274Y0129774D01*
X0054774Y0127274D01*
X0049774Y0127274D01*
X0047274Y0129774D01*
X0044774Y0127274D01*
X0039774Y0127274D01*
X0037274Y0129774D01*
X0034774Y0127274D01*
X0029774Y0127274D01*
X0027274Y0129774D02*
X0027274Y0134774D01*
X0024299Y0124976D02*
X0023098Y0124976D01*
X0023098Y0122574D01*
X0024299Y0122574D01*
X0024700Y0122974D01*
X0024700Y0124575D01*
X0024299Y0124976D01*
X0021937Y0124976D02*
X0021937Y0122574D01*
X0020336Y0124976D01*
X0020336Y0122574D01*
X0019175Y0122974D02*
X0019175Y0123775D01*
X0018374Y0123775D01*
X0017574Y0124575D02*
X0017574Y0122974D01*
X0017974Y0122574D01*
X0018775Y0122574D01*
X0019175Y0122974D01*
X0019175Y0124575D02*
X0018775Y0124976D01*
X0017974Y0124976D01*
X0017574Y0124575D01*
X0032178Y0124175D02*
X0032978Y0124976D01*
X0032978Y0122574D01*
X0032178Y0122574D02*
X0033779Y0122574D01*
X0034940Y0122974D02*
X0035340Y0122574D01*
X0036141Y0122574D01*
X0036541Y0122974D01*
X0036541Y0123374D01*
X0036141Y0123775D01*
X0035741Y0123775D01*
X0036141Y0123775D02*
X0036541Y0124175D01*
X0036541Y0124575D01*
X0036141Y0124976D01*
X0035340Y0124976D01*
X0034940Y0124575D01*
X0038824Y0124575D02*
X0038824Y0124175D01*
X0039224Y0123775D01*
X0040025Y0123775D01*
X0040425Y0123374D01*
X0040425Y0122974D01*
X0040025Y0122574D01*
X0039224Y0122574D01*
X0038824Y0122974D01*
X0038824Y0124575D02*
X0039224Y0124976D01*
X0040025Y0124976D01*
X0040425Y0124575D01*
X0041586Y0124976D02*
X0041586Y0122574D01*
X0042787Y0122574D01*
X0043187Y0122974D01*
X0043187Y0124575D01*
X0042787Y0124976D01*
X0041586Y0124976D01*
X0044348Y0124575D02*
X0044749Y0124976D01*
X0045549Y0124976D01*
X0045950Y0124575D01*
X0045950Y0124175D01*
X0044348Y0122574D01*
X0045950Y0122574D01*
X0048824Y0122974D02*
X0049224Y0122574D01*
X0050025Y0122574D01*
X0050425Y0122974D01*
X0050425Y0123374D01*
X0050025Y0123775D01*
X0049224Y0123775D01*
X0048824Y0124175D01*
X0048824Y0124575D01*
X0049224Y0124976D01*
X0050025Y0124976D01*
X0050425Y0124575D01*
X0051586Y0124976D02*
X0051586Y0122574D01*
X0052787Y0122574D01*
X0053187Y0122974D01*
X0053187Y0124575D01*
X0052787Y0124976D01*
X0051586Y0124976D01*
X0054348Y0124575D02*
X0054749Y0124976D01*
X0055549Y0124976D01*
X0055950Y0124575D01*
X0055950Y0124175D01*
X0055549Y0123775D01*
X0055950Y0123374D01*
X0055950Y0122974D01*
X0055549Y0122574D01*
X0054749Y0122574D01*
X0054348Y0122974D01*
X0055149Y0123775D02*
X0055549Y0123775D01*
X0060074Y0124575D02*
X0060074Y0122974D01*
X0060474Y0122574D01*
X0061275Y0122574D01*
X0061675Y0122974D01*
X0062836Y0122574D02*
X0062836Y0124976D01*
X0063637Y0124175D01*
X0064437Y0124976D01*
X0064437Y0122574D01*
X0065598Y0122574D02*
X0066799Y0122574D01*
X0067200Y0122974D01*
X0067200Y0124575D01*
X0066799Y0124976D01*
X0065598Y0124976D01*
X0065598Y0122574D01*
X0061675Y0124575D02*
X0061275Y0124976D01*
X0060474Y0124976D01*
X0060074Y0124575D01*
X0057274Y0129774D02*
X0057274Y0134774D01*
X0047274Y0134774D02*
X0047274Y0129774D01*
X0037274Y0129774D02*
X0037274Y0134774D01*
X0039774Y0147274D02*
X0037274Y0149774D01*
X0037274Y0154774D01*
X0034774Y0157274D01*
X0037274Y0159774D01*
X0037274Y0164774D01*
X0034774Y0167274D01*
X0037274Y0169774D01*
X0037274Y0174774D01*
X0034774Y0177274D01*
X0037274Y0179774D01*
X0037274Y0184774D01*
X0034774Y0187274D01*
X0037274Y0189774D01*
X0037274Y0194774D01*
X0034774Y0197274D01*
X0037274Y0199774D01*
X0037274Y0204774D01*
X0034774Y0207274D01*
X0029774Y0207274D01*
X0027274Y0204774D01*
X0027274Y0199774D01*
X0029774Y0197274D01*
X0034774Y0197274D01*
X0037274Y0199774D02*
X0037274Y0204774D01*
X0039774Y0207274D01*
X0044774Y0207274D01*
X0047274Y0204774D01*
X0047274Y0199774D01*
X0044774Y0197274D01*
X0047274Y0194774D01*
X0047274Y0189774D01*
X0044774Y0187274D01*
X0047274Y0184774D01*
X0047274Y0179774D01*
X0044774Y0177274D01*
X0047274Y0174774D01*
X0047274Y0169774D01*
X0044774Y0167274D01*
X0047274Y0164774D01*
X0047274Y0159774D01*
X0044774Y0157274D01*
X0047274Y0154774D01*
X0047274Y0149774D01*
X0044774Y0147274D01*
X0039774Y0147274D01*
X0037274Y0149774D02*
X0034774Y0147274D01*
X0029774Y0147274D01*
X0027274Y0149774D01*
X0027274Y0154774D01*
X0029774Y0157274D01*
X0027274Y0159774D01*
X0027274Y0164774D01*
X0029774Y0167274D01*
X0027274Y0169774D01*
X0027274Y0174774D01*
X0029774Y0177274D01*
X0027274Y0179774D01*
X0027274Y0184774D01*
X0029774Y0187274D01*
X0027274Y0189774D01*
X0027274Y0194774D01*
X0029774Y0197274D01*
X0023913Y0201224D02*
X0023913Y0202825D01*
X0023512Y0203226D01*
X0022311Y0203226D01*
X0022311Y0200824D01*
X0023512Y0200824D01*
X0023913Y0201224D01*
X0021150Y0200824D02*
X0021150Y0203226D01*
X0019549Y0203226D02*
X0021150Y0200824D01*
X0019549Y0200824D02*
X0019549Y0203226D01*
X0018388Y0202825D02*
X0017988Y0203226D01*
X0017187Y0203226D01*
X0016787Y0202825D01*
X0016787Y0201224D01*
X0017187Y0200824D01*
X0017988Y0200824D01*
X0018388Y0201224D01*
X0018388Y0202025D01*
X0017587Y0202025D01*
X0019549Y0193226D02*
X0019549Y0190824D01*
X0021150Y0190824D01*
X0022311Y0190824D02*
X0022311Y0193226D01*
X0023913Y0190824D01*
X0023913Y0193226D01*
X0021150Y0193226D02*
X0019549Y0193226D01*
X0019549Y0192025D02*
X0020350Y0192025D01*
X0021150Y0183226D02*
X0021150Y0181624D01*
X0020350Y0180824D01*
X0019549Y0181624D01*
X0019549Y0183226D01*
X0022311Y0183226D02*
X0022311Y0180824D01*
X0023913Y0180824D02*
X0022311Y0183226D01*
X0023913Y0183226D02*
X0023913Y0180824D01*
X0029774Y0177274D02*
X0034774Y0177274D01*
X0037274Y0179774D02*
X0037274Y0184774D01*
X0039774Y0187274D01*
X0037274Y0189774D01*
X0037274Y0194774D01*
X0039774Y0197274D01*
X0037274Y0199774D01*
X0039774Y0197274D02*
X0044774Y0197274D01*
X0050074Y0193325D02*
X0050074Y0192925D01*
X0050474Y0192525D01*
X0051275Y0192525D01*
X0051675Y0192124D01*
X0051675Y0191724D01*
X0051275Y0191324D01*
X0050474Y0191324D01*
X0050074Y0191724D01*
X0050074Y0193325D02*
X0050474Y0193726D01*
X0051275Y0193726D01*
X0051675Y0193325D01*
X0052836Y0190923D02*
X0054437Y0190923D01*
X0055598Y0192124D02*
X0056399Y0191324D01*
X0057200Y0192124D01*
X0057200Y0193726D01*
X0058361Y0193726D02*
X0058361Y0191324D01*
X0058361Y0192124D02*
X0059562Y0192124D01*
X0059962Y0192525D01*
X0059962Y0193325D01*
X0059562Y0193726D01*
X0058361Y0193726D01*
X0055598Y0193726D02*
X0055598Y0192124D01*
X0055879Y0183726D02*
X0055078Y0183726D01*
X0054678Y0183325D01*
X0055478Y0182525D02*
X0055879Y0182525D01*
X0056279Y0182124D01*
X0056279Y0181724D01*
X0055879Y0181324D01*
X0055078Y0181324D01*
X0054678Y0181724D01*
X0053517Y0181724D02*
X0053517Y0183325D01*
X0053116Y0183726D01*
X0052316Y0183726D01*
X0051915Y0183325D01*
X0051915Y0181724D01*
X0052316Y0181324D01*
X0053116Y0181324D01*
X0053517Y0181724D01*
X0050874Y0181324D02*
X0050074Y0181324D01*
X0050474Y0181324D02*
X0050474Y0183726D01*
X0050074Y0183726D02*
X0050874Y0183726D01*
X0055879Y0183726D02*
X0056279Y0183325D01*
X0056279Y0182925D01*
X0055879Y0182525D01*
X0057440Y0182525D02*
X0059041Y0182525D01*
X0058641Y0183726D02*
X0057440Y0182525D01*
X0058641Y0181324D02*
X0058641Y0183726D01*
X0059041Y0173726D02*
X0057440Y0173726D01*
X0057440Y0172525D01*
X0058241Y0172925D01*
X0058641Y0172925D01*
X0059041Y0172525D01*
X0059041Y0171724D01*
X0058641Y0171324D01*
X0057840Y0171324D01*
X0057440Y0171724D01*
X0056279Y0171324D02*
X0054678Y0171324D01*
X0056279Y0172925D01*
X0056279Y0173325D01*
X0055879Y0173726D01*
X0055078Y0173726D01*
X0054678Y0173325D01*
X0053517Y0173325D02*
X0053116Y0173726D01*
X0052316Y0173726D01*
X0051915Y0173325D01*
X0051915Y0171724D01*
X0052316Y0171324D01*
X0053116Y0171324D01*
X0053517Y0171724D01*
X0053517Y0173325D01*
X0050874Y0173726D02*
X0050074Y0173726D01*
X0050474Y0173726D02*
X0050474Y0171324D01*
X0050074Y0171324D02*
X0050874Y0171324D01*
X0050874Y0163726D02*
X0050074Y0163726D01*
X0050474Y0163726D02*
X0050474Y0161324D01*
X0050074Y0161324D02*
X0050874Y0161324D01*
X0051915Y0161724D02*
X0052316Y0161324D01*
X0053116Y0161324D01*
X0053517Y0161724D01*
X0053517Y0163325D01*
X0053116Y0163726D01*
X0052316Y0163726D01*
X0051915Y0163325D01*
X0051915Y0161724D01*
X0054678Y0161324D02*
X0056279Y0162925D01*
X0056279Y0163325D01*
X0055879Y0163726D01*
X0055078Y0163726D01*
X0054678Y0163325D01*
X0054678Y0161324D02*
X0056279Y0161324D01*
X0057440Y0161324D02*
X0057440Y0161724D01*
X0059041Y0163325D01*
X0059041Y0163726D01*
X0057440Y0163726D01*
X0057840Y0153726D02*
X0057440Y0153325D01*
X0057840Y0153726D02*
X0058641Y0153726D01*
X0059041Y0153325D01*
X0059041Y0152925D01*
X0057440Y0151324D01*
X0059041Y0151324D01*
X0056279Y0151324D02*
X0054678Y0151324D01*
X0055478Y0151324D02*
X0055478Y0153726D01*
X0054678Y0152925D01*
X0053517Y0153325D02*
X0053116Y0153726D01*
X0052316Y0153726D01*
X0051915Y0153325D01*
X0051915Y0151724D01*
X0052316Y0151324D01*
X0053116Y0151324D01*
X0053517Y0151724D01*
X0053517Y0153325D01*
X0050874Y0153726D02*
X0050074Y0153726D01*
X0050474Y0153726D02*
X0050474Y0151324D01*
X0050074Y0151324D02*
X0050874Y0151324D01*
X0044774Y0157274D02*
X0039774Y0157274D01*
X0037274Y0159774D01*
X0037274Y0164774D01*
X0039774Y0167274D01*
X0037274Y0169774D01*
X0037274Y0174774D01*
X0039774Y0177274D01*
X0037274Y0179774D01*
X0039774Y0177274D02*
X0044774Y0177274D01*
X0044774Y0187274D02*
X0039774Y0187274D01*
X0034774Y0187274D02*
X0029774Y0187274D01*
X0018388Y0180423D02*
X0016787Y0180423D01*
X0015626Y0181224D02*
X0015225Y0180824D01*
X0014425Y0180824D01*
X0014024Y0181224D01*
X0014425Y0182025D02*
X0015225Y0182025D01*
X0015626Y0181624D01*
X0015626Y0181224D01*
X0014425Y0182025D02*
X0014024Y0182425D01*
X0014024Y0182825D01*
X0014425Y0183226D01*
X0015225Y0183226D01*
X0015626Y0182825D01*
X0015746Y0173226D02*
X0014945Y0173226D01*
X0015345Y0173226D02*
X0015345Y0170824D01*
X0014945Y0170824D02*
X0015746Y0170824D01*
X0016787Y0171224D02*
X0017187Y0170824D01*
X0017988Y0170824D01*
X0018388Y0171224D01*
X0018388Y0172825D01*
X0017988Y0173226D01*
X0017187Y0173226D01*
X0016787Y0172825D01*
X0016787Y0171224D01*
X0019549Y0171224D02*
X0019949Y0170824D01*
X0020750Y0170824D01*
X0021150Y0171224D01*
X0021150Y0171624D01*
X0020750Y0172025D01*
X0020350Y0172025D01*
X0020750Y0172025D02*
X0021150Y0172425D01*
X0021150Y0172825D01*
X0020750Y0173226D01*
X0019949Y0173226D01*
X0019549Y0172825D01*
X0022311Y0173226D02*
X0022311Y0172025D01*
X0023112Y0172425D01*
X0023512Y0172425D01*
X0023913Y0172025D01*
X0023913Y0171224D01*
X0023512Y0170824D01*
X0022712Y0170824D01*
X0022311Y0171224D01*
X0022311Y0173226D02*
X0023913Y0173226D01*
X0029774Y0167274D02*
X0034774Y0167274D01*
X0039774Y0167274D02*
X0044774Y0167274D01*
X0039774Y0157274D02*
X0037274Y0154774D01*
X0037274Y0149774D01*
X0034774Y0157274D02*
X0029774Y0157274D01*
X0023913Y0161224D02*
X0023913Y0161624D01*
X0023512Y0162025D01*
X0022311Y0162025D01*
X0022311Y0161224D01*
X0022712Y0160824D01*
X0023512Y0160824D01*
X0023913Y0161224D01*
X0023112Y0162825D02*
X0023913Y0163226D01*
X0023112Y0162825D02*
X0022311Y0162025D01*
X0021150Y0162425D02*
X0019549Y0160824D01*
X0021150Y0160824D01*
X0021150Y0162425D02*
X0021150Y0162825D01*
X0020750Y0163226D01*
X0019949Y0163226D01*
X0019549Y0162825D01*
X0018388Y0162825D02*
X0017988Y0163226D01*
X0017187Y0163226D01*
X0016787Y0162825D01*
X0016787Y0161224D01*
X0017187Y0160824D01*
X0017988Y0160824D01*
X0018388Y0161224D01*
X0018388Y0162825D01*
X0015746Y0163226D02*
X0014945Y0163226D01*
X0015345Y0163226D02*
X0015345Y0160824D01*
X0014945Y0160824D02*
X0015746Y0160824D01*
X0015746Y0153226D02*
X0014945Y0153226D01*
X0015345Y0153226D02*
X0015345Y0150824D01*
X0014945Y0150824D02*
X0015746Y0150824D01*
X0016787Y0151224D02*
X0017187Y0150824D01*
X0017988Y0150824D01*
X0018388Y0151224D01*
X0018388Y0152825D01*
X0017988Y0153226D01*
X0017187Y0153226D01*
X0016787Y0152825D01*
X0016787Y0151224D01*
X0019549Y0150824D02*
X0021150Y0150824D01*
X0020350Y0150824D02*
X0020350Y0153226D01*
X0019549Y0152425D01*
X0022311Y0152025D02*
X0023512Y0153226D01*
X0023512Y0150824D01*
X0023913Y0152025D02*
X0022311Y0152025D01*
X0037274Y0114774D02*
X0037274Y0109774D01*
X0047274Y0109774D02*
X0047274Y0114774D01*
X0057274Y0114774D02*
X0057274Y0109774D01*
X0067274Y0109774D02*
X0067274Y0114774D01*
X0056799Y0201324D02*
X0055999Y0201324D01*
X0055598Y0201724D01*
X0056399Y0202525D02*
X0056799Y0202525D01*
X0057200Y0202124D01*
X0057200Y0201724D01*
X0056799Y0201324D01*
X0056799Y0202525D02*
X0057200Y0202925D01*
X0057200Y0203325D01*
X0056799Y0203726D01*
X0055999Y0203726D01*
X0055598Y0203325D01*
X0054437Y0203726D02*
X0054437Y0202124D01*
X0053637Y0201324D01*
X0052836Y0202124D01*
X0052836Y0203726D01*
X0051675Y0203325D02*
X0051675Y0202925D01*
X0051275Y0202525D01*
X0051675Y0202124D01*
X0051675Y0201724D01*
X0051275Y0201324D01*
X0050474Y0201324D01*
X0050074Y0201724D01*
X0050874Y0202525D02*
X0051275Y0202525D01*
X0051675Y0203325D02*
X0051275Y0203726D01*
X0050474Y0203726D01*
X0050074Y0203325D01*
X0044774Y0214774D02*
X0039774Y0214774D01*
X0037274Y0217274D01*
X0034774Y0214774D01*
X0029774Y0214774D01*
X0027274Y0217274D01*
X0027274Y0227274D01*
X0029774Y0229774D01*
X0034774Y0229774D01*
X0037274Y0227274D01*
X0039774Y0229774D01*
X0044774Y0229774D01*
X0047274Y0227274D01*
X0047274Y0217274D01*
X0044774Y0214774D01*
X0037274Y0217274D02*
X0037274Y0227274D01*
X0039224Y0231324D02*
X0038824Y0231724D01*
X0039224Y0231324D02*
X0040025Y0231324D01*
X0040425Y0231724D01*
X0040425Y0232124D01*
X0040025Y0232525D01*
X0039624Y0232525D01*
X0040025Y0232525D02*
X0040425Y0232925D01*
X0040425Y0233325D01*
X0040025Y0233726D01*
X0039224Y0233726D01*
X0038824Y0233325D01*
X0041586Y0233726D02*
X0041586Y0232124D01*
X0042387Y0231324D01*
X0043187Y0232124D01*
X0043187Y0233726D01*
X0044348Y0233325D02*
X0044749Y0233726D01*
X0045549Y0233726D01*
X0045950Y0233325D01*
X0045950Y0232925D01*
X0045549Y0232525D01*
X0045950Y0232124D01*
X0045950Y0231724D01*
X0045549Y0231324D01*
X0044749Y0231324D01*
X0044348Y0231724D01*
X0045149Y0232525D02*
X0045549Y0232525D01*
X0034700Y0231724D02*
X0034700Y0233325D01*
X0034299Y0233726D01*
X0033098Y0233726D01*
X0033098Y0231324D01*
X0034299Y0231324D01*
X0034700Y0231724D01*
X0031937Y0231324D02*
X0031937Y0233726D01*
X0030336Y0233726D02*
X0031937Y0231324D01*
X0030336Y0231324D02*
X0030336Y0233726D01*
X0029175Y0233325D02*
X0028775Y0233726D01*
X0027974Y0233726D01*
X0027574Y0233325D01*
X0027574Y0231724D01*
X0027974Y0231324D01*
X0028775Y0231324D01*
X0029175Y0231724D01*
X0029175Y0232525D01*
X0028374Y0232525D01*
X0167274Y0227274D02*
X0167274Y0217274D01*
X0169774Y0214774D01*
X0174774Y0214774D01*
X0177274Y0217274D01*
X0177274Y0227274D01*
X0174774Y0229774D01*
X0169774Y0229774D01*
X0167274Y0227274D01*
X0170474Y0231324D02*
X0170074Y0231724D01*
X0170474Y0231324D02*
X0171275Y0231324D01*
X0171675Y0231724D01*
X0171675Y0232525D01*
X0171275Y0232925D01*
X0170874Y0232925D01*
X0170074Y0232525D01*
X0170074Y0233726D01*
X0171675Y0233726D01*
X0172836Y0233726D02*
X0172836Y0232124D01*
X0173637Y0231324D01*
X0174437Y0232124D01*
X0174437Y0233726D01*
X0178824Y0233325D02*
X0178824Y0231724D01*
X0179224Y0231324D01*
X0180025Y0231324D01*
X0180425Y0231724D01*
X0180425Y0232525D01*
X0179624Y0232525D01*
X0178824Y0233325D02*
X0179224Y0233726D01*
X0180025Y0233726D01*
X0180425Y0233325D01*
X0181586Y0233726D02*
X0183187Y0231324D01*
X0183187Y0233726D01*
X0184348Y0233726D02*
X0185549Y0233726D01*
X0185950Y0233325D01*
X0185950Y0231724D01*
X0185549Y0231324D01*
X0184348Y0231324D01*
X0184348Y0233726D01*
X0181586Y0233726D02*
X0181586Y0231324D01*
X0179774Y0229774D02*
X0184774Y0229774D01*
X0187274Y0227274D01*
X0187274Y0217274D01*
X0184774Y0214774D01*
X0179774Y0214774D01*
X0177274Y0217274D01*
X0177274Y0227274D02*
X0179774Y0229774D01*
X0191324Y0203726D02*
X0192124Y0203726D01*
X0191724Y0203726D02*
X0191724Y0201324D01*
X0191324Y0201324D02*
X0192124Y0201324D01*
X0193165Y0201724D02*
X0193165Y0203325D01*
X0193566Y0203726D01*
X0194366Y0203726D01*
X0194767Y0203325D01*
X0194767Y0201724D01*
X0194366Y0201324D01*
X0193566Y0201324D01*
X0193165Y0201724D01*
X0195928Y0201324D02*
X0197529Y0202925D01*
X0197529Y0203325D01*
X0197129Y0203726D01*
X0196328Y0203726D01*
X0195928Y0203325D01*
X0195928Y0201324D02*
X0197529Y0201324D01*
X0198690Y0201724D02*
X0199090Y0201324D01*
X0199891Y0201324D01*
X0200291Y0201724D01*
X0200291Y0202124D01*
X0199891Y0202525D01*
X0199491Y0202525D01*
X0199891Y0202525D02*
X0200291Y0202925D01*
X0200291Y0203325D01*
X0199891Y0203726D01*
X0199090Y0203726D01*
X0198690Y0203325D01*
D12*
X0123037Y0182624D02*
X0122586Y0183075D01*
X0121686Y0183075D01*
X0121235Y0182624D01*
X0120275Y0182624D02*
X0120275Y0182174D01*
X0119824Y0181724D01*
X0120275Y0181273D01*
X0120275Y0180823D01*
X0119824Y0180372D01*
X0118923Y0180372D01*
X0118473Y0180823D01*
X0119374Y0181724D02*
X0119824Y0181724D01*
X0120275Y0182624D02*
X0119824Y0183075D01*
X0118923Y0183075D01*
X0118473Y0182624D01*
X0117512Y0181724D02*
X0115711Y0181724D01*
X0114750Y0183075D02*
X0114750Y0180372D01*
X0112948Y0180372D02*
X0112948Y0183075D01*
X0113849Y0182174D01*
X0114750Y0183075D01*
X0111987Y0182624D02*
X0111987Y0180823D01*
X0111537Y0180372D01*
X0110636Y0180372D01*
X0110186Y0180823D01*
X0110186Y0182624D01*
X0110636Y0183075D01*
X0111537Y0183075D01*
X0111987Y0182624D01*
X0109225Y0182624D02*
X0109225Y0180823D01*
X0108775Y0180372D01*
X0107874Y0180372D01*
X0107424Y0180823D01*
X0107424Y0182624D01*
X0107874Y0183075D01*
X0108775Y0183075D01*
X0109225Y0182624D01*
X0106463Y0182624D02*
X0106463Y0181724D01*
X0106012Y0181273D01*
X0104661Y0181273D01*
X0104661Y0180372D02*
X0104661Y0183075D01*
X0106012Y0183075D01*
X0106463Y0182624D01*
X0105562Y0181273D02*
X0106463Y0180372D01*
X0103700Y0180372D02*
X0103700Y0183075D01*
X0101899Y0183075D02*
X0101899Y0180372D01*
X0102800Y0181273D01*
X0103700Y0180372D01*
X0100938Y0181724D02*
X0099137Y0181724D01*
X0098176Y0181724D02*
X0098176Y0182624D01*
X0097725Y0183075D01*
X0096374Y0183075D01*
X0096374Y0180372D01*
X0096374Y0181273D02*
X0097725Y0181273D01*
X0098176Y0181724D01*
X0095413Y0181273D02*
X0095413Y0180823D01*
X0094963Y0180372D01*
X0094062Y0180372D01*
X0093612Y0180823D01*
X0094062Y0181724D02*
X0094963Y0181724D01*
X0095413Y0181273D01*
X0095413Y0182624D02*
X0094963Y0183075D01*
X0094062Y0183075D01*
X0093612Y0182624D01*
X0093612Y0182174D01*
X0094062Y0181724D01*
X0092651Y0183075D02*
X0090849Y0183075D01*
X0090849Y0180372D01*
X0092651Y0180372D01*
X0091750Y0181724D02*
X0090849Y0181724D01*
X0121235Y0180372D02*
X0123037Y0182174D01*
X0123037Y0182624D01*
X0123037Y0180372D02*
X0121235Y0180372D01*
X0064832Y0237876D02*
X0063030Y0237876D01*
X0064832Y0239678D01*
X0064832Y0240128D01*
X0064382Y0240579D01*
X0063481Y0240579D01*
X0063030Y0240128D01*
X0062070Y0240128D02*
X0061619Y0240579D01*
X0060718Y0240579D01*
X0060268Y0240128D01*
X0060268Y0238327D01*
X0060718Y0237876D01*
X0061619Y0237876D01*
X0062070Y0238327D01*
X0057332Y0237876D02*
X0055530Y0237876D01*
X0056431Y0237876D02*
X0056431Y0240579D01*
X0055530Y0239678D01*
X0054570Y0240128D02*
X0054119Y0240579D01*
X0053218Y0240579D01*
X0052768Y0240128D01*
X0052768Y0238327D01*
X0053218Y0237876D01*
X0054119Y0237876D01*
X0054570Y0238327D01*
X0039037Y0083876D02*
X0038136Y0083876D01*
X0037686Y0083426D01*
X0036725Y0083876D02*
X0036725Y0081624D01*
X0036275Y0081174D01*
X0035374Y0081174D01*
X0034924Y0081624D01*
X0034924Y0083876D01*
X0037686Y0081174D02*
X0039488Y0082975D01*
X0039488Y0083426D01*
X0039037Y0083876D01*
X0039488Y0081174D02*
X0037686Y0081174D01*
X0055081Y0077550D02*
X0055081Y0075748D01*
X0055531Y0075298D01*
X0056432Y0075298D01*
X0056883Y0075748D01*
X0057843Y0075748D02*
X0058294Y0075298D01*
X0059195Y0075298D01*
X0059645Y0075748D01*
X0059645Y0076649D01*
X0059195Y0077099D01*
X0058744Y0077099D01*
X0057843Y0076649D01*
X0057843Y0078000D01*
X0059645Y0078000D01*
X0056883Y0077550D02*
X0056432Y0078000D01*
X0055531Y0078000D01*
X0055081Y0077550D01*
X0067433Y0071632D02*
X0067433Y0068930D01*
X0067433Y0069830D02*
X0068785Y0069830D01*
X0069235Y0070281D01*
X0069235Y0071181D01*
X0068785Y0071632D01*
X0067433Y0071632D01*
X0068334Y0069830D02*
X0069235Y0068930D01*
X0070196Y0069380D02*
X0070646Y0068930D01*
X0071547Y0068930D01*
X0071997Y0069380D01*
X0071997Y0069830D01*
X0071547Y0070281D01*
X0071097Y0070281D01*
X0071547Y0070281D02*
X0071997Y0070731D01*
X0071997Y0071181D01*
X0071547Y0071632D01*
X0070646Y0071632D01*
X0070196Y0071181D01*
X0079924Y0078674D02*
X0081275Y0078674D01*
X0081725Y0079124D01*
X0081725Y0080926D01*
X0081275Y0081376D01*
X0079924Y0081376D01*
X0079924Y0078674D01*
X0082686Y0078674D02*
X0084488Y0078674D01*
X0083587Y0078674D02*
X0083587Y0081376D01*
X0082686Y0080475D01*
X0064847Y0039132D02*
X0063946Y0038231D01*
X0062985Y0037781D02*
X0062535Y0037330D01*
X0061183Y0037330D01*
X0061183Y0036430D02*
X0061183Y0039132D01*
X0062535Y0039132D01*
X0062985Y0038681D01*
X0062985Y0037781D01*
X0062084Y0037330D02*
X0062985Y0036430D01*
X0063946Y0036430D02*
X0065747Y0036430D01*
X0064847Y0036430D02*
X0064847Y0039132D01*
X0063062Y0018376D02*
X0062161Y0017475D01*
X0061200Y0017926D02*
X0060750Y0018376D01*
X0059849Y0018376D01*
X0059399Y0017926D01*
X0059399Y0017475D01*
X0059849Y0017025D01*
X0060750Y0017025D01*
X0061200Y0016574D01*
X0061200Y0016124D01*
X0060750Y0015674D01*
X0059849Y0015674D01*
X0059399Y0016124D01*
X0062161Y0015674D02*
X0063963Y0015674D01*
X0063062Y0015674D02*
X0063062Y0018376D01*
X0082768Y0024577D02*
X0083218Y0024126D01*
X0084119Y0024126D01*
X0084570Y0024577D01*
X0085530Y0024577D02*
X0085981Y0024126D01*
X0086882Y0024126D01*
X0087332Y0024577D01*
X0087332Y0025027D01*
X0086882Y0025478D01*
X0086431Y0025478D01*
X0086882Y0025478D02*
X0087332Y0025928D01*
X0087332Y0026378D01*
X0086882Y0026829D01*
X0085981Y0026829D01*
X0085530Y0026378D01*
X0084570Y0026378D02*
X0084119Y0026829D01*
X0083218Y0026829D01*
X0082768Y0026378D01*
X0082768Y0024577D01*
X0125718Y0069126D02*
X0126619Y0069126D01*
X0127070Y0069577D01*
X0128030Y0069577D02*
X0128481Y0069126D01*
X0129382Y0069126D01*
X0129832Y0069577D01*
X0129832Y0071378D01*
X0129382Y0071829D01*
X0128481Y0071829D01*
X0128030Y0071378D01*
X0128030Y0070928D01*
X0128481Y0070478D01*
X0129832Y0070478D01*
X0127070Y0071378D02*
X0126619Y0071829D01*
X0125718Y0071829D01*
X0125268Y0071378D01*
X0125268Y0069577D01*
X0125718Y0069126D01*
X0138218Y0026829D02*
X0137768Y0026378D01*
X0137768Y0024577D01*
X0138218Y0024126D01*
X0139119Y0024126D01*
X0139570Y0024577D01*
X0140530Y0025478D02*
X0142332Y0025478D01*
X0141882Y0026829D02*
X0141882Y0024126D01*
X0140530Y0025478D02*
X0141882Y0026829D01*
X0139570Y0026378D02*
X0139119Y0026829D01*
X0138218Y0026829D01*
X0159924Y0018426D02*
X0159924Y0017975D01*
X0160374Y0017525D01*
X0161275Y0017525D01*
X0161725Y0017074D01*
X0161725Y0016624D01*
X0161275Y0016174D01*
X0160374Y0016174D01*
X0159924Y0016624D01*
X0159924Y0018426D02*
X0160374Y0018876D01*
X0161275Y0018876D01*
X0161725Y0018426D01*
X0162686Y0018426D02*
X0163136Y0018876D01*
X0164037Y0018876D01*
X0164488Y0018426D01*
X0164488Y0017975D01*
X0162686Y0016174D01*
X0164488Y0016174D01*
X0164497Y0036430D02*
X0162696Y0036430D01*
X0164497Y0038231D01*
X0164497Y0038681D01*
X0164047Y0039132D01*
X0163146Y0039132D01*
X0162696Y0038681D01*
X0161735Y0038681D02*
X0161735Y0037781D01*
X0161285Y0037330D01*
X0159933Y0037330D01*
X0159933Y0036430D02*
X0159933Y0039132D01*
X0161285Y0039132D01*
X0161735Y0038681D01*
X0160834Y0037330D02*
X0161735Y0036430D01*
X0175268Y0044577D02*
X0175718Y0044126D01*
X0176619Y0044126D01*
X0177070Y0044577D01*
X0178030Y0044577D02*
X0178030Y0045027D01*
X0178481Y0045478D01*
X0179382Y0045478D01*
X0179832Y0045027D01*
X0179832Y0044577D01*
X0179382Y0044126D01*
X0178481Y0044126D01*
X0178030Y0044577D01*
X0178481Y0045478D02*
X0178030Y0045928D01*
X0178030Y0046378D01*
X0178481Y0046829D01*
X0179382Y0046829D01*
X0179832Y0046378D01*
X0179832Y0045928D01*
X0179382Y0045478D01*
X0177070Y0046378D02*
X0176619Y0046829D01*
X0175718Y0046829D01*
X0175268Y0046378D01*
X0175268Y0044577D01*
X0197933Y0059871D02*
X0198384Y0059871D01*
X0199284Y0060772D01*
X0200635Y0060772D01*
X0199284Y0060772D02*
X0198384Y0061673D01*
X0197933Y0061673D01*
X0198834Y0062634D02*
X0197933Y0063534D01*
X0200635Y0063534D01*
X0200635Y0062634D02*
X0200635Y0064435D01*
X0179832Y0078878D02*
X0178030Y0077077D01*
X0178030Y0076626D01*
X0177070Y0077077D02*
X0176619Y0076626D01*
X0175718Y0076626D01*
X0175268Y0077077D01*
X0175268Y0078878D01*
X0175718Y0079329D01*
X0176619Y0079329D01*
X0177070Y0078878D01*
X0178030Y0079329D02*
X0179832Y0079329D01*
X0179832Y0078878D01*
X0019488Y0077626D02*
X0018587Y0077176D01*
X0017686Y0076275D01*
X0019037Y0076275D01*
X0019488Y0075824D01*
X0019488Y0075374D01*
X0019037Y0074924D01*
X0018136Y0074924D01*
X0017686Y0075374D01*
X0017686Y0076275D01*
X0016725Y0077176D02*
X0016275Y0077626D01*
X0015374Y0077626D01*
X0014924Y0077176D01*
X0014924Y0075374D01*
X0015374Y0074924D01*
X0016275Y0074924D01*
X0016725Y0075374D01*
D13*
X0037421Y0025791D02*
X0037421Y0023656D01*
X0037421Y0024724D02*
X0040624Y0024724D01*
X0040624Y0022108D02*
X0040624Y0019973D01*
X0037421Y0019973D01*
X0037421Y0022108D01*
X0039022Y0021041D02*
X0039022Y0019973D01*
X0039556Y0018425D02*
X0040090Y0018425D01*
X0040624Y0017891D01*
X0040624Y0016824D01*
X0040090Y0016290D01*
X0039022Y0016824D02*
X0039022Y0017891D01*
X0039556Y0018425D01*
X0037955Y0018425D02*
X0037421Y0017891D01*
X0037421Y0016824D01*
X0037955Y0016290D01*
X0038488Y0016290D01*
X0039022Y0016824D01*
X0037421Y0014742D02*
X0037421Y0012607D01*
X0040624Y0012607D01*
X0040624Y0014742D01*
X0039022Y0013674D02*
X0039022Y0012607D01*
X0039022Y0011059D02*
X0039556Y0010525D01*
X0039556Y0008924D01*
X0039556Y0009991D02*
X0040624Y0011059D01*
X0039022Y0011059D02*
X0037955Y0011059D01*
X0037421Y0010525D01*
X0037421Y0008924D01*
X0040624Y0008924D01*
X0135047Y0058356D02*
X0135049Y0058427D01*
X0135055Y0058498D01*
X0135065Y0058569D01*
X0135079Y0058639D01*
X0135096Y0058708D01*
X0135118Y0058776D01*
X0135143Y0058842D01*
X0135172Y0058908D01*
X0135204Y0058971D01*
X0135240Y0059033D01*
X0135279Y0059092D01*
X0135322Y0059149D01*
X0135368Y0059204D01*
X0135416Y0059256D01*
X0135468Y0059306D01*
X0135522Y0059352D01*
X0135578Y0059395D01*
X0135637Y0059435D01*
X0135698Y0059472D01*
X0135761Y0059505D01*
X0135826Y0059535D01*
X0135892Y0059561D01*
X0135960Y0059584D01*
X0136029Y0059602D01*
X0136099Y0059617D01*
X0136169Y0059628D01*
X0136240Y0059635D01*
X0136311Y0059638D01*
X0136382Y0059637D01*
X0136454Y0059632D01*
X0136524Y0059623D01*
X0136594Y0059610D01*
X0136664Y0059594D01*
X0136732Y0059573D01*
X0136799Y0059549D01*
X0136865Y0059521D01*
X0136928Y0059489D01*
X0136990Y0059454D01*
X0137050Y0059416D01*
X0137108Y0059374D01*
X0137164Y0059329D01*
X0137216Y0059281D01*
X0137266Y0059230D01*
X0137314Y0059177D01*
X0137358Y0059121D01*
X0137399Y0059063D01*
X0137436Y0059002D01*
X0137470Y0058940D01*
X0137501Y0058875D01*
X0137528Y0058809D01*
X0137552Y0058742D01*
X0137571Y0058673D01*
X0137587Y0058604D01*
X0137599Y0058534D01*
X0137607Y0058463D01*
X0137611Y0058392D01*
X0137611Y0058320D01*
X0137607Y0058249D01*
X0137599Y0058178D01*
X0137587Y0058108D01*
X0137571Y0058039D01*
X0137552Y0057970D01*
X0137528Y0057903D01*
X0137501Y0057837D01*
X0137470Y0057772D01*
X0137436Y0057710D01*
X0137399Y0057649D01*
X0137358Y0057591D01*
X0137314Y0057535D01*
X0137266Y0057482D01*
X0137216Y0057431D01*
X0137164Y0057383D01*
X0137108Y0057338D01*
X0137050Y0057296D01*
X0136990Y0057258D01*
X0136928Y0057223D01*
X0136865Y0057191D01*
X0136799Y0057163D01*
X0136732Y0057139D01*
X0136664Y0057118D01*
X0136594Y0057102D01*
X0136524Y0057089D01*
X0136454Y0057080D01*
X0136382Y0057075D01*
X0136311Y0057074D01*
X0136240Y0057077D01*
X0136169Y0057084D01*
X0136099Y0057095D01*
X0136029Y0057110D01*
X0135960Y0057128D01*
X0135892Y0057151D01*
X0135826Y0057177D01*
X0135761Y0057207D01*
X0135698Y0057240D01*
X0135637Y0057277D01*
X0135578Y0057317D01*
X0135522Y0057360D01*
X0135468Y0057406D01*
X0135416Y0057456D01*
X0135368Y0057508D01*
X0135322Y0057563D01*
X0135279Y0057620D01*
X0135240Y0057679D01*
X0135204Y0057741D01*
X0135172Y0057804D01*
X0135143Y0057870D01*
X0135118Y0057936D01*
X0135096Y0058004D01*
X0135079Y0058073D01*
X0135065Y0058143D01*
X0135055Y0058214D01*
X0135049Y0058285D01*
X0135047Y0058356D01*
X0183671Y0023358D02*
X0183671Y0021223D01*
X0183671Y0022291D02*
X0186874Y0022291D01*
X0186340Y0019675D02*
X0184205Y0019675D01*
X0183671Y0019141D01*
X0183671Y0018074D01*
X0184205Y0017540D01*
X0186340Y0017540D01*
X0186874Y0018074D01*
X0186874Y0019141D01*
X0186340Y0019675D01*
X0186340Y0015992D02*
X0184205Y0015992D01*
X0183671Y0015458D01*
X0183671Y0014391D01*
X0184205Y0013857D01*
X0186340Y0013857D01*
X0186874Y0014391D01*
X0186874Y0015458D01*
X0186340Y0015992D01*
X0186340Y0012309D02*
X0186874Y0011775D01*
X0186874Y0010174D01*
X0183671Y0010174D01*
X0183671Y0011775D01*
X0184205Y0012309D01*
X0184738Y0012309D01*
X0185272Y0011775D01*
X0185272Y0010174D01*
X0185272Y0011775D02*
X0185806Y0012309D01*
X0186340Y0012309D01*
X0143207Y0161222D02*
X0132274Y0161222D01*
X0143207Y0161222D02*
X0143207Y0165266D01*
X0143207Y0234994D02*
X0143207Y0262616D01*
X0071341Y0262616D01*
X0071341Y0234994D01*
X0071341Y0165266D02*
X0071341Y0161222D01*
X0082274Y0161222D01*
D14*
X0062274Y0231024D03*
X0054774Y0231024D03*
X0177274Y0069774D03*
X0177274Y0054774D03*
X0139774Y0017274D03*
X0127274Y0062274D03*
X0084774Y0017274D03*
D15*
X0082215Y0023376D02*
X0087333Y0023376D01*
X0087333Y0011171D01*
X0082215Y0011171D01*
X0082215Y0023376D01*
X0124715Y0056171D02*
X0129833Y0056171D01*
X0129833Y0068376D01*
X0124715Y0068376D01*
X0124715Y0056171D01*
X0137215Y0023376D02*
X0142333Y0023376D01*
X0142333Y0011171D01*
X0137215Y0011171D01*
X0137215Y0023376D01*
X0174715Y0048671D02*
X0174715Y0060876D01*
X0179833Y0060876D01*
X0179833Y0048671D01*
X0174715Y0048671D01*
X0174715Y0063671D02*
X0179833Y0063671D01*
X0179833Y0075876D01*
X0174715Y0075876D01*
X0174715Y0063671D01*
X0064833Y0224921D02*
X0059715Y0224921D01*
X0059715Y0237126D01*
X0064833Y0237126D01*
X0064833Y0224921D01*
X0057333Y0224921D02*
X0057333Y0237126D01*
X0052215Y0237126D01*
X0052215Y0224921D01*
X0057333Y0224921D01*
D16*
X0078337Y0059006D02*
X0078337Y0056644D01*
X0086211Y0056644D01*
X0086211Y0059006D01*
D17*
X0072136Y0056762D02*
X0067411Y0056762D01*
X0067411Y0067785D01*
X0072136Y0067785D01*
X0072136Y0056762D01*
X0067785Y0034636D02*
X0056762Y0034636D01*
X0056762Y0029911D01*
X0067785Y0029911D01*
X0067785Y0034636D01*
X0156762Y0034636D02*
X0156762Y0029911D01*
X0167785Y0029911D01*
X0167785Y0034636D01*
X0156762Y0034636D01*
D18*
X0162274Y0032274D03*
X0062274Y0032274D03*
D19*
X0069774Y0062274D03*
D20*
X0096919Y0020541D02*
X0097244Y0020541D01*
X0096919Y0020541D02*
X0096919Y0018642D01*
X0096919Y0006299D02*
X0096919Y0004400D01*
X0100463Y0004400D01*
X0124085Y0004400D02*
X0127628Y0004400D01*
X0127628Y0006299D01*
X0127628Y0018642D02*
X0127628Y0020541D01*
X0127303Y0020541D01*
X0157683Y0017274D02*
X0157685Y0017409D01*
X0157691Y0017545D01*
X0157701Y0017680D01*
X0157715Y0017814D01*
X0157733Y0017949D01*
X0157755Y0018082D01*
X0157781Y0018215D01*
X0157810Y0018347D01*
X0157844Y0018479D01*
X0157881Y0018609D01*
X0157923Y0018738D01*
X0157968Y0018865D01*
X0158016Y0018992D01*
X0158069Y0019117D01*
X0158125Y0019240D01*
X0158185Y0019361D01*
X0158248Y0019481D01*
X0158315Y0019599D01*
X0158385Y0019715D01*
X0158459Y0019828D01*
X0158536Y0019940D01*
X0158616Y0020049D01*
X0158700Y0020155D01*
X0158786Y0020259D01*
X0158876Y0020361D01*
X0158968Y0020460D01*
X0159064Y0020556D01*
X0159162Y0020649D01*
X0159263Y0020740D01*
X0159366Y0020827D01*
X0159472Y0020911D01*
X0159581Y0020992D01*
X0159692Y0021070D01*
X0159805Y0021144D01*
X0159920Y0021216D01*
X0160037Y0021283D01*
X0160157Y0021348D01*
X0160278Y0021408D01*
X0160400Y0021465D01*
X0160525Y0021519D01*
X0160651Y0021569D01*
X0160778Y0021615D01*
X0160907Y0021657D01*
X0161037Y0021695D01*
X0161168Y0021730D01*
X0161300Y0021760D01*
X0161432Y0021787D01*
X0161566Y0021810D01*
X0161700Y0021829D01*
X0161835Y0021844D01*
X0161970Y0021855D01*
X0162105Y0021862D01*
X0162240Y0021865D01*
X0162376Y0021864D01*
X0162511Y0021859D01*
X0162646Y0021850D01*
X0162781Y0021837D01*
X0162915Y0021820D01*
X0163049Y0021799D01*
X0163182Y0021774D01*
X0163314Y0021746D01*
X0163446Y0021713D01*
X0163576Y0021676D01*
X0163706Y0021636D01*
X0163834Y0021592D01*
X0163960Y0021544D01*
X0164085Y0021493D01*
X0164209Y0021437D01*
X0164331Y0021378D01*
X0164451Y0021316D01*
X0164569Y0021250D01*
X0164686Y0021180D01*
X0164800Y0021108D01*
X0164912Y0021031D01*
X0165022Y0020952D01*
X0165129Y0020869D01*
X0165234Y0020784D01*
X0165336Y0020695D01*
X0165435Y0020603D01*
X0165532Y0020508D01*
X0165626Y0020411D01*
X0165717Y0020311D01*
X0165805Y0020208D01*
X0165890Y0020102D01*
X0165972Y0019994D01*
X0166051Y0019884D01*
X0166126Y0019772D01*
X0166198Y0019657D01*
X0166267Y0019540D01*
X0166332Y0019421D01*
X0166393Y0019301D01*
X0166451Y0019178D01*
X0166506Y0019054D01*
X0166556Y0018929D01*
X0166603Y0018802D01*
X0166647Y0018673D01*
X0166686Y0018544D01*
X0166721Y0018413D01*
X0166753Y0018281D01*
X0166781Y0018149D01*
X0166805Y0018016D01*
X0166825Y0017882D01*
X0166841Y0017747D01*
X0166853Y0017612D01*
X0166861Y0017477D01*
X0166865Y0017342D01*
X0166865Y0017206D01*
X0166861Y0017071D01*
X0166853Y0016936D01*
X0166841Y0016801D01*
X0166825Y0016666D01*
X0166805Y0016532D01*
X0166781Y0016399D01*
X0166753Y0016267D01*
X0166721Y0016135D01*
X0166686Y0016004D01*
X0166647Y0015875D01*
X0166603Y0015746D01*
X0166556Y0015619D01*
X0166506Y0015494D01*
X0166451Y0015370D01*
X0166393Y0015247D01*
X0166332Y0015127D01*
X0166267Y0015008D01*
X0166198Y0014891D01*
X0166126Y0014776D01*
X0166051Y0014664D01*
X0165972Y0014554D01*
X0165890Y0014446D01*
X0165805Y0014340D01*
X0165717Y0014237D01*
X0165626Y0014137D01*
X0165532Y0014040D01*
X0165435Y0013945D01*
X0165336Y0013853D01*
X0165234Y0013764D01*
X0165129Y0013679D01*
X0165022Y0013596D01*
X0164912Y0013517D01*
X0164800Y0013440D01*
X0164686Y0013368D01*
X0164570Y0013298D01*
X0164451Y0013232D01*
X0164331Y0013170D01*
X0164209Y0013111D01*
X0164085Y0013055D01*
X0163960Y0013004D01*
X0163834Y0012956D01*
X0163706Y0012912D01*
X0163576Y0012872D01*
X0163446Y0012835D01*
X0163314Y0012802D01*
X0163182Y0012774D01*
X0163049Y0012749D01*
X0162915Y0012728D01*
X0162781Y0012711D01*
X0162646Y0012698D01*
X0162511Y0012689D01*
X0162376Y0012684D01*
X0162240Y0012683D01*
X0162105Y0012686D01*
X0161970Y0012693D01*
X0161835Y0012704D01*
X0161700Y0012719D01*
X0161566Y0012738D01*
X0161432Y0012761D01*
X0161300Y0012788D01*
X0161168Y0012818D01*
X0161037Y0012853D01*
X0160907Y0012891D01*
X0160778Y0012933D01*
X0160651Y0012979D01*
X0160525Y0013029D01*
X0160400Y0013083D01*
X0160278Y0013140D01*
X0160157Y0013200D01*
X0160037Y0013265D01*
X0159920Y0013332D01*
X0159805Y0013404D01*
X0159692Y0013478D01*
X0159581Y0013556D01*
X0159472Y0013637D01*
X0159366Y0013721D01*
X0159263Y0013808D01*
X0159162Y0013899D01*
X0159064Y0013992D01*
X0158968Y0014088D01*
X0158876Y0014187D01*
X0158786Y0014289D01*
X0158700Y0014393D01*
X0158616Y0014499D01*
X0158536Y0014608D01*
X0158459Y0014720D01*
X0158385Y0014833D01*
X0158315Y0014949D01*
X0158248Y0015067D01*
X0158185Y0015187D01*
X0158125Y0015308D01*
X0158069Y0015431D01*
X0158016Y0015556D01*
X0157968Y0015683D01*
X0157923Y0015810D01*
X0157881Y0015939D01*
X0157844Y0016069D01*
X0157810Y0016201D01*
X0157781Y0016333D01*
X0157755Y0016466D01*
X0157733Y0016599D01*
X0157715Y0016734D01*
X0157701Y0016868D01*
X0157691Y0017003D01*
X0157685Y0017139D01*
X0157683Y0017274D01*
X0057683Y0017274D02*
X0057685Y0017409D01*
X0057691Y0017545D01*
X0057701Y0017680D01*
X0057715Y0017814D01*
X0057733Y0017949D01*
X0057755Y0018082D01*
X0057781Y0018215D01*
X0057810Y0018347D01*
X0057844Y0018479D01*
X0057881Y0018609D01*
X0057923Y0018738D01*
X0057968Y0018865D01*
X0058016Y0018992D01*
X0058069Y0019117D01*
X0058125Y0019240D01*
X0058185Y0019361D01*
X0058248Y0019481D01*
X0058315Y0019599D01*
X0058385Y0019715D01*
X0058459Y0019828D01*
X0058536Y0019940D01*
X0058616Y0020049D01*
X0058700Y0020155D01*
X0058786Y0020259D01*
X0058876Y0020361D01*
X0058968Y0020460D01*
X0059064Y0020556D01*
X0059162Y0020649D01*
X0059263Y0020740D01*
X0059366Y0020827D01*
X0059472Y0020911D01*
X0059581Y0020992D01*
X0059692Y0021070D01*
X0059805Y0021144D01*
X0059920Y0021216D01*
X0060037Y0021283D01*
X0060157Y0021348D01*
X0060278Y0021408D01*
X0060400Y0021465D01*
X0060525Y0021519D01*
X0060651Y0021569D01*
X0060778Y0021615D01*
X0060907Y0021657D01*
X0061037Y0021695D01*
X0061168Y0021730D01*
X0061300Y0021760D01*
X0061432Y0021787D01*
X0061566Y0021810D01*
X0061700Y0021829D01*
X0061835Y0021844D01*
X0061970Y0021855D01*
X0062105Y0021862D01*
X0062240Y0021865D01*
X0062376Y0021864D01*
X0062511Y0021859D01*
X0062646Y0021850D01*
X0062781Y0021837D01*
X0062915Y0021820D01*
X0063049Y0021799D01*
X0063182Y0021774D01*
X0063314Y0021746D01*
X0063446Y0021713D01*
X0063576Y0021676D01*
X0063706Y0021636D01*
X0063834Y0021592D01*
X0063960Y0021544D01*
X0064085Y0021493D01*
X0064209Y0021437D01*
X0064331Y0021378D01*
X0064451Y0021316D01*
X0064569Y0021250D01*
X0064686Y0021180D01*
X0064800Y0021108D01*
X0064912Y0021031D01*
X0065022Y0020952D01*
X0065129Y0020869D01*
X0065234Y0020784D01*
X0065336Y0020695D01*
X0065435Y0020603D01*
X0065532Y0020508D01*
X0065626Y0020411D01*
X0065717Y0020311D01*
X0065805Y0020208D01*
X0065890Y0020102D01*
X0065972Y0019994D01*
X0066051Y0019884D01*
X0066126Y0019772D01*
X0066198Y0019657D01*
X0066267Y0019540D01*
X0066332Y0019421D01*
X0066393Y0019301D01*
X0066451Y0019178D01*
X0066506Y0019054D01*
X0066556Y0018929D01*
X0066603Y0018802D01*
X0066647Y0018673D01*
X0066686Y0018544D01*
X0066721Y0018413D01*
X0066753Y0018281D01*
X0066781Y0018149D01*
X0066805Y0018016D01*
X0066825Y0017882D01*
X0066841Y0017747D01*
X0066853Y0017612D01*
X0066861Y0017477D01*
X0066865Y0017342D01*
X0066865Y0017206D01*
X0066861Y0017071D01*
X0066853Y0016936D01*
X0066841Y0016801D01*
X0066825Y0016666D01*
X0066805Y0016532D01*
X0066781Y0016399D01*
X0066753Y0016267D01*
X0066721Y0016135D01*
X0066686Y0016004D01*
X0066647Y0015875D01*
X0066603Y0015746D01*
X0066556Y0015619D01*
X0066506Y0015494D01*
X0066451Y0015370D01*
X0066393Y0015247D01*
X0066332Y0015127D01*
X0066267Y0015008D01*
X0066198Y0014891D01*
X0066126Y0014776D01*
X0066051Y0014664D01*
X0065972Y0014554D01*
X0065890Y0014446D01*
X0065805Y0014340D01*
X0065717Y0014237D01*
X0065626Y0014137D01*
X0065532Y0014040D01*
X0065435Y0013945D01*
X0065336Y0013853D01*
X0065234Y0013764D01*
X0065129Y0013679D01*
X0065022Y0013596D01*
X0064912Y0013517D01*
X0064800Y0013440D01*
X0064686Y0013368D01*
X0064570Y0013298D01*
X0064451Y0013232D01*
X0064331Y0013170D01*
X0064209Y0013111D01*
X0064085Y0013055D01*
X0063960Y0013004D01*
X0063834Y0012956D01*
X0063706Y0012912D01*
X0063576Y0012872D01*
X0063446Y0012835D01*
X0063314Y0012802D01*
X0063182Y0012774D01*
X0063049Y0012749D01*
X0062915Y0012728D01*
X0062781Y0012711D01*
X0062646Y0012698D01*
X0062511Y0012689D01*
X0062376Y0012684D01*
X0062240Y0012683D01*
X0062105Y0012686D01*
X0061970Y0012693D01*
X0061835Y0012704D01*
X0061700Y0012719D01*
X0061566Y0012738D01*
X0061432Y0012761D01*
X0061300Y0012788D01*
X0061168Y0012818D01*
X0061037Y0012853D01*
X0060907Y0012891D01*
X0060778Y0012933D01*
X0060651Y0012979D01*
X0060525Y0013029D01*
X0060400Y0013083D01*
X0060278Y0013140D01*
X0060157Y0013200D01*
X0060037Y0013265D01*
X0059920Y0013332D01*
X0059805Y0013404D01*
X0059692Y0013478D01*
X0059581Y0013556D01*
X0059472Y0013637D01*
X0059366Y0013721D01*
X0059263Y0013808D01*
X0059162Y0013899D01*
X0059064Y0013992D01*
X0058968Y0014088D01*
X0058876Y0014187D01*
X0058786Y0014289D01*
X0058700Y0014393D01*
X0058616Y0014499D01*
X0058536Y0014608D01*
X0058459Y0014720D01*
X0058385Y0014833D01*
X0058315Y0014949D01*
X0058248Y0015067D01*
X0058185Y0015187D01*
X0058125Y0015308D01*
X0058069Y0015431D01*
X0058016Y0015556D01*
X0057968Y0015683D01*
X0057923Y0015810D01*
X0057881Y0015939D01*
X0057844Y0016069D01*
X0057810Y0016201D01*
X0057781Y0016333D01*
X0057755Y0016466D01*
X0057733Y0016599D01*
X0057715Y0016734D01*
X0057701Y0016868D01*
X0057691Y0017003D01*
X0057685Y0017139D01*
X0057683Y0017274D01*
D21*
X0052274Y0027274D02*
X0072274Y0027274D01*
X0077274Y0022274D02*
X0077274Y0012274D01*
X0072274Y0007274D02*
X0052274Y0007274D01*
X0049478Y0058474D02*
X0025069Y0058474D01*
X0025069Y0071073D01*
X0049478Y0071073D01*
X0049478Y0058474D01*
X0147274Y0022274D02*
X0147274Y0012274D01*
X0152274Y0007274D02*
X0172274Y0007274D01*
X0172274Y0027274D02*
X0152274Y0027274D01*
D22*
X0065148Y0047244D02*
X0063179Y0045276D01*
X0051368Y0045276D01*
X0049400Y0047244D01*
X0049400Y0073553D02*
X0065148Y0073553D01*
X0025148Y0073553D02*
X0009400Y0073553D01*
X0009400Y0047244D02*
X0011368Y0045276D01*
X0023179Y0045276D01*
X0025148Y0047244D01*
D23*
X0192667Y0062274D03*
M02*
