G75*
%MOIN*%
%OFA0B0*%
%FSLAX25Y25*%
%IPPOS*%
%LPD*%
%AMOC8*
5,1,8,0,0,1.08239X$1,22.5*
%
%ADD10C,0.00000*%
%ADD11OC8,0.08400*%
%ADD12C,0.08400*%
%ADD13R,0.03156X0.03353*%
%ADD14R,0.03156X0.02959*%
%ADD15R,0.03766X0.04928*%
%ADD16R,0.05124X0.03746*%
%ADD17R,0.02959X0.03353*%
%ADD18R,0.05518X0.03746*%
%ADD19C,0.06400*%
%ADD20C,0.13392*%
D10*
X0002274Y0002274D02*
X0002274Y0242274D01*
X0212274Y0242274D01*
X0212274Y0002274D01*
X0002274Y0002274D01*
X0005778Y0012274D02*
X0005780Y0012435D01*
X0005786Y0012595D01*
X0005796Y0012756D01*
X0005810Y0012916D01*
X0005828Y0013075D01*
X0005849Y0013235D01*
X0005875Y0013393D01*
X0005905Y0013551D01*
X0005938Y0013708D01*
X0005976Y0013865D01*
X0006017Y0014020D01*
X0006062Y0014174D01*
X0006111Y0014327D01*
X0006164Y0014479D01*
X0006220Y0014629D01*
X0006280Y0014778D01*
X0006344Y0014926D01*
X0006411Y0015072D01*
X0006482Y0015216D01*
X0006557Y0015358D01*
X0006635Y0015499D01*
X0006716Y0015637D01*
X0006801Y0015774D01*
X0006890Y0015908D01*
X0006981Y0016040D01*
X0007076Y0016170D01*
X0007174Y0016297D01*
X0007275Y0016422D01*
X0007379Y0016545D01*
X0007486Y0016664D01*
X0007596Y0016781D01*
X0007709Y0016896D01*
X0007825Y0017007D01*
X0007943Y0017116D01*
X0008064Y0017221D01*
X0008188Y0017324D01*
X0008314Y0017424D01*
X0008443Y0017520D01*
X0008574Y0017613D01*
X0008707Y0017703D01*
X0008842Y0017790D01*
X0008980Y0017873D01*
X0009119Y0017952D01*
X0009261Y0018029D01*
X0009404Y0018102D01*
X0009549Y0018171D01*
X0009696Y0018236D01*
X0009844Y0018298D01*
X0009994Y0018357D01*
X0010145Y0018411D01*
X0010297Y0018462D01*
X0010451Y0018509D01*
X0010606Y0018552D01*
X0010761Y0018591D01*
X0010918Y0018627D01*
X0011076Y0018659D01*
X0011234Y0018686D01*
X0011393Y0018710D01*
X0011552Y0018730D01*
X0011712Y0018746D01*
X0011873Y0018758D01*
X0012033Y0018766D01*
X0012194Y0018770D01*
X0012354Y0018770D01*
X0012515Y0018766D01*
X0012675Y0018758D01*
X0012836Y0018746D01*
X0012996Y0018730D01*
X0013155Y0018710D01*
X0013314Y0018686D01*
X0013472Y0018659D01*
X0013630Y0018627D01*
X0013787Y0018591D01*
X0013942Y0018552D01*
X0014097Y0018509D01*
X0014251Y0018462D01*
X0014403Y0018411D01*
X0014554Y0018357D01*
X0014704Y0018298D01*
X0014852Y0018236D01*
X0014999Y0018171D01*
X0015144Y0018102D01*
X0015287Y0018029D01*
X0015429Y0017952D01*
X0015568Y0017873D01*
X0015706Y0017790D01*
X0015841Y0017703D01*
X0015974Y0017613D01*
X0016105Y0017520D01*
X0016234Y0017424D01*
X0016360Y0017324D01*
X0016484Y0017221D01*
X0016605Y0017116D01*
X0016723Y0017007D01*
X0016839Y0016896D01*
X0016952Y0016781D01*
X0017062Y0016664D01*
X0017169Y0016545D01*
X0017273Y0016422D01*
X0017374Y0016297D01*
X0017472Y0016170D01*
X0017567Y0016040D01*
X0017658Y0015908D01*
X0017747Y0015774D01*
X0017832Y0015637D01*
X0017913Y0015499D01*
X0017991Y0015358D01*
X0018066Y0015216D01*
X0018137Y0015072D01*
X0018204Y0014926D01*
X0018268Y0014778D01*
X0018328Y0014629D01*
X0018384Y0014479D01*
X0018437Y0014327D01*
X0018486Y0014174D01*
X0018531Y0014020D01*
X0018572Y0013865D01*
X0018610Y0013708D01*
X0018643Y0013551D01*
X0018673Y0013393D01*
X0018699Y0013235D01*
X0018720Y0013075D01*
X0018738Y0012916D01*
X0018752Y0012756D01*
X0018762Y0012595D01*
X0018768Y0012435D01*
X0018770Y0012274D01*
X0018768Y0012113D01*
X0018762Y0011953D01*
X0018752Y0011792D01*
X0018738Y0011632D01*
X0018720Y0011473D01*
X0018699Y0011313D01*
X0018673Y0011155D01*
X0018643Y0010997D01*
X0018610Y0010840D01*
X0018572Y0010683D01*
X0018531Y0010528D01*
X0018486Y0010374D01*
X0018437Y0010221D01*
X0018384Y0010069D01*
X0018328Y0009919D01*
X0018268Y0009770D01*
X0018204Y0009622D01*
X0018137Y0009476D01*
X0018066Y0009332D01*
X0017991Y0009190D01*
X0017913Y0009049D01*
X0017832Y0008911D01*
X0017747Y0008774D01*
X0017658Y0008640D01*
X0017567Y0008508D01*
X0017472Y0008378D01*
X0017374Y0008251D01*
X0017273Y0008126D01*
X0017169Y0008003D01*
X0017062Y0007884D01*
X0016952Y0007767D01*
X0016839Y0007652D01*
X0016723Y0007541D01*
X0016605Y0007432D01*
X0016484Y0007327D01*
X0016360Y0007224D01*
X0016234Y0007124D01*
X0016105Y0007028D01*
X0015974Y0006935D01*
X0015841Y0006845D01*
X0015706Y0006758D01*
X0015568Y0006675D01*
X0015429Y0006596D01*
X0015287Y0006519D01*
X0015144Y0006446D01*
X0014999Y0006377D01*
X0014852Y0006312D01*
X0014704Y0006250D01*
X0014554Y0006191D01*
X0014403Y0006137D01*
X0014251Y0006086D01*
X0014097Y0006039D01*
X0013942Y0005996D01*
X0013787Y0005957D01*
X0013630Y0005921D01*
X0013472Y0005889D01*
X0013314Y0005862D01*
X0013155Y0005838D01*
X0012996Y0005818D01*
X0012836Y0005802D01*
X0012675Y0005790D01*
X0012515Y0005782D01*
X0012354Y0005778D01*
X0012194Y0005778D01*
X0012033Y0005782D01*
X0011873Y0005790D01*
X0011712Y0005802D01*
X0011552Y0005818D01*
X0011393Y0005838D01*
X0011234Y0005862D01*
X0011076Y0005889D01*
X0010918Y0005921D01*
X0010761Y0005957D01*
X0010606Y0005996D01*
X0010451Y0006039D01*
X0010297Y0006086D01*
X0010145Y0006137D01*
X0009994Y0006191D01*
X0009844Y0006250D01*
X0009696Y0006312D01*
X0009549Y0006377D01*
X0009404Y0006446D01*
X0009261Y0006519D01*
X0009119Y0006596D01*
X0008980Y0006675D01*
X0008842Y0006758D01*
X0008707Y0006845D01*
X0008574Y0006935D01*
X0008443Y0007028D01*
X0008314Y0007124D01*
X0008188Y0007224D01*
X0008064Y0007327D01*
X0007943Y0007432D01*
X0007825Y0007541D01*
X0007709Y0007652D01*
X0007596Y0007767D01*
X0007486Y0007884D01*
X0007379Y0008003D01*
X0007275Y0008126D01*
X0007174Y0008251D01*
X0007076Y0008378D01*
X0006981Y0008508D01*
X0006890Y0008640D01*
X0006801Y0008774D01*
X0006716Y0008911D01*
X0006635Y0009049D01*
X0006557Y0009190D01*
X0006482Y0009332D01*
X0006411Y0009476D01*
X0006344Y0009622D01*
X0006280Y0009770D01*
X0006220Y0009919D01*
X0006164Y0010069D01*
X0006111Y0010221D01*
X0006062Y0010374D01*
X0006017Y0010528D01*
X0005976Y0010683D01*
X0005938Y0010840D01*
X0005905Y0010997D01*
X0005875Y0011155D01*
X0005849Y0011313D01*
X0005828Y0011473D01*
X0005810Y0011632D01*
X0005796Y0011792D01*
X0005786Y0011953D01*
X0005780Y0012113D01*
X0005778Y0012274D01*
X0005778Y0232274D02*
X0005780Y0232435D01*
X0005786Y0232595D01*
X0005796Y0232756D01*
X0005810Y0232916D01*
X0005828Y0233075D01*
X0005849Y0233235D01*
X0005875Y0233393D01*
X0005905Y0233551D01*
X0005938Y0233708D01*
X0005976Y0233865D01*
X0006017Y0234020D01*
X0006062Y0234174D01*
X0006111Y0234327D01*
X0006164Y0234479D01*
X0006220Y0234629D01*
X0006280Y0234778D01*
X0006344Y0234926D01*
X0006411Y0235072D01*
X0006482Y0235216D01*
X0006557Y0235358D01*
X0006635Y0235499D01*
X0006716Y0235637D01*
X0006801Y0235774D01*
X0006890Y0235908D01*
X0006981Y0236040D01*
X0007076Y0236170D01*
X0007174Y0236297D01*
X0007275Y0236422D01*
X0007379Y0236545D01*
X0007486Y0236664D01*
X0007596Y0236781D01*
X0007709Y0236896D01*
X0007825Y0237007D01*
X0007943Y0237116D01*
X0008064Y0237221D01*
X0008188Y0237324D01*
X0008314Y0237424D01*
X0008443Y0237520D01*
X0008574Y0237613D01*
X0008707Y0237703D01*
X0008842Y0237790D01*
X0008980Y0237873D01*
X0009119Y0237952D01*
X0009261Y0238029D01*
X0009404Y0238102D01*
X0009549Y0238171D01*
X0009696Y0238236D01*
X0009844Y0238298D01*
X0009994Y0238357D01*
X0010145Y0238411D01*
X0010297Y0238462D01*
X0010451Y0238509D01*
X0010606Y0238552D01*
X0010761Y0238591D01*
X0010918Y0238627D01*
X0011076Y0238659D01*
X0011234Y0238686D01*
X0011393Y0238710D01*
X0011552Y0238730D01*
X0011712Y0238746D01*
X0011873Y0238758D01*
X0012033Y0238766D01*
X0012194Y0238770D01*
X0012354Y0238770D01*
X0012515Y0238766D01*
X0012675Y0238758D01*
X0012836Y0238746D01*
X0012996Y0238730D01*
X0013155Y0238710D01*
X0013314Y0238686D01*
X0013472Y0238659D01*
X0013630Y0238627D01*
X0013787Y0238591D01*
X0013942Y0238552D01*
X0014097Y0238509D01*
X0014251Y0238462D01*
X0014403Y0238411D01*
X0014554Y0238357D01*
X0014704Y0238298D01*
X0014852Y0238236D01*
X0014999Y0238171D01*
X0015144Y0238102D01*
X0015287Y0238029D01*
X0015429Y0237952D01*
X0015568Y0237873D01*
X0015706Y0237790D01*
X0015841Y0237703D01*
X0015974Y0237613D01*
X0016105Y0237520D01*
X0016234Y0237424D01*
X0016360Y0237324D01*
X0016484Y0237221D01*
X0016605Y0237116D01*
X0016723Y0237007D01*
X0016839Y0236896D01*
X0016952Y0236781D01*
X0017062Y0236664D01*
X0017169Y0236545D01*
X0017273Y0236422D01*
X0017374Y0236297D01*
X0017472Y0236170D01*
X0017567Y0236040D01*
X0017658Y0235908D01*
X0017747Y0235774D01*
X0017832Y0235637D01*
X0017913Y0235499D01*
X0017991Y0235358D01*
X0018066Y0235216D01*
X0018137Y0235072D01*
X0018204Y0234926D01*
X0018268Y0234778D01*
X0018328Y0234629D01*
X0018384Y0234479D01*
X0018437Y0234327D01*
X0018486Y0234174D01*
X0018531Y0234020D01*
X0018572Y0233865D01*
X0018610Y0233708D01*
X0018643Y0233551D01*
X0018673Y0233393D01*
X0018699Y0233235D01*
X0018720Y0233075D01*
X0018738Y0232916D01*
X0018752Y0232756D01*
X0018762Y0232595D01*
X0018768Y0232435D01*
X0018770Y0232274D01*
X0018768Y0232113D01*
X0018762Y0231953D01*
X0018752Y0231792D01*
X0018738Y0231632D01*
X0018720Y0231473D01*
X0018699Y0231313D01*
X0018673Y0231155D01*
X0018643Y0230997D01*
X0018610Y0230840D01*
X0018572Y0230683D01*
X0018531Y0230528D01*
X0018486Y0230374D01*
X0018437Y0230221D01*
X0018384Y0230069D01*
X0018328Y0229919D01*
X0018268Y0229770D01*
X0018204Y0229622D01*
X0018137Y0229476D01*
X0018066Y0229332D01*
X0017991Y0229190D01*
X0017913Y0229049D01*
X0017832Y0228911D01*
X0017747Y0228774D01*
X0017658Y0228640D01*
X0017567Y0228508D01*
X0017472Y0228378D01*
X0017374Y0228251D01*
X0017273Y0228126D01*
X0017169Y0228003D01*
X0017062Y0227884D01*
X0016952Y0227767D01*
X0016839Y0227652D01*
X0016723Y0227541D01*
X0016605Y0227432D01*
X0016484Y0227327D01*
X0016360Y0227224D01*
X0016234Y0227124D01*
X0016105Y0227028D01*
X0015974Y0226935D01*
X0015841Y0226845D01*
X0015706Y0226758D01*
X0015568Y0226675D01*
X0015429Y0226596D01*
X0015287Y0226519D01*
X0015144Y0226446D01*
X0014999Y0226377D01*
X0014852Y0226312D01*
X0014704Y0226250D01*
X0014554Y0226191D01*
X0014403Y0226137D01*
X0014251Y0226086D01*
X0014097Y0226039D01*
X0013942Y0225996D01*
X0013787Y0225957D01*
X0013630Y0225921D01*
X0013472Y0225889D01*
X0013314Y0225862D01*
X0013155Y0225838D01*
X0012996Y0225818D01*
X0012836Y0225802D01*
X0012675Y0225790D01*
X0012515Y0225782D01*
X0012354Y0225778D01*
X0012194Y0225778D01*
X0012033Y0225782D01*
X0011873Y0225790D01*
X0011712Y0225802D01*
X0011552Y0225818D01*
X0011393Y0225838D01*
X0011234Y0225862D01*
X0011076Y0225889D01*
X0010918Y0225921D01*
X0010761Y0225957D01*
X0010606Y0225996D01*
X0010451Y0226039D01*
X0010297Y0226086D01*
X0010145Y0226137D01*
X0009994Y0226191D01*
X0009844Y0226250D01*
X0009696Y0226312D01*
X0009549Y0226377D01*
X0009404Y0226446D01*
X0009261Y0226519D01*
X0009119Y0226596D01*
X0008980Y0226675D01*
X0008842Y0226758D01*
X0008707Y0226845D01*
X0008574Y0226935D01*
X0008443Y0227028D01*
X0008314Y0227124D01*
X0008188Y0227224D01*
X0008064Y0227327D01*
X0007943Y0227432D01*
X0007825Y0227541D01*
X0007709Y0227652D01*
X0007596Y0227767D01*
X0007486Y0227884D01*
X0007379Y0228003D01*
X0007275Y0228126D01*
X0007174Y0228251D01*
X0007076Y0228378D01*
X0006981Y0228508D01*
X0006890Y0228640D01*
X0006801Y0228774D01*
X0006716Y0228911D01*
X0006635Y0229049D01*
X0006557Y0229190D01*
X0006482Y0229332D01*
X0006411Y0229476D01*
X0006344Y0229622D01*
X0006280Y0229770D01*
X0006220Y0229919D01*
X0006164Y0230069D01*
X0006111Y0230221D01*
X0006062Y0230374D01*
X0006017Y0230528D01*
X0005976Y0230683D01*
X0005938Y0230840D01*
X0005905Y0230997D01*
X0005875Y0231155D01*
X0005849Y0231313D01*
X0005828Y0231473D01*
X0005810Y0231632D01*
X0005796Y0231792D01*
X0005786Y0231953D01*
X0005780Y0232113D01*
X0005778Y0232274D01*
X0195778Y0232274D02*
X0195780Y0232435D01*
X0195786Y0232595D01*
X0195796Y0232756D01*
X0195810Y0232916D01*
X0195828Y0233075D01*
X0195849Y0233235D01*
X0195875Y0233393D01*
X0195905Y0233551D01*
X0195938Y0233708D01*
X0195976Y0233865D01*
X0196017Y0234020D01*
X0196062Y0234174D01*
X0196111Y0234327D01*
X0196164Y0234479D01*
X0196220Y0234629D01*
X0196280Y0234778D01*
X0196344Y0234926D01*
X0196411Y0235072D01*
X0196482Y0235216D01*
X0196557Y0235358D01*
X0196635Y0235499D01*
X0196716Y0235637D01*
X0196801Y0235774D01*
X0196890Y0235908D01*
X0196981Y0236040D01*
X0197076Y0236170D01*
X0197174Y0236297D01*
X0197275Y0236422D01*
X0197379Y0236545D01*
X0197486Y0236664D01*
X0197596Y0236781D01*
X0197709Y0236896D01*
X0197825Y0237007D01*
X0197943Y0237116D01*
X0198064Y0237221D01*
X0198188Y0237324D01*
X0198314Y0237424D01*
X0198443Y0237520D01*
X0198574Y0237613D01*
X0198707Y0237703D01*
X0198842Y0237790D01*
X0198980Y0237873D01*
X0199119Y0237952D01*
X0199261Y0238029D01*
X0199404Y0238102D01*
X0199549Y0238171D01*
X0199696Y0238236D01*
X0199844Y0238298D01*
X0199994Y0238357D01*
X0200145Y0238411D01*
X0200297Y0238462D01*
X0200451Y0238509D01*
X0200606Y0238552D01*
X0200761Y0238591D01*
X0200918Y0238627D01*
X0201076Y0238659D01*
X0201234Y0238686D01*
X0201393Y0238710D01*
X0201552Y0238730D01*
X0201712Y0238746D01*
X0201873Y0238758D01*
X0202033Y0238766D01*
X0202194Y0238770D01*
X0202354Y0238770D01*
X0202515Y0238766D01*
X0202675Y0238758D01*
X0202836Y0238746D01*
X0202996Y0238730D01*
X0203155Y0238710D01*
X0203314Y0238686D01*
X0203472Y0238659D01*
X0203630Y0238627D01*
X0203787Y0238591D01*
X0203942Y0238552D01*
X0204097Y0238509D01*
X0204251Y0238462D01*
X0204403Y0238411D01*
X0204554Y0238357D01*
X0204704Y0238298D01*
X0204852Y0238236D01*
X0204999Y0238171D01*
X0205144Y0238102D01*
X0205287Y0238029D01*
X0205429Y0237952D01*
X0205568Y0237873D01*
X0205706Y0237790D01*
X0205841Y0237703D01*
X0205974Y0237613D01*
X0206105Y0237520D01*
X0206234Y0237424D01*
X0206360Y0237324D01*
X0206484Y0237221D01*
X0206605Y0237116D01*
X0206723Y0237007D01*
X0206839Y0236896D01*
X0206952Y0236781D01*
X0207062Y0236664D01*
X0207169Y0236545D01*
X0207273Y0236422D01*
X0207374Y0236297D01*
X0207472Y0236170D01*
X0207567Y0236040D01*
X0207658Y0235908D01*
X0207747Y0235774D01*
X0207832Y0235637D01*
X0207913Y0235499D01*
X0207991Y0235358D01*
X0208066Y0235216D01*
X0208137Y0235072D01*
X0208204Y0234926D01*
X0208268Y0234778D01*
X0208328Y0234629D01*
X0208384Y0234479D01*
X0208437Y0234327D01*
X0208486Y0234174D01*
X0208531Y0234020D01*
X0208572Y0233865D01*
X0208610Y0233708D01*
X0208643Y0233551D01*
X0208673Y0233393D01*
X0208699Y0233235D01*
X0208720Y0233075D01*
X0208738Y0232916D01*
X0208752Y0232756D01*
X0208762Y0232595D01*
X0208768Y0232435D01*
X0208770Y0232274D01*
X0208768Y0232113D01*
X0208762Y0231953D01*
X0208752Y0231792D01*
X0208738Y0231632D01*
X0208720Y0231473D01*
X0208699Y0231313D01*
X0208673Y0231155D01*
X0208643Y0230997D01*
X0208610Y0230840D01*
X0208572Y0230683D01*
X0208531Y0230528D01*
X0208486Y0230374D01*
X0208437Y0230221D01*
X0208384Y0230069D01*
X0208328Y0229919D01*
X0208268Y0229770D01*
X0208204Y0229622D01*
X0208137Y0229476D01*
X0208066Y0229332D01*
X0207991Y0229190D01*
X0207913Y0229049D01*
X0207832Y0228911D01*
X0207747Y0228774D01*
X0207658Y0228640D01*
X0207567Y0228508D01*
X0207472Y0228378D01*
X0207374Y0228251D01*
X0207273Y0228126D01*
X0207169Y0228003D01*
X0207062Y0227884D01*
X0206952Y0227767D01*
X0206839Y0227652D01*
X0206723Y0227541D01*
X0206605Y0227432D01*
X0206484Y0227327D01*
X0206360Y0227224D01*
X0206234Y0227124D01*
X0206105Y0227028D01*
X0205974Y0226935D01*
X0205841Y0226845D01*
X0205706Y0226758D01*
X0205568Y0226675D01*
X0205429Y0226596D01*
X0205287Y0226519D01*
X0205144Y0226446D01*
X0204999Y0226377D01*
X0204852Y0226312D01*
X0204704Y0226250D01*
X0204554Y0226191D01*
X0204403Y0226137D01*
X0204251Y0226086D01*
X0204097Y0226039D01*
X0203942Y0225996D01*
X0203787Y0225957D01*
X0203630Y0225921D01*
X0203472Y0225889D01*
X0203314Y0225862D01*
X0203155Y0225838D01*
X0202996Y0225818D01*
X0202836Y0225802D01*
X0202675Y0225790D01*
X0202515Y0225782D01*
X0202354Y0225778D01*
X0202194Y0225778D01*
X0202033Y0225782D01*
X0201873Y0225790D01*
X0201712Y0225802D01*
X0201552Y0225818D01*
X0201393Y0225838D01*
X0201234Y0225862D01*
X0201076Y0225889D01*
X0200918Y0225921D01*
X0200761Y0225957D01*
X0200606Y0225996D01*
X0200451Y0226039D01*
X0200297Y0226086D01*
X0200145Y0226137D01*
X0199994Y0226191D01*
X0199844Y0226250D01*
X0199696Y0226312D01*
X0199549Y0226377D01*
X0199404Y0226446D01*
X0199261Y0226519D01*
X0199119Y0226596D01*
X0198980Y0226675D01*
X0198842Y0226758D01*
X0198707Y0226845D01*
X0198574Y0226935D01*
X0198443Y0227028D01*
X0198314Y0227124D01*
X0198188Y0227224D01*
X0198064Y0227327D01*
X0197943Y0227432D01*
X0197825Y0227541D01*
X0197709Y0227652D01*
X0197596Y0227767D01*
X0197486Y0227884D01*
X0197379Y0228003D01*
X0197275Y0228126D01*
X0197174Y0228251D01*
X0197076Y0228378D01*
X0196981Y0228508D01*
X0196890Y0228640D01*
X0196801Y0228774D01*
X0196716Y0228911D01*
X0196635Y0229049D01*
X0196557Y0229190D01*
X0196482Y0229332D01*
X0196411Y0229476D01*
X0196344Y0229622D01*
X0196280Y0229770D01*
X0196220Y0229919D01*
X0196164Y0230069D01*
X0196111Y0230221D01*
X0196062Y0230374D01*
X0196017Y0230528D01*
X0195976Y0230683D01*
X0195938Y0230840D01*
X0195905Y0230997D01*
X0195875Y0231155D01*
X0195849Y0231313D01*
X0195828Y0231473D01*
X0195810Y0231632D01*
X0195796Y0231792D01*
X0195786Y0231953D01*
X0195780Y0232113D01*
X0195778Y0232274D01*
X0195778Y0012274D02*
X0195780Y0012435D01*
X0195786Y0012595D01*
X0195796Y0012756D01*
X0195810Y0012916D01*
X0195828Y0013075D01*
X0195849Y0013235D01*
X0195875Y0013393D01*
X0195905Y0013551D01*
X0195938Y0013708D01*
X0195976Y0013865D01*
X0196017Y0014020D01*
X0196062Y0014174D01*
X0196111Y0014327D01*
X0196164Y0014479D01*
X0196220Y0014629D01*
X0196280Y0014778D01*
X0196344Y0014926D01*
X0196411Y0015072D01*
X0196482Y0015216D01*
X0196557Y0015358D01*
X0196635Y0015499D01*
X0196716Y0015637D01*
X0196801Y0015774D01*
X0196890Y0015908D01*
X0196981Y0016040D01*
X0197076Y0016170D01*
X0197174Y0016297D01*
X0197275Y0016422D01*
X0197379Y0016545D01*
X0197486Y0016664D01*
X0197596Y0016781D01*
X0197709Y0016896D01*
X0197825Y0017007D01*
X0197943Y0017116D01*
X0198064Y0017221D01*
X0198188Y0017324D01*
X0198314Y0017424D01*
X0198443Y0017520D01*
X0198574Y0017613D01*
X0198707Y0017703D01*
X0198842Y0017790D01*
X0198980Y0017873D01*
X0199119Y0017952D01*
X0199261Y0018029D01*
X0199404Y0018102D01*
X0199549Y0018171D01*
X0199696Y0018236D01*
X0199844Y0018298D01*
X0199994Y0018357D01*
X0200145Y0018411D01*
X0200297Y0018462D01*
X0200451Y0018509D01*
X0200606Y0018552D01*
X0200761Y0018591D01*
X0200918Y0018627D01*
X0201076Y0018659D01*
X0201234Y0018686D01*
X0201393Y0018710D01*
X0201552Y0018730D01*
X0201712Y0018746D01*
X0201873Y0018758D01*
X0202033Y0018766D01*
X0202194Y0018770D01*
X0202354Y0018770D01*
X0202515Y0018766D01*
X0202675Y0018758D01*
X0202836Y0018746D01*
X0202996Y0018730D01*
X0203155Y0018710D01*
X0203314Y0018686D01*
X0203472Y0018659D01*
X0203630Y0018627D01*
X0203787Y0018591D01*
X0203942Y0018552D01*
X0204097Y0018509D01*
X0204251Y0018462D01*
X0204403Y0018411D01*
X0204554Y0018357D01*
X0204704Y0018298D01*
X0204852Y0018236D01*
X0204999Y0018171D01*
X0205144Y0018102D01*
X0205287Y0018029D01*
X0205429Y0017952D01*
X0205568Y0017873D01*
X0205706Y0017790D01*
X0205841Y0017703D01*
X0205974Y0017613D01*
X0206105Y0017520D01*
X0206234Y0017424D01*
X0206360Y0017324D01*
X0206484Y0017221D01*
X0206605Y0017116D01*
X0206723Y0017007D01*
X0206839Y0016896D01*
X0206952Y0016781D01*
X0207062Y0016664D01*
X0207169Y0016545D01*
X0207273Y0016422D01*
X0207374Y0016297D01*
X0207472Y0016170D01*
X0207567Y0016040D01*
X0207658Y0015908D01*
X0207747Y0015774D01*
X0207832Y0015637D01*
X0207913Y0015499D01*
X0207991Y0015358D01*
X0208066Y0015216D01*
X0208137Y0015072D01*
X0208204Y0014926D01*
X0208268Y0014778D01*
X0208328Y0014629D01*
X0208384Y0014479D01*
X0208437Y0014327D01*
X0208486Y0014174D01*
X0208531Y0014020D01*
X0208572Y0013865D01*
X0208610Y0013708D01*
X0208643Y0013551D01*
X0208673Y0013393D01*
X0208699Y0013235D01*
X0208720Y0013075D01*
X0208738Y0012916D01*
X0208752Y0012756D01*
X0208762Y0012595D01*
X0208768Y0012435D01*
X0208770Y0012274D01*
X0208768Y0012113D01*
X0208762Y0011953D01*
X0208752Y0011792D01*
X0208738Y0011632D01*
X0208720Y0011473D01*
X0208699Y0011313D01*
X0208673Y0011155D01*
X0208643Y0010997D01*
X0208610Y0010840D01*
X0208572Y0010683D01*
X0208531Y0010528D01*
X0208486Y0010374D01*
X0208437Y0010221D01*
X0208384Y0010069D01*
X0208328Y0009919D01*
X0208268Y0009770D01*
X0208204Y0009622D01*
X0208137Y0009476D01*
X0208066Y0009332D01*
X0207991Y0009190D01*
X0207913Y0009049D01*
X0207832Y0008911D01*
X0207747Y0008774D01*
X0207658Y0008640D01*
X0207567Y0008508D01*
X0207472Y0008378D01*
X0207374Y0008251D01*
X0207273Y0008126D01*
X0207169Y0008003D01*
X0207062Y0007884D01*
X0206952Y0007767D01*
X0206839Y0007652D01*
X0206723Y0007541D01*
X0206605Y0007432D01*
X0206484Y0007327D01*
X0206360Y0007224D01*
X0206234Y0007124D01*
X0206105Y0007028D01*
X0205974Y0006935D01*
X0205841Y0006845D01*
X0205706Y0006758D01*
X0205568Y0006675D01*
X0205429Y0006596D01*
X0205287Y0006519D01*
X0205144Y0006446D01*
X0204999Y0006377D01*
X0204852Y0006312D01*
X0204704Y0006250D01*
X0204554Y0006191D01*
X0204403Y0006137D01*
X0204251Y0006086D01*
X0204097Y0006039D01*
X0203942Y0005996D01*
X0203787Y0005957D01*
X0203630Y0005921D01*
X0203472Y0005889D01*
X0203314Y0005862D01*
X0203155Y0005838D01*
X0202996Y0005818D01*
X0202836Y0005802D01*
X0202675Y0005790D01*
X0202515Y0005782D01*
X0202354Y0005778D01*
X0202194Y0005778D01*
X0202033Y0005782D01*
X0201873Y0005790D01*
X0201712Y0005802D01*
X0201552Y0005818D01*
X0201393Y0005838D01*
X0201234Y0005862D01*
X0201076Y0005889D01*
X0200918Y0005921D01*
X0200761Y0005957D01*
X0200606Y0005996D01*
X0200451Y0006039D01*
X0200297Y0006086D01*
X0200145Y0006137D01*
X0199994Y0006191D01*
X0199844Y0006250D01*
X0199696Y0006312D01*
X0199549Y0006377D01*
X0199404Y0006446D01*
X0199261Y0006519D01*
X0199119Y0006596D01*
X0198980Y0006675D01*
X0198842Y0006758D01*
X0198707Y0006845D01*
X0198574Y0006935D01*
X0198443Y0007028D01*
X0198314Y0007124D01*
X0198188Y0007224D01*
X0198064Y0007327D01*
X0197943Y0007432D01*
X0197825Y0007541D01*
X0197709Y0007652D01*
X0197596Y0007767D01*
X0197486Y0007884D01*
X0197379Y0008003D01*
X0197275Y0008126D01*
X0197174Y0008251D01*
X0197076Y0008378D01*
X0196981Y0008508D01*
X0196890Y0008640D01*
X0196801Y0008774D01*
X0196716Y0008911D01*
X0196635Y0009049D01*
X0196557Y0009190D01*
X0196482Y0009332D01*
X0196411Y0009476D01*
X0196344Y0009622D01*
X0196280Y0009770D01*
X0196220Y0009919D01*
X0196164Y0010069D01*
X0196111Y0010221D01*
X0196062Y0010374D01*
X0196017Y0010528D01*
X0195976Y0010683D01*
X0195938Y0010840D01*
X0195905Y0010997D01*
X0195875Y0011155D01*
X0195849Y0011313D01*
X0195828Y0011473D01*
X0195810Y0011632D01*
X0195796Y0011792D01*
X0195786Y0011953D01*
X0195780Y0012113D01*
X0195778Y0012274D01*
D11*
X0182274Y0152274D03*
X0042274Y0152274D03*
D12*
X0042274Y0162274D03*
X0042274Y0172274D03*
X0042274Y0182274D03*
X0042274Y0192274D03*
X0042274Y0202274D03*
X0032274Y0202274D03*
X0032274Y0192274D03*
X0032274Y0182274D03*
X0032274Y0172274D03*
X0032274Y0162274D03*
X0032274Y0152274D03*
X0032274Y0132274D03*
X0042274Y0132274D03*
X0052274Y0132274D03*
X0062274Y0132274D03*
X0062274Y0112274D03*
X0072274Y0112274D03*
X0052274Y0112274D03*
X0042274Y0112274D03*
X0032274Y0112274D03*
X0022274Y0112274D03*
X0022274Y0132274D03*
X0142274Y0112274D03*
X0152274Y0112274D03*
X0162274Y0112274D03*
X0172274Y0112274D03*
X0182274Y0112274D03*
X0192274Y0112274D03*
X0192274Y0132274D03*
X0182274Y0132274D03*
X0172274Y0132274D03*
X0162274Y0132274D03*
X0152274Y0132274D03*
X0172274Y0152274D03*
X0172274Y0162274D03*
X0172274Y0172274D03*
X0172274Y0182274D03*
X0172274Y0192274D03*
X0172274Y0202274D03*
X0182274Y0202274D03*
X0182274Y0192274D03*
X0182274Y0182274D03*
X0182274Y0172274D03*
X0182274Y0162274D03*
D13*
X0126073Y0131781D03*
X0122136Y0131781D03*
X0118199Y0131781D03*
X0114262Y0131781D03*
X0110325Y0131781D03*
X0106388Y0131781D03*
X0102451Y0131781D03*
X0098514Y0131781D03*
D14*
X0104419Y0127057D03*
X0120167Y0127057D03*
X0081388Y0120955D03*
D15*
X0132923Y0121152D03*
D16*
X0125827Y0179616D03*
D17*
X0120955Y0179813D03*
X0095955Y0179813D03*
D18*
X0083602Y0179616D03*
D19*
X0042274Y0219274D02*
X0042274Y0225274D01*
X0032274Y0225274D02*
X0032274Y0219274D01*
X0172274Y0219274D02*
X0172274Y0225274D01*
X0182274Y0225274D02*
X0182274Y0219274D01*
D20*
X0202274Y0232274D03*
X0202274Y0012274D03*
X0012274Y0012274D03*
X0012274Y0232274D03*
M02*
