G75*
%MOIN*%
%OFA0B0*%
%FSLAX25Y25*%
%IPPOS*%
%LPD*%
%AMOC8*
5,1,8,0,0,1.08239X$1,22.5*
%
%ADD10C,0.01400*%
%ADD11C,0.17392*%
%ADD12C,0.16998*%
%ADD13C,0.00000*%
%ADD14C,0.13392*%
%ADD15OC8,0.08400*%
%ADD16C,0.08400*%
%ADD17C,0.06400*%
D10*
X0106133Y0158235D02*
X0106133Y0161971D01*
X0106133Y0160103D02*
X0111738Y0160103D01*
X0109870Y0158235D01*
X0110804Y0164680D02*
X0111738Y0165614D01*
X0111738Y0167483D01*
X0110804Y0168417D01*
X0109870Y0168417D01*
X0108935Y0167483D01*
X0108001Y0168417D01*
X0107067Y0168417D01*
X0106133Y0167483D01*
X0106133Y0165614D01*
X0107067Y0164680D01*
X0108935Y0166549D02*
X0108935Y0167483D01*
X0116633Y0171663D02*
X0116633Y0175400D01*
X0117567Y0178109D02*
X0116633Y0179043D01*
X0116633Y0180911D01*
X0117567Y0181845D01*
X0118501Y0181845D01*
X0119435Y0180911D01*
X0119435Y0179043D01*
X0120370Y0178109D01*
X0121304Y0178109D01*
X0122238Y0179043D01*
X0122238Y0180911D01*
X0121304Y0181845D01*
X0122238Y0184554D02*
X0116633Y0184554D01*
X0118501Y0184554D02*
X0118501Y0187356D01*
X0119435Y0188291D01*
X0121304Y0188291D01*
X0122238Y0187356D01*
X0122238Y0184554D01*
X0121304Y0190999D02*
X0122238Y0191934D01*
X0122238Y0193802D01*
X0121304Y0194736D01*
X0120370Y0194736D01*
X0119435Y0193802D01*
X0118501Y0194736D01*
X0117567Y0194736D01*
X0116633Y0193802D01*
X0116633Y0191934D01*
X0117567Y0190999D01*
X0119435Y0192868D02*
X0119435Y0193802D01*
X0121304Y0197445D02*
X0122238Y0198379D01*
X0122238Y0200247D01*
X0121304Y0201182D01*
X0120370Y0201182D01*
X0116633Y0197445D01*
X0116633Y0201182D01*
X0109870Y0199710D02*
X0109870Y0197842D01*
X0108935Y0196908D01*
X0107067Y0196908D01*
X0106133Y0197842D01*
X0106133Y0199710D01*
X0108001Y0200644D02*
X0108001Y0196908D01*
X0108935Y0194199D02*
X0106133Y0194199D01*
X0108935Y0194199D02*
X0109870Y0193265D01*
X0109870Y0190462D01*
X0106133Y0190462D01*
X0106133Y0187753D02*
X0109870Y0187753D01*
X0109870Y0184017D02*
X0107067Y0184017D01*
X0106133Y0184951D01*
X0106133Y0187753D01*
X0101238Y0187240D02*
X0101238Y0190042D01*
X0100304Y0190976D01*
X0096567Y0190976D01*
X0095633Y0190042D01*
X0095633Y0187240D01*
X0101238Y0187240D01*
X0096567Y0193685D02*
X0096567Y0194619D01*
X0095633Y0194619D01*
X0095633Y0193685D01*
X0096567Y0193685D01*
X0108001Y0200644D02*
X0108935Y0200644D01*
X0109870Y0199710D01*
X0101238Y0203353D02*
X0101238Y0206156D01*
X0100304Y0207090D01*
X0098435Y0207090D01*
X0097501Y0206156D01*
X0097501Y0203353D01*
X0095633Y0203353D02*
X0101238Y0203353D01*
X0097501Y0205222D02*
X0095633Y0207090D01*
X0096567Y0209799D02*
X0095633Y0210733D01*
X0095633Y0213535D01*
X0098435Y0213535D01*
X0099370Y0212601D01*
X0099370Y0210733D01*
X0097501Y0210733D02*
X0097501Y0213535D01*
X0097501Y0210733D02*
X0096567Y0209799D01*
X0095633Y0216244D02*
X0099370Y0216244D01*
X0099370Y0219047D01*
X0098435Y0219981D01*
X0095633Y0219981D01*
X0096567Y0222690D02*
X0095633Y0223624D01*
X0095633Y0226426D01*
X0096567Y0229135D02*
X0095633Y0230070D01*
X0095633Y0231938D01*
X0097501Y0232872D02*
X0097501Y0229135D01*
X0096567Y0229135D02*
X0098435Y0229135D01*
X0099370Y0230070D01*
X0099370Y0231938D01*
X0098435Y0232872D01*
X0097501Y0232872D01*
X0098435Y0235581D02*
X0099370Y0236515D01*
X0099370Y0239317D01*
X0097501Y0238383D02*
X0097501Y0236515D01*
X0098435Y0235581D01*
X0095633Y0235581D02*
X0095633Y0238383D01*
X0096567Y0239317D01*
X0097501Y0238383D01*
X0106133Y0243895D02*
X0109870Y0245763D01*
X0110804Y0248472D02*
X0111738Y0249406D01*
X0111738Y0251274D01*
X0110804Y0252208D01*
X0109870Y0252208D01*
X0106133Y0248472D01*
X0106133Y0252208D01*
X0106133Y0254917D02*
X0106133Y0255851D01*
X0107067Y0255851D01*
X0107067Y0254917D01*
X0106133Y0254917D01*
X0107067Y0258140D02*
X0110804Y0261877D01*
X0107067Y0261877D01*
X0106133Y0260942D01*
X0106133Y0259074D01*
X0107067Y0258140D01*
X0110804Y0258140D01*
X0111738Y0259074D01*
X0111738Y0260942D01*
X0110804Y0261877D01*
X0116633Y0255174D02*
X0117567Y0254240D01*
X0121304Y0254240D01*
X0120370Y0253306D02*
X0120370Y0255174D01*
X0120370Y0250597D02*
X0116633Y0250597D01*
X0116633Y0247795D01*
X0117567Y0246860D01*
X0120370Y0246860D01*
X0119435Y0244151D02*
X0120370Y0243217D01*
X0120370Y0241349D01*
X0119435Y0240415D01*
X0117567Y0240415D01*
X0116633Y0241349D01*
X0116633Y0243217D01*
X0117567Y0244151D01*
X0119435Y0244151D01*
X0120370Y0237846D02*
X0118501Y0235044D01*
X0116633Y0237846D01*
X0116633Y0235044D02*
X0122238Y0235044D01*
X0119435Y0232335D02*
X0120370Y0231401D01*
X0120370Y0229532D01*
X0118501Y0229532D02*
X0118501Y0232335D01*
X0119435Y0232335D02*
X0116633Y0232335D01*
X0116633Y0229532D01*
X0117567Y0228598D01*
X0118501Y0229532D01*
X0118501Y0225889D02*
X0118501Y0222153D01*
X0117567Y0222153D02*
X0119435Y0222153D01*
X0120370Y0223087D01*
X0120370Y0224955D01*
X0119435Y0225889D01*
X0118501Y0225889D01*
X0116633Y0224955D02*
X0116633Y0223087D01*
X0117567Y0222153D01*
X0120370Y0219584D02*
X0120370Y0218650D01*
X0118501Y0216781D01*
X0116633Y0216781D02*
X0120370Y0216781D01*
X0120370Y0214073D02*
X0119435Y0213138D01*
X0119435Y0210336D01*
X0116633Y0210336D02*
X0116633Y0213138D01*
X0117567Y0214073D01*
X0118501Y0214073D01*
X0119435Y0213138D01*
X0120370Y0214073D02*
X0121304Y0214073D01*
X0122238Y0213138D01*
X0122238Y0210336D01*
X0116633Y0210336D01*
X0111738Y0210733D02*
X0110804Y0209799D01*
X0111738Y0210733D02*
X0111738Y0212601D01*
X0110804Y0213535D01*
X0109870Y0213535D01*
X0106133Y0209799D01*
X0106133Y0213535D01*
X0107067Y0216244D02*
X0110804Y0219981D01*
X0107067Y0219981D01*
X0106133Y0219047D01*
X0106133Y0217178D01*
X0107067Y0216244D01*
X0110804Y0216244D01*
X0111738Y0217178D01*
X0111738Y0219047D01*
X0110804Y0219981D01*
X0109870Y0222690D02*
X0111738Y0224558D01*
X0106133Y0224558D01*
X0106133Y0222690D02*
X0106133Y0226426D01*
X0106133Y0229135D02*
X0107067Y0229135D01*
X0110804Y0232872D01*
X0111738Y0232872D01*
X0111738Y0229135D01*
X0099370Y0226426D02*
X0099370Y0223624D01*
X0098435Y0222690D01*
X0096567Y0222690D01*
X0106133Y0243895D02*
X0109870Y0242026D01*
X0111738Y0181308D02*
X0111738Y0179440D01*
X0111738Y0180374D02*
X0107067Y0180374D01*
X0106133Y0179440D01*
X0106133Y0178505D01*
X0107067Y0177571D01*
X0116633Y0171663D02*
X0122238Y0171663D01*
X0122238Y0175400D01*
X0119435Y0173531D02*
X0119435Y0171663D01*
D11*
X0085744Y0098933D03*
X0073933Y0080035D03*
D12*
X0062122Y0098933D03*
D13*
X0037437Y0048933D02*
X0037439Y0049094D01*
X0037445Y0049254D01*
X0037455Y0049415D01*
X0037469Y0049575D01*
X0037487Y0049734D01*
X0037508Y0049894D01*
X0037534Y0050052D01*
X0037564Y0050210D01*
X0037597Y0050367D01*
X0037635Y0050524D01*
X0037676Y0050679D01*
X0037721Y0050833D01*
X0037770Y0050986D01*
X0037823Y0051138D01*
X0037879Y0051288D01*
X0037939Y0051437D01*
X0038003Y0051585D01*
X0038070Y0051731D01*
X0038141Y0051875D01*
X0038216Y0052017D01*
X0038294Y0052158D01*
X0038375Y0052296D01*
X0038460Y0052433D01*
X0038549Y0052567D01*
X0038640Y0052699D01*
X0038735Y0052829D01*
X0038833Y0052956D01*
X0038934Y0053081D01*
X0039038Y0053204D01*
X0039145Y0053323D01*
X0039255Y0053440D01*
X0039368Y0053555D01*
X0039484Y0053666D01*
X0039602Y0053775D01*
X0039723Y0053880D01*
X0039847Y0053983D01*
X0039973Y0054083D01*
X0040102Y0054179D01*
X0040233Y0054272D01*
X0040366Y0054362D01*
X0040501Y0054449D01*
X0040639Y0054532D01*
X0040778Y0054611D01*
X0040920Y0054688D01*
X0041063Y0054761D01*
X0041208Y0054830D01*
X0041355Y0054895D01*
X0041503Y0054957D01*
X0041653Y0055016D01*
X0041804Y0055070D01*
X0041956Y0055121D01*
X0042110Y0055168D01*
X0042265Y0055211D01*
X0042420Y0055250D01*
X0042577Y0055286D01*
X0042735Y0055318D01*
X0042893Y0055345D01*
X0043052Y0055369D01*
X0043211Y0055389D01*
X0043371Y0055405D01*
X0043532Y0055417D01*
X0043692Y0055425D01*
X0043853Y0055429D01*
X0044013Y0055429D01*
X0044174Y0055425D01*
X0044334Y0055417D01*
X0044495Y0055405D01*
X0044655Y0055389D01*
X0044814Y0055369D01*
X0044973Y0055345D01*
X0045131Y0055318D01*
X0045289Y0055286D01*
X0045446Y0055250D01*
X0045601Y0055211D01*
X0045756Y0055168D01*
X0045910Y0055121D01*
X0046062Y0055070D01*
X0046213Y0055016D01*
X0046363Y0054957D01*
X0046511Y0054895D01*
X0046658Y0054830D01*
X0046803Y0054761D01*
X0046946Y0054688D01*
X0047088Y0054611D01*
X0047227Y0054532D01*
X0047365Y0054449D01*
X0047500Y0054362D01*
X0047633Y0054272D01*
X0047764Y0054179D01*
X0047893Y0054083D01*
X0048019Y0053983D01*
X0048143Y0053880D01*
X0048264Y0053775D01*
X0048382Y0053666D01*
X0048498Y0053555D01*
X0048611Y0053440D01*
X0048721Y0053323D01*
X0048828Y0053204D01*
X0048932Y0053081D01*
X0049033Y0052956D01*
X0049131Y0052829D01*
X0049226Y0052699D01*
X0049317Y0052567D01*
X0049406Y0052433D01*
X0049491Y0052296D01*
X0049572Y0052158D01*
X0049650Y0052017D01*
X0049725Y0051875D01*
X0049796Y0051731D01*
X0049863Y0051585D01*
X0049927Y0051437D01*
X0049987Y0051288D01*
X0050043Y0051138D01*
X0050096Y0050986D01*
X0050145Y0050833D01*
X0050190Y0050679D01*
X0050231Y0050524D01*
X0050269Y0050367D01*
X0050302Y0050210D01*
X0050332Y0050052D01*
X0050358Y0049894D01*
X0050379Y0049734D01*
X0050397Y0049575D01*
X0050411Y0049415D01*
X0050421Y0049254D01*
X0050427Y0049094D01*
X0050429Y0048933D01*
X0050427Y0048772D01*
X0050421Y0048612D01*
X0050411Y0048451D01*
X0050397Y0048291D01*
X0050379Y0048132D01*
X0050358Y0047972D01*
X0050332Y0047814D01*
X0050302Y0047656D01*
X0050269Y0047499D01*
X0050231Y0047342D01*
X0050190Y0047187D01*
X0050145Y0047033D01*
X0050096Y0046880D01*
X0050043Y0046728D01*
X0049987Y0046578D01*
X0049927Y0046429D01*
X0049863Y0046281D01*
X0049796Y0046135D01*
X0049725Y0045991D01*
X0049650Y0045849D01*
X0049572Y0045708D01*
X0049491Y0045570D01*
X0049406Y0045433D01*
X0049317Y0045299D01*
X0049226Y0045167D01*
X0049131Y0045037D01*
X0049033Y0044910D01*
X0048932Y0044785D01*
X0048828Y0044662D01*
X0048721Y0044543D01*
X0048611Y0044426D01*
X0048498Y0044311D01*
X0048382Y0044200D01*
X0048264Y0044091D01*
X0048143Y0043986D01*
X0048019Y0043883D01*
X0047893Y0043783D01*
X0047764Y0043687D01*
X0047633Y0043594D01*
X0047500Y0043504D01*
X0047365Y0043417D01*
X0047227Y0043334D01*
X0047088Y0043255D01*
X0046946Y0043178D01*
X0046803Y0043105D01*
X0046658Y0043036D01*
X0046511Y0042971D01*
X0046363Y0042909D01*
X0046213Y0042850D01*
X0046062Y0042796D01*
X0045910Y0042745D01*
X0045756Y0042698D01*
X0045601Y0042655D01*
X0045446Y0042616D01*
X0045289Y0042580D01*
X0045131Y0042548D01*
X0044973Y0042521D01*
X0044814Y0042497D01*
X0044655Y0042477D01*
X0044495Y0042461D01*
X0044334Y0042449D01*
X0044174Y0042441D01*
X0044013Y0042437D01*
X0043853Y0042437D01*
X0043692Y0042441D01*
X0043532Y0042449D01*
X0043371Y0042461D01*
X0043211Y0042477D01*
X0043052Y0042497D01*
X0042893Y0042521D01*
X0042735Y0042548D01*
X0042577Y0042580D01*
X0042420Y0042616D01*
X0042265Y0042655D01*
X0042110Y0042698D01*
X0041956Y0042745D01*
X0041804Y0042796D01*
X0041653Y0042850D01*
X0041503Y0042909D01*
X0041355Y0042971D01*
X0041208Y0043036D01*
X0041063Y0043105D01*
X0040920Y0043178D01*
X0040778Y0043255D01*
X0040639Y0043334D01*
X0040501Y0043417D01*
X0040366Y0043504D01*
X0040233Y0043594D01*
X0040102Y0043687D01*
X0039973Y0043783D01*
X0039847Y0043883D01*
X0039723Y0043986D01*
X0039602Y0044091D01*
X0039484Y0044200D01*
X0039368Y0044311D01*
X0039255Y0044426D01*
X0039145Y0044543D01*
X0039038Y0044662D01*
X0038934Y0044785D01*
X0038833Y0044910D01*
X0038735Y0045037D01*
X0038640Y0045167D01*
X0038549Y0045299D01*
X0038460Y0045433D01*
X0038375Y0045570D01*
X0038294Y0045708D01*
X0038216Y0045849D01*
X0038141Y0045991D01*
X0038070Y0046135D01*
X0038003Y0046281D01*
X0037939Y0046429D01*
X0037879Y0046578D01*
X0037823Y0046728D01*
X0037770Y0046880D01*
X0037721Y0047033D01*
X0037676Y0047187D01*
X0037635Y0047342D01*
X0037597Y0047499D01*
X0037564Y0047656D01*
X0037534Y0047814D01*
X0037508Y0047972D01*
X0037487Y0048132D01*
X0037469Y0048291D01*
X0037455Y0048451D01*
X0037445Y0048612D01*
X0037439Y0048772D01*
X0037437Y0048933D01*
X0037437Y0358933D02*
X0037439Y0359094D01*
X0037445Y0359254D01*
X0037455Y0359415D01*
X0037469Y0359575D01*
X0037487Y0359734D01*
X0037508Y0359894D01*
X0037534Y0360052D01*
X0037564Y0360210D01*
X0037597Y0360367D01*
X0037635Y0360524D01*
X0037676Y0360679D01*
X0037721Y0360833D01*
X0037770Y0360986D01*
X0037823Y0361138D01*
X0037879Y0361288D01*
X0037939Y0361437D01*
X0038003Y0361585D01*
X0038070Y0361731D01*
X0038141Y0361875D01*
X0038216Y0362017D01*
X0038294Y0362158D01*
X0038375Y0362296D01*
X0038460Y0362433D01*
X0038549Y0362567D01*
X0038640Y0362699D01*
X0038735Y0362829D01*
X0038833Y0362956D01*
X0038934Y0363081D01*
X0039038Y0363204D01*
X0039145Y0363323D01*
X0039255Y0363440D01*
X0039368Y0363555D01*
X0039484Y0363666D01*
X0039602Y0363775D01*
X0039723Y0363880D01*
X0039847Y0363983D01*
X0039973Y0364083D01*
X0040102Y0364179D01*
X0040233Y0364272D01*
X0040366Y0364362D01*
X0040501Y0364449D01*
X0040639Y0364532D01*
X0040778Y0364611D01*
X0040920Y0364688D01*
X0041063Y0364761D01*
X0041208Y0364830D01*
X0041355Y0364895D01*
X0041503Y0364957D01*
X0041653Y0365016D01*
X0041804Y0365070D01*
X0041956Y0365121D01*
X0042110Y0365168D01*
X0042265Y0365211D01*
X0042420Y0365250D01*
X0042577Y0365286D01*
X0042735Y0365318D01*
X0042893Y0365345D01*
X0043052Y0365369D01*
X0043211Y0365389D01*
X0043371Y0365405D01*
X0043532Y0365417D01*
X0043692Y0365425D01*
X0043853Y0365429D01*
X0044013Y0365429D01*
X0044174Y0365425D01*
X0044334Y0365417D01*
X0044495Y0365405D01*
X0044655Y0365389D01*
X0044814Y0365369D01*
X0044973Y0365345D01*
X0045131Y0365318D01*
X0045289Y0365286D01*
X0045446Y0365250D01*
X0045601Y0365211D01*
X0045756Y0365168D01*
X0045910Y0365121D01*
X0046062Y0365070D01*
X0046213Y0365016D01*
X0046363Y0364957D01*
X0046511Y0364895D01*
X0046658Y0364830D01*
X0046803Y0364761D01*
X0046946Y0364688D01*
X0047088Y0364611D01*
X0047227Y0364532D01*
X0047365Y0364449D01*
X0047500Y0364362D01*
X0047633Y0364272D01*
X0047764Y0364179D01*
X0047893Y0364083D01*
X0048019Y0363983D01*
X0048143Y0363880D01*
X0048264Y0363775D01*
X0048382Y0363666D01*
X0048498Y0363555D01*
X0048611Y0363440D01*
X0048721Y0363323D01*
X0048828Y0363204D01*
X0048932Y0363081D01*
X0049033Y0362956D01*
X0049131Y0362829D01*
X0049226Y0362699D01*
X0049317Y0362567D01*
X0049406Y0362433D01*
X0049491Y0362296D01*
X0049572Y0362158D01*
X0049650Y0362017D01*
X0049725Y0361875D01*
X0049796Y0361731D01*
X0049863Y0361585D01*
X0049927Y0361437D01*
X0049987Y0361288D01*
X0050043Y0361138D01*
X0050096Y0360986D01*
X0050145Y0360833D01*
X0050190Y0360679D01*
X0050231Y0360524D01*
X0050269Y0360367D01*
X0050302Y0360210D01*
X0050332Y0360052D01*
X0050358Y0359894D01*
X0050379Y0359734D01*
X0050397Y0359575D01*
X0050411Y0359415D01*
X0050421Y0359254D01*
X0050427Y0359094D01*
X0050429Y0358933D01*
X0050427Y0358772D01*
X0050421Y0358612D01*
X0050411Y0358451D01*
X0050397Y0358291D01*
X0050379Y0358132D01*
X0050358Y0357972D01*
X0050332Y0357814D01*
X0050302Y0357656D01*
X0050269Y0357499D01*
X0050231Y0357342D01*
X0050190Y0357187D01*
X0050145Y0357033D01*
X0050096Y0356880D01*
X0050043Y0356728D01*
X0049987Y0356578D01*
X0049927Y0356429D01*
X0049863Y0356281D01*
X0049796Y0356135D01*
X0049725Y0355991D01*
X0049650Y0355849D01*
X0049572Y0355708D01*
X0049491Y0355570D01*
X0049406Y0355433D01*
X0049317Y0355299D01*
X0049226Y0355167D01*
X0049131Y0355037D01*
X0049033Y0354910D01*
X0048932Y0354785D01*
X0048828Y0354662D01*
X0048721Y0354543D01*
X0048611Y0354426D01*
X0048498Y0354311D01*
X0048382Y0354200D01*
X0048264Y0354091D01*
X0048143Y0353986D01*
X0048019Y0353883D01*
X0047893Y0353783D01*
X0047764Y0353687D01*
X0047633Y0353594D01*
X0047500Y0353504D01*
X0047365Y0353417D01*
X0047227Y0353334D01*
X0047088Y0353255D01*
X0046946Y0353178D01*
X0046803Y0353105D01*
X0046658Y0353036D01*
X0046511Y0352971D01*
X0046363Y0352909D01*
X0046213Y0352850D01*
X0046062Y0352796D01*
X0045910Y0352745D01*
X0045756Y0352698D01*
X0045601Y0352655D01*
X0045446Y0352616D01*
X0045289Y0352580D01*
X0045131Y0352548D01*
X0044973Y0352521D01*
X0044814Y0352497D01*
X0044655Y0352477D01*
X0044495Y0352461D01*
X0044334Y0352449D01*
X0044174Y0352441D01*
X0044013Y0352437D01*
X0043853Y0352437D01*
X0043692Y0352441D01*
X0043532Y0352449D01*
X0043371Y0352461D01*
X0043211Y0352477D01*
X0043052Y0352497D01*
X0042893Y0352521D01*
X0042735Y0352548D01*
X0042577Y0352580D01*
X0042420Y0352616D01*
X0042265Y0352655D01*
X0042110Y0352698D01*
X0041956Y0352745D01*
X0041804Y0352796D01*
X0041653Y0352850D01*
X0041503Y0352909D01*
X0041355Y0352971D01*
X0041208Y0353036D01*
X0041063Y0353105D01*
X0040920Y0353178D01*
X0040778Y0353255D01*
X0040639Y0353334D01*
X0040501Y0353417D01*
X0040366Y0353504D01*
X0040233Y0353594D01*
X0040102Y0353687D01*
X0039973Y0353783D01*
X0039847Y0353883D01*
X0039723Y0353986D01*
X0039602Y0354091D01*
X0039484Y0354200D01*
X0039368Y0354311D01*
X0039255Y0354426D01*
X0039145Y0354543D01*
X0039038Y0354662D01*
X0038934Y0354785D01*
X0038833Y0354910D01*
X0038735Y0355037D01*
X0038640Y0355167D01*
X0038549Y0355299D01*
X0038460Y0355433D01*
X0038375Y0355570D01*
X0038294Y0355708D01*
X0038216Y0355849D01*
X0038141Y0355991D01*
X0038070Y0356135D01*
X0038003Y0356281D01*
X0037939Y0356429D01*
X0037879Y0356578D01*
X0037823Y0356728D01*
X0037770Y0356880D01*
X0037721Y0357033D01*
X0037676Y0357187D01*
X0037635Y0357342D01*
X0037597Y0357499D01*
X0037564Y0357656D01*
X0037534Y0357814D01*
X0037508Y0357972D01*
X0037487Y0358132D01*
X0037469Y0358291D01*
X0037455Y0358451D01*
X0037445Y0358612D01*
X0037439Y0358772D01*
X0037437Y0358933D01*
X0367437Y0358933D02*
X0367439Y0359094D01*
X0367445Y0359254D01*
X0367455Y0359415D01*
X0367469Y0359575D01*
X0367487Y0359734D01*
X0367508Y0359894D01*
X0367534Y0360052D01*
X0367564Y0360210D01*
X0367597Y0360367D01*
X0367635Y0360524D01*
X0367676Y0360679D01*
X0367721Y0360833D01*
X0367770Y0360986D01*
X0367823Y0361138D01*
X0367879Y0361288D01*
X0367939Y0361437D01*
X0368003Y0361585D01*
X0368070Y0361731D01*
X0368141Y0361875D01*
X0368216Y0362017D01*
X0368294Y0362158D01*
X0368375Y0362296D01*
X0368460Y0362433D01*
X0368549Y0362567D01*
X0368640Y0362699D01*
X0368735Y0362829D01*
X0368833Y0362956D01*
X0368934Y0363081D01*
X0369038Y0363204D01*
X0369145Y0363323D01*
X0369255Y0363440D01*
X0369368Y0363555D01*
X0369484Y0363666D01*
X0369602Y0363775D01*
X0369723Y0363880D01*
X0369847Y0363983D01*
X0369973Y0364083D01*
X0370102Y0364179D01*
X0370233Y0364272D01*
X0370366Y0364362D01*
X0370501Y0364449D01*
X0370639Y0364532D01*
X0370778Y0364611D01*
X0370920Y0364688D01*
X0371063Y0364761D01*
X0371208Y0364830D01*
X0371355Y0364895D01*
X0371503Y0364957D01*
X0371653Y0365016D01*
X0371804Y0365070D01*
X0371956Y0365121D01*
X0372110Y0365168D01*
X0372265Y0365211D01*
X0372420Y0365250D01*
X0372577Y0365286D01*
X0372735Y0365318D01*
X0372893Y0365345D01*
X0373052Y0365369D01*
X0373211Y0365389D01*
X0373371Y0365405D01*
X0373532Y0365417D01*
X0373692Y0365425D01*
X0373853Y0365429D01*
X0374013Y0365429D01*
X0374174Y0365425D01*
X0374334Y0365417D01*
X0374495Y0365405D01*
X0374655Y0365389D01*
X0374814Y0365369D01*
X0374973Y0365345D01*
X0375131Y0365318D01*
X0375289Y0365286D01*
X0375446Y0365250D01*
X0375601Y0365211D01*
X0375756Y0365168D01*
X0375910Y0365121D01*
X0376062Y0365070D01*
X0376213Y0365016D01*
X0376363Y0364957D01*
X0376511Y0364895D01*
X0376658Y0364830D01*
X0376803Y0364761D01*
X0376946Y0364688D01*
X0377088Y0364611D01*
X0377227Y0364532D01*
X0377365Y0364449D01*
X0377500Y0364362D01*
X0377633Y0364272D01*
X0377764Y0364179D01*
X0377893Y0364083D01*
X0378019Y0363983D01*
X0378143Y0363880D01*
X0378264Y0363775D01*
X0378382Y0363666D01*
X0378498Y0363555D01*
X0378611Y0363440D01*
X0378721Y0363323D01*
X0378828Y0363204D01*
X0378932Y0363081D01*
X0379033Y0362956D01*
X0379131Y0362829D01*
X0379226Y0362699D01*
X0379317Y0362567D01*
X0379406Y0362433D01*
X0379491Y0362296D01*
X0379572Y0362158D01*
X0379650Y0362017D01*
X0379725Y0361875D01*
X0379796Y0361731D01*
X0379863Y0361585D01*
X0379927Y0361437D01*
X0379987Y0361288D01*
X0380043Y0361138D01*
X0380096Y0360986D01*
X0380145Y0360833D01*
X0380190Y0360679D01*
X0380231Y0360524D01*
X0380269Y0360367D01*
X0380302Y0360210D01*
X0380332Y0360052D01*
X0380358Y0359894D01*
X0380379Y0359734D01*
X0380397Y0359575D01*
X0380411Y0359415D01*
X0380421Y0359254D01*
X0380427Y0359094D01*
X0380429Y0358933D01*
X0380427Y0358772D01*
X0380421Y0358612D01*
X0380411Y0358451D01*
X0380397Y0358291D01*
X0380379Y0358132D01*
X0380358Y0357972D01*
X0380332Y0357814D01*
X0380302Y0357656D01*
X0380269Y0357499D01*
X0380231Y0357342D01*
X0380190Y0357187D01*
X0380145Y0357033D01*
X0380096Y0356880D01*
X0380043Y0356728D01*
X0379987Y0356578D01*
X0379927Y0356429D01*
X0379863Y0356281D01*
X0379796Y0356135D01*
X0379725Y0355991D01*
X0379650Y0355849D01*
X0379572Y0355708D01*
X0379491Y0355570D01*
X0379406Y0355433D01*
X0379317Y0355299D01*
X0379226Y0355167D01*
X0379131Y0355037D01*
X0379033Y0354910D01*
X0378932Y0354785D01*
X0378828Y0354662D01*
X0378721Y0354543D01*
X0378611Y0354426D01*
X0378498Y0354311D01*
X0378382Y0354200D01*
X0378264Y0354091D01*
X0378143Y0353986D01*
X0378019Y0353883D01*
X0377893Y0353783D01*
X0377764Y0353687D01*
X0377633Y0353594D01*
X0377500Y0353504D01*
X0377365Y0353417D01*
X0377227Y0353334D01*
X0377088Y0353255D01*
X0376946Y0353178D01*
X0376803Y0353105D01*
X0376658Y0353036D01*
X0376511Y0352971D01*
X0376363Y0352909D01*
X0376213Y0352850D01*
X0376062Y0352796D01*
X0375910Y0352745D01*
X0375756Y0352698D01*
X0375601Y0352655D01*
X0375446Y0352616D01*
X0375289Y0352580D01*
X0375131Y0352548D01*
X0374973Y0352521D01*
X0374814Y0352497D01*
X0374655Y0352477D01*
X0374495Y0352461D01*
X0374334Y0352449D01*
X0374174Y0352441D01*
X0374013Y0352437D01*
X0373853Y0352437D01*
X0373692Y0352441D01*
X0373532Y0352449D01*
X0373371Y0352461D01*
X0373211Y0352477D01*
X0373052Y0352497D01*
X0372893Y0352521D01*
X0372735Y0352548D01*
X0372577Y0352580D01*
X0372420Y0352616D01*
X0372265Y0352655D01*
X0372110Y0352698D01*
X0371956Y0352745D01*
X0371804Y0352796D01*
X0371653Y0352850D01*
X0371503Y0352909D01*
X0371355Y0352971D01*
X0371208Y0353036D01*
X0371063Y0353105D01*
X0370920Y0353178D01*
X0370778Y0353255D01*
X0370639Y0353334D01*
X0370501Y0353417D01*
X0370366Y0353504D01*
X0370233Y0353594D01*
X0370102Y0353687D01*
X0369973Y0353783D01*
X0369847Y0353883D01*
X0369723Y0353986D01*
X0369602Y0354091D01*
X0369484Y0354200D01*
X0369368Y0354311D01*
X0369255Y0354426D01*
X0369145Y0354543D01*
X0369038Y0354662D01*
X0368934Y0354785D01*
X0368833Y0354910D01*
X0368735Y0355037D01*
X0368640Y0355167D01*
X0368549Y0355299D01*
X0368460Y0355433D01*
X0368375Y0355570D01*
X0368294Y0355708D01*
X0368216Y0355849D01*
X0368141Y0355991D01*
X0368070Y0356135D01*
X0368003Y0356281D01*
X0367939Y0356429D01*
X0367879Y0356578D01*
X0367823Y0356728D01*
X0367770Y0356880D01*
X0367721Y0357033D01*
X0367676Y0357187D01*
X0367635Y0357342D01*
X0367597Y0357499D01*
X0367564Y0357656D01*
X0367534Y0357814D01*
X0367508Y0357972D01*
X0367487Y0358132D01*
X0367469Y0358291D01*
X0367455Y0358451D01*
X0367445Y0358612D01*
X0367439Y0358772D01*
X0367437Y0358933D01*
X0367437Y0048933D02*
X0367439Y0049094D01*
X0367445Y0049254D01*
X0367455Y0049415D01*
X0367469Y0049575D01*
X0367487Y0049734D01*
X0367508Y0049894D01*
X0367534Y0050052D01*
X0367564Y0050210D01*
X0367597Y0050367D01*
X0367635Y0050524D01*
X0367676Y0050679D01*
X0367721Y0050833D01*
X0367770Y0050986D01*
X0367823Y0051138D01*
X0367879Y0051288D01*
X0367939Y0051437D01*
X0368003Y0051585D01*
X0368070Y0051731D01*
X0368141Y0051875D01*
X0368216Y0052017D01*
X0368294Y0052158D01*
X0368375Y0052296D01*
X0368460Y0052433D01*
X0368549Y0052567D01*
X0368640Y0052699D01*
X0368735Y0052829D01*
X0368833Y0052956D01*
X0368934Y0053081D01*
X0369038Y0053204D01*
X0369145Y0053323D01*
X0369255Y0053440D01*
X0369368Y0053555D01*
X0369484Y0053666D01*
X0369602Y0053775D01*
X0369723Y0053880D01*
X0369847Y0053983D01*
X0369973Y0054083D01*
X0370102Y0054179D01*
X0370233Y0054272D01*
X0370366Y0054362D01*
X0370501Y0054449D01*
X0370639Y0054532D01*
X0370778Y0054611D01*
X0370920Y0054688D01*
X0371063Y0054761D01*
X0371208Y0054830D01*
X0371355Y0054895D01*
X0371503Y0054957D01*
X0371653Y0055016D01*
X0371804Y0055070D01*
X0371956Y0055121D01*
X0372110Y0055168D01*
X0372265Y0055211D01*
X0372420Y0055250D01*
X0372577Y0055286D01*
X0372735Y0055318D01*
X0372893Y0055345D01*
X0373052Y0055369D01*
X0373211Y0055389D01*
X0373371Y0055405D01*
X0373532Y0055417D01*
X0373692Y0055425D01*
X0373853Y0055429D01*
X0374013Y0055429D01*
X0374174Y0055425D01*
X0374334Y0055417D01*
X0374495Y0055405D01*
X0374655Y0055389D01*
X0374814Y0055369D01*
X0374973Y0055345D01*
X0375131Y0055318D01*
X0375289Y0055286D01*
X0375446Y0055250D01*
X0375601Y0055211D01*
X0375756Y0055168D01*
X0375910Y0055121D01*
X0376062Y0055070D01*
X0376213Y0055016D01*
X0376363Y0054957D01*
X0376511Y0054895D01*
X0376658Y0054830D01*
X0376803Y0054761D01*
X0376946Y0054688D01*
X0377088Y0054611D01*
X0377227Y0054532D01*
X0377365Y0054449D01*
X0377500Y0054362D01*
X0377633Y0054272D01*
X0377764Y0054179D01*
X0377893Y0054083D01*
X0378019Y0053983D01*
X0378143Y0053880D01*
X0378264Y0053775D01*
X0378382Y0053666D01*
X0378498Y0053555D01*
X0378611Y0053440D01*
X0378721Y0053323D01*
X0378828Y0053204D01*
X0378932Y0053081D01*
X0379033Y0052956D01*
X0379131Y0052829D01*
X0379226Y0052699D01*
X0379317Y0052567D01*
X0379406Y0052433D01*
X0379491Y0052296D01*
X0379572Y0052158D01*
X0379650Y0052017D01*
X0379725Y0051875D01*
X0379796Y0051731D01*
X0379863Y0051585D01*
X0379927Y0051437D01*
X0379987Y0051288D01*
X0380043Y0051138D01*
X0380096Y0050986D01*
X0380145Y0050833D01*
X0380190Y0050679D01*
X0380231Y0050524D01*
X0380269Y0050367D01*
X0380302Y0050210D01*
X0380332Y0050052D01*
X0380358Y0049894D01*
X0380379Y0049734D01*
X0380397Y0049575D01*
X0380411Y0049415D01*
X0380421Y0049254D01*
X0380427Y0049094D01*
X0380429Y0048933D01*
X0380427Y0048772D01*
X0380421Y0048612D01*
X0380411Y0048451D01*
X0380397Y0048291D01*
X0380379Y0048132D01*
X0380358Y0047972D01*
X0380332Y0047814D01*
X0380302Y0047656D01*
X0380269Y0047499D01*
X0380231Y0047342D01*
X0380190Y0047187D01*
X0380145Y0047033D01*
X0380096Y0046880D01*
X0380043Y0046728D01*
X0379987Y0046578D01*
X0379927Y0046429D01*
X0379863Y0046281D01*
X0379796Y0046135D01*
X0379725Y0045991D01*
X0379650Y0045849D01*
X0379572Y0045708D01*
X0379491Y0045570D01*
X0379406Y0045433D01*
X0379317Y0045299D01*
X0379226Y0045167D01*
X0379131Y0045037D01*
X0379033Y0044910D01*
X0378932Y0044785D01*
X0378828Y0044662D01*
X0378721Y0044543D01*
X0378611Y0044426D01*
X0378498Y0044311D01*
X0378382Y0044200D01*
X0378264Y0044091D01*
X0378143Y0043986D01*
X0378019Y0043883D01*
X0377893Y0043783D01*
X0377764Y0043687D01*
X0377633Y0043594D01*
X0377500Y0043504D01*
X0377365Y0043417D01*
X0377227Y0043334D01*
X0377088Y0043255D01*
X0376946Y0043178D01*
X0376803Y0043105D01*
X0376658Y0043036D01*
X0376511Y0042971D01*
X0376363Y0042909D01*
X0376213Y0042850D01*
X0376062Y0042796D01*
X0375910Y0042745D01*
X0375756Y0042698D01*
X0375601Y0042655D01*
X0375446Y0042616D01*
X0375289Y0042580D01*
X0375131Y0042548D01*
X0374973Y0042521D01*
X0374814Y0042497D01*
X0374655Y0042477D01*
X0374495Y0042461D01*
X0374334Y0042449D01*
X0374174Y0042441D01*
X0374013Y0042437D01*
X0373853Y0042437D01*
X0373692Y0042441D01*
X0373532Y0042449D01*
X0373371Y0042461D01*
X0373211Y0042477D01*
X0373052Y0042497D01*
X0372893Y0042521D01*
X0372735Y0042548D01*
X0372577Y0042580D01*
X0372420Y0042616D01*
X0372265Y0042655D01*
X0372110Y0042698D01*
X0371956Y0042745D01*
X0371804Y0042796D01*
X0371653Y0042850D01*
X0371503Y0042909D01*
X0371355Y0042971D01*
X0371208Y0043036D01*
X0371063Y0043105D01*
X0370920Y0043178D01*
X0370778Y0043255D01*
X0370639Y0043334D01*
X0370501Y0043417D01*
X0370366Y0043504D01*
X0370233Y0043594D01*
X0370102Y0043687D01*
X0369973Y0043783D01*
X0369847Y0043883D01*
X0369723Y0043986D01*
X0369602Y0044091D01*
X0369484Y0044200D01*
X0369368Y0044311D01*
X0369255Y0044426D01*
X0369145Y0044543D01*
X0369038Y0044662D01*
X0368934Y0044785D01*
X0368833Y0044910D01*
X0368735Y0045037D01*
X0368640Y0045167D01*
X0368549Y0045299D01*
X0368460Y0045433D01*
X0368375Y0045570D01*
X0368294Y0045708D01*
X0368216Y0045849D01*
X0368141Y0045991D01*
X0368070Y0046135D01*
X0368003Y0046281D01*
X0367939Y0046429D01*
X0367879Y0046578D01*
X0367823Y0046728D01*
X0367770Y0046880D01*
X0367721Y0047033D01*
X0367676Y0047187D01*
X0367635Y0047342D01*
X0367597Y0047499D01*
X0367564Y0047656D01*
X0367534Y0047814D01*
X0367508Y0047972D01*
X0367487Y0048132D01*
X0367469Y0048291D01*
X0367455Y0048451D01*
X0367445Y0048612D01*
X0367439Y0048772D01*
X0367437Y0048933D01*
D14*
X0043933Y0048933D03*
X0043933Y0358933D03*
X0373933Y0358933D03*
X0373933Y0048933D03*
D15*
X0343933Y0218933D03*
X0343933Y0278933D03*
X0353933Y0298933D03*
D16*
X0343933Y0298933D03*
X0343933Y0308933D03*
X0343933Y0318933D03*
X0343933Y0328933D03*
X0343933Y0338933D03*
X0343933Y0348933D03*
X0353933Y0348933D03*
X0353933Y0338933D03*
X0353933Y0328933D03*
X0353933Y0318933D03*
X0353933Y0308933D03*
X0353933Y0278933D03*
X0353933Y0268933D03*
X0353933Y0258933D03*
X0353933Y0248933D03*
X0353933Y0238933D03*
X0343933Y0238933D03*
X0343933Y0248933D03*
X0343933Y0258933D03*
X0343933Y0268933D03*
X0353933Y0218933D03*
X0353933Y0208933D03*
X0353933Y0198933D03*
X0353933Y0188933D03*
X0353933Y0178933D03*
X0343933Y0178933D03*
X0343933Y0188933D03*
X0343933Y0198933D03*
X0343933Y0208933D03*
X0293933Y0158933D03*
X0293933Y0148933D03*
X0263933Y0078933D03*
X0263933Y0068933D03*
X0263933Y0058933D03*
D17*
X0173933Y0055933D02*
X0173933Y0061933D01*
X0163933Y0061933D02*
X0163933Y0055933D01*
X0133933Y0055933D02*
X0133933Y0061933D01*
X0123933Y0061933D02*
X0123933Y0055933D01*
M02*
