%
M48
M72
T01C0.02362
T02C0.03740
T03C0.04000
T04C0.05315
T05C0.12598
T06C0.12992
%
T01
X80095Y88933
X80095Y93933
X85095Y93933
X85095Y88933
X90095Y93933
X115095Y121433
X115095Y126433
X131345Y126433
X92595Y158933
X87595Y153933
X71345Y171433
X67595Y183933
X52595Y181433
X52595Y186433
X52595Y191433
X62595Y228933
X47595Y253933
X87595Y288933
X87595Y293933
X87595Y298933
X90095Y248933
X90095Y243933
X90095Y238933
X95095Y238933
X95095Y243933
X100095Y238933
X100095Y233933
X95095Y233933
X90095Y233933
X105095Y233933
X112595Y198933
X115095Y195183
X117595Y191433
X137595Y178933
X147595Y178933
X157595Y178933
X177595Y193933
X182595Y193933
X187595Y193933
X192595Y193933
X197595Y193933
X202595Y193933
X207595Y193933
X217595Y198933
X227595Y198933
X227595Y218933
X232595Y228933
X222595Y233933
X217595Y233933
X212595Y233933
X212595Y238933
X217595Y238933
X222595Y238933
X227595Y238933
X245095Y231433
X252595Y253933
X252595Y258933
X252595Y263933
X252595Y268933
X252595Y273933
X195095Y271433
X195095Y266433
X195095Y261433
X187595Y253933
X167595Y253933
X167595Y263933
X167595Y273933
X153845Y267683
X153845Y260183
X157595Y248933
X137595Y248933
X137595Y258933
X137595Y238933
X166345Y217683
X195095Y276433
X187595Y303933
X182595Y313933
X152595Y278933
X187595Y138933
X147595Y78933
X147595Y73933
X147595Y68933
X147595Y63933
X147595Y58933
X242595Y133933
T02
X83816Y276433
T03
X57595Y78933
X67595Y78933
X67595Y98933
X57595Y98933
X57595Y108933
X57595Y118933
X57595Y128933
X57595Y138933
X57595Y148933
X57595Y158933
X67595Y158933
X67595Y148933
X67595Y138933
X67595Y128933
X67595Y118933
X67595Y108933
X87595Y68933
X87595Y58933
X97595Y58933
X97595Y68933
X107595Y68933
X107595Y58933
X117595Y58933
X117595Y68933
X127595Y68933
X127595Y58933
X137595Y58933
X137595Y68933
X162595Y68933
X162595Y58933
X172595Y58933
X172595Y68933
X182595Y68933
X182595Y58933
X192595Y58933
X192595Y68933
X202595Y68933
X202595Y58933
X212595Y58933
X212595Y68933
X232595Y68933
X232595Y58933
X252595Y83933
X262595Y83933
X237595Y98933
X227595Y98933
X227595Y118933
X237595Y118933
X252595Y193933
X262595Y193933
X207595Y218933
X197595Y218933
X187595Y218933
X147595Y308933
X137595Y308933
X137595Y318933
X147595Y318933
X127595Y318933
X117595Y318933
X117595Y308933
X127595Y308933
X107595Y308933
X97595Y308933
X97595Y318933
X107595Y318933
X77595Y318933
X77595Y308933
X62595Y218933
X62595Y208933
X62595Y198933
X97595Y198933
X97595Y208933
X97595Y218933
T04
X51375Y276433
T05
X259406Y293933
T06
X47595Y328933
X277595Y328933
X277595Y48933
X47595Y48933
X235784Y293933
X247595Y312831
M30
